<?xml version="1.0" encoding="UTF-8"?><svg id="Layer_1" xmlns="http://www.w3.org/2000/svg" xmlns:xlink="http://www.w3.org/1999/xlink" viewBox="0 0 200 200"><defs><style>.cls-1{fill:url(#linear-gradient);}.cls-1,.cls-2,.cls-3,.cls-4{stroke-width:0px;}.cls-5{fill:none;stroke:url(#linear-gradient-4);stroke-linecap:round;stroke-linejoin:round;stroke-width:8px;}.cls-2{fill:url(#linear-gradient-5);}.cls-3{fill:url(#linear-gradient-2);}.cls-4{fill:url(#linear-gradient-3);}</style><linearGradient id="linear-gradient" x1="30.14" y1="21.07" x2="63.43" y2="21.07" gradientUnits="userSpaceOnUse"><stop offset="0" stop-color="#0e90a2"/><stop offset=".32" stop-color="#19a574"/><stop offset="1" stop-color="#90c43c"/></linearGradient><linearGradient id="linear-gradient-2" x1="163.3" y1="21.07" x2="196.6" y2="21.07" xlink:href="#linear-gradient"/><linearGradient id="linear-gradient-3" x1="38.49" y1="87.65" x2="188.27" y2="87.65" xlink:href="#linear-gradient"/><linearGradient id="linear-gradient-4" x1="109.37" y1="82.23" x2="145.77" y2="82.23" xlink:href="#linear-gradient"/><linearGradient id="linear-gradient-5" x1="3.4" y1="143.87" x2="106.82" y2="143.87" xlink:href="#linear-gradient"/></defs><path class="cls-1" d="m38.47,37.72c-2.13,0-4.26-.81-5.89-2.44-3.25-3.25-3.25-8.52,0-11.77L49.23,6.86c3.25-3.25,8.52-3.25,11.77,0,3.25,3.25,3.25,8.52,0,11.77l-16.64,16.65c-1.63,1.63-3.76,2.44-5.89,2.44Z"/><path class="cls-3" d="m188.27,37.72c-2.13,0-4.26-.81-5.89-2.44l-16.65-16.65c-3.25-3.25-3.25-8.52,0-11.77,3.25-3.25,8.52-3.25,11.77,0l16.65,16.65c3.25,3.25,3.25,8.52,0,11.77-1.63,1.63-3.76,2.44-5.89,2.44Z"/><path class="cls-4" d="m166.33,34.69c-14.15-14.15-32.96-21.94-52.97-21.94s-38.81,7.78-52.97,21.94c-13.76,13.76-21.51,31.93-21.91,51.33,5.28-1.52,10.86-2.34,16.62-2.34h.14c2.04-30.28,27.33-54.29,58.12-54.29s58.26,26.13,58.26,58.25-25.11,57.23-56.37,58.23c-.19,5.8-1.2,11.39-2.94,16.66.35.02.7.02,1.05.02,20.01,0,38.82-7.79,52.97-21.94,14.15-14.15,21.94-32.96,21.94-52.97s-7.79-38.81-21.94-52.96Z"/><polyline class="cls-5" points="113.37 48.41 113.37 87.65 141.77 116.05"/><path class="cls-2" d="m55.11,92.16c-28.56,0-51.71,23.15-51.71,51.71s23.15,51.71,51.71,51.71,51.71-23.15,51.71-51.71-23.15-51.71-51.71-51.71Zm22.73,25.28h-15.6c2.74,2.18,4.73,5.3,5.3,9.65h10.31v4.73h-10.21c-.95,9.64-8.6,15.79-20.71,16.17,7.37,7.66,15.41,17.3,23.36,27.04h-9.08c-7.38-8.89-14.28-17.11-23.17-26.57v-5.86h5.2c10.21,0,15.7-4.25,16.36-10.78h-21.56v-4.73h21.28c-1.32-5.48-6.34-8.23-14.56-8.23h-6.71v-6.15h39.81v4.73Z"/></svg>