<?xml version="1.0" encoding="UTF-8"?><svg id="Layer_1" xmlns="http://www.w3.org/2000/svg" xmlns:xlink="http://www.w3.org/1999/xlink" viewBox="0 0 200 200"><defs><style>.cls-1{fill:url(#linear-gradient);}.cls-1,.cls-2,.cls-3,.cls-4,.cls-5,.cls-6,.cls-7{stroke-width:0px;}.cls-2{fill:url(#linear-gradient-6);}.cls-3{fill:url(#linear-gradient-5);}.cls-4{fill:url(#linear-gradient-2);}.cls-5{fill:url(#linear-gradient-7);}.cls-6{fill:url(#linear-gradient-3);}.cls-7{fill:url(#linear-gradient-4);}</style><linearGradient id="linear-gradient" x1="100.11" y1="10.53" x2="100.13" y2="10.53" gradientUnits="userSpaceOnUse"><stop offset="0" stop-color="#0e90a2"/><stop offset=".32" stop-color="#19a574"/><stop offset="1" stop-color="#90c43c"/></linearGradient><linearGradient id="linear-gradient-2" x1="18.66" y1="83.73" x2="100.11" y2="83.73" xlink:href="#linear-gradient"/><linearGradient id="linear-gradient-3" x1="129.3" y1="56.9" x2="181.34" y2="56.9" xlink:href="#linear-gradient"/><linearGradient id="linear-gradient-4" x1="51.17" y1="116.26" x2="181.32" y2="116.26" xlink:href="#linear-gradient"/><linearGradient id="linear-gradient-5" x1="34.91" y1="99.99" x2="120" y2="99.99" xlink:href="#linear-gradient"/><linearGradient id="linear-gradient-6" x1="-6709.71" y1="-6666.65" x2="-6703.58" y2="-6666.65" gradientTransform="translate(-7076.9 -9878.03) rotate(-80.78) scale(1.31 -1.31)" xlink:href="#linear-gradient"/><linearGradient id="linear-gradient-7" x1="-1350.23" y1="-4237.16" x2="-1344.11" y2="-4237.16" gradientTransform="translate(2383.24 -23849.51) scale(1.68 -5.66)" xlink:href="#linear-gradient"/></defs><polygon class="cls-1" points="100.13 10.52 100.11 10.52 100.13 10.53 100.13 10.52"/><polygon class="cls-4" points="87.93 2.39 18.66 2.39 18.66 165.08 26.79 165.08 26.79 10.52 100.11 10.52 87.93 2.39"/><path class="cls-6" d="m140.2,73.79c16.65-3.89,30.68-2.88,41.14,4.46-14.38-17.51-32.06-32.03-52.04-42.72,8.97,10.59,12.94,24.53,10.9,38.26Z"/><path class="cls-7" d="m122.59,91.86s12.38-56.96-27.13-56.96h-44.29v162.71h130.15v-86.46c0-27.79-34.28-25.35-58.73-19.29Zm32.85,83.11c-1.01.62-2.17.95-3.35.95h-76.28c-3.52,0-6.37-2.85-6.37-6.37,0-1.17.32-2.32.93-3.31,9.69-15.91,28.12-47.47,37.2-63.08,1.78-3.04,5.68-4.07,8.72-2.29.9.53,1.66,1.27,2.21,2.15l39.02,63.19c1.85,2.99.92,6.92-2.07,8.77Z"/><polygon class="cls-3" points="120 26.79 108.13 18.65 34.91 18.65 34.91 181.34 43.06 181.34 43.06 26.8 120 26.8 120 26.79"/><circle id="Ellipse_86" class="cls-2" cx="113.86" cy="162.71" r="4"/><path id="Path_27063" class="cls-5" d="m118.85,125.37l-2.45,23.74c-.02.93-.27,1.85-.73,2.66-.76,1.01-2.19,1.21-3.2.45,0,0-.01,0-.02-.01l-.3-.53c-1.39-8.62-2.29-17.31-3.29-25.98-.39-1.81-.21-3.69.53-5.39.79-1.3,2.16-2.14,3.67-2.26,1.5-.11,2.98.4,4.11,1.4.73.63,1.27,1.44,1.56,2.36.27,1.17.31,2.39.11,3.57h0Z"/></svg>