<?xml version="1.0" encoding="UTF-8"?><svg id="Layer_1" xmlns="http://www.w3.org/2000/svg" xmlns:xlink="http://www.w3.org/1999/xlink" viewBox="0 0 200 200"><defs><style>.cls-1{fill:url(#linear-gradient);}.cls-1,.cls-2,.cls-3{stroke-width:0px;}.cls-2{fill:url(#linear-gradient-2);}.cls-3{fill:url(#linear-gradient-3);}</style><linearGradient id="linear-gradient" x1="62.77" y1="71.18" x2="135.4" y2="71.18" gradientUnits="userSpaceOnUse"><stop offset="0" stop-color="#0e90a2"/><stop offset=".32" stop-color="#19a574"/><stop offset="1" stop-color="#90c43c"/></linearGradient><linearGradient id="linear-gradient-2" x1="26.6" y1="81.89" x2="167.32" y2="81.89" xlink:href="#linear-gradient"/><linearGradient id="linear-gradient-3" y1="185.86" x2="131.19" y2="185.86" xlink:href="#linear-gradient"/></defs><path class="cls-1" d="m135.4,71c0,20.06-16.26,36.33-36.33,36.33s-35.64-15.58-36.3-35.06h41.44v-37.23c17.63,2.49,31.19,17.64,31.19,35.96Z"/><path class="cls-2" d="m124.08,161.27h-54.2c-3.93,0-7.11-3.18-7.11-7.11v-13.82c0-1.79-.47-3.59-1.34-5.18-.87-1.59-2.13-2.96-3.65-3.94-.03-.02-.06-.04-.09-.06-9.9-6.66-18-15.79-23.42-26.42-5.42-10.63-8.06-22.55-7.63-34.47,0-.03,0-.07,0-.1.9-17.94,8.47-34.74,21.3-47.31C60.78,10.27,77.73,3.05,95.69,2.52c.03,0,.06,0,.09,0,9.39-.16,18.57,1.52,27.29,5,8.72,3.48,16.54,8.58,23.23,15.17,6.69,6.58,11.93,14.31,15.56,22.97,3.63,8.66,5.47,17.81,5.47,27.2h0c-.02,11.49-2.89,22.91-8.31,33.04-5.41,10.12-13.31,18.86-22.85,25.26-.02.01-.03.02-.05.03-1.51.99-2.76,2.36-3.62,3.95-.86,1.59-1.31,3.39-1.31,5.19v13.82c0,3.93-3.18,7.11-7.11,7.11Zm-47.09-14.22h39.98v-6.71c0-4.15,1.04-8.28,3.01-11.94,1.97-3.65,4.83-6.78,8.29-9.06,7.6-5.1,13.89-12.07,18.21-20.14,4.32-8.08,6.61-17.19,6.63-26.35,0-7.49-1.47-14.79-4.36-21.69-2.9-6.91-7.07-13.08-12.41-18.33-5.34-5.25-11.58-9.32-18.54-12.1-6.94-2.77-14.25-4.11-21.72-3.99-14.36.44-27.91,6.21-38.18,16.26-10.26,10.05-16.31,23.48-17.04,37.82-.33,9.5,1.77,18.99,6.09,27.46,4.32,8.46,10.76,15.74,18.64,21.05,3.47,2.27,6.35,5.39,8.34,9.03,1.99,3.66,3.06,7.79,3.07,11.96v6.73Zm83.22-74.19h0,0Z"/><path class="cls-3" d="m96.98,197.49c-11.24,0-22.38-3.71-31.37-10.46-3.14-2.36-3.78-6.81-1.42-9.95,2.36-3.14,6.81-3.78,9.95-1.42,6.54,4.91,14.65,7.61,22.83,7.61s16.29-2.7,22.83-7.61c3.14-2.36,7.6-1.72,9.95,1.42,2.36,3.14,1.72,7.6-1.42,9.95-8.99,6.74-20.13,10.46-31.37,10.46Z"/></svg>