<?xml version="1.0" encoding="UTF-8"?><svg id="Layer_1" xmlns="http://www.w3.org/2000/svg" xmlns:xlink="http://www.w3.org/1999/xlink" viewBox="0 0 200 200"><defs><style>.cls-1{fill:url(#linear-gradient);}.cls-1,.cls-2,.cls-3,.cls-4,.cls-5{stroke-width:0px;}.cls-3{fill:#fff;}.cls-4{fill:url(#linear-gradient-2);}.cls-5{fill:url(#linear-gradient-3);}</style><linearGradient id="linear-gradient" x1="8.11" y1="111.84" x2="166.54" y2="111.84" gradientUnits="userSpaceOnUse"><stop offset="0" stop-color="#0e90a2"/><stop offset=".32" stop-color="#19a574"/><stop offset="1" stop-color="#90c43c"/></linearGradient><linearGradient id="linear-gradient-2" x1="130.12" y1="75.78" x2="171.36" y2="13.57" xlink:href="#linear-gradient"/><linearGradient id="linear-gradient-3" x1="122.14" y1="1.22" x2="123.11" y2="1.22" xlink:href="#linear-gradient"/></defs><path class="cls-1" d="m121.12,27.2H8.11v169.27h158.43V27.2h-45.42ZM21.92,75.63c.95-.81,2.38-.7,3.19.25l3.73,4.35,9.9-9.9c.88-.88,2.32-.88,3.2,0s.88,2.32,0,3.2l-11.63,11.63c-.43.43-1,.66-1.6.66-.03,0-.06,0-.09,0-.63-.02-1.22-.31-1.63-.79l-5.32-6.2c-.81-.95-.7-2.38.25-3.19Zm20.02,73.96l-11.63,11.63c-.43.43-1,.66-1.6.66-.03,0-.06,0-.09,0-.63-.02-1.22-.31-1.63-.79l-5.32-6.2c-.81-.95-.7-2.38.25-3.19.95-.81,2.38-.7,3.19.25l3.73,4.35,9.9-9.9c.88-.88,2.32-.88,3.2,0,.88.88.88,2.32,0,3.2Zm1.4-41.44l-11.63,11.63c-.43.43-1,.66-1.6.66-.03,0-.06,0-.09,0-.63-.02-1.22-.31-1.63-.79l-5.32-6.2c-.81-.95-.7-2.38.25-3.19s2.38-.7,3.19.25l3.73,4.35,9.9-9.9c.88-.88,2.32-.88,3.2,0,.88.88.88,2.32,0,3.2Zm74.05-22.08c1.24,0,2.25,1.42,2.25,3.17s-1.01,3.17-2.25,3.17h-56.12c-1.24,0-2.25-1.42-2.25-3.17s1.01-3.17,2.25-3.17h56.12Zm-58.36-16.79c0-1.75,1.42-3.17,3.17-3.17h45.4c1.75,0,3.17,1.42,3.17,3.17s-1.42,3.17-3.17,3.17h-45.4c-1.75,0-3.17-1.42-3.17-3.17Zm48.57,63.05h-45.4c-1.75,0-3.17-1.42-3.17-3.17s1.42-3.17,3.17-3.17h45.4c1.75,0,3.17,1.42,3.17,3.17s-1.42,3.17-3.17,3.17Zm33.68,13.62c1.75,0,3.17,1.42,3.17,3.17s-1.42,3.17-3.17,3.17H62.2c-1.75,0-3.17-1.42-3.17-3.17s1.42-3.17,3.17-3.17h79.07Zm17.28,26.3H62.2c-1.75,0-3.17-1.42-3.17-3.17s1.42-3.17,3.17-3.17h96.36c1.75,0,3.17,1.42,3.17,3.17s-1.42,3.17-3.17,3.17Zm0-59.88H62.2c-1.75,0-3.17-1.42-3.17-3.17s1.42-3.17,3.17-3.17h96.36c1.75,0,3.17,1.42,3.17,3.17s-1.42,3.17-3.17,3.17Z"/><path class="cls-3" d="m145.84,85.82c-2.67,0-4.85-2.17-4.85-4.85v-1.11c-2.89-.79-5.65-1.93-8.25-3.41l-.78.78c-.92.92-2.13,1.42-3.43,1.42s-2.51-.5-3.43-1.42l-6.93-6.93c-1.89-1.89-1.89-4.96,0-6.85l.78-.78c-1.47-2.6-2.61-5.36-3.41-8.25h-1.11c-2.67,0-4.85-2.17-4.85-4.85v-9.8c0-2.67,2.17-4.85,4.85-4.85h1.11c.79-2.89,1.93-5.65,3.41-8.25l-.78-.78c-1.89-1.89-1.89-4.96,0-6.85l6.93-6.93c.92-.92,2.13-1.42,3.43-1.42s2.51.5,3.43,1.42l.78.78c2.6-1.47,5.36-2.62,8.25-3.41v-1.11c0-2.67,2.17-4.85,4.85-4.85h9.8c2.67,0,4.85,2.17,4.85,4.85v1.11c2.89.79,5.65,1.94,8.25,3.41l.78-.78c.92-.92,2.13-1.42,3.43-1.42s2.51.5,3.43,1.42l6.93,6.93c.92.91,1.42,2.13,1.42,3.43s-.5,2.51-1.42,3.43l-.78.78c1.47,2.6,2.62,5.36,3.41,8.25h1.11c2.67,0,4.85,2.17,4.85,4.85v9.8c0,2.67-2.17,4.85-4.85,4.85h-1.11c-.79,2.89-1.93,5.65-3.41,8.25l.78.78c.92.92,1.42,2.13,1.42,3.43s-.5,2.51-1.42,3.43l-6.93,6.93c-.91.92-2.13,1.42-3.43,1.42s-2.51-.5-3.43-1.42l-.78-.78c-2.6,1.47-5.36,2.62-8.25,3.41v1.11c0,2.67-2.17,4.85-4.85,4.85h-9.8Z"/><path class="cls-4" d="m187.04,39h-3.74c-.37,0-.67-.26-.74-.62-.84-4.29-2.52-8.27-4.87-11.77-.2-.3-.17-.7.09-.96l2.64-2.64c.3-.3.3-.79,0-1.09l-6.93-6.93c-.3-.3-.79-.3-1.09,0l-2.64,2.64c-.26.26-.66.29-.96.09-3.5-2.35-7.48-4.03-11.77-4.87-.36-.07-.62-.38-.62-.74v-3.74c0-.42-.34-.77-.77-.77h-9.8c-.42,0-.77.34-.77.77v3.74c0,.37-.26.67-.62.74-4.29.84-8.27,2.52-11.77,4.87-.3.2-.7.17-.96-.09l-2.64-2.64c-.3-.3-.79-.3-1.09,0l-6.93,6.93c-.3.3-.3.79,0,1.09l2.64,2.64c.26.26.29.66.09.96-2.35,3.5-4.02,7.48-4.87,11.77-.07.36-.38.62-.74.62h-3.74c-.42,0-.77.34-.77.77v9.8c0,.42.34.77.77.77h3.74c.37,0,.67.26.74.62.84,4.29,2.52,8.27,4.87,11.77.2.3.17.7-.09.96l-2.64,2.64c-.3.3-.3.79,0,1.09l6.93,6.93c.3.3.79.3,1.09,0l2.64-2.64c.26-.26.66-.29.96-.09,3.5,2.35,7.48,4.03,11.77,4.87.36.07.62.38.62.74v3.74c0,.42.34.77.77.77h9.8c.42,0,.77-.34.77-.77v-3.74c0-.37.26-.67.62-.74,4.29-.84,8.27-2.52,11.77-4.87.3-.2.7-.17.96.09l2.64,2.64c.3.3.79.3,1.09,0l6.93-6.93c.3-.3.3-.79,0-1.09l-2.64-2.64c-.26-.26-.29-.66-.09-.96,2.35-3.5,4.02-7.48,4.87-11.77.07-.36.38-.62.74-.62h3.74c.42,0,.77-.34.77-.77v-9.8c0-.42-.34-.77-.77-.77Zm-19.94,7.82c-.93,7.34-6.86,13.27-14.21,14.21-10.77,1.37-19.87-7.73-18.5-18.5.93-7.34,6.86-13.27,14.21-14.21,10.77-1.37,19.87,7.73,18.5,18.5Z"/><path class="cls-5" d="m122.14.95c.37.08.71.27.97.54-.27-.25-.6-.44-.97-.54Z"/><path class="cls-2" d="m119.55-62.26v.21c.01.07.02.14.04.21-.03-.14-.04-.28-.04-.42ZM122.14.95c.37.1.7.29.97.54-.26-.27-.6-.46-.97-.54Zm0,0c.37.1.7.29.97.54-.26-.27-.6-.46-.97-.54Zm0,0c.37.1.7.29.97.54-.26-.27-.6-.46-.97-.54Z"/><path class="cls-2" d="m123.11,1.49c-.27-.25-.6-.44-.97-.54.37.08.71.27.97.54Z"/></svg>