<?xml version="1.0" encoding="UTF-8"?><svg id="Layer_1" xmlns="http://www.w3.org/2000/svg" xmlns:xlink="http://www.w3.org/1999/xlink" viewBox="0 0 200 200"><defs><style>.cls-1{fill:url(#linear-gradient);}.cls-1,.cls-2,.cls-3,.cls-4{stroke-width:0px;}.cls-2{fill:url(#linear-gradient-2);}.cls-3{fill:url(#linear-gradient-3);}.cls-4{fill:url(#linear-gradient-4);}</style><linearGradient id="linear-gradient" x1="1.75" y1="26.31" x2="41.05" y2="26.31" gradientUnits="userSpaceOnUse"><stop offset="0" stop-color="#0e90a2"/><stop offset=".32" stop-color="#19a574"/><stop offset="1" stop-color="#90c43c"/></linearGradient><linearGradient id="linear-gradient-2" x1="158.95" y1="26.31" x2="198.25" y2="26.31" xlink:href="#linear-gradient"/><linearGradient id="linear-gradient-3" x1="11.57" y1="104.91" x2="188.43" y2="104.91" xlink:href="#linear-gradient"/><linearGradient id="linear-gradient-4" x1="47" y1="104.91" x2="153" y2="104.91" xlink:href="#linear-gradient"/></defs><path class="cls-1" d="m11.57,45.96c-2.51,0-5.03-.96-6.95-2.88-3.84-3.84-3.84-10.06,0-13.9L24.27,9.54c3.84-3.84,10.06-3.84,13.9,0,3.84,3.84,3.84,10.06,0,13.9l-19.65,19.65c-1.92,1.92-4.43,2.88-6.95,2.88Z"/><path class="cls-2" d="m188.43,45.96c-2.51,0-5.03-.96-6.95-2.88l-19.65-19.65c-3.84-3.84-3.84-10.06,0-13.9,3.84-3.84,10.06-3.84,13.9,0l19.65,19.65c3.84,3.84,3.84,10.06,0,13.9-1.92,1.92-4.43,2.88-6.95,2.88Z"/><path class="cls-3" d="m100,193.34c-23.62,0-45.83-9.2-62.53-25.9-16.7-16.7-25.9-38.91-25.9-62.53s9.2-45.83,25.9-62.53c16.7-16.7,38.91-25.9,62.53-25.9s45.83,9.2,62.53,25.9c16.7,16.7,25.9,38.91,25.9,62.53s-9.2,45.83-25.9,62.53c-16.7,16.7-38.91,25.9-62.53,25.9Zm0-157.21c-37.92,0-68.78,30.85-68.78,68.78s30.85,68.78,68.78,68.78,68.78-30.85,68.78-68.78-30.85-68.78-68.78-68.78Z"/><path class="cls-4" d="m153,104.65c0,29.28-23.74,53.02-53.02,53.02s-52.01-22.74-52.98-51.16h60.48v-54.34c25.73,3.64,45.52,25.75,45.52,52.49Z"/></svg>