<?xml version="1.0" encoding="UTF-8"?><svg id="Layer_1" xmlns="http://www.w3.org/2000/svg" xmlns:xlink="http://www.w3.org/1999/xlink" viewBox="0 0 200 200"><defs><style>.cls-1{fill:url(#linear-gradient);stroke-width:0px;}.cls-2{fill:none;stroke:url(#linear-gradient-2);stroke-linecap:round;stroke-linejoin:round;stroke-width:7px;}</style><linearGradient id="linear-gradient" x1="54.56" y1="161.12" x2="135.6" y2="38.88" gradientUnits="userSpaceOnUse"><stop offset="0" stop-color="#0e90a2"/><stop offset=".32" stop-color="#19a574"/><stop offset="1" stop-color="#90c43c"/></linearGradient><linearGradient id="linear-gradient-2" x1="-2.76" y1="146.07" x2="110.82" y2="-25.26" gradientTransform="translate(65.32 32.72) rotate(11.8)" gradientUnits="userSpaceOnUse"><stop offset="0" stop-color="#0e90a2"/><stop offset=".32" stop-color="#19a574"/><stop offset="1" stop-color="#90c43c"/></linearGradient></defs><path class="cls-1" d="m166.42,88.86h-7.35c-.67,0-1.25-.45-1.42-1.1l-32.66,24.77c-4.39,10.41-14.14,18.14-25.67,19.61-11.45,1.45-21.95-3.11-28.73-10.96l-29.01,13.45c.18.29.37.57.56.86.4.59.33,1.38-.18,1.89l-5.18,5.18c-.59.58-.59,1.54,0,2.13l13.62,13.62c.59.59,1.54.59,2.13,0l5.18-5.18c.51-.51,1.29-.58,1.89-.18,6.88,4.61,14.7,7.91,23.13,9.56.71.14,1.22.75,1.22,1.47v7.35c0,.83.67,1.5,1.51,1.5h19.26c.83,0,1.51-.67,1.51-1.5v-7.35c0-.72.51-1.33,1.22-1.47,8.42-1.65,16.24-4.94,23.13-9.56.59-.41,1.38-.33,1.89.18l5.18,5.18c.59.59,1.54.59,2.13,0l13.62-13.62c.59-.59.59-1.55,0-2.13l-5.18-5.18c-.51-.51-.58-1.3-.18-1.89,4.61-6.88,7.91-14.71,9.57-23.14.14-.7.74-1.21,1.46-1.21h7.35c.83,0,1.5-.68,1.5-1.51v-19.26c0-.84-.67-1.51-1.5-1.51Zm-13.02-31.42c.59-.59.59-1.55,0-2.14l-13.62-13.62c-.59-.59-1.54-.59-2.13,0l-5.18,5.18c-.51.51-1.3.57-1.89.18-6.88-4.62-14.7-7.91-23.13-9.57-.71-.14-1.22-.75-1.22-1.46v-7.35c0-.83-.68-1.51-1.51-1.51h-19.26c-.84,0-1.51.68-1.51,1.51v7.35c0,.71-.51,1.32-1.22,1.46-8.42,1.65-16.24,4.94-23.13,9.57-.6.4-1.38.33-1.89-.18l-5.18-5.18c-.59-.59-1.54-.59-2.13,0l-13.62,13.62c-.59.59-.59,1.55,0,2.14l5.18,5.18c.51.51.57,1.29.18,1.89-4.62,6.88-7.91,14.7-9.57,23.13-.14.7-.74,1.22-1.46,1.22h-7.35c-.83,0-1.5.67-1.5,1.51v19.26c0,.83.67,1.51,1.5,1.51h7.35c.72,0,1.32.51,1.46,1.21.25,1.25.53,2.47.85,3.69l29.36-13.62c-.17-2.17-.11-4.39.18-6.65,1.84-14.43,13.49-26.09,27.91-27.91,15.07-1.92,28.49,6.6,33.97,19.31l25.36-19.22c-.68-1.17-1.4-2.32-2.15-3.44-.41-.6-.33-1.38.18-1.89l5.18-5.18Z"/><path class="cls-2" d="m4.45,141.52l81.97-39.63,20.41,8.95,61.63-40.64,26.07-16.46s.33-.21.94-.59l.05-.25-29.15-6.09-1.79-.37,2.03.39,28.94,5.59-5.59,28.94"/></svg>