<?xml version="1.0" encoding="UTF-8"?><svg id="Layer_1" xmlns="http://www.w3.org/2000/svg" xmlns:xlink="http://www.w3.org/1999/xlink" viewBox="0 0 200 200"><defs><style>.cls-1{fill:url(#linear-gradient);}.cls-1,.cls-2{stroke-width:0px;}.cls-2{fill:url(#linear-gradient-2);}</style><linearGradient id="linear-gradient" x1="60.33" y1="62.6" x2="153.3" y2="62.6" gradientUnits="userSpaceOnUse"><stop offset="0" stop-color="#0e90a2"/><stop offset=".32" stop-color="#19a574"/><stop offset="1" stop-color="#90c43c"/></linearGradient><linearGradient id="linear-gradient-2" x1="3" y1="151.88" x2="197" y2="151.88" gradientUnits="userSpaceOnUse"><stop offset="0" stop-color="#0e90a2"/><stop offset=".32" stop-color="#19a574"/><stop offset="1" stop-color="#90c43c"/></linearGradient></defs><g id="icons_Q2"><path class="cls-1" d="m106.82,5.77s-46.49,13.17-46.49,15.5v47c0,23.76,34.35,44.68,43.9,50.36,1.56,1.04,3.6,1.04,5.17,0,9.81-5.42,43.9-26.6,43.9-50.36V21.27c0-2.32-46.49-15.5-46.49-15.5Zm24.28,42.35l-28.41,28.41c-1.83,2-4.94,2.13-6.93.3-.1-.1-.2-.19-.3-.3l-12.65-12.65c-1.92-1.8-2.35-4.69-1.03-6.97,1.65-2.33,4.87-2.87,7.2-1.22.29.21.56.44.8.71l9.3,9.3,24.79-24.79c2.28-1.71,5.52-1.25,7.23,1.03,1.38,1.84,1.38,4.36,0,6.2Z"/></g><path class="cls-2" d="m193.06,112.81c5.43,4.97,5.09,13.84-.13,19.06l-44.86,44.86c-3.19,3.19-7.52,4.98-12.03,4.98H56.75c-7.53,0-11.34,4.04-16.99,9.88-1.88,1.94-4.59,2.91-7.27,2.56-16.65-2.19-29.48-16.42-29.48-33.67v-17.71c0-2.25.89-4.41,2.49-6l13.76-13.76c3.19-3.19,7.52-4.98,12.03-4.98h24.11c13.88,0,12.91,12.74,26.83,12.74h31.16c6.66,0,12.74,5.39,12.74,12.74,0,6.96-5.56,12.74-12.74,12.74h-55.19c0,4.67,3.82,8.49,8.49,8.49h50.36c4.5,0,8.82-1.79,12.01-4.97l46.48-46.48c2.46-2.46,5.73-3.74,9-3.74,3.06,0,6.11,1.1,8.53,3.27Z"/></svg>