<?xml version="1.0" encoding="UTF-8"?><svg id="Layer_1" xmlns="http://www.w3.org/2000/svg" xmlns:xlink="http://www.w3.org/1999/xlink" viewBox="0 0 200 200"><defs><style>.cls-1{fill:url(#linear-gradient);stroke-width:0px;}</style><linearGradient id="linear-gradient" x1="3.67" y1="100" x2="196.33" y2="100" gradientUnits="userSpaceOnUse"><stop offset="0" stop-color="#0e90a2"/><stop offset=".32" stop-color="#19a574"/><stop offset="1" stop-color="#90c43c"/></linearGradient></defs><path class="cls-1" d="m3.67,190.22c0,3.38,2.74,6.12,6.12,6.12h180.43c3.38,0,6.12-2.74,6.12-6.12V9.78c0-3.38-2.74-6.12-6.12-6.12H9.78c-3.38,0-6.12,2.74-6.12,6.12v180.43Zm161.85-100.12s0-.05,0-.07v-43.93c0-.77.63-1.4,1.4-1.4s1.4.63,1.4,1.4v43.93s0,.05,0,.07c7.56.7,13.48,7.06,13.48,14.8s-5.92,14.09-13.48,14.8c0,.03,0,.05,0,.07v34.13c0,.77-.63,1.4-1.4,1.4s-1.4-.63-1.4-1.4v-34.13s0-.05,0-.07c-7.56-.7-13.48-7.06-13.48-14.8s5.92-14.09,13.48-14.8Zm-44.6-29.06s0-.05,0-.07v-14.87c0-.77.63-1.4,1.4-1.4s1.4.63,1.4,1.4v14.87s0,.05,0,.07c7.56.7,13.48,7.06,13.48,14.8s-5.92,14.09-13.48,14.8c0,.02,0,.05,0,.07v63.19c0,.77-.63,1.4-1.4,1.4s-1.4-.63-1.4-1.4v-63.19s0-.05,0-.07c-7.56-.7-13.48-7.06-13.48-14.8s5.92-14.09,13.48-14.8Zm-44.61,47.19s0-.05,0-.07v-62.06c0-.77.63-1.4,1.4-1.4s1.4.63,1.4,1.4v62.06s0,.05,0,.07c7.56.7,13.48,7.06,13.48,14.8s-5.92,14.09-13.48,14.8c0,.02,0,.05,0,.07v16c0,.77-.63,1.4-1.4,1.4s-1.4-.63-1.4-1.4v-16s0-.05,0-.07c-7.56-.7-13.48-7.06-13.48-14.8s5.92-14.09,13.48-14.8ZM31.7,61.04s0-.05,0-.07v-14.87c0-.77.63-1.4,1.4-1.4s1.4.63,1.4,1.4v14.87s0,.05,0,.07c7.56.7,13.48,7.06,13.48,14.8s-5.92,14.09-13.48,14.8c0,.02,0,.05,0,.07v63.19c0,.77-.63,1.4-1.4,1.4s-1.4-.63-1.4-1.4v-63.19s0-.05,0-.07c-7.56-.7-13.48-7.06-13.48-14.8s5.92-14.09,13.47-14.8Z"/></svg>