<?xml version="1.0" encoding="UTF-8"?><svg id="Layer_1" xmlns="http://www.w3.org/2000/svg" xmlns:xlink="http://www.w3.org/1999/xlink" viewBox="0 0 200 200"><defs><style>.cls-1{fill:url(#linear-gradient);stroke-width:0px;}</style><linearGradient id="linear-gradient" x1="1.25" y1="100" x2="198.75" y2="100" gradientUnits="userSpaceOnUse"><stop offset="0" stop-color="#0e90a2"/><stop offset=".32" stop-color="#19a574"/><stop offset="1" stop-color="#90c43c"/></linearGradient></defs><g id="Validation-Filled"><path class="cls-1" d="m174.69,69.12c-4.58-10.95,3.41-30.61-4.85-38.87s-27.92-.27-38.87-4.85c-10.59-4.49-18.76-24.15-30.97-24.15s-20.38,19.66-30.88,24.06c-11.04,4.58-30.7-3.41-38.96,4.85-8.26,8.26-.27,27.92-4.85,38.96-4.4,10.5-24.06,18.67-24.06,30.88s19.66,20.38,24.06,30.88c4.58,10.95-3.41,30.61,4.85,38.87,8.26,8.26,27.92.27,38.87,4.85,10.59,4.49,18.76,24.15,30.97,24.15s20.38-19.66,30.88-24.06c10.95-4.58,30.61,3.41,38.87-4.85s.27-27.92,4.85-38.87c4.49-10.59,24.15-18.76,24.15-30.97s-19.66-20.38-24.06-30.88Zm-83.67,70.47l-33.31-33.31,12.66-12.66,20.65,20.65,47.49-47.49,12.66,12.66-60.15,60.15Z"/></g></svg>