<?xml version="1.0" encoding="UTF-8"?><svg id="Layer_1" xmlns="http://www.w3.org/2000/svg" viewBox="0 0 4506.87 955.6"><defs><style>.cls-1{fill:#20a676;}</style></defs><path d="M3636.24,243.77V91.14h-314.28v152.63h0c36.94,0,66.88,29.94,66.88,66.88v365.68c0,36.94-29.94,66.88-66.88,66.88h0v152.63h314.28v-152.63h0c-36.94,0-66.88-29.94-66.88-66.88v-365.68c0-36.94,29.94-66.88,66.88-66.88h0Z"/><path d="M4408.71,749.09c60.2-73.66,90.3-162.44,90.3-266.25,0-123.32-40.23-223.75-120.75-301.19-80.47-77.49-178.63-116.21-294.44-116.21s-214.17,38.57-295.04,115.66c-80.87,77.09-121.25,177.67-121.25,301.75s40.38,223.6,121.25,300.69c80.87,77.09,179.18,115.66,295.04,115.66,75.98,0,145.15-17.29,207.57-51.93l98.16,108.35,117.32-99.32-98.16-107.19ZM4283.52,610.34l-117.37-128.62-118.43,99.27,117.32,128.62c-27.07,9.02-54.15,13.56-81.22,13.56-61.71,0-115.66-20.67-161.89-62.06-46.28-41.34-69.42-101.14-69.42-179.39s23.14-138.19,69.42-179.94c46.23-41.75,100.18-62.62,161.89-62.62s115.46,20.87,161.34,62.62c45.88,41.75,68.82,101.74,68.82,179.94,0,48.91-10.18,91.76-30.45,128.62Z"/><path class="cls-1" d="M1078.43,551.71v344.33h-142.14V299.28h138.47v79.65c18.78-32.67,43.9-56.98,75.36-72.91,31.44-15.93,65.14-23.89,101.1-23.89,70.24,0,123.76,22.06,160.52,66.17,36.76,44.11,55.14,100.9,55.14,170.33v377.41h-142.14v-352.91c0-40.02-9.8-72.09-29.41-96.19-19.61-24.09-50.66-36.15-93.12-36.15-39.22,0-69.66,13.29-91.29,39.82-21.65,26.56-32.47,60.25-32.47,101.09Z"/><path class="cls-1" d="M1901.87,280.9c89.86,0,163.99,29.83,222.4,89.45,58.4,59.64,87.62,135.21,87.62,226.69s-29.22,167.26-87.62,227.31c-58.41,60.04-132.55,90.06-222.4,90.06s-162.78-30.02-221.18-90.06c-58.41-60.05-87.61-135.81-87.61-227.31s29.2-167.05,87.61-226.69c58.4-59.62,132.13-89.45,221.18-89.45ZM1783.62,736.13c32.26,33.91,71.68,50.86,118.25,50.86s85.97-16.74,118.25-50.24c32.26-33.49,48.4-80.05,48.4-139.7s-16.14-104.77-48.4-137.85c-32.28-33.09-71.69-49.63-118.25-49.63s-85.99,16.54-118.25,49.63c-32.28,33.08-48.4,79.03-48.4,137.85s16.12,105.2,48.4,139.08Z"/><path class="cls-1" d="M2490.05,896.04h-140.92V299.28h136.01v75.97c16.33-29.41,41.05-52.27,74.14-68.62,33.08-16.33,67.18-24.51,102.32-24.51,40.01,0,75.97,9,107.83,26.96,31.86,17.98,55.54,44.12,71.07,78.43,41.66-70.25,106.19-105.38,193.61-105.38,58.82,0,108.64,19.2,149.49,57.59,40.84,38.41,61.27,94.78,61.27,169.1v387.22h-137.24v-363.94c0-36.76-9.61-66.36-28.8-88.84-19.2-22.46-48-33.7-86.39-33.7s-66.59,12.68-89.45,37.99c-22.88,25.33-34.31,56.79-34.31,94.35v354.13h-139.69v-363.94c0-36.76-9.61-66.36-28.79-88.84-19.21-22.46-48-33.7-86.39-33.7s-67.61,12.47-90.07,37.37c-22.48,24.93-33.7,56.58-33.7,94.97v354.13Z"/><path class="cls-1" d="M500.39,353.26c-43.16-43.16-113.19-43.16-156.39.05-43.16,43.16-43.16,113.19,0,156.34,43.21,43.21,113.24,43.21,156.39.05,43.21-43.21,43.21-113.24,0-156.45ZM370.06,493.12c2.07,2.07,2.07,5.44,0,7.56-2.07,2.07-5.5,2.07-7.56,0-38.17-38.12-38.17-100.18,0-138.35,2.07-2.07,5.5-2.07,7.56,0,2.07,2.12,2.12,5.5,0,7.56-33.98,33.98-33.98,89.24,0,123.22Z"/><path class="cls-1" d="M844.39,894.7h-160.08l-81.88-217.5h-170.71v-105.27c32.77-2.17,64.99-15.78,90.05-40.84,54.95-55.01,54.9-144.14-.05-199.15-54.96-54.9-144.09-54.95-199.1,0-54.96,55.01-54.91,144.14,0,199.1,22.49,22.44,50.67,35.75,79.91,39.83v106.33h-166.68l-80.67,217.5H0L321.61,68.5c9.43-24.25,32.77-40.23,58.84-40.23h83.49c26.02,0,49.41,15.98,58.84,40.23l321.61,826.19Z"/></svg>