<?xml version="1.0" encoding="UTF-8"?><svg id="Layer_1" xmlns="http://www.w3.org/2000/svg" xmlns:xlink="http://www.w3.org/1999/xlink" viewBox="0 0 200 200"><defs><style>.cls-1{fill:url(#linear-gradient);}</style><linearGradient id="linear-gradient" x1="33.2" y1="147.97" x2="165.21" y2="15.96" gradientTransform="translate(0 200) scale(1 -1)" gradientUnits="userSpaceOnUse"><stop offset="0" stop-color="#1b8ea1"/><stop offset=".3" stop-color="#20a476"/><stop offset="1" stop-color="#73bd44"/></linearGradient></defs><path class="cls-1" d="M31.02,82.67l-21.46,41.53c-14.3,35.49,11.88,74.28,50.82,72.86,18.5-.68,36.12-11.74,44.41-28.39-8.48-11.92-11.79-27.29-9.19-41.71,4.85-26.96,27.82-47.4,55.23-47.46l.37-.44c9.3-18.52,6.65-41.17-6.48-57.05C121.57-5.98,78.66-2.47,59.43,27.62l-21.43,41.55,47.88,24.72c.4.21,2.01,2.64,2.27,3.26,2.07,4.93-1.94,10.67-7.21,10.39-.37-.02-2.32-.28-2.43-.34l-47.48-24.52ZM110.47,144.79c-5.56-29.54,20.69-55.87,50.1-49.84,39.54,8.11,46.95,60.51,11.68,79.25l-22.05-68.97c-4.63-8.83-16.5-3.7-14.14,5.51,7.47,22.05,13.69,44.56,21.22,66.59.16.48.44.96.9,1.21-22,4.28-43.64-12.13-47.71-33.74Z"/></svg>