<?xml version="1.0" encoding="UTF-8"?>
<svg id="Layer_1" data-name="Layer 1" xmlns="http://www.w3.org/2000/svg" xmlns:xlink="http://www.w3.org/1999/xlink" viewBox="0 0 200 200">
  <defs>
    <style>
      .cls-1 {
        fill: url(#linear-gradient-2);
      }

      .cls-2 {
        fill: url(#linear-gradient);
      }
    </style>
    <linearGradient id="linear-gradient" x1="1531.35" y1="-3751.89" x2="1536.48" y2="-3751.89" gradientTransform="translate(-45655.56 -128000.16) scale(29.82 -34.14)" gradientUnits="userSpaceOnUse">
      <stop offset="0" stop-color="#0e90a2"/>
      <stop offset=".32" stop-color="#19a574"/>
      <stop offset="1" stop-color="#90c43c"/>
    </linearGradient>
    <linearGradient id="linear-gradient-2" x1="1502.52" y1="-3873.56" x2="1507.64" y2="-3873.56" gradientTransform="translate(-27753.12 -72954.06) scale(18.53 -18.87)" xlink:href="#linear-gradient"/>
  </defs>
  <g id="Group_15957" data-name="Group 15957">
    <path id="Path_27051" data-name="Path 27051" class="cls-2" d="M119.4,31.81c8.37,9.32,12.13,21.89,10.25,34.27,15.64-3.48,28.83-2.56,38.65,4.01-13.66-15.82-30.27-28.82-48.9-38.28ZM113.09,82.29s11.63-51.03-25.49-51.03h-41.58v145.78h55.92c-4.16-2.1-7.98-4.82-11.32-8.08-17.36-16.72-17.87-44.34-1.16-61.7.38-.39.76-.78,1.16-1.16,18.18-17.47,46.92-17.47,65.1,0,6.42,6.21,10.8,14.23,12.55,22.99v-29.53c-.02-24.93-32.19-22.71-55.19-17.28h0ZM163.99,157.99l4.29,4.16v-16.13c-.84,4.18-2.28,8.21-4.29,11.96h0ZM99.51,16.69H30.74v145.78h7.64V23.97h72.27l-11.14-7.29ZM80.55,2.11H15.48v145.78h7.64V9.39h68.9l-11.46-7.29Z"/>
    <path id="Path_27052" data-name="Path 27052" class="cls-1" d="M183.07,189.4l-29.79-30.28c10.66-14.44,9.3-34.48-3.21-47.35-13.47-13.84-35.6-14.14-49.44-.68-.23.22-.46.45-.68.68-13.84,14.23-13.84,36.88,0,51.11,12.36,12.71,32.27,14.15,46.33,3.36l29.67,30.16c.94.96,2.24,1.5,3.59,1.5,1.31.01,2.57-.5,3.5-1.43,1.97-1.93,1.99-5.09.06-7.06,0,0,0,0,0,0h-.02ZM142.52,124.84c-1.52,1.49-3.96,1.47-5.45-.05,0,0,0,0,0,0-6.45-6.65-17.07-6.81-23.72-.36-.12.12-.24.24-.36.36-1.52,1.49-3.97,1.47-5.46-.06-1.45-1.48-1.47-3.84-.06-5.35,9.43-9.7,24.93-9.92,34.63-.49.17.16.33.32.49.49,1.49,1.52,1.47,3.96-.05,5.45,0,0,0,0,0,0h-.02Z"/>
  </g>
</svg>