<?xml version="1.0" encoding="UTF-8"?><svg id="Layer_1" xmlns="http://www.w3.org/2000/svg" xmlns:xlink="http://www.w3.org/1999/xlink" viewBox="0 0 200 200"><defs><style>.cls-1{fill:url(#linear-gradient);}</style><linearGradient id="linear-gradient" x1="9.39" y1="100" x2="190.61" y2="100" gradientUnits="userSpaceOnUse"><stop offset="0" stop-color="#1b8ea1"/><stop offset=".3" stop-color="#20a476"/><stop offset="1" stop-color="#73bd44"/></linearGradient></defs><path class="cls-1" d="M93.95,42.74c2.56-.59,12.23-.58,14.18.96,1.94,1.53,1.69,6.93,3.81,10.17,3.36,5.14,10.16,6.64,15.62,4.09,2.92-1.36,4.69-4.99,8.21-2.91.82.48,9.6,9.46,9.79,10.14.78,2.82-2.14,4.55-3.25,6.78-3.89,7.77.15,15.8,8.31,18.28,3.01.91,5.93-.97,6.78,4.26.39,2.4.38,11.3-.77,13.13-1.63,2.59-4.5,1.47-6.74,2.09-7.58,2.1-11.23,11.27-7.58,18.27,1.53,2.92,4.95,3.82,2.66,7.72-.75,1.28-9.63,9.64-10.82,9.74-3.76-1.11-6.14-4.53-10.27-4.96-4.91-.51-10.19,2.02-12.69,6.32-1.76,3.03-.98,9.25-4.16,9.82-1.76.32-13.1.23-14.35-.37-2.47-1.17-1.98-5.39-2.7-7.6-2.04-6.3-9.38-9.34-15.56-7.71-4.14,1.09-6.04,6.32-10.39,3.51-1.88-1.21-9-8.54-9.25-10.54-.37-2.94,2.16-3.84,3.2-5.73,3.71-6.73.41-16.24-7.2-18.35-2.7-.75-6.62.48-7.4-3.64-.31-1.65-.23-13.38.34-14.34,1.62-1.83,4.22-1.17,6.3-1.8,6.93-2.09,10.91-8.55,9.03-15.72-1.09-4.16-6.02-6.52-3.51-10.39.68-1.05,9.04-9.32,9.69-9.51,2.79-.77,7.26,4.53,11.82,4.89,5.45.43,11.79-4.03,13.23-9.22.77-2.77-.68-6.4,3.64-7.4ZM99.19,75.88c-31.75,1.55-29.64,51.06,4.16,47.64,29.13-2.94,26.4-49.13-4.16-47.64ZM45.6,172.84l16.66,9.46c70.03,31.66,144.84-31.92,125.15-106.02-.65-2.46-3.62-12.05-4.9-13.5-2.08-2.37-6.45-1.35-6.66,2.31-.07,1.28,4.82,13.72,5.53,17.21,12.21,59.58-39.43,111.4-99.03,99.03-12.05-2.5-22.07-7.96-32.35-14.38l-5.36-2.63-2.11,6.05,3.06,2.48ZM156.09,32.67l-.86-4.8C86.3-23.45-9.65,39.64,12.69,123.69c.65,2.46,3.62,12.05,4.9,13.5,2.08,2.37,6.45,1.35,6.66-2.31.08-1.37-3.49-9.4-4.19-11.92C3.07,62.07,56.03,5.83,117.74,18.64c12.05,2.5,22.07,7.96,32.35,14.38l6-.36ZM139.1,38.95l20.35-3.26-1.62-19.39M60.97,160.08l-20.35,3.26,1.62,19.39"/></svg>