<?xml version="1.0" encoding="UTF-8"?>
<svg id="Layer_1" data-name="Layer 1" xmlns="http://www.w3.org/2000/svg" xmlns:xlink="http://www.w3.org/1999/xlink" viewBox="0 0 200 200">
  <defs>
    <style>
      .cls-1 {
        fill: url(#linear-gradient);
        fill-rule: evenodd;
      }
    </style>
    <linearGradient id="linear-gradient" x1="1160.48" y1="-3376.19" x2="1163.95" y2="-3376.19" gradientTransform="translate(-64770.42 -146620) scale(55.82 -43.46)" gradientUnits="userSpaceOnUse">
      <stop offset="0" stop-color="#0e90a2"/>
      <stop offset=".32" stop-color="#19a574"/>
      <stop offset="1" stop-color="#90c43c"/>
    </linearGradient>
  </defs>
  <path id="Path_26378" data-name="Path 26378" class="cls-1" d="M114.8,115.96c1.77-.32,3.57-.48,5.37-.48,3.67,0,7.31.67,10.74,1.98l13.26-18.87.51.29c-11-12.35-9.9-31.27,2.45-42.27,12.35-11,31.27-9.9,42.27,2.45,11,12.35,9.9,31.27-2.45,42.27-8.1,7.21-19.46,9.48-29.71,5.93l-13.43,19.72c10.21,13.06,7.91,31.93-5.15,42.14-13.06,10.21-31.93,7.91-42.14-5.15-9.92-12.68-8.07-30.94,4.2-41.37l-19.48-38.71c-2.01.41-4.05.62-6.11.62-2.58,0-5.15-.33-7.64-.99l-13.81,24.32c11.94,11.44,12.34,30.4.9,42.34-11.44,11.94-30.4,12.34-42.34.9C.31,139.66-.1,120.7,11.35,108.76c7.42-7.74,18.4-10.92,28.81-8.35l13.9-24.55c-11.79-11.65-11.9-30.66-.25-42.45,11.65-11.79,30.66-11.9,42.45-.25,11.79,11.65,11.9,30.66.25,42.45-.49.49-.99.97-1.51,1.42l19.81,38.92h0ZM167.08,93.9c8.29,0,15.01-6.72,15.01-15.01s-6.72-15.01-15.01-15.01-15.01,6.72-15.01,15.01c0,8.29,6.72,15.01,15.01,15.02h0ZM32.92,144.57c8.29,0,15.01-6.72,15.01-15.01s-6.72-15.01-15.01-15.01-15.01,6.72-15.01,15.01,6.72,15.01,15.01,15.01h0,0ZM75.14,69.51c8.29,0,15.01-6.72,15.01-15.01s-6.72-15.01-15.01-15.01-15.01,6.72-15.01,15.01c0,8.29,6.71,15.01,15.01,15.02h0ZM120.17,160.52c8.29,0,15.01-6.72,15.01-15.01s-6.72-15.01-15.01-15.01-15.01,6.72-15.01,15.01c0,8.29,6.71,15.01,15.01,15.02h0,0Z"/>
</svg>