<?xml version="1.0" encoding="UTF-8"?><svg id="Layer_1" xmlns="http://www.w3.org/2000/svg" xmlns:xlink="http://www.w3.org/1999/xlink" viewBox="0 0 200 200"><defs><style>.cls-1{fill:url(#linear-gradient-2);}.cls-2{fill:url(#linear-gradient);}</style><linearGradient id="linear-gradient" x1="24.37" y1="118.51" x2="175.63" y2="118.51" gradientUnits="userSpaceOnUse"><stop offset="0" stop-color="#1b8ea1"/><stop offset=".3" stop-color="#20a476"/><stop offset="1" stop-color="#73bd44"/></linearGradient><linearGradient id="linear-gradient-2" x1="120.74" y1="29.7" x2="168.46" y2="29.7" xlink:href="#linear-gradient"/></defs><path class="cls-2" d="M91.43,43.33c3.38-.78,16.17-.77,18.75,1.26,2.57,2.02,2.23,9.16,5.04,13.45,4.44,6.8,13.44,8.77,20.66,5.41,3.86-1.8,6.2-6.6,10.85-3.84,1.08.64,12.7,12.51,12.94,13.41,1.03,3.73-2.82,6.02-4.3,8.97-5.14,10.28.2,20.9,10.98,24.16,3.98,1.21,7.84-1.29,8.97,5.63.52,3.17.51,14.94-1.02,17.36-2.16,3.42-5.95,1.94-8.91,2.76-10.02,2.78-14.85,14.91-10.02,24.15,2.02,3.87,6.54,5.05,3.51,10.21-.99,1.69-12.73,12.74-14.31,12.88-4.98-1.46-8.12-5.98-13.58-6.55-6.5-.68-13.47,2.67-16.77,8.36-2.33,4.01-1.29,12.23-5.5,12.99-2.33.42-17.32.3-18.97-.49-3.26-1.55-2.62-7.13-3.57-10.05-2.7-8.33-12.4-12.35-20.58-10.2-5.48,1.44-7.99,8.36-13.74,4.64-2.48-1.6-11.9-11.29-12.22-13.93-.48-3.89,2.86-5.07,4.24-7.57,4.91-8.89.55-21.47-9.52-24.26-3.57-.99-8.76.63-9.78-4.82-.41-2.18-.3-17.69.45-18.96,2.15-2.42,5.59-1.55,8.33-2.38,9.16-2.77,14.42-11.31,11.94-20.79-1.44-5.5-7.96-8.62-4.64-13.73.9-1.39,11.95-12.33,12.81-12.57,3.68-1.02,9.6,5.99,15.63,6.47,7.2.57,15.59-5.33,17.49-12.19,1.01-3.66-.9-8.47,4.82-9.78ZM98.35,87.14c-41.98,2.05-39.19,67.51,5.51,62.99,38.52-3.89,34.9-64.96-5.51-62.99Z"/><path class="cls-1" d="M141.9,5.98c1.07-.24,5.1-.24,5.92.4.81.64.71,2.89,1.59,4.24,1.4,2.14,4.24,2.77,6.52,1.71,1.22-.57,1.96-2.08,3.42-1.21.34.2,4.01,3.95,4.08,4.23.33,1.18-.89,1.9-1.36,2.83-1.62,3.24.06,6.59,3.47,7.62,1.26.38,2.47-.41,2.83,1.78.16,1,.16,4.71-.32,5.48-.68,1.08-1.88.61-2.81.87-3.16.88-4.68,4.7-3.16,7.62.64,1.22,2.06,1.59,1.11,3.22-.31.53-4.02,4.02-4.51,4.06-1.57-.46-2.56-1.89-4.28-2.07-2.05-.21-4.25.84-5.29,2.64-.73,1.27-.41,3.86-1.73,4.1-.74.13-5.47.09-5.99-.15-1.03-.49-.83-2.25-1.13-3.17-.85-2.63-3.91-3.89-6.49-3.22-1.73.45-2.52,2.64-4.33,1.46-.78-.51-3.75-3.56-3.86-4.4-.15-1.23.9-1.6,1.34-2.39,1.55-2.81.17-6.77-3-7.65-1.13-.31-2.76.2-3.08-1.52-.13-.69-.09-5.58.14-5.98.68-.76,1.76-.49,2.63-.75,2.89-.87,4.55-3.57,3.77-6.56-.45-1.74-2.51-2.72-1.46-4.33.28-.44,3.77-3.89,4.04-3.96,1.16-.32,3.03,1.89,4.93,2.04,2.27.18,4.92-1.68,5.52-3.85.32-1.15-.28-2.67,1.52-3.08ZM144.08,19.8c-13.24.65-12.37,21.3,1.74,19.87,12.15-1.23,11.01-20.5-1.74-19.87Z"/></svg>