<?xml version="1.0" encoding="UTF-8"?>
<svg id="Layer_2" data-name="Layer 2" xmlns="http://www.w3.org/2000/svg" xmlns:xlink="http://www.w3.org/1999/xlink" viewBox="0 0 631.43 581.44">
  <defs>
    <style>
      .cls-1 {
        fill: url(#linear-gradient);
        stroke: url(#linear-gradient-2);
      }

      .cls-1, .cls-2, .cls-3, .cls-4 {
        stroke-miterlimit: 10;
        stroke-width: 3px;
      }

      .cls-2 {
        stroke: #0e90a2;
      }

      .cls-2, .cls-3, .cls-4 {
        fill: none;
      }

      .cls-5 {
        fill: #fff;
      }

      .cls-6 {
        fill: #19a574;
      }

      .cls-3 {
        stroke: #90c43c;
      }

      .cls-7 {
        fill: #0e90a2;
      }

      .cls-4 {
        stroke: #19a574;
      }

      .cls-8 {
        fill: #90c43c;
      }
    </style>
    <linearGradient id="linear-gradient" x1="300.43" y1="364.13" x2="352.6" y2="296.3" gradientUnits="userSpaceOnUse">
      <stop offset="0" stop-color="#0e90a2"/>
      <stop offset=".32" stop-color="#19a574"/>
      <stop offset="1" stop-color="#90c43c"/>
    </linearGradient>
    <linearGradient id="linear-gradient-2" x1="274.31" y1="320.69" x2="357.12" y2="320.69" xlink:href="#linear-gradient"/>
  </defs>
  <g id="Layer_1-2" data-name="Layer 1">
    <path class="cls-4" d="M629.93,400.33c0,99.2-80.41,179.61-179.61,179.61-53.59,0-101.7-23.47-134.61-60.7-28-31.67-45-73.3-45-118.91,0-15.18,1.88-29.91,5.43-43.99,12.73,2.87,25.97,4.38,39.57,4.38s26.85-1.51,39.58-4.38c-7.11-28.22-20.89-53.79-39.58-74.92,32.91-37.23,81.02-60.7,134.61-60.7,13.6,0,26.85,1.51,39.58,4.38,80.16,18.02,140.03,89.64,140.03,175.23Z"/>
    <path class="cls-2" d="M315.71,360.72c13.6,0,26.85-1.51,39.58-4.38,3.54,14.08,5.42,28.81,5.42,43.99,0,45.61-16.99,87.24-45,118.91-32.91,37.23-81.02,60.7-134.61,60.7C81.91,579.94,1.5,499.53,1.5,400.33c0-85.59,59.87-157.21,140.02-175.23,12.73-2.87,25.98-4.38,39.58-4.38,53.59,0,101.7,23.47,134.61,60.7"/>
    <path class="cls-3" d="M495.32,181.11c0,15.18-1.88,29.91-5.42,43.99-16.45,65.32-68.67,116.41-134.61,131.24-7.11-28.22-20.89-53.79-39.58-74.92-18.68,21.13-32.47,46.7-39.57,74.92-65.95-14.82-118.17-65.92-134.62-131.24-3.54-14.08-5.42-28.81-5.42-43.99C136.1,81.92,216.52,1.5,315.71,1.5s179.61,80.42,179.61,179.61Z"/>
    <path class="cls-1" d="M355.29,356.34c-12.73,2.87-25.98,4.38-39.58,4.38s-26.84-1.51-39.57-4.38c7.1-28.22,20.89-53.79,39.57-74.92,18.69,21.13,32.47,46.7,39.58,74.92Z"/>
    <g>
      <path class="cls-8" d="M235.11,124.91c4.66,0,8.64,2.27,10.84,6.11l-3.8,2.68c-1.75-2.76-4.1-4.13-7.04-4.13-4.58,0-7.93,3.43-7.93,8.12s3.35,8.05,7.93,8.05c2.94,0,5.29-1.38,7.04-4.13l3.8,2.68c-2.12,3.84-6.15,6.11-10.88,6.11-7.19.15-13.22-5.7-13.07-12.74-.11-7.04,5.96-12.89,13.11-12.74Z"/>
      <path class="cls-8" d="M258.35,131.09c5.4-.07,10.02,4.36,9.91,9.61.11,5.25-4.54,9.76-9.94,9.65-5.4.11-9.94-4.4-9.83-9.65-.11-5.25,4.47-9.72,9.87-9.61ZM258.35,135.67c-2.79,0-4.77,2.12-4.77,5.07s1.97,4.99,4.77,4.99,4.77-2.12,4.77-4.99-2.05-5.07-4.77-5.07Z"/>
      <path class="cls-8" d="M289.12,149.94h-4.99v-10.76c0-2.12-1.38-3.58-3.43-3.58s-3.5,1.45-3.5,3.58v10.76h-5.03v-18.44h4.62v1.68c1.3-1.3,3.2-2.09,5.4-2.09,4.28,0,6.93,2.94,6.93,7.41v11.43Z"/>
      <path class="cls-8" d="M294.82,143.75c1.6,1.68,3.35,2.5,5.18,2.5,1.34,0,2.35-.52,2.35-1.53,0-.78-.52-1.08-1.9-1.68l-1.97-.82c-3.39-1.38-5.03-2.91-5.03-5.62,0-3.46,2.76-5.51,6.78-5.51,2.76,0,4.95.93,6.63,2.76l-2.53,3.09c-1.23-1.15-2.61-1.75-4.13-1.75-1.23,0-1.97.45-1.97,1.3,0,.71.48,1.04,1.94,1.64l1.79.74c3.58,1.45,5.18,2.91,5.18,5.62,0,1.83-.67,3.28-2.05,4.32-1.34,1.04-3.05,1.56-5.14,1.56-3.24,0-5.96-1.34-7.64-3.58l2.53-3.05Z"/>
      <path class="cls-8" d="M310.72,131.5h5.03v10.73c0,2.12,1.45,3.54,3.5,3.54,1.94,0,3.43-1.42,3.43-3.54v-10.73h5.03v10.32c0,5.14-3.65,8.57-8.46,8.57s-8.53-3.43-8.53-8.57v-10.32Z"/>
      <path class="cls-8" d="M332.51,122h5.03v27.94h-5.03v-27.94Z"/>
      <path class="cls-8" d="M354.37,149.94c-1.19.3-2.35.45-3.46.45-4.66,0-7.38-2.31-7.38-6.93v-7.71h-2.91v-4.25h2.91v-4.66h5.03v4.66h5.21v4.25h-5.21v7.26c0,2.09,1.04,2.87,3.43,2.87.3,0,1.08-.04,2.38-.15v4.21Z"/>
      <path class="cls-8" d="M360.51,121.67c1.79,0,3.24,1.34,3.24,3.13s-1.45,3.09-3.24,3.09-3.2-1.34-3.2-3.09,1.42-3.13,3.2-3.13ZM358.02,131.5h5.03v18.44h-5.03v-18.44Z"/>
      <path class="cls-8" d="M384.98,149.94h-4.99v-10.76c0-2.12-1.38-3.58-3.43-3.58s-3.5,1.45-3.5,3.58v10.76h-5.03v-18.44h4.62v1.68c1.3-1.3,3.2-2.09,5.4-2.09,4.28,0,6.93,2.94,6.93,7.41v11.43Z"/>
      <path class="cls-8" d="M408.34,131.5v16.39c0,6-3.76,9.2-9.54,9.2-3.46,0-6.48-1.15-9.05-3.43l2.64-3.5c2.05,1.53,3.76,2.38,6,2.38,2.98,0,4.92-1.49,4.92-4.36v-1.01c-1.34,1.45-3.28,2.2-5.62,2.2-5.1,0-8.83-3.76-8.83-9.16s3.8-9.13,8.83-9.13c2.64,0,4.73.97,6.03,2.72v-2.31h4.62ZM398.73,135.37c-2.72,0-4.77,1.83-4.77,4.8s2.09,4.95,4.77,4.95c2.53,0,4.66-1.83,4.66-4.99s-2.09-4.77-4.66-4.77Z"/>
    </g>
    <g>
      <path class="cls-7" d="M78.05,413.61c1.6,2.2,3.35,3.58,6.03,3.58,2.2,0,3.5-1.04,3.5-2.72,0-1.45-.78-1.97-3.13-3.05l-2.64-1.19c-3.76-1.68-5.96-3.8-5.96-7.08,0-4.21,3.5-6.96,8.16-6.96,3.76,0,6.59,1.83,8.12,4.66l-3.43,2.64c-1.27-1.9-2.83-2.83-4.69-2.83-1.75,0-3.05.86-3.05,2.38,0,1.3.78,1.9,2.87,2.83l2.79,1.23c4.13,1.83,6.07,3.87,6.07,7.19,0,4.51-3.69,7.38-8.6,7.38-4.17,0-7.6-2.12-9.5-5.44l3.46-2.61Z"/>
      <path class="cls-7" d="M100.81,413.68c.6,2.35,2.5,3.65,5.18,3.65,1.83,0,3.54-.63,5.14-1.86l2.09,3.43c-2.2,1.82-4.66,2.76-7.38,2.76-5.7.11-10.21-4.32-10.09-9.65-.11-5.33,4.32-9.76,9.65-9.65,5.1,0,8.68,3.76,8.68,8.57,0,.89-.11,1.83-.33,2.76h-12.92ZM109.19,410.14c-.04-2.27-1.79-3.72-3.99-3.72s-3.84,1.45-4.4,3.72h8.38Z"/>
      <path class="cls-7" d="M129.3,407.2h-1.34c-3.02,0-4.95,1.64-4.95,4.81v9.2h-5.03v-18.44h4.62v2.2c1.23-1.53,3.02-2.42,5.07-2.42.63,0,1.15.07,1.64.22v4.43Z"/>
      <path class="cls-7" d="M150.3,402.77l-9.13,18.88h-1.68l-9.13-18.88h5.29l4.66,10.43,4.66-10.43h5.33Z"/>
      <path class="cls-7" d="M155.74,392.94c1.79,0,3.24,1.34,3.24,3.13s-1.45,3.09-3.24,3.09-3.2-1.34-3.2-3.09,1.42-3.13,3.2-3.13ZM153.25,402.77h5.03v18.44h-5.03v-18.44Z"/>
      <path class="cls-7" d="M172.09,402.36c3.61,0,6.41,1.71,8.01,4.54l-3.5,2.72c-1.15-1.68-2.5-2.68-4.43-2.68-2.83,0-4.84,2.16-4.84,5.03s2.01,5.07,4.84,5.07c1.9,0,3.24-.97,4.43-2.64l3.5,2.68c-1.6,2.83-4.43,4.58-8.01,4.58-5.4.11-9.94-4.36-9.87-9.68,0-5.4,4.4-9.61,9.87-9.61Z"/>
      <path class="cls-7" d="M187.47,413.68c.6,2.35,2.5,3.65,5.18,3.65,1.83,0,3.54-.63,5.14-1.86l2.08,3.43c-2.2,1.82-4.66,2.76-7.37,2.76-5.7.11-10.21-4.32-10.09-9.65-.11-5.33,4.32-9.76,9.65-9.65,5.1,0,8.68,3.76,8.68,8.57,0,.89-.11,1.83-.34,2.76h-12.92ZM195.85,410.14c-.04-2.27-1.79-3.72-3.99-3.72s-3.84,1.45-4.39,3.72h8.38Z"/>
      <path class="cls-7" d="M205.5,415.02c1.6,1.68,3.35,2.5,5.18,2.5,1.34,0,2.35-.52,2.35-1.53,0-.78-.52-1.08-1.9-1.68l-1.97-.82c-3.39-1.38-5.03-2.91-5.03-5.62,0-3.46,2.76-5.51,6.78-5.51,2.76,0,4.95.93,6.63,2.76l-2.53,3.09c-1.23-1.15-2.61-1.75-4.13-1.75-1.23,0-1.97.45-1.97,1.3,0,.71.48,1.04,1.94,1.64l1.79.74c3.58,1.45,5.18,2.91,5.18,5.62,0,1.83-.67,3.28-2.05,4.32-1.34,1.04-3.05,1.56-5.14,1.56-3.24,0-5.96-1.34-7.64-3.58l2.53-3.05Z"/>
    </g>
    <g>
      <path class="cls-6" d="M418.31,413.61c1.6,2.2,3.35,3.58,6.03,3.58,2.2,0,3.5-1.04,3.5-2.72,0-1.45-.78-1.97-3.13-3.05l-2.64-1.19c-3.76-1.68-5.96-3.8-5.96-7.08,0-4.21,3.5-6.96,8.16-6.96,3.76,0,6.59,1.83,8.12,4.66l-3.43,2.64c-1.27-1.9-2.83-2.83-4.69-2.83-1.75,0-3.05.86-3.05,2.38,0,1.3.78,1.9,2.87,2.83l2.79,1.23c4.13,1.83,6.07,3.87,6.07,7.19,0,4.51-3.69,7.38-8.6,7.38-4.17,0-7.6-2.12-9.5-5.44l3.46-2.61Z"/>
      <path class="cls-6" d="M445.87,402.36c5.4-.07,10.02,4.36,9.91,9.61.11,5.25-4.54,9.76-9.95,9.65-5.4.11-9.94-4.4-9.83-9.65-.11-5.25,4.47-9.72,9.87-9.61ZM445.87,406.94c-2.79,0-4.77,2.12-4.77,5.07s1.97,4.99,4.77,4.99,4.77-2.12,4.77-4.99-2.05-5.07-4.77-5.07Z"/>
      <path class="cls-6" d="M459.69,393.27h5.03v27.93h-5.03v-27.93Z"/>
      <path class="cls-6" d="M469.52,402.77h5.03v10.73c0,2.12,1.45,3.54,3.5,3.54,1.94,0,3.43-1.42,3.43-3.54v-10.73h5.03v10.32c0,5.14-3.65,8.57-8.46,8.57s-8.53-3.43-8.53-8.57v-10.32Z"/>
      <path class="cls-6" d="M503.15,421.21c-1.19.3-2.35.45-3.46.45-4.66,0-7.38-2.31-7.38-6.93v-7.71h-2.9v-4.25h2.9v-4.66h5.03v4.66h5.21v4.25h-5.21v7.26c0,2.09,1.04,2.87,3.43,2.87.3,0,1.08-.04,2.38-.15v4.21Z"/>
      <path class="cls-6" d="M509.3,392.94c1.79,0,3.24,1.34,3.24,3.13s-1.45,3.09-3.24,3.09-3.2-1.34-3.2-3.09,1.42-3.13,3.2-3.13ZM506.8,402.77h5.03v18.44h-5.03v-18.44Z"/>
      <path class="cls-6" d="M525.65,402.36c5.4-.07,10.02,4.36,9.91,9.61.11,5.25-4.54,9.76-9.94,9.65-5.4.11-9.95-4.4-9.83-9.65-.11-5.25,4.47-9.72,9.87-9.61ZM525.65,406.94c-2.79,0-4.77,2.12-4.77,5.07s1.97,4.99,4.77,4.99,4.77-2.12,4.77-4.99-2.05-5.07-4.77-5.07Z"/>
      <path class="cls-6" d="M556.41,421.21h-4.99v-10.76c0-2.12-1.38-3.58-3.43-3.58s-3.5,1.45-3.5,3.58v10.76h-5.03v-18.44h4.62v1.68c1.3-1.3,3.2-2.09,5.4-2.09,4.28,0,6.93,2.94,6.93,7.41v11.43Z"/>
      <path class="cls-6" d="M562.11,415.02c1.6,1.68,3.35,2.5,5.18,2.5,1.34,0,2.35-.52,2.35-1.53,0-.78-.52-1.08-1.9-1.68l-1.97-.82c-3.39-1.38-5.03-2.91-5.03-5.62,0-3.46,2.76-5.51,6.78-5.51,2.76,0,4.95.93,6.63,2.76l-2.53,3.09c-1.23-1.15-2.61-1.75-4.13-1.75-1.23,0-1.97.45-1.97,1.3,0,.71.48,1.04,1.94,1.64l1.79.74c3.58,1.45,5.18,2.91,5.18,5.62,0,1.83-.67,3.28-2.05,4.32-1.34,1.04-3.05,1.56-5.14,1.56-3.24,0-5.96-1.34-7.64-3.58l2.53-3.05Z"/>
    </g>
    <g id="Group_41" data-name="Group 41">
      <path id="Path_64" data-name="Path 64" class="cls-5" d="M298.06,330.67h16.48v16.76l12.08-11.97v-16.76h-16.7l-11.86,11.97Z"/>
    </g>
  </g>
</svg>