<svg id="Layer_1-2" xmlns="http://www.w3.org/2000/svg" xmlns:xlink="http://www.w3.org/1999/xlink" width="62.999" height="62.653" viewBox="0 0 62.999 62.653">
  <defs>
    <linearGradient id="linear-gradient" x1="0.103" y1="0.489" x2="0.81" y2="0.489" gradientUnits="objectBoundingBox">
      <stop offset="0" stop-color="#0e90a2"/>
      <stop offset="0.32" stop-color="#19a574"/>
      <stop offset="1" stop-color="#90c43c"/>
    </linearGradient>
    <linearGradient id="linear-gradient-2" x1="0" y1="0.501" x2="1" y2="0.501" xlink:href="#linear-gradient"/>
    <linearGradient id="linear-gradient-3" x1="0" y1="0.501" x2="0.999" y2="0.501" xlink:href="#linear-gradient"/>
    <linearGradient id="linear-gradient-4" x1="0" y1="0.5" x2="1" y2="0.5" xlink:href="#linear-gradient"/>
    <linearGradient id="linear-gradient-6" x1="0" y1="0.5" x2="0.999" y2="0.5" xlink:href="#linear-gradient"/>
    <linearGradient id="linear-gradient-9" x1="-0.001" y1="0.5" x2="0.999" y2="0.5" xlink:href="#linear-gradient"/>
  </defs>
  <path id="Path_27008" data-name="Path 27008" d="M31.105,58.751l-.37-.37L2.85,30.5l.37-.37L31.105,2.24l.37.37L59.373,30.5l-.37.37-27.886,27.9ZM4.317,30.5l26.8,26.8,26.8-26.8L31.105,3.7Z" transform="translate(0.549 0.432)" fill="url(#linear-gradient)"/>
  <rect id="Rectangle_1181" data-name="Rectangle 1181" width="1.193" height="9.84" transform="translate(31.058 43.069)" fill="url(#linear-gradient-2)"/>
  <path id="Path_27009" data-name="Path 27009" d="M26.976,43.762A5.227,5.227,0,0,0,25.02,53.84a5.1,5.1,0,0,0,1.956.382,5.236,5.236,0,1,0,0-10.472Z" transform="translate(4.19 8.431)" fill="url(#linear-gradient-3)"/>
  <rect id="Rectangle_1182" data-name="Rectangle 1182" width="1.193" height="8.468" transform="translate(31.058 10.317)" fill="url(#linear-gradient-4)"/>
  <path id="Path_27010" data-name="Path 27010" d="M18.485,26.623H8.287L8.18,25.43H18.485Z" transform="translate(1.576 4.901)" fill="url(#linear-gradient-4)"/>
  <rect id="Rectangle_1183" data-name="Rectangle 1183" width="9.315" height="1.193" transform="translate(44.369 30.331)" fill="url(#linear-gradient-6)"/>
  <circle id="Ellipse_78" data-name="Ellipse 78" cx="12.154" cy="12.154" r="12.154" transform="translate(20.061 18.773)" fill="url(#linear-gradient-4)"/>
  <circle id="Ellipse_79" data-name="Ellipse 79" cx="5.153" cy="5.153" r="5.153" transform="translate(26.216 0)" fill="url(#linear-gradient-4)"/>
  <path id="Path_27011" data-name="Path 27011" d="M49.323,21.61a5.158,5.158,0,1,0,.012,0Z" transform="translate(8.512 4.165)" fill="url(#linear-gradient-9)"/>
  <path id="Path_27012" data-name="Path 27012" d="M5.153,21.61a5.159,5.159,0,1,0,.012,0Z" transform="translate(0 4.165)" fill="url(#linear-gradient-4)"/>
</svg>
