<?xml version="1.0" encoding="UTF-8"?>
<svg id="Layer_2" data-name="Layer 2" xmlns="http://www.w3.org/2000/svg" viewBox="0 0 1208.28 154.72">
  <defs>
    <style>
      .cls-1 {
        fill: #20a676;
      }
    </style>
  </defs>
  <g id="Layer_1-2" data-name="Layer 1">
    <g>
      <path class="cls-1" d="M60,41.94c-17.88,0-32.37,14.49-32.37,32.41s14.48,32.37,32.37,32.37,32.41-14.48,32.41-32.37-14.53-32.41-32.41-32.41ZM61.96,101.03c-15.76,0-28.63-12.87-28.63-28.63,0-.89.68-1.57,1.57-1.57s1.57.68,1.57,1.57c0,14.06,11.43,25.49,25.49,25.49.89,0,1.57.72,1.57,1.57,0,.89-.68,1.57-1.57,1.57Z"/>
      <path class="cls-1" d="M111.68,122.04l-20.6-20.6c6.33-7.24,10.18-16.71,10.18-27.1,0-22.79-18.48-41.24-41.25-41.24s-41.22,18.45-41.22,41.24,18.46,41.22,41.22,41.22c9.3,0,17.89-3.08,24.8-8.28l21.21,21.21c-.06.06-.13.13-.19.19-13.68,13.45-32.89,20.16-57.67,20.16H0V0h51.52c23.9,0,42.33,6.13,55.33,18.33,12.98,12.23,19.5,29.86,19.5,52.95,0,20.99-4.89,37.91-14.68,50.76Z"/>
      <path class="cls-1" d="M229.11,104.55c0-13-3.53-23.32-10.58-30.97-7.05-7.65-16.82-11.51-29.35-11.51-10.75,0-20.05,4.04-27.95,12.11-7.86,8.07-11.81,18.35-11.81,30.84,0,13.34,4.04,23.96,12.15,31.9,8.11,7.94,17.97,11.94,29.61,11.94,9.43,0,17.33-2.46,23.75-7.31,6.46-4.88,10.83-11.04,13.17-18.56l-16.44-5.18c-3.14,9.52-9.94,14.23-20.47,14.23-6.03,0-11.21-2-15.5-6.03-4.33-4.04-6.58-9.09-6.8-15.25h59.72c.34-.68.51-2.76.51-6.2ZM169.39,96.48c.34-4.8,2.29-9.05,5.86-12.66,3.57-3.65,8.28-5.48,14.1-5.48,6.37,0,11.26,1.74,14.66,5.22,3.44,3.44,5.27,7.77,5.48,12.91h-40.1Z"/>
      <path class="cls-1" d="M272.4,39.61v25h16.95v17.28h-16.95v37.92c0,3.58.84,6.18,2.52,7.8,1.68,1.62,4.3,2.43,7.89,2.43,2.24,0,4.47-.22,6.71-.67v16.11c-2.91,1.23-6.88,1.85-11.91,1.85-7.61,0-13.59-2.15-17.95-6.46-4.36-4.3-6.54-10.26-6.54-17.87v-41.11h-15.1v-17.28h4.19c4.14,0,7.27-1.18,9.4-3.52,2.12-2.35,3.19-5.42,3.19-9.23v-12.25h17.62Z"/>
      <path class="cls-1" d="M381.78,104.55c0-13-3.48-23.32-10.53-30.97-7.05-7.65-16.86-11.51-29.39-11.51-10.7,0-20.05,4.04-27.91,12.11-7.9,8.07-11.85,18.35-11.85,30.84,0,13.34,4.08,23.96,12.19,31.9,8.11,7.94,17.97,11.94,29.61,11.94,9.39,0,17.29-2.46,23.75-7.31,6.41-4.88,10.79-11.04,13.17-18.56l-16.44-5.18c-3.14,9.52-9.98,14.23-20.47,14.23-6.03,0-11.21-2-15.55-6.03-4.29-4.04-6.54-9.09-6.75-15.25h59.72c.34-.68.47-2.76.47-6.2ZM322.05,96.48c.34-4.8,2.29-9.05,5.9-12.66,3.57-3.65,8.28-5.48,14.1-5.48,6.33,0,11.26,1.74,14.65,5.22,3.4,3.44,5.22,7.77,5.44,12.91h-40.1Z"/>
      <path class="cls-1" d="M435.99,80.04c-6.27,0-11.58,2.27-15.94,6.8-4.36,4.53-6.54,10.71-6.54,18.54s2.21,14.21,6.63,18.79c4.42,4.59,9.82,6.88,16.19,6.88,5.7,0,10.26-1.54,13.67-4.61,3.41-3.08,5.68-6.57,6.8-10.49l17.11,6.21c-2.24,7.27-6.57,13.54-13,18.79-6.43,5.26-14.63,7.89-24.58,7.89-11.97,0-22.01-4.14-30.12-12.42-8.11-8.28-12.16-18.62-12.16-31.04s4-22.87,12-31.04c8-8.16,17.92-12.25,29.78-12.25,10.18,0,18.48,2.63,24.92,7.89,6.43,5.26,10.6,11.58,12.5,18.96l-17.45,6.38c-1.12-4.25-3.27-7.86-6.46-10.82-3.19-2.96-7.63-4.45-13.34-4.45Z"/>
      <path class="cls-1" d="M515.86,39.61v25h16.95v17.28h-16.95v37.92c0,3.58.84,6.18,2.52,7.8,1.68,1.62,4.3,2.43,7.89,2.43,2.24,0,4.47-.22,6.71-.67v16.11c-2.91,1.23-6.88,1.85-11.91,1.85-7.61,0-13.59-2.15-17.95-6.46-4.36-4.3-6.54-10.26-6.54-17.87v-41.11h-15.1v-17.28h4.19c4.14,0,7.27-1.18,9.4-3.52,2.12-2.35,3.19-5.42,3.19-9.23v-12.25h17.62Z"/>
      <path d="M625.69,37.61c-7.01-6.84-16.14-10.24-27.44-10.24h-44.14v118.94h20.13v-46.47h24c11.3,0,20.43-3.35,27.44-10.15,6.97-6.75,10.45-15.46,10.45-26.08s-3.48-19.2-10.45-26ZM610.23,77.11c-3.61,3.31-8.62,4.93-15,4.93h-20.98v-36.91h20.98c6.37,0,11.38,1.7,15,5.05,3.65,3.36,5.48,7.86,5.48,13.59s-1.83,10.02-5.48,13.34Z"/>
      <path d="M671.57,98.33v47.99h-19.46V24.84h19.46v47.65c5.26-6.82,13.03-10.24,23.32-10.24,9.62,0,17,3.02,22.15,9.06,5.14,6.04,7.72,13.82,7.72,23.32v51.68h-19.46v-48.32c0-5.48-1.34-9.87-4.03-13.17-2.68-3.3-6.94-4.95-12.75-4.95-5.15,0-9.2,1.73-12.16,5.2-2.97,3.47-4.56,7.89-4.78,13.26Z"/>
      <path d="M814.21,133.23v-40.61c0-8.96-2.85-16.27-8.5-21.96-5.65-5.73-14.4-8.58-26.25-8.58-9.64,0-17.54,2.63-23.83,7.82-6.29,5.22-9.77,11.51-10.58,18.86l17.8,4.04c.42-4.33,2.12-7.9,5.01-10.66,2.93-2.72,6.84-4.08,11.77-4.08s9,1.15,11.55,3.4c2.59,2.34,3.87,5.31,3.87,9,0,3.36-2,5.31-6.03,5.86l-20.98,3.19c-7.39,1.1-13.34,3.78-17.84,7.99-4.54,4.2-6.8,9.77-6.8,16.69s2.55,12.49,7.6,17.37c5.1,4.84,11.81,7.31,20.05,7.31,11.43,0,19.84-4.33,25.19-12.96,0,5.27.26,8.75.85,10.41h18.1c-.68-3.36-.98-7.69-.98-13.08ZM795.05,112.41c0,7.52-1.87,12.91-5.61,16.23-3.74,3.27-8.62,4.93-14.7,4.93-3.7,0-6.58-1.02-8.71-3.1s-3.19-4.55-3.19-7.48c0-6.16,3.61-9.81,10.92-11.09l21.28-3.14v3.65Z"/>
      <path d="M885.5,64.1v19.8c-2.24-.34-4.36-.5-6.38-.5-14.66,0-21.98,8-21.98,23.99v38.93h-19.46v-81.71h18.96v13.09c1.9-4.36,4.98-7.8,9.23-10.32,4.25-2.52,9.06-3.78,14.43-3.78,1.79,0,3.52.17,5.2.5Z"/>
      <path d="M921.07,146.32h-19.3v-81.71h18.62v10.4c2.24-4.03,5.62-7.16,10.15-9.4,4.53-2.24,9.2-3.36,14.01-3.36,5.48,0,10.4,1.23,14.77,3.69,4.36,2.46,7.61,6.04,9.73,10.74,5.71-9.62,14.54-14.43,26.51-14.43,8.05,0,14.88,2.63,20.47,7.89,5.59,5.26,8.39,12.98,8.39,23.16v53.02h-18.79v-49.83c0-5.03-1.32-9.09-3.94-12.16-2.63-3.07-6.57-4.61-11.83-4.61s-9.12,1.74-12.25,5.2c-3.13,3.47-4.7,7.78-4.7,12.92v48.49h-19.13v-49.83c0-5.03-1.32-9.09-3.94-12.16-2.63-3.07-6.57-4.61-11.83-4.61s-9.26,1.71-12.33,5.12c-3.08,3.41-4.61,7.75-4.61,13v48.49Z"/>
      <g>
        <path d="M1086.12,54.88v-21.41h-44.09v21.41h0c5.18,0,9.38,4.2,9.38,9.38v51.3c0,5.18-4.2,9.38-9.38,9.38h0v21.41h44.09v-21.41h0c-5.18,0-9.38-4.2-9.38-9.38v-51.3c0-5.18,4.2-9.38,9.38-9.38h0Z"/>
        <path d="M1194.47,125.79c8.45-10.36,12.7-22.81,12.7-37.38,0-17.29-5.65-31.39-16.95-42.27-11.3-10.87-25.06-16.27-41.33-16.27s-30.03,5.39-41.37,16.18c-11.34,10.83-17.03,24.94-17.03,42.35s5.69,31.39,17.03,42.18c11.34,10.83,25.15,16.23,41.37,16.23,10.66,0,20.39-2.42,29.14-7.26l13.76,15.17,16.48-13.89-13.81-15.04ZM1176.93,106.29l-16.48-18.05-16.61,13.93,16.48,18.05c-3.82,1.27-7.6,1.91-11.43,1.91-8.62,0-16.23-2.89-22.68-8.71-6.5-5.82-9.77-14.19-9.77-25.19s3.27-19.37,9.77-25.23c6.46-5.86,14.06-8.79,22.68-8.79s16.23,2.93,22.64,8.79c6.46,5.86,9.64,14.27,9.64,25.23,0,6.88-1.4,12.91-4.25,18.05Z"/>
      </g>
    </g>
  </g>
</svg>