<?xml version="1.0" encoding="UTF-8"?>
<svg id="Layer_1" data-name="Layer 1" xmlns="http://www.w3.org/2000/svg" xmlns:xlink="http://www.w3.org/1999/xlink" viewBox="0 0 200 200">
  <defs>
    <style>
      .cls-1 {
        fill: url(#linear-gradient);
      }
    </style>
    <linearGradient id="linear-gradient" x1="2165.38" y1="-3391.11" x2="2170.49" y2="-3391.11" gradientTransform="translate(-82736.76 -129467.46) scale(38.21 -38.21)" gradientUnits="userSpaceOnUse">
      <stop offset="0" stop-color="#0e90a2"/>
      <stop offset=".32" stop-color="#19a574"/>
      <stop offset="1" stop-color="#90c43c"/>
    </linearGradient>
  </defs>
  <g id="Validation-Filled">
    <path id="Path_26358" data-name="Path 26358" class="cls-1" d="M173.89,69.45c-4.53-10.83,3.37-30.29-4.8-38.46-8.17-8.17-27.62-.27-38.46-4.8-10.48-4.44-18.56-23.89-30.64-23.89s-20.16,19.43-30.56,23.81c-10.92,4.53-30.37-3.37-38.55,4.8-8.17,8.17-.27,27.62-4.8,38.55-4.36,10.39-23.79,18.47-23.79,30.55s19.43,20.16,23.81,30.56c4.53,10.83-3.37,30.29,4.8,38.46,8.17,8.17,27.62.27,38.46,4.8,10.48,4.44,18.56,23.89,30.64,23.89s20.16-19.43,30.56-23.81c10.83-4.53,30.29,3.37,38.46-4.8,8.17-8.17.27-27.62,4.8-38.46,4.44-10.48,23.89-18.56,23.89-30.64s-19.43-20.16-23.81-30.56h-.02ZM91.11,139.17l-32.95-32.95,12.52-12.53,20.43,20.46,46.99-46.99,12.51,12.5-59.5,59.52Z"/>
  </g>
</svg>