<?xml version="1.0" encoding="UTF-8"?>
<svg id="Layer_1" data-name="Layer 1" xmlns="http://www.w3.org/2000/svg" xmlns:xlink="http://www.w3.org/1999/xlink" viewBox="0 0 200 200">
  <defs>
    <style>
      .cls-1 {
        fill: url(#linear-gradient-2);
      }

      .cls-2 {
        fill: url(#linear-gradient-3);
      }

      .cls-3 {
        fill: url(#linear-gradient);
      }
    </style>
    <linearGradient id="linear-gradient" x1="1754.2" y1="-3382.7" x2="1759.02" y2="-3382.7" gradientTransform="translate(-70609.69 -138590.18) scale(40.25 -41)" gradientUnits="userSpaceOnUse">
      <stop offset="0" stop-color="#0e90a2"/>
      <stop offset=".32" stop-color="#19a574"/>
      <stop offset="1" stop-color="#90c43c"/>
    </linearGradient>
    <linearGradient id="linear-gradient-2" x1="-1957.76" y1="-2531.73" x2="-1952.93" y2="-2531.73" gradientTransform="translate(-2774.83 -2964.35) rotate(-80.78) scale(1.31 -1.31)" xlink:href="#linear-gradient"/>
    <linearGradient id="linear-gradient-3" x1="766.96" y1="-4092.97" x2="771.78" y2="-4092.97" gradientTransform="translate(-1216.37 -23104.1) scale(1.68 -5.66)" xlink:href="#linear-gradient"/>
  </defs>
  <g id="Group_15960" data-name="Group 15960">
    <path id="Path_27062" data-name="Path 27062" class="cls-3" d="M193.99,181.37l-60.82-61.82c21.77-29.49,19-70.4-6.55-96.68C99.12-5.38,53.91-6.01,25.65,21.49c-.47.46-.93.92-1.39,1.39-28.26,29.05-28.26,75.31,0,104.36,25.23,25.95,65.89,28.89,94.6,6.85l60.6,61.59c3.95,4.02,10.41,4.07,14.43.12,4.02-3.95,4.07-10.41.12-14.43h0ZM109.81,96.5h-60.02c-2.77,0-5.01-2.24-5.02-5.01,0-.92.25-1.82.73-2.61,7.63-12.52,22.13-37.36,29.28-49.65,1.4-2.39,4.47-3.2,6.86-1.8.71.41,1.31,1,1.74,1.69l30.71,49.73c1.45,2.36.72,5.45-1.63,6.9-.79.49-1.7.75-2.64.75h0Z"/>
    <circle id="Ellipse_86" data-name="Ellipse 86" class="cls-1" cx="79.73" cy="86.1" r="3.14"/>
    <path id="Path_27063" data-name="Path 27063" class="cls-2" d="M83.66,56.71l-1.93,18.69c-.02.73-.21,1.45-.58,2.09-.6.79-1.72.95-2.52.35,0,0,0,0-.01,0l-.24-.42c-1.09-6.79-1.81-13.62-2.59-20.44-.31-1.42-.16-2.9.42-4.24.62-1.02,1.7-1.68,2.89-1.78,1.18-.08,2.35.31,3.23,1.1.57.49,1,1.13,1.23,1.85.21.92.24,1.88.09,2.81h0Z"/>
  </g>
</svg>