<?xml version="1.0" encoding="UTF-8"?>
<svg id="Layer_1" data-name="Layer 1" xmlns="http://www.w3.org/2000/svg" xmlns:xlink="http://www.w3.org/1999/xlink" viewBox="0 0 200 200">
  <defs>
    <style>
      .cls-1 {
        fill: url(#linear-gradient-2);
      }

      .cls-2 {
        fill: none;
      }

      .cls-3 {
        fill: url(#linear-gradient-4);
      }

      .cls-4 {
        fill: url(#linear-gradient-3);
      }

      .cls-5 {
        clip-path: url(#clippath-1);
      }

      .cls-6 {
        clip-path: url(#clippath-3);
      }

      .cls-7 {
        clip-path: url(#clippath-2);
      }

      .cls-8 {
        fill: url(#linear-gradient);
      }

      .cls-9 {
        clip-path: url(#clippath);
      }
    </style>
    <clipPath id="clippath">
      <path class="cls-2" d="M-203.53,187.07h97.32L-203.53,49.37v137.69ZM-106.22,187.07H-8.9V49.37l-97.32,137.69ZM-157.27,65.38c0,27.24,22.08,49.32,49.32,49.32s49.32-22.08,49.32-49.32-22.08-49.32-49.32-49.32-49.32,22.08-49.32,49.32"/>
    </clipPath>
    <linearGradient id="linear-gradient" x1="1637.02" y1="2453.78" x2="1638.19" y2="2453.78" gradientTransform="translate(-329718.43 493974.7) scale(201.27 -201.27)" gradientUnits="userSpaceOnUse">
      <stop offset="0" stop-color="#1a91a3"/>
      <stop offset=".3" stop-color="#1ca677"/>
      <stop offset="1" stop-color="#73be44"/>
    </linearGradient>
    <clipPath id="clippath-1">
      <path class="cls-2" d="M100,143.63c-21.08,0-38.61-5.02-38.61-5.02l38.61,57,38.61-57s-12.26,5.02-38.61,5.02M80.33,80.33c-10.86,10.86-10.86,28.48,0,39.34,10.86,10.86,28.48,10.86,39.34,0,10.86-10.86,10.86-28.47,0-39.34-5.43-5.43-12.55-8.15-19.67-8.15s-14.24,2.72-19.67,8.15M4.39,100l57,38.61s-5.02-17.53-5.02-38.61c0-26.35,5.02-38.61,5.02-38.61L4.39,100ZM61.39,61.39s12.26-5.02,38.61-5.02c20.99,0,38.46,4.98,38.61,5.02.04.14,5.02,17.61,5.02,38.61,0,26.35-5.02,38.61-5.02,38.61l57-38.61-57-38.61L100,4.39l-38.61,57Z"/>
    </clipPath>
    <linearGradient id="linear-gradient-2" x1="1635.58" y1="2467.5" x2="1636.89" y2="2467.5" gradientTransform="translate(-169355.08 255643.44) scale(103.56 -103.56)" xlink:href="#linear-gradient"/>
    <clipPath id="clippath-2">
      <path class="cls-2" d="M-196.05,406.57h78.01l-78.01-78.01v78.01ZM-81.97,406.57H-3.95v-78.01l-78.01,78.01ZM-131.53,310.52c0,17.41,14.12,31.53,31.53,31.53s31.53-14.12,31.53-31.53-14.12-31.53-31.53-31.53-31.53,14.12-31.53,31.53M-196.05,214.48v78.01l78.01-78.01h-78.01ZM-81.97,214.48L-3.95,292.5v-78.02h-78.01Z"/>
    </clipPath>
    <linearGradient id="linear-gradient-3" x1="1632.73" y1="2456.16" x2="1634.05" y2="2456.16" gradientTransform="translate(-338424.48 509055.18) scale(207.13 -207.13)" xlink:href="#linear-gradient"/>
    <clipPath id="clippath-3">
      <path class="cls-2" d="M10.18,310.52c0,50.88,39.57,92.53,89.61,95.83,2.13.14,4.27.21,6.43.21,2.4,0,4.78-.09,7.14-.26,47.35-3.48,85.16-41.29,88.64-88.65.06-.85.11-1.7.15-2.56h-34.33s0,0,0,.01c-2.24,30.46-26.55,54.78-57.01,57.01-1.52.11-3.05.17-4.59.17-1.39,0-2.77-.05-4.14-.14-32.18-2.13-57.63-28.91-57.63-61.64s27.66-61.77,61.77-61.77v-34.27c-53.04,0-96.04,43-96.04,96.04M160.01,214.48l-30,30.28h41.69v42.39l30.56-30.28v-42.39h-42.25Z"/>
    </clipPath>
    <linearGradient id="linear-gradient-4" x1="1631.35" y1="2459.51" x2="1632.66" y2="2459.51" gradientTransform="translate(-288398.79 435133.31) scale(176.79 -176.79)" xlink:href="#linear-gradient"/>
  </defs>
  <g class="cls-9">
    <rect class="cls-8" x="-235.49" y="-27.71" width="258.54" height="258.54" transform="translate(-102.93 -45.36) rotate(-45)"/>
  </g>
  <g class="cls-5">
    <rect class="cls-1" x="-35.21" y="-35.21" width="270.43" height="270.43" transform="translate(-41.42 100) rotate(-45)"/>
  </g>
  <g class="cls-7">
    <rect class="cls-4" x="-235.83" y="174.69" width="271.66" height="271.66" transform="translate(-248.86 20.24) rotate(-45)"/>
  </g>
  <g class="cls-6">
    <rect class="cls-3" x="-29.61" y="174.7" width="271.65" height="271.65" transform="translate(-188.46 166.06) rotate(-45)"/>
  </g>
</svg>