<svg xmlns="http://www.w3.org/2000/svg" width="66.885" height="68.179" viewBox="0 0 66.885 68.179">
  <g id="Group_15438" data-name="Group 15438" transform="translate(4105.47 10035.96)">
    <path id="Path_26368" data-name="Path 26368" d="M2056.059,231.094a12.92,12.92,0,0,1,2.4-8.416c3.918-5.291,10.512-5.134,11.121-5.111q-.149-6.763-.3-13.527a26.913,26.913,0,0,0-15.931,5.111c-10.551,7.8-10.815,20.687-10.822,22.245" transform="translate(-6148 -10240)" fill="#fff"/>
    <path id="Path_26369" data-name="Path 26369" d="M2264.661,219.239a12.918,12.918,0,0,1,8.417,2.4c5.291,3.919,5.134,10.512,5.111,11.121q6.762-.15,13.527-.3a26.914,26.914,0,0,0-5.111-15.931c-7.8-10.551-20.687-10.815-22.245-10.822" transform="translate(-6330.3 -10241.373)" fill="#fff"/>
    <path id="Path_26370" data-name="Path 26370" d="M2278.746,430.291a12.919,12.919,0,0,1-2.4,8.416c-3.919,5.291-10.512,5.134-11.122,5.111q.15,6.763.3,13.527a26.914,26.914,0,0,0,15.931-5.111c10.551-7.8,10.815-20.687,10.822-22.245" transform="translate(-6331.007 -10425.687)" fill="#fff"/>
    <path id="Path_26371" data-name="Path 26371" d="M2069.216,441.808a12.908,12.908,0,0,1-8.242-2.947c-5.023-4.254-4.441-10.824-4.376-11.431l-13.518-.579a26.928,26.928,0,0,0,4.063,16.23c7.1,11.038,19.94,12.137,21.493,12.244" transform="translate(-6148.402 -10423.105)" fill="#fff"/>
    <path id="Path_26372" data-name="Path 26372" d="M2117.151,369.209a12.917,12.917,0,0,1,8.416,2.4c5.291,3.919,5.134,10.512,5.111,11.121q6.762-.15,13.527-.3a26.913,26.913,0,0,0-5.111-15.931c-7.8-10.551-20.687-10.815-22.245-10.822" transform="translate(-6209.076 -10364.618)" fill="#fff"/>
    <path id="Path_26373" data-name="Path 26373" d="M2220.654,295.165a12.917,12.917,0,0,1-8.416-2.4c-5.291-3.919-5.134-10.512-5.111-11.121q-6.762.15-13.527.3a26.913,26.913,0,0,0,5.111,15.931c7.8,10.551,20.687,10.815,22.244,10.822" transform="translate(-6272.149 -10303.771)" fill="#fff"/>
  </g>
</svg>
