<svg xmlns="http://www.w3.org/2000/svg" width="19.125" height="22.086" viewBox="0 0 19.125 22.086">
  <path id="AdobeStock_468883740" d="M20.644,10.619a.592.592,0,1,0-.837-.837l-6.3,6.3a2.835,2.835,0,1,0,4.009,4.009l7.969-7.969a4.758,4.758,0,1,0-6.729-6.728l-9,9a6.851,6.851,0,1,0,9.689,9.689l7.206-7.206a.592.592,0,1,0-.837-.837l-7.206,7.206A5.668,5.668,0,1,1,10.6,15.226l9-9a3.575,3.575,0,1,1,5.056,5.055L16.68,19.254a1.652,1.652,0,1,1-2.336-2.336Z" transform="translate(-7.754 -4)" fill="#8e8e8e"/>
</svg>
