<?xml version="1.0" encoding="UTF-8"?>
<svg id="Layer_1" data-name="Layer 1" xmlns="http://www.w3.org/2000/svg" xmlns:xlink="http://www.w3.org/1999/xlink" viewBox="0 0 200 200">
  <defs>
    <style>
      .cls-1 {
        fill: url(#linear-gradient);
      }
    </style>
    <linearGradient id="linear-gradient" x1="1938.29" y1="-4066.12" x2="1943.44" y2="-4066.12" gradientTransform="translate(-73006.7 -153058.52) scale(37.67 -37.67)" gradientUnits="userSpaceOnUse">
      <stop offset="0" stop-color="#0e90a2"/>
      <stop offset=".32" stop-color="#19a574"/>
      <stop offset="1" stop-color="#90c43c"/>
    </linearGradient>
  </defs>
  <path id="Path_27062" data-name="Path 27062" class="cls-1" d="M2.96,2.96v194.09h194.09V2.96H2.96ZM74.06,73.55c-1.06,1.07-2.78,1.08-3.85.02,0,0-.01-.01-.02-.02L24.49,27.91v11.53c0,1.51-1.23,2.74-2.74,2.74s-2.74-1.23-2.74-2.74v-18.15c0-1.51,1.23-2.74,2.74-2.74h18.15c1.51,0,2.74,1.23,2.74,2.74s-1.23,2.74-2.74,2.74h-11.53l45.69,45.66c1.05,1.07,1.05,2.78,0,3.85ZM177.12,178.71c0,1.51-1.23,2.74-2.74,2.74h-18.16c-1.51,0-2.74-1.22-2.74-2.74,0-1.51,1.22-2.74,2.74-2.74h11.54l-45.66-45.66c-1.07-1.08-1.07-2.81,0-3.88.51-.51,1.2-.8,1.92-.8.73,0,1.42.29,1.93.81l45.66,45.66v-11.51c0-1.51,1.23-2.74,2.74-2.74,1.51,0,2.74,1.23,2.74,2.74v18.15l.03-.02Z"/>
</svg>