<?xml version="1.0" encoding="UTF-8"?><svg id="Layer_1" xmlns="http://www.w3.org/2000/svg" xmlns:xlink="http://www.w3.org/1999/xlink" viewBox="0 0 199.34 199.34"><defs><style>.cls-1{fill:none;}.cls-1,.cls-2{stroke-width:0px;}.cls-3{clip-path:url(#clippath);}.cls-2{fill:#fdfdfd;}</style><clipPath id="clippath"><rect class="cls-1" x="29.16" width="141.03" height="199.34"/></clipPath></defs><g id="Group_15332"><g class="cls-3"><g id="Group_15171"><path id="Path_26170" class="cls-2" d="m162.91,68.24c-34.93,0-63.24,28.31-63.24,63.24,0-34.93-28.31-63.24-63.24-63.24h-7.27v67.86c0,34.93,28.31,63.24,63.24,63.24h14.55c34.93,0,63.24-28.31,63.24-63.24h0v-67.87h-7.27Z"/><path id="Path_26171" class="cls-2" d="m127.97,28.3c0,15.63-12.67,28.3-28.3,28.3-15.63,0-28.3-12.67-28.3-28.3,0-15.63,12.67-28.3,28.3-28.3,15.63,0,28.3,12.67,28.3,28.3"/></g></g></g></svg>