<svg id="Group_15333" data-name="Group 15333" xmlns="http://www.w3.org/2000/svg" xmlns:xlink="http://www.w3.org/1999/xlink" width="181.521" height="75.27" viewBox="0 0 181.521 75.27">
  <defs>
    <clipPath id="clip-path">
      <rect id="Rectangle_624" data-name="Rectangle 624" width="181.521" height="75.27" fill="#fff"/>
    </clipPath>
  </defs>
  <g id="Group_15332" data-name="Group 15332" clip-path="url(#clip-path)">
    <path id="Path_26317" data-name="Path 26317" d="M28.988,122.449a4.318,4.318,0,0,1,5.528,5.715c-1.125,3.589-6.272,5.132-8.458,2.534-2.389-2.319-.637-7.263,2.93-8.249" transform="translate(-11.59 -56.725)" fill="#fff" fill-rule="evenodd"/>
    <path id="Path_26318" data-name="Path 26318" d="M64.885,122.524a4.317,4.317,0,0,1,5.865,5.292c-.878,3.669-6.058,5.539-8.4,3.032-2.55-2.18-1-7.178,2.539-8.329Z" transform="translate(-28.364 -56.725)" fill="#fff" fill-rule="evenodd"/>
    <path id="Path_26319" data-name="Path 26319" d="M132.865,69.385H111.6l6.963-32.9H125.9l-5.523,25.9h13.975l-1.489,7.012Z" transform="translate(-51.821 -16.94)" fill="#fff" fill-rule="evenodd"/>
    <path id="Path_26320" data-name="Path 26320" d="M158.435,54.845h7.055L162.7,67.878a6.73,6.73,0,0,0-.139,1.3,3.042,3.042,0,0,0,.814,2.25,3.164,3.164,0,0,0,2.341.814,3.372,3.372,0,0,0,2.576-1.093A6.327,6.327,0,0,0,169.71,68.2l2.876-13.359h7.055l-3.991,19.016a19.1,19.1,0,0,0-.412,4.033h-6.824a4.939,4.939,0,0,1-.048-.787c0-.343.032-.825.091-1.441a5.464,5.464,0,0,1-2.341,2.062,7.187,7.187,0,0,1-3.225.766,7.269,7.269,0,0,1-5.614-2.159,7.754,7.754,0,0,1-2-5.5,11.24,11.24,0,0,1,.279-2.459l2.876-13.541Z" transform="translate(-72.104 -25.465)" fill="#fff" fill-rule="evenodd"/>
    <path id="Path_26321" data-name="Path 26321" d="M220.487,77.414h-7.049l2.732-12.706a6.084,6.084,0,0,0,.187-1.441,3.315,3.315,0,0,0-.836-2.341,3.048,3.048,0,0,0-2.362-.905,3.506,3.506,0,0,0-2.6,1.066,6.066,6.066,0,0,0-1.436,2.919l-2.876,13.4H199.2l4.033-19.2a19.713,19.713,0,0,0,.418-3.851h6.862a16.969,16.969,0,0,1-.091,2.185,6.194,6.194,0,0,1,2.646-2.062,8.572,8.572,0,0,1,3.434-.723q4.4,0,6.256,3.337a9.134,9.134,0,0,1,7.606-3.337,7.124,7.124,0,0,1,5.426,2.159,7.667,7.667,0,0,1,2.041,5.5,12.572,12.572,0,0,1-.236,2.271l-2.919,13.723H227.67l2.689-12.657a6.132,6.132,0,0,0,.188-1.489,3.376,3.376,0,0,0-.814-2.341,2.98,2.98,0,0,0-2.341-.905c-2.1,0-3.45,1.334-4.033,3.991l-2.876,13.4Z" transform="translate(-92.499 -24.963)" fill="#fff" fill-rule="evenodd"/>
    <path id="Path_26322" data-name="Path 26322" d="M277.788,38.417a4.267,4.267,0,0,1,1.318-3.155,4.421,4.421,0,0,1,3.219-1.3,3.552,3.552,0,0,1,2.641,1.023,3.473,3.473,0,0,1,1.023,2.55,4.189,4.189,0,0,1-1.344,3.2,4.524,4.524,0,0,1-3.2,1.253,3.574,3.574,0,0,1-2.614-1.023,3.421,3.421,0,0,1-1.045-2.55m1.3,29.8H272.04l4.912-23.07H284Z" transform="translate(-126.322 -15.769)" fill="#fff" fill-rule="evenodd"/>
    <path id="Path_26323" data-name="Path 26323" d="M314.4,77.414h-7.044l2.6-12.2a8.872,8.872,0,0,0,.273-2,3.3,3.3,0,0,0-.809-2.341,3.13,3.13,0,0,0-2.384-.862,3.452,3.452,0,0,0-2.619,1.114,6.2,6.2,0,0,0-1.462,2.919l-2.871,13.359H293.04l4.028-19.2a18.771,18.771,0,0,0,.418-3.851h6.856a14.878,14.878,0,0,1-.134,2.185,6.206,6.206,0,0,1,2.705-2.089,9.065,9.065,0,0,1,3.455-.7,6.852,6.852,0,0,1,5.351,2.062,7.666,7.666,0,0,1,1.875,5.356,12.448,12.448,0,0,1-.279,2.55L314.4,77.409Z" transform="translate(-136.073 -24.963)" fill="#fff" fill-rule="evenodd"/>
    <path id="Path_26324" data-name="Path 26324" d="M37.447,6.9a1.618,1.618,0,0,1-1.291-.579,1.694,1.694,0,0,1-.284-1.468L36.5,2.094A2.794,2.794,0,0,1,39.076,0a1.6,1.6,0,0,1,1.291.579,1.687,1.687,0,0,1,.284,1.468L40.024,4.8a2.793,2.793,0,0,1-2.576,2.1m4.66,1.323a1.749,1.749,0,0,1-.964-.268A1.482,1.482,0,0,1,40.5,6.921a2.331,2.331,0,0,1,.552-1.784L42.97,2.748A2.715,2.715,0,0,1,45.027,1.7a1.719,1.719,0,0,1,.959.268A1.5,1.5,0,0,1,46.65,3.2a2.358,2.358,0,0,1-.568,1.58L44.164,7.172a2.715,2.715,0,0,1-2.057,1.05m-9.915,0a1.818,1.818,0,0,1-.52-.07A1.462,1.462,0,0,1,30.655,7.2L29.82,4.821a2.034,2.034,0,0,1,.15-1.575,2.931,2.931,0,0,1,1.269-1.28,2.476,2.476,0,0,1,1.1-.279A1.558,1.558,0,0,1,33.885,2.7l.836,2.389A2.51,2.51,0,0,1,33.3,7.933a2.415,2.415,0,0,1-1.1.284Zm-4.467,3.632a1.748,1.748,0,0,1-.959-.273L24.693,10.2a1.5,1.5,0,0,1-.664-1.237A2.438,2.438,0,0,1,24.6,7.381a2.81,2.81,0,0,1,1.5-.975,2.322,2.322,0,0,1,.562-.075,1.7,1.7,0,0,1,.959.279l2.073,1.377a1.454,1.454,0,0,1,.643,1.028,2.328,2.328,0,0,1-.552,1.789,2.741,2.741,0,0,1-2.057,1.05m17.194,0a1.558,1.558,0,0,1-1.543-1.012A2.507,2.507,0,0,1,44.8,8L47.5,6.615a2.467,2.467,0,0,1,1.1-.284,1.818,1.818,0,0,1,.52.075,1.455,1.455,0,0,1,1.018.943,2.058,2.058,0,0,1-.15,1.575,2.915,2.915,0,0,1-1.275,1.28l-2.694,1.377a2.467,2.467,0,0,1-1.1.284Zm-22.4,4.96a1.617,1.617,0,0,1-1.3-.573,1.694,1.694,0,0,1-.284-1.468,2.793,2.793,0,0,1,2.576-2.1h2.753a1.621,1.621,0,0,1,1.3.579,1.694,1.694,0,0,1,.284,1.468,2.793,2.793,0,0,1-2.576,2.094Zm22.594,0a1.606,1.606,0,0,1-1.291-.573,1.694,1.694,0,0,1-.284-1.468,2.793,2.793,0,0,1,2.576-2.1h2.753a1.629,1.629,0,0,1,1.3.579,1.693,1.693,0,0,1,.279,1.468,2.786,2.786,0,0,1-2.571,2.094Zm-10.429.568a2.474,2.474,0,0,1-1.966-.82,2.649,2.649,0,0,1-.643-2.619,4.735,4.735,0,0,1,3.037-3.417,3.552,3.552,0,0,1,1.318-.268,2.857,2.857,0,0,1,2.4,1.259,2.946,2.946,0,0,1,.193,2.807,4.764,4.764,0,0,1-4.333,3.053ZM22.626,23.836a1.562,1.562,0,0,1-1.543-1.012,2.507,2.507,0,0,1,1.425-2.844l2.7-1.382a2.378,2.378,0,0,1,1.1-.284,1.951,1.951,0,0,1,.53.075,1.468,1.468,0,0,1,1.012.943A2,2,0,0,1,27.7,20.9a2.931,2.931,0,0,1-1.269,1.28l-2.7,1.377a2.467,2.467,0,0,1-1.1.284Zm21.951,0a1.766,1.766,0,0,1-.964-.273L41.54,22.192a1.482,1.482,0,0,1-.643-1.039,2.331,2.331,0,0,1,.552-1.784,2.81,2.81,0,0,1,1.5-.975,2.255,2.255,0,0,1,.562-.075,1.717,1.717,0,0,1,.953.273l2.073,1.377A1.454,1.454,0,0,1,47.18,21a2.344,2.344,0,0,1-.546,1.789,2.741,2.741,0,0,1-2.057,1.05ZM23.317,51.749l6.8-29.611a4.809,4.809,0,0,1,4.435-3.621,2.818,2.818,0,0,1,2.26,1.007,2.944,2.944,0,0,1,.493,2.555l-6.819,29.67H23.317ZM13.429,62.542A10.076,10.076,0,0,1,3.546,50.517l7.815-39.649a3.443,3.443,0,0,0-3.369-4.1H3.321a3.321,3.321,0,1,1,0-6.642H7.992a10.077,10.077,0,0,1,9.883,12.031L10.054,51.8a3.436,3.436,0,0,0,3.369,4.1H46.087a3.412,3.412,0,0,0,3.348-2.673l.471-2.062h-.037l2.989-13.177A3.8,3.8,0,0,0,52.547,35a2.923,2.923,0,0,0-2.657-1.146,4.58,4.58,0,0,0-3.1,1.162,5.428,5.428,0,0,0-1.736,2.962l-3.2,13.761h-6.8l5.4-23.451H47.03l-.686,3,.327-.407a8.105,8.105,0,0,1,3.209-2.352,9.912,9.912,0,0,1,3.883-.852c2.694,0,4.569.846,5.576,2.518a8.667,8.667,0,0,1,.616,6.524l-2.812,12.39a3.592,3.592,0,0,1-.075.562l-1.157,5.03a10.029,10.029,0,0,1-9.824,7.82H13.429Z" fill="#e1d115" fill-rule="evenodd"/>
  </g>
</svg>
