<svg xmlns="http://www.w3.org/2000/svg" width="447.375" height="477.713" viewBox="0 0 447.375 477.713">
  <g id="Artboard_1" data-name="Artboard 1" transform="translate(-60.68 -65.409)">
    <g id="OBJECTS" transform="translate(60.68 65.409)">
      <g id="Group_15738" data-name="Group 15738" transform="translate(33.688 249.723)">
        <path id="Path_26727" data-name="Path 26727" d="M470.116,377.293c17.765,10.255,17.858,26.89.208,37.157L319.353,502.182c-17.65,10.255-46.363,10.255-64.128,0L103.273,414.451C85.508,404.2,85.4,387.56,103.054,377.3l150.971-87.731c17.65-10.255,46.375-10.255,64.14,0L470.116,377.3Z" transform="translate(-89.882 -281.882)" fill="#757677"/>
      </g>
      <g id="Group_15739" data-name="Group 15739" transform="translate(13.959 180.187)">
        <path id="Path_26728" data-name="Path 26728" d="M491.316,350.749l-166.072,96.51c-19.415,11.282-51,11.282-70.542,0L87.558,350.76c-9.84-5.676-14.754-13.139-14.731-20.58l-.046,10.382c-.023,7.441,4.891,14.9,14.731,20.58l167.144,96.5c19.542,11.282,51.127,11.294,70.542,0l166.072-96.51c9.644-5.606,14.478-12.943,14.5-20.292l.046-10.382C505.794,337.805,500.971,345.142,491.316,350.749Z" transform="translate(-72.78 -204.928)"/>
        <path id="Path_26729" data-name="Path 26729" d="M491.089,326.553c19.542,11.282,19.646,29.59.231,40.872l-166.072,96.51c-19.415,11.282-51,11.282-70.542,0l-167.144-96.5c-19.542-11.282-19.657-29.578-.242-40.86l166.072-96.51c19.415-11.282,51.012-11.282,70.554,0l167.144,96.5Z" transform="translate(-72.772 -221.605)" fill="#f5f5ee" stroke="#77e57a" stroke-width="0.75"/>
      </g>
      <g id="Group_15740" data-name="Group 15740" transform="translate(86.566 27.018)">
        <path id="Path_26730" data-name="Path 26730" d="M140.127,212.345l-4.153-2.411-.254-90.684,4.153,2.423Z" transform="translate(-135.72 -84.158)" fill="#757677"/>
        <path id="Path_26731" data-name="Path 26731" d="M139.873,126.345l-4.153-2.423L196.514,88.83l4.153,2.411Z" transform="translate(-135.72 -88.83)" fill="#757677"/>
        <path id="Path_26732" data-name="Path 26732" d="M200.114,90.92l.254,90.673-60.794,35.1-.254-90.673Z" transform="translate(-135.167 -88.509)" fill="none" stroke="#000" stroke-linejoin="round" stroke-width="0.75"/>
        <path id="Path_26733" data-name="Path 26733" d="M144.43,126.459,193.469,98.15l.219,73.519-49.039,28.309Z" transform="translate(-134.382 -87.398)" fill="none" stroke="#000" stroke-linejoin="round" stroke-width="0.75"/>
      </g>
      <path id="Path_26734" data-name="Path 26734" d="M158.618,118.438v-6.564l-4.418-2.5v-5.26l4.1,2.076v.957l3.922,2.411v11.017Z" transform="translate(-46.316 -59.465)" fill="#757677"/>
      <path id="Path_26735" data-name="Path 26735" d="M158.3,107.414l-4.1-2.076,15.3-9.217,4.13,2.307Z" transform="translate(-46.316 -60.692)" fill="#757677"/>
      <path id="Path_26736" data-name="Path 26736" d="M173.081,98.12v.957l4.441,2.619-15.85,8.779-3.922-2.411v-.957Z" transform="translate(-45.77 -60.385)" fill="#fff"/>
      <path id="Path_26737" data-name="Path 26737" d="M161.15,121.016,177,111.5V101.22L161.15,110Z" transform="translate(-45.248 -59.909)" fill="#757677"/>
      <path id="Path_26738" data-name="Path 26738" d="M174.663,118.94v3.853l-15.781,9.113-.012-3.853Z" transform="translate(-45.598 -57.187)" fill="#abdbb4"/>
      <path id="Path_26739" data-name="Path 26739" d="M173.738,127.16v2.076l-17.1,9.875-.012-2.076Z" transform="translate(-45.942 -55.925)" fill="#abdbb4"/>
      <path id="Path_26740" data-name="Path 26740" d="M155.293,136.91l.012,2.076-5.433,3.138-.012-2.076Z" transform="translate(-46.982 -54.427)" fill="#abdbb4"/>
      <path id="Path_26741" data-name="Path 26741" d="M182.816,121.31v2.065l-9.044,5.226-.012-2.076Z" transform="translate(-43.311 -56.823)" fill="#abdbb4"/>
      <path id="Path_26742" data-name="Path 26742" d="M173.768,137.19v2.065l-17.1,9.875-.012-2.065Z" transform="translate(-45.938 -54.384)" fill="#abdbb4"/>
      <path id="Path_26743" data-name="Path 26743" d="M173.776,142.2l.012,2.076-17.108,9.875v-2.076Z" transform="translate(-45.935 -53.615)" fill="#abdbb4"/>
      <path id="Path_26744" data-name="Path 26744" d="M173.746,132.18l.012,2.065L156.65,144.12v-2.065Z" transform="translate(-45.939 -55.154)" fill="#abdbb4"/>
      <path id="Path_26745" data-name="Path 26745" d="M155.313,141.93v2.065l-5.433,3.138v-2.065Z" transform="translate(-46.979 -53.656)" fill="#abdbb4"/>
      <path id="Path_26746" data-name="Path 26746" d="M182.864,141.74l.012,2.065-9.056,5.214v-2.053Z" transform="translate(-43.302 -53.685)" fill="#abdbb4"/>
      <path id="Path_26747" data-name="Path 26747" d="M182.856,136.34v2.076l-9.044,5.226-.012-2.076Z" transform="translate(-43.305 -54.515)" fill="#abdbb4"/>
      <path id="Path_26748" data-name="Path 26748" d="M182.834,131.33l.012,2.076-9.044,5.214-.012-2.065Z" transform="translate(-43.307 -55.284)" fill="#abdbb4"/>
      <path id="Path_26749" data-name="Path 26749" d="M182.824,126.32l.012,2.065-9.056,5.226v-2.065Z" transform="translate(-43.308 -56.054)" fill="#abdbb4"/>
      <path id="Path_26750" data-name="Path 26750" d="M155.323,146.94l.012,2.065-5.433,3.138-.012-2.065Z" transform="translate(-46.978 -52.886)" fill="#abdbb4"/>
      <path id="Path_26751" data-name="Path 26751" d="M155.343,151.95v2.076l-5.433,3.138v-2.076Z" transform="translate(-46.974 -52.117)" fill="#abdbb4"/>
      <path id="Path_26752" data-name="Path 26752" d="M173.828,157.62v2.065L156.72,169.56v-2.065Z" transform="translate(-45.929 -51.246)" fill="#abdbb4"/>
      <path id="Path_26753" data-name="Path 26753" d="M173.806,152.61l.012,2.065L156.71,164.55v-2.065Z" transform="translate(-45.93 -52.016)" fill="#abdbb4"/>
      <path id="Path_26754" data-name="Path 26754" d="M173.8,147.59v2.065l-17.1,9.875-.012-2.065Z" transform="translate(-45.933 -52.787)" fill="#abdbb4"/>
      <path id="Path_26755" data-name="Path 26755" d="M155.353,157.34l.012,2.065-5.433,3.138-.012-2.065Z" transform="translate(-46.973 -51.289)" fill="#abdbb4"/>
      <path id="Path_26756" data-name="Path 26756" d="M155.362,162.36l.012,2.065-5.433,3.126V165.5Z" transform="translate(-46.97 -50.518)" fill="#abdbb4"/>
      <path id="Path_26757" data-name="Path 26757" d="M182.886,146.75v2.065l-9.044,5.226-.012-2.065Z" transform="translate(-43.301 -52.916)" fill="#abdbb4"/>
      <path id="Path_26758" data-name="Path 26758" d="M155.383,167.37v2.065l-5.433,3.138v-2.065Z" transform="translate(-46.968 -49.749)" fill="#abdbb4"/>
      <path id="Path_26759" data-name="Path 26759" d="M182.894,151.76l.012,2.076-9.056,5.214v-2.065Z" transform="translate(-43.297 -52.146)" fill="#abdbb4"/>
      <g id="Group_15741" data-name="Group 15741" transform="translate(137.186 0.698)">
        <path id="Path_26760" data-name="Path 26760" d="M205.476,67.128l1.627.946c-2.988-1.73-7.129-1.488-11.686,1.142l-1.627-.946C198.358,65.629,202.488,65.386,205.476,67.128Z" transform="translate(-177.42 -66.014)" fill="#d7f7de" stroke="#77e59f" stroke-width="0.75"/>
        <path id="Path_26761" data-name="Path 26761" d="M186.014,107.817l-1.627-.946c-2.953-1.719-4.776-5.353-4.787-10.544-.035-10.429,7.3-23.13,16.381-28.367l1.627.946c-9.079,5.237-16.4,17.938-16.381,28.367.012,5.18,1.846,8.825,4.787,10.544Z" transform="translate(-179.6 -65.715)" fill="#d7f7de" stroke="#77e59f" stroke-width="0.75"/>
        <path id="Path_26762" data-name="Path 26762" d="M197.381,69.09c9.079-5.237,16.45-1.038,16.485,9.39s-7.3,23.13-16.381,28.367-16.45,1.038-16.485-9.39,7.3-23.13,16.381-28.367Z" transform="translate(-179.385 -65.888)" fill="#77e59f" stroke="#80ed95" stroke-width="0.75"/>
      </g>
      <path id="Path_26763" data-name="Path 26763" d="M202.885,74.87l.992,1.615a42.066,42.066,0,0,0-5.272,8.352c-.5,1-.957,2-1.373,2.942a77.65,77.65,0,0,0-2.907,7.729l-.5,1.673-5.18-.911,1.177-2.757,3.045.542c.542-1.627,1.511-4.291,2.861-7.291.358-.808.75-1.627,1.165-2.469a46.913,46.913,0,0,1,5.987-9.413Z" transform="translate(-41.024 -63.956)" fill="#f5f5ee" stroke="#fff" stroke-width="1"/>
      <g id="Group_15742" data-name="Group 15742" transform="translate(287.58 71.268)">
        <path id="Path_26764" data-name="Path 26764" d="M311.96,129.8l3.657-2.123c1.315-.761,3.126-.658,5.134.508l-3.657,2.123c-2.007-1.154-3.818-1.269-5.122-.508Z" transform="translate(-309.664 -127.188)" fill="#d6d6d6"/>
        <path id="Path_26765" data-name="Path 26765" d="M422.427,256.114l-3.657,2.123c1.292-.75,2.088-2.342,2.1-4.614l3.657-2.123C424.526,253.761,423.719,255.365,422.427,256.114Z" transform="translate(-293.259 -108.094)" fill="#d6d6d6"/>
        <path id="Path_26766" data-name="Path 26766" d="M420.775,197.593l3.645-2.123-.185,64.636-3.645,2.123Z" transform="translate(-292.979 -116.7)" fill="#d6d6d6"/>
        <path id="Path_26767" data-name="Path 26767" d="M316.41,130.173l3.645-2.123,113.191,65.34-3.657,2.123Z" transform="translate(-308.981 -127.055)" fill="#d6d6d6"/>
        <path id="Path_26768" data-name="Path 26768" d="M414.52,186.813l3.657-2.123a15.773,15.773,0,0,1,7.175,12.436l-3.657,2.123A15.8,15.8,0,0,0,414.52,186.813Z" transform="translate(-293.911 -118.356)" fill="#d6d6d6"/>
        <path id="Path_26769" data-name="Path 26769" d="M430.578,195.363a15.773,15.773,0,0,1,7.175,12.436l-.185,64.636c-.012,4.568-3.242,6.4-7.233,4.107L317.145,211.19a15.77,15.77,0,0,1-7.175-12.424l.185-64.636c.012-4.58,3.242-6.414,7.233-4.118Z" transform="translate(-309.97 -126.906)" fill="none" stroke="#000" stroke-linejoin="round" stroke-width="0.75"/>
      </g>
      <path id="Path_26770" data-name="Path 26770" d="M341.268,151.845a4.074,4.074,0,0,1,1.834,3.184l-.058,20.234c0,1.154-.831,1.627-1.846,1.038l-15.885-9.171a4.071,4.071,0,0,1-1.834-3.172l.058-20.234c0-1.165.831-1.638,1.846-1.05l15.885,9.171Z" transform="translate(-20.315 -53.581)" fill="#545655"/>
      <path id="Path_26771" data-name="Path 26771" d="M344.348,192.23l-.012,4-20.926-12.09.012-4Z" transform="translate(-20.326 -47.787)" fill="#abdbb4"/>
      <path id="Path_26772" data-name="Path 26772" d="M365.306,196.758l-.012,3.68L323.43,176.27l.012-3.68Z" transform="translate(-20.323 -48.947)" fill="#abdbb4"/>
      <path id="Path_26773" data-name="Path 26773" d="M361.938,163.785a4.01,4.01,0,0,1,1.823,3.172l-.058,20.234c0,1.154-.819,1.638-1.834,1.05l-15.885-9.171a4.071,4.071,0,0,1-1.834-3.172l.058-20.234c0-1.165.831-1.638,1.846-1.05l15.885,9.171Z" transform="translate(-17.14 -51.747)" fill="#545655"/>
      <path id="Path_26774" data-name="Path 26774" d="M391.618,180.926a4.01,4.01,0,0,1,1.823,3.172l-.058,20.234c0,1.154-.819,1.638-1.834,1.05l-15.9-9.183a4.007,4.007,0,0,1-1.823-3.161l.058-20.234c0-1.165.819-1.65,1.834-1.061l15.9,9.183Z" transform="translate(-12.581 -49.115)" fill="#545655"/>
      <path id="Path_26775" data-name="Path 26775" d="M397.6,212.378a11.746,11.746,0,0,1,5.33,9.24c0,3.415-2.411,4.764-5.364,3.057a11.728,11.728,0,0,1-5.33-9.24C392.24,212.032,394.651,210.671,397.6,212.378ZM397.57,223c2.146,1.246,3.9.242,3.911-2.226a8.526,8.526,0,0,0-3.888-6.714c-2.146-1.246-3.9-.254-3.911,2.215A8.546,8.546,0,0,0,397.57,223" transform="translate(-9.754 -42.949)" fill="#abdbb4"/>
      <path id="Path_26776" data-name="Path 26776" d="M412.288,192.856a4.023,4.023,0,0,1,1.823,3.172l-.058,20.234c0,1.154-.831,1.627-1.834,1.05l-15.9-9.183a4.007,4.007,0,0,1-1.823-3.161l.058-20.234c0-1.165.819-1.65,1.834-1.061Z" transform="translate(-9.407 -47.283)" fill="#545655"/>
      <path id="Path_26777" data-name="Path 26777" d="M368.13,173.541a1.28,1.28,0,0,1,.588.992v2.653c0,.369-.277.508-.6.323l-1.442-.831a1.25,1.25,0,0,1-.577-.992v-2.653c0-.369.265-.508.588-.323l1.442.831Z" transform="translate(-13.769 -48.941)" fill="#f5f5ee" stroke="#77e57a" stroke-width="0.75"/>
      <path id="Path_26778" data-name="Path 26778" d="M368.109,179.111a1.28,1.28,0,0,1,.588.992v2.653c0,.369-.277.508-.588.323l-1.442-.831a1.25,1.25,0,0,1-.577-.992V178.6c0-.369.265-.508.588-.323l1.442.831Z" transform="translate(-13.77 -48.085)" fill="#f5f5ee" stroke="#77e57a" stroke-width="0.75"/>
      <path id="Path_26779" data-name="Path 26779" d="M386.43,225.7a1.751,1.751,0,0,1,.808,1.373l-.023,6.379c0,.519-.358.727-.808.461L350.358,213.1a1.77,1.77,0,0,1-.808-1.4l.023-6.379c0-.508.369-.7.808-.45l36.05,20.811Z" transform="translate(-16.311 -44.005)" fill="#77e59f"/>
      <path id="Path_26780" data-name="Path 26780" d="M385.734,205.528a11.746,11.746,0,0,1,5.33,9.24c0,3.415-2.411,4.764-5.364,3.057a11.728,11.728,0,0,1-5.33-9.24C380.37,205.182,382.781,203.821,385.734,205.528Zm-.035,10.625c2.146,1.246,3.911.254,3.922-2.215a8.569,8.569,0,0,0-3.888-6.714c-2.146-1.246-3.9-.254-3.911,2.215a8.6,8.6,0,0,0,3.876,6.725" transform="translate(-11.577 -44.001)" fill="#abdbb4"/>
      <path id="Path_26781" data-name="Path 26781" d="M409.914,219.478a11.746,11.746,0,0,1,5.33,9.24c0,3.415-2.411,4.764-5.364,3.057a11.741,11.741,0,0,1-5.33-9.24C404.55,219.132,406.973,217.771,409.914,219.478ZM409.88,230.1c2.146,1.246,3.911.254,3.922-2.215a8.569,8.569,0,0,0-3.888-6.714c-2.146-1.246-3.9-.254-3.911,2.215a8.577,8.577,0,0,0,3.888,6.725" transform="translate(-7.863 -41.858)" fill="#abdbb4"/>
      <g id="Group_15743" data-name="Group 15743" transform="translate(311.944 1.021)">
        <path id="Path_26782" data-name="Path 26782" d="M359.724,69.669c-6.841-3.945-13.036-4.314-17.5-1.719L337.31,70.8c4.476-2.6,10.659-2.226,17.5,1.719,13.578,7.844,24.549,26.844,24.5,42.441-.023,7.752-2.757,13.209-7.175,15.781l4.914-2.849c4.418-2.561,7.152-8.017,7.175-15.781C384.273,96.5,373.3,77.5,359.724,69.669Z" transform="translate(-330.134 -66.294)" fill="#757677"/>
        <path id="Path_26783" data-name="Path 26783" d="M355.765,72.15c13.578,7.844,24.548,26.844,24.5,42.441S369.182,136.5,355.6,128.653,331.044,101.8,331.09,86.2s11.086-21.9,24.675-14.051Z" transform="translate(-331.09 -65.914)" fill="#f5f5ee" stroke="#77e57a" stroke-width="0.75"/>
      </g>
      <g id="Group_15744" data-name="Group 15744" transform="translate(300.465)">
        <path id="Path_26784" data-name="Path 26784" d="M355.178,69.425c-8.133-4.7-15.493-5.133-20.811-2.042l-5.837,3.392c5.318-3.092,12.678-2.653,20.811,2.042,16.139,9.321,29.186,31.908,29.128,50.458-.023,9.217-3.276,15.7-8.525,18.757l5.837-3.392c5.249-3.046,8.5-9.54,8.525-18.757C384.364,101.333,371.317,78.746,355.178,69.425Z" transform="translate(-320.005 -65.409)" fill="#d6d6d6"/>
        <path id="Path_26785" data-name="Path 26785" d="M350.476,72.364c16.139,9.321,29.186,31.908,29.128,50.458s-13.174,26.037-29.324,16.716-29.2-31.92-29.14-50.47,13.174-26.025,29.324-16.7Z" transform="translate(-321.14 -64.957)" fill="#f5f5ee" stroke="#000" stroke-width="0.75"/>
      </g>
      <path id="Path_26786" data-name="Path 26786" d="M373.122,118.532c-.012,7.821-2.919,13.186-7.545,15.47-4.211,2.053-9.84,1.557-16.035-2.019-12.989-7.5-23.487-25.667-23.453-40.6.023-8.894,3.784-14.639,9.6-16.208a.04.04,0,0,1,.023-.012c3.911-1.061,8.744-.231,13.97,2.792,12.978,7.5,23.476,25.667,23.418,40.583Z" transform="translate(-19.914 -63.978)" fill="none" stroke="#000" stroke-linejoin="round" stroke-width="0.75"/>
      <path id="Path_26787" data-name="Path 26787" d="M347.448,79.029a1.039,1.039,0,0,1,.438.8v4c0,.288-.208.415-.45.265a1.009,1.009,0,0,1-.427-.8v-4c0-.3.208-.415.45-.265Z" transform="translate(-16.701 -63.327)" fill="#0c0c0c"/>
      <path id="Path_26788" data-name="Path 26788" d="M338.57,76.519a.945.945,0,0,1,.369.485l1.65,4.476c.127.335.046.6-.161.623a.416.416,0,0,1-.219-.058,1.006,1.006,0,0,1-.381-.5l-1.65-4.476c-.115-.323-.046-.6.162-.623a.392.392,0,0,1,.219.058Z" transform="translate(-18.066 -63.713)" fill="#0c0c0c"/>
      <path id="Path_26789" data-name="Path 26789" d="M332.06,80.427a.908.908,0,0,1,.219.208l2.861,3.738a.787.787,0,0,1,.15.819c-.081.127-.231.127-.381.035a1.119,1.119,0,0,1-.219-.2l-2.861-3.738a.824.824,0,0,1-.162-.819.267.267,0,0,1,.381-.035Z" transform="translate(-19.066 -63.11)" fill="#0c0c0c"/>
      <path id="Path_26790" data-name="Path 26790" d="M332.961,91.716a.992.992,0,0,1,.427.8c0,.288-.2.4-.438.265l-3.311-2.007a1.039,1.039,0,0,1-.438-.8c0-.3.2-.415.438-.265l3.311,2.007Z" transform="translate(-19.436 -61.687)" fill="#0c0c0c"/>
      <path id="Path_26791" data-name="Path 26791" d="M334.871,101.658a.93.93,0,0,1,.369.5c.127.335.046.6-.15.623l-2.872.254a.416.416,0,0,1-.219-.058,1.006,1.006,0,0,1-.381-.5c-.115-.323-.046-.6.161-.623l2.872-.254a.416.416,0,0,1,.219.058Z" transform="translate(-19.074 -59.85)" fill="#0c0c0c"/>
      <path id="Path_26792" data-name="Path 26792" d="M340.139,111.546a.908.908,0,0,1,.219.208.791.791,0,0,1,.162.819l-1.661,2.469c-.081.127-.231.127-.381.035a1.119,1.119,0,0,1-.219-.2.824.824,0,0,1-.161-.819l1.661-2.457c.081-.127.231-.127.381-.035Z" transform="translate(-18.078 -58.329)" fill="#0c0c0c"/>
      <path id="Path_26793" data-name="Path 26793" d="M347.338,118.478a1.039,1.039,0,0,1,.438.8v4c0,.3-.208.415-.45.265a.992.992,0,0,1-.427-.8v-4c.012-.288.208-.4.45-.265Z" transform="translate(-16.718 -57.267)" fill="#0c0c0c"/>
      <path id="Path_26794" data-name="Path 26794" d="M354.787,120.588a1.006,1.006,0,0,1,.381.5l1.65,4.464c.115.323.046.6-.162.623a.564.564,0,0,1-.219-.058,1.006,1.006,0,0,1-.381-.5l-1.638-4.464c-.127-.335-.046-.6.162-.623a.416.416,0,0,1,.219.058Z" transform="translate(-15.572 -56.943)" fill="#0c0c0c"/>
      <path id="Path_26795" data-name="Path 26795" d="M360.248,117.31a.908.908,0,0,1,.219.208l2.861,3.738a.817.817,0,0,1,.162.819.267.267,0,0,1-.381.035.908.908,0,0,1-.219-.208l-2.861-3.749a.817.817,0,0,1-.162-.819.267.267,0,0,1,.381-.035Z" transform="translate(-14.735 -57.449)" fill="#0c0c0c"/>
      <path id="Path_26796" data-name="Path 26796" d="M365.578,111.536a1.039,1.039,0,0,1,.438.8c0,.288-.2.4-.438.254l-3.311-2.007a.988.988,0,0,1-.427-.784c0-.3.2-.415.438-.265l3.311,2.007Z" transform="translate(-14.423 -58.643)" fill="#0c0c0c"/>
      <path id="Path_26797" data-name="Path 26797" d="M363.17,99.1a1.006,1.006,0,0,1,.381.5c.115.323.046.6-.162.623l-2.872.254a.564.564,0,0,1-.219-.058,1.006,1.006,0,0,1-.381-.5c-.115-.323-.035-.611.162-.623l2.872-.254A.564.564,0,0,1,363.17,99.1Z" transform="translate(-14.727 -60.244)" fill="#0c0c0c"/>
      <path id="Path_26798" data-name="Path 26798" d="M356.53,87.3a.908.908,0,0,1,.219.208.817.817,0,0,1,.162.819l-1.661,2.469c-.081.127-.231.127-.381.035a1.119,1.119,0,0,1-.219-.2.8.8,0,0,1-.161-.819l1.661-2.469c.081-.115.231-.115.381-.023Z" transform="translate(-15.562 -62.054)" fill="#0c0c0c"/>
      <g id="Group_15745" data-name="Group 15745" transform="translate(318.534 31.26)">
        <path id="Path_26799" data-name="Path 26799" d="M347.249,101.75a.556.556,0,0,0,.542.058l-2.549,1.477a.529.529,0,0,1-.542-.058C345.461,102.788,346.477,102.188,347.249,101.75Z" transform="translate(-335.59 -91.087)" fill="#2f97ed"/>
        <path id="Path_26800" data-name="Path 26800" d="M366.931,105.661c.254.15.4.646.15.681l-19.519-1.43c-.092.9-.784,1.257-1.65.761a3.745,3.745,0,0,1-1.569-2.226l-7.371-10.209c-.335-.461-.127-.877.208-.681a.863.863,0,0,1,.162.138l8.191,9a2,2,0,0,1,.381.15,2.824,2.824,0,0,1,.727.623l20.153,3.149a.567.567,0,0,1,.138.035Zm-21.018-1.015c.427.242.761.046.761-.438a1.66,1.66,0,0,0-.761-1.315c-.415-.242-.761-.046-.761.438a1.709,1.709,0,0,0,.761,1.315" transform="translate(-336.803 -92.507)" fill="#0c0c0c"/>
        <path id="Path_26801" data-name="Path 26801" d="M344.811,101.533a1.66,1.66,0,0,1,.761,1.315.466.466,0,0,1-.761.438,1.71,1.71,0,0,1-.761-1.315C344.05,101.487,344.4,101.3,344.811,101.533Z" transform="translate(-335.69 -91.136)" fill="#f5f5ee" stroke="#77e57a" stroke-width="0.75"/>
      </g>
      <g id="Group_15746" data-name="Group 15746" transform="translate(383.478 47.068)">
        <path id="Path_26802" data-name="Path 26802" d="M415.831,133.189l3.715-2.169-.081,27.179-3.715,2.157Z" transform="translate(-389.621 -102.399)" fill="#d7f7de" stroke="#77e59f" stroke-width="0.75"/>
        <path id="Path_26803" data-name="Path 26803" d="M407.64,108.367l3.715-2.157L427.989,139l-3.715,2.157Z" transform="translate(-390.867 -106.21)" fill="#d7f7de" stroke="#77e59f" stroke-width="0.75"/>
        <path id="Path_26804" data-name="Path 26804" d="M409.873,108.08l16.635,32.785-7.2-4.153-.081,27.167-19-10.959.081-27.179-7.21-4.164Z" transform="translate(-393.1 -105.923)" fill="#0c0c0c" stroke="#77e59f" stroke-width="0.75"/>
      </g>
      <g id="Group_15747" data-name="Group 15747" transform="translate(0 30.674)">
        <path id="Path_26805" data-name="Path 26805" d="M89.808,96.015c8.133-4.7,15.493-5.133,20.811-2.042l5.837,3.392c-5.318-3.092-12.678-2.653-20.811,2.042-16.139,9.321-29.186,31.908-29.128,50.458.023,9.217,3.276,15.7,8.525,18.757l-5.837-3.392c-5.249-3.045-8.5-9.54-8.525-18.757-.058-18.55,12.989-41.137,29.128-50.458Z" transform="translate(-60.68 -91.999)" fill="#757677"/>
        <path id="Path_26806" data-name="Path 26806" d="M94.868,98.954c-16.139,9.321-29.186,31.908-29.128,50.458s13.174,26.037,29.324,16.716,29.2-31.92,29.14-50.47S111.03,89.633,94.88,98.954Z" transform="translate(-59.903 -91.547)" fill="none" stroke="#000" stroke-linejoin="round" stroke-width="0.75"/>
      </g>
      <path id="Path_26807" data-name="Path 26807" d="M94.117,104.639C81.185,112.1,70.745,130.191,70.78,145.05s10.555,20.857,23.487,13.393,23.383-25.575,23.337-40.434-10.555-20.845-23.5-13.382Z" transform="translate(-59.129 -59.879)" fill="#d6d6d6"/>
      <path id="Path_26808" data-name="Path 26808" d="M93.052,112.7c-8.375,4.834-15.147,16.554-15.112,26.187s6.841,13.509,15.216,8.675,15.147-16.566,15.124-26.187-6.841-13.509-15.216-8.663Z" transform="translate(-58.029 -58.465)" fill="none" stroke="#000" stroke-linejoin="round" stroke-width="0.75"/>
      <path id="Path_26809" data-name="Path 26809" d="M91.9,121.364a13.85,13.85,0,0,0-6.287,10.89c0,4,2.838,5.618,6.322,3.611a13.849,13.849,0,0,0,6.287-10.89c0-4-2.838-5.618-6.333-3.6Z" transform="translate(-56.851 -56.947)" fill="#77e59f" stroke="#000" stroke-width="0.75"/>
      <path id="Path_26810" data-name="Path 26810" d="M111.223,143.132l-.934,3.876a2.347,2.347,0,0,0,.346,1.857l5.653,8.11,2.826-7.694-7.9-6.16Z" transform="translate(-53.07 -53.473)"/>
      <path id="Path_26811" data-name="Path 26811" d="M113.33,140.491l4.28-1.984a3.052,3.052,0,0,1,1.869-.219l7.256,1.477-5.941,4.972Z" transform="translate(-52.593 -54.224)"/>
      <path id="Path_26812" data-name="Path 26812" d="M91.226,127.93a.292.292,0,0,1,.323-.485l34.493,19.992a2.922,2.922,0,0,1,.773,4.441h0a2.92,2.92,0,0,1-4.015.4L91.226,127.93Z" transform="translate(-56.006 -55.887)" fill="#545655"/>
      <ellipse id="Ellipse_67" data-name="Ellipse 67" cx="58.326" cy="32.116" rx="58.326" ry="32.116" transform="translate(162.853 270.854)" fill="#d6d6d6"/>
      <path id="Path_26813" data-name="Path 26813" d="M234.99,139.326c-2.988,4.211-13.37,21.641-17.6,30.282h0s-3.449,2.3-3.334,4.857-3.288,4.764-1.7,8.075c1.246,2.6,7.6.115,10.3-1.084a13.252,13.252,0,0,0,2.757.127c7.048-.415,18.008-13.1,18.008-13.1l-.265-35.058s-4.4.554-8.179,5.895Z" transform="translate(-37.448 -54.963)" fill="#0c0c0c" stroke="#757677" stroke-width="0.75"/>
      <path id="Path_26814" data-name="Path 26814" d="M247.64,100.962s.681-7.6,10.117-9.69,17.177,3.092,16.75,10.428,4.464,7.475,2.157,15.931-6.183,11.951-5.307,15.873,4.684.842,4.684.842-2.884,8.375-8.79,8.7-11.144-4.857-11.917-11.374-7.683-30.709-7.683-30.709Z" transform="translate(-31.964 -61.508)" fill="#0c0c0c" stroke="#757677" stroke-width="0.75"/>
      <path id="Path_26815" data-name="Path 26815" d="M251.18,98.558a11.562,11.562,0,0,1,11.028-.138c5.814,3.115,7.152,12.574,5.122,15.631S251.18,98.558,251.18,98.558Z" transform="translate(-31.42 -60.546)" fill="#f5f5ee" stroke="#757677" stroke-width="0.75"/>
      <path id="Path_26816" data-name="Path 26816" d="M232.623,306.491a19.9,19.9,0,0,1-7.6,9c-5.468,3.322-10.717,10.705-3.1,11.674s13.393-.854,16.173-4.822,7.5-3.749,8.675-4.926.646-6.852,0-9.852S232.623,306.491,232.623,306.491Z" transform="translate(-36.5 -28.474)" fill="#161616" stroke="#000" stroke-linejoin="round" stroke-width="0.75"/>
      <path id="Path_26817" data-name="Path 26817" d="M230.63,191.48s-4.361,11.282-5.791,36.6c-1.211,21.549,1.569,45.867,4.337,67.058,3.311,25.252-.127,30.143,4.326,32.831s12.989,1.142,13.566-2.5,4.545-24.295,3.172-39.857-1.13-24.11,4.522-40.607,3-42.233,3-42.233L230.641,191.48Z" transform="translate(-35.511 -46.045)" fill="#757677"/>
      <path id="Path_26818" data-name="Path 26818" d="M263.116,319.951a124.3,124.3,0,0,1-1.823,14.57c-1.6,9.217,1.823,15.643,6.322,13.82s8.779-5.353,8.467-11.571,2.18-13.924.012-16.819-12.978,0-12.978,0Z" transform="translate(-29.928 -26.51)" fill="#161616" stroke="#000" stroke-linejoin="round" stroke-width="0.75"/>
      <path id="Path_26819" data-name="Path 26819" d="M238.442,198.43a100.723,100.723,0,0,0,4.88,31.8S240.034,245.9,249.7,280.8c10.325,37.273,14.662,56.676,16.716,58.914s9.794,2.33,13.647-.427-.358-43.917-2.93-57.207-3.553-14.1-.427-34.273.784-32.993-5.283-47.77l-32.97-1.592Z" transform="translate(-33.379 -44.978)" fill="#f5f5ee" stroke="#757677" stroke-width="0.75"/>
      <path id="Path_26820" data-name="Path 26820" d="M280.656,171.945c-3.865,11.478-8.721,23.683-8.721,23.683l2.434,14.847s-2.515,3.184-11.248,4.949a61.545,61.545,0,0,1-10.5,1.131c-17.35.508-23.233-14.42-23.233-14.42l4.441-26.8s-5.48-11.571-3.622-18.042c1.834-6.472,8.721-22.1,10.29-23.8s19.507,1.131,30.639,7.118c0,0,12.044,7.072,13.993,12.078.831,2.169-1.523,10.5-4.453,19.254Z" transform="translate(-34.767 -55.027)" fill="#0c0c0c" stroke="#757677" stroke-width="0.75"/>
      <path id="Path_26821" data-name="Path 26821" d="M267.678,190.675l2.434,14.847s-2.515,3.184-11.248,4.949c-1.05-9.448-2.549-25.125-1.269-27.536,1.857-3.5,12.9-17.685,12.9-17.685l5.906,1.742c-3.865,11.478-8.721,23.683-8.721,23.683Z" transform="translate(-30.51 -50.074)" fill="#757677"/>
      <path id="Path_26822" data-name="Path 26822" d="M263.952,124.96a19.616,19.616,0,0,0-.254,12.828l5.237,4.072s-8.225,9.483-17.1,11.282-9.24-9.113-7.072-17.7,19.2-10.486,19.2-10.486Z" transform="translate(-32.575 -56.263)" fill="#f5f5ee" stroke="#000" stroke-width="0.75"/>
      <path id="Path_26823" data-name="Path 26823" d="M263.815,124.96s-2.261,15.781-11.744,19.265-7.3-9.771-7.3-9.771Z" transform="translate(-32.438 -56.263)" fill="#484a4c" stroke="#000" stroke-linejoin="round" stroke-width="0.75"/>
      <path id="Path_26824" data-name="Path 26824" d="M238.863,122.816a10.789,10.789,0,0,1-4.937-7.325c-.681-4.9,1.823-5.191,1.823-5.191s2.076-10.521,15.885-11.813,18.031,7.96,19.046,13.67c1.961,10.994-6.276,26.175-6.276,26.175l.4-11.455-11.674,9.459-14.258-13.509Z" transform="translate(-34.088 -60.348)" stroke="#000" stroke-linejoin="round" stroke-width="0.75"/>
      <path id="Path_26825" data-name="Path 26825" d="M237.25,113.38s1.419,15.077,7.037,24.306a7.238,7.238,0,0,0,8.583,3.034c4.464-1.592,10.486-5.1,12.159-12.7,0,0,3.253-1.084,2.815-5.491-.392-3.865-4.3-3.841-5.053.115a4.806,4.806,0,0,1-2.042,3.2l-.877.565-2.042-6.229s-15,6.045-20.569-6.795Z" transform="translate(-33.559 -58.041)" fill="#f5f5ee" stroke="#000" stroke-width="0.75"/>
      <path id="Path_26826" data-name="Path 26826" d="M283.416,182.909c-.081-.473-.161-.992-.219-1.534-.058-.438-.323-2.284-.577-4.014.311,1.961.611,3.853.8,5.56Z" transform="translate(-26.591 -48.214)" fill="#f5f5ee" stroke="#77e57a" stroke-width="0.75"/>
      <path id="Path_26827" data-name="Path 26827" d="M286.934,183.924c-2.3-1.7-6.195-.888-8.514-.173-1.131.346-1.88.669-1.88.669A40.571,40.571,0,0,0,271.072,192a106.8,106.8,0,0,1-9.494,13.289,13.4,13.4,0,0,0-4.349-1.384,6.94,6.94,0,0,0-5.572,1.557c-1.2,1.257-2.03,2.446-.646,2.319s3.138-1.523,3.853-1.223,1.984.761,1.984.761a22.334,22.334,0,0,1-5.4,2.63c-2.076.461-5.041,1.938-3.98,3.276s4.014,3.23,5.4,3.357a14.762,14.762,0,0,0,9.217-2.076,14.386,14.386,0,0,0,3.426-2.5l-.058-.081c2.1-1.765,11.8-9.886,17.212-14.478a45.752,45.752,0,0,0,7.152-7.268h0a6.5,6.5,0,0,0-.081-1.73,6.967,6.967,0,0,0-2.815-4.534Z" transform="translate(-32.024 -47.36)" fill="#f5f5ee" stroke="#000" stroke-width="0.75"/>
      <path id="Path_26828" data-name="Path 26828" d="M288.46,184.054c-.138-.461-.277-.957-.415-1.5-.115-.427-.611-2.215-1.073-3.911-.069-.242-.15-.485-.208-.715-.127-.438-.242-.854-.346-1.234-.046-.15-.081-.3-.127-.438s-.081-.288-.115-.415c-.1-.369-.173-.6-.173-.6a70.386,70.386,0,0,1-1.846-8.017c-1.546-9.829-4.776-18.607-6.76-19.092s-9.471,15.181-8.71,18.954c.542,2.7,3.242,11.5,5.041,17.362l.035.115.911,2.446-.1.173a19.9,19.9,0,0,0-1.3,2.607s.75-.323,1.88-.669c2.307-.715,6.218-1.523,8.514.173a7.074,7.074,0,0,1,2.9,6.252h0v.035s2.1,0,2.353-1.65c.242-1.673,1.442-1.857,1.684-3.576.2-1.5-1.05-2.838-2.111-6.276Z" transform="translate(-28.739 -52.705)" fill="#0c0c0c" stroke="#757677" stroke-width="0.75"/>
      <path id="Path_26829" data-name="Path 26829" d="M225.05,152.5l4.418,34.781a.871.871,0,0,0,.519.7l20.442,9.563a.91.91,0,0,0,1.292-.865l-1.58-33.374a.894.894,0,0,0-.519-.773l-23.268-10.971a.9.9,0,0,0-1.28.934Z" transform="translate(-35.433 -52.19)" fill="#77e59f" stroke="#757677" stroke-width="0.75"/>
      <path id="Path_26830" data-name="Path 26830" d="M225.8,171.442s1.165-5.595,1.442-6.691a11.247,11.247,0,0,1,1.211-2.561l1.2,5.895s4.407,2.826,6.864,3.08,6.679-.634,6.864.854-2.584,5.7-5.041,6.46a15.083,15.083,0,0,1-7.764-.358s-3.807,6.552-9.333,7.833-10.821-5.653-8.283-10.878,9.39-.865,12.84-3.622Z" transform="translate(-37.391 -50.544)" fill="#f5f5ee" stroke="#757677" stroke-width="0.75"/>
      <path id="Path_26831" data-name="Path 26831" d="M260.47,122.237l-7.752,4.926-1.257-2.469,10.175-5.214S260.723,121.556,260.47,122.237Z" transform="translate(-31.377 -57.104)" fill="#fccc54" stroke="#000" stroke-linejoin="round" stroke-width="0.75"/>
      <path id="Path_26832" data-name="Path 26832" d="M253.029,126.48l-1.142.058-2.457.115,1.511-1.719.831-.934c2.492.669,1.246,2.48,1.246,2.48Z" transform="translate(-31.689 -56.41)" fill="#f5f5ee" stroke="#757677" stroke-width="0.75"/>
    </g>
  </g>
</svg>
