<?xml version="1.0" encoding="UTF-8"?>
<svg id="Layer_1" data-name="Layer 1" xmlns="http://www.w3.org/2000/svg" xmlns:xlink="http://www.w3.org/1999/xlink" viewBox="0 0 200 200">
  <defs>
    <style>
      .cls-1 {
        fill: url(#linear-gradient);
      }
    </style>
    <linearGradient id="linear-gradient" x1="1338.76" y1="-3736.46" x2="1343.89" y2="-3736.46" gradientTransform="translate(-48859.6 -142635.89) scale(36.5 -38.2)" gradientUnits="userSpaceOnUse">
      <stop offset="0" stop-color="#0e90a2"/>
      <stop offset=".32" stop-color="#19a574"/>
      <stop offset="1" stop-color="#90c43c"/>
    </linearGradient>
  </defs>
  <path id="Path_27062" data-name="Path 27062" class="cls-1" d="M172.14,79.62c12.4.59,21.96,11.12,21.37,23.51-.55,11.57-9.81,20.82-21.37,21.37-8.18-.08-15.6-4.83-19.09-12.23h-3.55c-21.01.25-28.41,6.94-40.18,29.95l-.67,1.34-.78,1.54c-4.25,9.97-10.42,19.01-18.16,26.6-11.11,9.75-25.58,14.77-40.34,14h-2.34c-4.87,10.53-17.36,15.12-27.89,10.25-.32-.15-.63-.3-.95-.47-10.65-5.97-14.76-19.24-9.35-30.19,4.87-10.53,17.36-15.12,27.89-10.25.32.15.63.3.95.47,4.07,2.2,7.34,5.62,9.35,9.78h3.55c21.4-.25,28.7-7.18,40.84-31.29h0l.82-1.34c3.31-7.21,7.37-14.05,12.12-20.4h-57.33c-4.87,10.53-17.36,15.12-27.89,10.25-.32-.15-.63-.3-.95-.47-10.65-5.97-14.76-19.24-9.35-30.19,4.87-10.53,17.36-15.12,27.89-10.25.32.15.63.3.95.47,4.07,2.2,7.34,5.62,9.35,9.78h106c3.39-7.1,10.38-11.8,18.24-12.23h.87ZM172.14,2.11c12.4.59,21.96,11.12,21.37,23.51-.55,11.57-9.81,20.82-21.37,21.37-8.18-.08-15.6-4.83-19.09-12.23H47.04c-4.87,10.53-17.36,15.12-27.89,10.25-.32-.15-.63-.3-.95-.47C7.55,38.57,3.44,25.3,8.85,14.36,13.72,3.82,26.21-.77,36.74,4.1c.32.15.63.3.95.47,4.07,2.2,7.34,5.62,9.35,9.78h106c3.49-7.41,10.91-12.16,19.1-12.23v-.02Z"/>
</svg>