<svg xmlns="http://www.w3.org/2000/svg" xmlns:xlink="http://www.w3.org/1999/xlink" width="95.57" height="114.682" viewBox="0 0 95.57 114.682">
  <defs>
    <linearGradient id="linear-gradient" y1="0.5" x2="1" y2="0.5" gradientUnits="objectBoundingBox">
      <stop offset="0" stop-color="#0e90a2"/>
      <stop offset="0.32" stop-color="#19a574"/>
      <stop offset="1" stop-color="#90c43c"/>
    </linearGradient>
    <linearGradient id="linear-gradient-3" x1="0" x2="1" xlink:href="#linear-gradient"/>
    <linearGradient id="linear-gradient-5" x1="0" x2="1" xlink:href="#linear-gradient"/>
  </defs>
  <g id="Group_15952" data-name="Group 15952" transform="translate(693.57 -1542)">
    <path id="Path_27042" data-name="Path 27042" d="M1049.123,28.1H1008.43v95.567h4.778V32.878h43.082Z" transform="translate(-1702 1513.9)" fill="url(#linear-gradient)"/>
    <path id="Path_27043" data-name="Path 27043" d="M1083.718,60.38H1040.71v95.57h4.781V65.158h45.2Z" transform="translate(-1724.724 1491.176)" fill="url(#linear-gradient)"/>
    <path id="Path_27044" data-name="Path 27044" d="M1234.393,116.352c9.781-2.285,18.026-1.679,24.169,2.623-7.141-9.547-20.057-19.485-30.572-25.1,5.518,5.58,7.463,15.453,6.4,22.472Z" transform="translate(-1856.562 1467.593)" fill="url(#linear-gradient-3)"/>
    <path id="Path_27045" data-name="Path 27045" d="M1114.94,126.109S1122.213,92.66,1099,92.66h-26v95.57h76.455V137.439c0-16.341-20.137-14.891-34.515-11.329Zm14.722,38.014c-1,2.383.743,6.664-1.057,8.464s-6.078.059-8.464,1.054c-2.285.959-4.065,5.237-6.723,5.237s-4.438-4.281-6.744-5.258c-2.383-1-6.664.743-8.464-1.054s-.059-6.078-1.057-8.464c-.956-2.285-5.237-4.065-5.237-6.723s4.281-4.438,5.237-6.723c1-2.4-.743-6.685,1.057-8.481s6.078-.059,8.482-1.054c2.285-.956,4.065-5.237,6.723-5.237s4.438,4.281,6.744,5.258c2.383,1,6.664-.743,8.464,1.054s.059,6.078,1.057,8.464c.956,2.285,5.237,4.065,5.237,6.723s-4.281,4.438-5.258,6.744Z" transform="translate(-1747.455 1468.452)" fill="url(#linear-gradient)"/>
    <path id="Path_27046" data-name="Path 27046" d="M1177.821,303.332h0a2.37,2.37,0,0,1-1.676-.693l-6.883-6.883a2.368,2.368,0,0,1,3.348-3.348l5.207,5.207,10.962-10.962a2.368,2.368,0,1,1,3.348,3.348l-12.635,12.635a2.371,2.371,0,0,1-1.676.693Z" transform="translate(-1814.732 1332.376)" fill="url(#linear-gradient-5)"/>
  </g>
</svg>
