<svg xmlns="http://www.w3.org/2000/svg" xmlns:xlink="http://www.w3.org/1999/xlink" width="217.824" height="44.194" viewBox="0 0 217.824 44.194">
  <defs>
    <linearGradient id="linear-gradient" x1="0.514" y1="0.484" x2="0.917" y2="0.083" gradientUnits="objectBoundingBox">
      <stop offset="0" stop-color="#0e90a2"/>
      <stop offset="0.316" stop-color="#19a574"/>
      <stop offset="1" stop-color="#90c43c"/>
    </linearGradient>
  </defs>
  <g id="Group_42" data-name="Group 42" transform="translate(-64.5 -20.567)">
    <g id="Group_40" data-name="Group 40">
      <g id="Group_39" data-name="Group 39">
        <path id="Path_55" data-name="Path 55" d="M74.388,33.381q5.993,0,8.745,2.573a9.221,9.221,0,0,1,2.753,7.082,12.283,12.283,0,0,1-.614,3.886,8.6,8.6,0,0,1-2,3.292,9.557,9.557,0,0,1-3.7,2.277,16.865,16.865,0,0,1-5.7.836H71.064v11.01H64.5V33.381Zm-.339,5.378H71.064v9.19h2.16a9.452,9.452,0,0,0,3.2-.487,4.264,4.264,0,0,0,2.1-1.525,4.482,4.482,0,0,0,.741-2.668,4.279,4.279,0,0,0-1.27-3.4A5.872,5.872,0,0,0,74.049,38.759Z"/>
        <path id="Path_56" data-name="Path 56" d="M94.461,31.391a4.479,4.479,0,0,1,2.477.667,2.731,2.731,0,0,1,1.038,2.488,2.764,2.764,0,0,1-1.038,2.488,4.823,4.823,0,0,1-4.965,0,2.776,2.776,0,0,1-1.027-2.488,2.743,2.743,0,0,1,1.027-2.488A4.465,4.465,0,0,1,94.461,31.391Zm3.218,9.274V64.337H91.221V40.665Z"/>
        <path id="Path_57" data-name="Path 57" d="M110.087,64.337l-9.02-23.672h6.755l4.573,13.488a17.916,17.916,0,0,1,.6,2.5q.222,1.314.307,2.351h.169a19.117,19.117,0,0,1,.953-4.849l4.552-13.488h6.755l-9.02,23.672Z"/>
        <path id="Path_58" data-name="Path 58" d="M150.635,52.459a15.963,15.963,0,0,1-.794,5.251,10.43,10.43,0,0,1-2.308,3.864,9.741,9.741,0,0,1-3.642,2.382,13.485,13.485,0,0,1-4.8.805,12.65,12.65,0,0,1-4.585-.805,10.01,10.01,0,0,1-3.62-2.382,10.744,10.744,0,0,1-2.372-3.864,15.23,15.23,0,0,1-.836-5.251,14.525,14.525,0,0,1,1.4-6.67,9.6,9.6,0,0,1,3.981-4.15,12.615,12.615,0,0,1,6.162-1.419,12.008,12.008,0,0,1,5.9,1.419,10.06,10.06,0,0,1,4.044,4.15A13.9,13.9,0,0,1,150.635,52.459Zm-16.367,0a12.992,12.992,0,0,0,.508,3.917,4.19,4.19,0,0,0,4.4,3.2,4.513,4.513,0,0,0,2.785-.8,4.607,4.607,0,0,0,1.566-2.393,13.248,13.248,0,0,0,.5-3.917,13.016,13.016,0,0,0-.5-3.907,4.454,4.454,0,0,0-1.577-2.34,4.687,4.687,0,0,0-2.816-.783,4.116,4.116,0,0,0-3.716,1.758A9.7,9.7,0,0,0,134.268,52.459Z"/>
        <path id="Path_59" data-name="Path 59" d="M166.811,59.616a10.013,10.013,0,0,0,2.065-.212,20.368,20.368,0,0,0,2-.53v4.807a12.188,12.188,0,0,1-2.573.773,17.181,17.181,0,0,1-3.356.307,9.984,9.984,0,0,1-3.8-.688A5.3,5.3,0,0,1,158.5,61.68a9.726,9.726,0,0,1-.964-4.754V45.514h-3.091V42.782L158,40.623l1.863-5h4.129v5.039h6.628v4.849h-6.628V56.926a2.529,2.529,0,0,0,.773,2.023A3.02,3.02,0,0,0,166.811,59.616Z"/>
        <path id="Path_60" data-name="Path 60" d="M197.323,33.381q5.991,0,8.745,2.573a9.221,9.221,0,0,1,2.752,7.082,12.255,12.255,0,0,1-.614,3.886,8.576,8.576,0,0,1-2,3.292,9.545,9.545,0,0,1-3.694,2.277,16.865,16.865,0,0,1-5.7.836H194v11.01h-6.564V33.381Zm-.339,5.378H194v9.19h2.159a9.454,9.454,0,0,0,3.2-.487,4.264,4.264,0,0,0,2.1-1.525,4.482,4.482,0,0,0,.741-2.668,4.282,4.282,0,0,0-1.27-3.4A5.872,5.872,0,0,0,196.984,38.759Z"/>
        <path id="Path_61" data-name="Path 61" d="M223.42,40.178q4.764,0,7.305,2.075t2.541,6.31V64.337h-4.51l-1.249-3.218h-.17a11.953,11.953,0,0,1-2.075,2.075,7.1,7.1,0,0,1-2.435,1.186,12.685,12.685,0,0,1-3.345.381,8.516,8.516,0,0,1-3.758-.805,5.952,5.952,0,0,1-2.616-2.467,8.41,8.41,0,0,1-.952-4.224,6.239,6.239,0,0,1,2.646-5.558q2.647-1.79,7.941-1.98l4.107-.127V48.563a3.485,3.485,0,0,0-.974-2.732,3.935,3.935,0,0,0-2.71-.868,11.864,11.864,0,0,0-3.366.487,26.111,26.111,0,0,0-3.3,1.228l-2.138-4.362a18.331,18.331,0,0,1,4.224-1.566A20.314,20.314,0,0,1,223.42,40.178Zm3.43,13.191-2.5.085q-3.134.086-4.351,1.122a3.413,3.413,0,0,0-1.218,2.732,2.416,2.416,0,0,0,.868,2.106,3.788,3.788,0,0,0,2.266.625,5.19,5.19,0,0,0,3.5-1.228,4.355,4.355,0,0,0,1.429-3.494Z"/>
        <path id="Path_62" data-name="Path 62" d="M250.755,59.616a10,10,0,0,0,2.064-.212,20.221,20.221,0,0,0,2-.53v4.807a12.159,12.159,0,0,1-2.572.773,17.2,17.2,0,0,1-3.356.307,9.98,9.98,0,0,1-3.8-.688,5.3,5.3,0,0,1-2.647-2.393,9.739,9.739,0,0,1-.963-4.754V45.514h-3.092V42.782l3.558-2.159,1.863-5h4.129v5.039h6.627v4.849h-6.627V56.926a2.526,2.526,0,0,0,.773,2.023A3.02,3.02,0,0,0,250.755,59.616Z"/>
        <path id="Path_63" data-name="Path 63" d="M266.931,31.391V38.1q0,1.758-.117,3.345t-.18,2.245h.339a6.961,6.961,0,0,1,1.811-1.991A7.278,7.278,0,0,1,271.1,40.58a9.983,9.983,0,0,1,2.731-.36,10.364,10.364,0,0,1,4.468.9,6.5,6.5,0,0,1,2.965,2.816,10.23,10.23,0,0,1,1.058,4.965V64.337h-6.458V50.511a6.544,6.544,0,0,0-.931-3.833,3.314,3.314,0,0,0-2.88-1.291,4.774,4.774,0,0,0-3.07.9,4.869,4.869,0,0,0-1.588,2.646,16.774,16.774,0,0,0-.466,4.267V64.337h-6.458V31.391Z"/>
      </g>
    </g>
    <g id="Group_41" data-name="Group 41">
      <path id="Path_64" data-name="Path 64" d="M260.476,27.817h9.981v10.15l7.317-7.25V20.567H267.658Z" fill="url(#linear-gradient)"/>
    </g>
  </g>
</svg>
