<?xml version="1.0" encoding="UTF-8"?><svg id="Layer_1" xmlns="http://www.w3.org/2000/svg" viewBox="0 0 199.34 199.34"><defs><style>.cls-1{fill:#fff;stroke-width:0px;}</style></defs><g id="ICON"><path id="Path_26017" class="cls-1" d="m163.6,104.42h0c-2.36,31.66-27.52,56.82-59.17,59.18-1.57.12-3.16.18-4.76.17-1.44,0-2.88-.05-4.29-.14-35.33-2.29-62.11-32.78-59.83-68.11,2.19-33.78,30.27-60.04,64.12-59.96V0C44.62.01,0,44.64,0,99.69c0,52.44,40.66,95.91,92.98,99.43,2.21.15,4.43.22,6.68.22,2.49,0,4.96-.09,7.41-.27,49.2-3.67,88.32-42.79,91.99-91.99.07-.88.11-1.77.16-2.66h-35.62Z"/><path id="Path_26018" class="cls-1" d="m124.35,31.42h43.26v44l31.72-31.42V0h-43.85l-31.13,31.42Z"/></g></svg>