<svg id="Layer_1-2" xmlns="http://www.w3.org/2000/svg" xmlns:xlink="http://www.w3.org/1999/xlink" width="44.167" height="53" viewBox="0 0 44.167 53">
  <defs>
    <linearGradient id="linear-gradient" y1="0.5" x2="1" y2="0.5" gradientUnits="objectBoundingBox">
      <stop offset="0" stop-color="#0e90a2"/>
      <stop offset="0.32" stop-color="#19a574"/>
      <stop offset="1" stop-color="#90c43c"/>
    </linearGradient>
  </defs>
  <path id="Path_27013" data-name="Path 27013" d="M30.038,9c4.86,2.593,10.83,7.186,14.13,11.6C41.327,18.61,37.518,18.33,33,19.386,33.488,16.142,32.589,11.579,30.038,9ZM28.216,24.292S31.577,8.833,20.851,8.833H8.833V53H44.166V29.527c0-7.552-9.306-6.882-15.952-5.237Zm-.7-17.667L24.292,4.416H4.417V48.583H6.625V6.625H27.515Zm-5.4-4.417L18.806,0H0V44.167H2.208V2.208H22.12Z" fill="url(#linear-gradient)"/>
  <path id="Path_27014" data-name="Path 27014" d="M173.144,299.849,165.5,287.481a1.247,1.247,0,0,0-2.139.027c-1.78,3.054-5.385,9.228-7.283,12.348a1.247,1.247,0,0,0,1.066,1.9h14.936A1.247,1.247,0,0,0,173.144,299.849Zm-8.529.171a.846.846,0,1,1,.846-.846A.846.846,0,0,1,164.615,300.02Zm1.056-8.208q-.257,2.507-.512,5.015a1.161,1.161,0,0,1-.155.56.483.483,0,0,1-.68.091l-.064-.113c-.294-1.821-.486-3.655-.693-5.487a1.85,1.85,0,0,1,.113-1.137,1,1,0,0,1,.771-.478,1.179,1.179,0,0,1,.868.3,1.092,1.092,0,0,1,.329.5A1.909,1.909,0,0,1,165.67,291.812Z" transform="translate(-138.123 -254.18)" fill="#fff"/>
</svg>
