<?xml version="1.0" encoding="UTF-8"?><svg id="Layer_1" xmlns="http://www.w3.org/2000/svg" viewBox="0 0 229.57 230.42"><defs><style>.cls-1{fill:#fff;stroke-width:0px;}</style></defs><path id="Path_26017" class="cls-1" d="m188.42,121.11v.02c-2.72,36.44-31.69,65.41-68.13,68.13-1.81.13-3.64.2-5.49.2-1.66,0-3.31-.05-4.94-.16-40.68-2.72-71.45-37.91-68.72-78.59,2.6-38.77,34.81-68.89,73.67-68.89V.86C51.41.85.01,52.23,0,115.62c-.01,60.43,46.83,110.51,107.12,114.55,2.54.17,5.1.25,7.69.25,2.87,0,5.71-.1,8.53-.31,56.66-4.23,101.7-49.28,105.93-105.94.08-1.02.13-2.04.18-3.06h-41.03Z"/><path id="Path_26018" class="cls-1" d="m143.23,37.05h49.82v50.66l36.52-36.19V.86h-50.49l-35.85,36.18Z"/></svg>