<?xml version="1.0" encoding="UTF-8"?><svg id="Layer_1" xmlns="http://www.w3.org/2000/svg" xmlns:xlink="http://www.w3.org/1999/xlink" viewBox="0 0 2920.62 1006.31"><defs><style>.cls-1{clip-path:url(#clippath-4);}.cls-2{fill:url(#linear-gradient-2);}.cls-3{fill:none;}.cls-4{fill:url(#linear-gradient-4);}.cls-5{fill:url(#linear-gradient-3);}.cls-6{clip-path:url(#clippath-1);}.cls-7{fill:url(#linear-gradient-5);}.cls-8{clip-path:url(#clippath-3);}.cls-9{clip-path:url(#clippath-2);}.cls-10{fill:url(#linear-gradient);}.cls-11{clip-path:url(#clippath);}</style><clipPath id="clippath"><path class="cls-3" d="M1693.82,459.78l-66.46,183.55-68.04-183.55h-67.51l104.43,256.85h61.18l100.74-256.85h-64.35ZM1316.98,647.81c-13.9-14.57-20.84-34.54-20.84-59.86s6.93-45.1,20.84-59.33c13.89-14.25,30.85-21.36,50.89-21.36s37,7.12,50.91,21.36c13.89,14.23,20.84,34,20.84,59.33s-6.95,45.72-20.84,60.12c-13.9,14.43-30.85,21.64-50.91,21.64s-37-7.31-50.89-21.9M1272.66,490.37c-25.15,25.67-37.69,58.22-37.69,97.58s12.54,72,37.69,97.84c25.15,25.84,56.89,38.76,95.2,38.76s70.59-12.92,95.73-38.76c25.15-25.84,37.72-58.46,37.72-97.84s-12.57-71.91-37.72-97.58c-25.13-25.66-57.04-38.49-95.73-38.49s-70.05,12.84-95.2,38.49M1830.42,666.8c-6.69-6.49-10.02-14.31-10.02-23.46,0-19.35,11.43-30.94,34.3-34.82l66.97-10.02v11.62c0,23.56-5.9,40.53-17.67,50.89-11.79,10.36-27.17,15.56-46.15,15.56-11.59,0-20.74-3.25-27.43-9.77M1797.73,476.41c-19.71,16.35-30.77,36.12-33.23,59.33l55.9,12.66c1.39-13.71,6.69-24.87,15.84-33.49,9.13-8.61,21.43-12.92,36.9-12.92s28.31,3.61,36.4,10.8c8.08,7.21,12.13,16.62,12.13,28.23,0,10.54-6.33,16.71-18.98,18.46l-65.94,10.02c-23.2,3.52-41.92,11.85-56.17,25.05-14.25,13.2-21.35,30.67-21.35,52.48s7.98,39.3,23.99,54.59c15.98,15.3,37,22.94,63.04,22.94,35.87,0,62.23-13.52,79.12-40.61,0,16.53.87,27.43,2.62,32.69h56.97c-2.11-10.54-3.16-24.25-3.16-41.13v-127.65c0-28.12-8.9-51.15-26.64-69.07-17.76-17.95-45.28-26.9-82.55-26.9-30.25,0-55.2,8.16-74.89,24.53M1134.75,342.69v265.31l-169.85-265.31h-80.69v373.94h63.3v-283.22l184.6,283.22h65.92v-373.94h-63.28Z"/></clipPath><linearGradient id="linear-gradient" x1="-1578.65" y1="4890.85" x2="-1562.26" y2="4890.85" gradientTransform="translate(-259367.13 84273.76) rotate(90) scale(53.32 -53.32)" gradientUnits="userSpaceOnUse"><stop offset="0" stop-color="#006582"/><stop offset=".3" stop-color="#287b6f"/><stop offset=".96" stop-color="#8fb23f"/><stop offset="1" stop-color="#95b63d"/></linearGradient><clipPath id="clippath-1"><polygon class="cls-3" points="640.56 655.65 687.97 712.08 718.92 686.09 671.49 629.65 640.56 655.65"/></clipPath><linearGradient id="linear-gradient-2" x1="-1768.66" y1="4934.42" x2="-1752.27" y2="4934.42" gradientTransform="translate(-28178.59 -80334.55) rotate(-180) scale(16.42 -16.42)" gradientUnits="userSpaceOnUse"><stop offset="0" stop-color="#1f4b9d"/><stop offset=".18" stop-color="#1e4694"/><stop offset=".48" stop-color="#1c397c"/><stop offset=".86" stop-color="#192455"/><stop offset=".95" stop-color="#191e4a"/><stop offset="1" stop-color="#191e4a"/></linearGradient><clipPath id="clippath-2"><path class="cls-3" d="M671.72,702.04l90.94,121.57c12.38,16.08,35.66,18.59,51.2,5.54,15.53-13.07,17.08-36.43,3.38-51.4l-105.4-109.4-40.12,33.69Z"/></clipPath><linearGradient id="linear-gradient-3" x1="-1852.06" y1="4904.03" x2="-1835.67" y2="4904.03" gradientTransform="translate(-22565.61 -60987.8) rotate(180) scale(12.59 -12.59)" xlink:href="#linear-gradient-2"/><clipPath id="clippath-3"><path class="cls-3" d="M441.48,553.44v15.49c0,24.53,19.97,44.5,44.53,44.5h15.48c7.46,0,13.54-6.08,13.54-13.54s-6.08-13.54-13.54-13.54h-15.48c-9.61,0-17.43-7.82-17.43-17.41v-15.49c0-7.48-6.07-13.56-13.54-13.56s-13.56,6.08-13.56,13.56M611.78,553.44v15.49c0,9.59-7.82,17.41-17.41,17.41h-15.49c-7.46,0-13.54,6.07-13.54,13.54s6.08,13.54,13.54,13.54h15.49c24.54,0,44.51-19.97,44.51-44.5v-15.49c0-7.48-6.08-13.56-13.56-13.56s-13.54,6.08-13.54,13.56M518.91,514.74c0,11.74,9.54,21.3,21.26,21.3s21.3-9.56,21.3-21.3-9.54-21.28-21.3-21.28-21.26,9.54-21.26,21.28M498.43,514.7c5.15-7.44,20.82-25.13,41.74-25.13s36.58,17.64,41.76,25.1c-5.18,7.49-20.89,25.22-41.76,25.22s-36.67-17.72-41.74-25.18M472.61,505.16c-3.05,6.1-3.05,13.08,0,19.17,4.51,9.02,29.18,42.66,67.56,42.66s63.1-33.67,67.59-42.71c2.31-4.64,2.85-9.82,1.62-14.72l.44-.23-2.08-4.15c-4.48-9.03-29.12-42.69-67.58-42.69s-63.07,33.66-67.56,42.68M486.01,416.04c-24.56,0-44.53,19.97-44.53,44.51v15.48c0,7.48,6.08,13.54,13.56,13.54s13.54-6.07,13.54-13.54v-15.48c0-9.61,7.82-17.43,17.43-17.43h15.48c7.46,0,13.54-6.07,13.54-13.54s-6.08-13.54-13.54-13.54h-15.48ZM578.88,416.04c-7.46,0-13.54,6.08-13.54,13.54s6.08,13.54,13.54,13.54h15.49c9.59,0,17.41,7.82,17.41,17.43v15.48c0,7.48,6.08,13.54,13.54,13.54s13.56-6.07,13.56-13.54v-15.48c0-24.54-19.97-44.51-44.51-44.51h-15.49ZM525.96,668.96c-43.86-3.8-83.61-24.48-111.91-58.18-28.31-33.71-41.81-76.41-37.99-120.27.28-3.28.66-6.52,1.11-9.74,5.85-39.97,25.87-75.96,57.05-102.17,33.71-28.31,76.41-41.79,120.27-37.99,43.86,3.8,83.6,24.48,111.91,58.18,58.43,69.58,49.38,173.72-20.18,232.16-29.95,25.17-67.04,38.64-105.7,38.63-4.84,0-9.71-.2-14.57-.62M406.69,345.83c-42.45,35.66-68.48,85.63-73.28,140.98-4.8,55.25,12.18,109.06,47.86,151.5,73.63,87.66,204.83,99.07,292.49,25.44,40.49-34.02,64.69-80.27,71.79-128.89,8.26-56.63-6.74-116.42-46.35-163.6-35.67-42.46-85.74-68.5-140.99-73.3-6.13-.52-12.23-.79-18.31-.79-48.72,0-95.45,16.95-133.21,48.66"/></clipPath><linearGradient id="linear-gradient-4" x1="-1466.26" y1="4957.97" x2="-1449.87" y2="4957.97" gradientTransform="translate(37460.48 126060.31) scale(25.32 -25.32)" xlink:href="#linear-gradient"/><clipPath id="clippath-4"><path class="cls-3" d="M380.59,974c-6.25,6.02-6.41,15.97-.39,22.21,6.02,6.23,15.97,6.43,22.2.41,6.26-6.03,6.44-15.97.41-22.21-3.07-3.2-7.18-4.8-11.3-4.8s-7.87,1.46-10.92,4.39M618.96,965.73c-6.25,6.02-6.43,15.97-.41,22.23,6.02,6.23,15.97,6.41,22.21.39,6.25-6.02,6.43-15.97.41-22.21-3.08-3.2-7.2-4.8-11.31-4.8s-7.85,1.46-10.9,4.39M451.43,976.65c-.77,15.61,11.26,28.85,26.85,29.62,15.59.74,28.85-11.28,29.62-26.87.75-15.61-11.26-28.85-26.87-29.62-.48-.02-.93-.03-1.41-.03-14.97,0-27.48,11.79-28.2,26.9M555.22,909.83c-15.59.69-27.69,13.87-27.02,29.46.67,15.61,13.87,27.72,29.48,27.03,15.59-.67,27.69-13.87,27.02-29.46-.66-15.18-13.16-27.07-28.21-27.05-.43,0-.84,0-1.26.02M293.76,922.47c-5.85,14.48,1.15,30.95,15.64,36.79,14.46,5.85,30.95-1.13,36.79-15.61,5.85-14.49-1.13-30.97-15.62-36.81-3.46-1.41-7.05-2.07-10.57-2.07-11.18,0-21.79,6.67-26.23,17.69M224.5,899.75c-8.62,1.03-14.76,8.85-13.72,17.44,1.02,8.62,8.84,14.77,17.46,13.74,8.61-1.03,14.75-8.85,13.74-17.46-.97-7.97-7.74-13.84-15.59-13.84-.62,0-1.25.03-1.89.12M381.92,912.68c-4.34,14.98,4.3,30.67,19.3,35.02s30.67-4.3,35.02-19.3c4.34-15-4.3-30.69-19.28-35.02-2.64-.77-5.28-1.13-7.89-1.13-12.26,0-23.58,8.05-27.15,20.43M462.28,915.09c-.66,13.87,10.02,25.66,23.89,26.33,13.87.69,25.66-10.02,26.33-23.87.67-13.87-10.02-25.66-23.87-26.35-.43-.02-.84-.02-1.25-.02-13.33-.02-24.44,10.46-25.1,23.9M631.64,889.27c-13.26,4.15-20.64,18.26-16.48,31.51,4.15,13.23,18.26,20.61,31.49,16.46,13.25-4.15,20.62-18.25,16.46-31.49-3.36-10.75-13.26-17.62-23.95-17.62-2.49,0-5.03.38-7.53,1.15M324.29,867.91c-5.2,12.87,1.02,27.53,13.89,32.72,12.85,5.18,27.51-1.03,32.72-13.89,5.2-12.89-1.02-27.53-13.9-32.74-3.08-1.23-6.26-1.82-9.41-1.82-9.94,0-19.35,5.93-23.3,15.72M552.7,851.05c-13.85.59-24.62,12.31-24.03,26.18.61,13.87,12.33,24.62,26.2,24.03,13.87-.61,24.62-12.33,24.03-26.2-.59-13.49-11.72-24.05-25.12-24.05-.36,0-.72.02-1.08.03M472.38,859.76c-.59,12.13,8.77,22.44,20.89,23.03,12.13.61,22.44-8.74,23.03-20.89.59-12.13-8.75-22.44-20.89-23.03-.36-.02-.74-.03-1.08-.03-11.66,0-21.38,9.16-21.95,20.92M619.95,837.81c-11.59,3.64-18.05,15.97-14.41,27.56,3.64,11.59,15.97,18.03,27.56,14.41,11.59-3.64,18.03-15.97,14.41-27.56-2.95-9.39-11.62-15.41-20.98-15.41-2.16,0-4.39.31-6.57,1M402.18,854c-3.87,13.35,3.82,27.28,17.15,31.15,13.33,3.85,27.28-3.84,31.13-17.15,3.85-13.34-3.82-27.28-17.15-31.13-2.34-.69-4.71-1-7.02-1-10.9,0-20.94,7.15-24.12,18.13M255.5,843.61c-8.77,12.92-5.41,30.49,7.51,39.28,12.9,8.77,30.49,5.41,39.28-7.49,8.75-12.94,5.41-30.51-7.51-39.28-4.87-3.31-10.39-4.89-15.87-4.9-9.05,0-17.94,4.34-23.41,12.39M171.53,817.69c-10.39,11.64-9.38,29.53,2.28,39.9,11.64,10.41,29.51,9.39,39.92-2.26,10.39-11.66,9.38-29.53-2.28-39.92-5.39-4.8-12.12-7.18-18.8-7.18-7.79,0-15.53,3.2-21.12,9.46M352.01,818.99c-4.54,11.26.9,24.08,12.15,28.63,11.26,4.54,24.08-.89,28.62-12.16,4.56-11.25-.89-24.07-12.15-28.63-2.71-1.08-5.49-1.61-8.23-1.61-8.69,0-16.94,5.21-20.39,13.77M550.44,798.54c-12.15.53-21.54,10.77-21.03,22.92.54,12.13,10.79,21.54,22.92,21.03,12.15-.54,21.56-10.79,21.03-22.94-.51-11.8-10.25-21.03-21.94-21.03-.33,0-.66,0-.98.02M481.69,810.67c-.52,10.41,7.51,19.25,17.9,19.75,10.39.51,19.23-7.52,19.76-17.9.49-10.41-7.51-19.25-17.92-19.76-.31-.02-.64-.02-.95-.02-9.98,0-18.31,7.85-18.79,17.92M609.69,792.46c-9.94,3.11-15.48,13.69-12.36,23.62,3.11,9.94,13.69,15.46,23.62,12.34,9.95-3.1,15.46-13.67,12.36-23.62-2.52-8.05-9.97-13.21-17.98-13.21-1.87,0-3.75.28-5.64.87M420.69,801.38c-3.38,11.67,3.34,23.87,15.02,27.25,11.66,3.39,23.85-3.34,27.23-15,3.38-11.67-3.34-23.87-15-27.25-2.05-.59-4.12-.87-6.13-.87-9.54,0-18.33,6.26-21.12,15.87M292.93,794.1c-7.8,11.49-4.8,27.13,6.67,34.92,11.48,7.8,27.1,4.82,34.9-6.66,7.8-11.49,4.82-27.12-6.66-34.92-4.33-2.93-9.25-4.34-14.1-4.34-8.05,0-15.97,3.85-20.82,11M84.8,784.64c-10.39,11.64-9.38,29.53,2.28,39.9,11.64,10.41,29.53,9.39,39.92-2.26,10.39-11.66,9.38-29.53-2.28-39.92-5.39-4.8-12.12-7.18-18.82-7.18-7.77,0-15.51,3.2-21.1,9.46M218.68,776.64c-9.25,10.36-8.33,26.25,2.03,35.48,10.34,9.25,26.23,8.35,35.48-2.02,9.25-10.36,8.34-26.25-2.02-35.48-4.8-4.28-10.77-6.38-16.72-6.38-6.92,0-13.8,2.82-18.77,8.39M376.95,775.69c-3.9,9.66.77,20.62,10.41,24.54,9.66,3.9,20.64-.77,24.54-10.41,3.9-9.66-.75-20.66-10.43-24.54-2.31-.93-4.71-1.38-7.05-1.38-7.46,0-14.51,4.44-17.48,11.79M600.83,753.23c-8.28,2.61-12.87,11.41-10.28,19.69,2.59,8.28,11.41,12.89,19.69,10.3,8.28-2.59,12.87-11.39,10.28-19.69-2.1-6.72-8.3-11.02-14.98-11.02-1.56,0-3.13.25-4.71.72M529.58,746.67c-10.39.44-18.48,9.23-18.02,19.64.44,10.39,9.25,18.48,19.64,18.03,10.41-.46,18.48-9.26,18.02-19.66-.43-10.12-8.77-18.03-18.79-18.03-.3,0-.57,0-.85.02M437.46,754.8c-2.9,10,2.85,20.44,12.85,23.35,10,2.9,20.46-2.87,23.35-12.85,2.9-10-2.85-20.48-12.87-23.36-1.74-.51-3.51-.74-5.25-.74-8.16-.02-15.71,5.34-18.08,13.61M326.81,749.8c-6.8,10.05-4.2,23.72,5.84,30.56,10.05,6.8,23.72,4.2,30.56-5.85,6.82-10.03,4.2-23.71-5.85-30.54-3.77-2.56-8.07-3.79-12.31-3.79-7.05,0-13.97,3.36-18.23,9.62M261.3,739.95c-8.1,9.07-7.3,22.97,1.77,31.05,9.05,8.08,22.97,7.3,31.05-1.77,8.08-9.07,7.3-22.95-1.77-31.05-4.2-3.74-9.43-5.57-14.64-5.57-6.05,0-12.07,2.48-16.41,7.34M155.74,737.42c-12.38,9.53-14.71,27.28-5.18,39.66,9.53,12.36,27.28,14.67,39.66,5.16,12.38-9.53,14.71-27.26,5.16-39.64-5.56-7.25-13.95-11.05-22.43-11.05-6.02,0-12.08,1.92-17.21,5.87M376.93,722.31c-3.25,8.05.64,17.21,8.69,20.46,8.03,3.25,17.18-.64,20.43-8.69,3.26-8.03-.62-17.2-8.67-20.44-1.92-.79-3.92-1.15-5.87-1.15-6.21,0-12.1,3.71-14.57,9.82M299.39,707.63c-6.93,7.75-6.25,19.67,1.52,26.61,7.75,6.92,19.69,6.25,26.62-1.51,6.92-7.79,6.23-19.69-1.52-26.63-3.61-3.21-8.08-4.79-12.54-4.79-5.2,0-10.34,2.13-14.08,6.31M206.79,702.13c-11,8.46-13.07,24.25-4.61,35.25,8.46,11,24.25,13.05,35.23,4.61,11.02-8.48,13.08-24.25,4.61-35.25-4.95-6.44-12.39-9.82-19.94-9.82-5.34,0-10.74,1.71-15.3,5.21M88.77,682.53c-13.61,7.66-18.43,24.9-10.77,38.51,7.66,13.61,24.89,18.43,38.49,10.77,13.62-7.66,18.44-24.9,10.79-38.49-5.2-9.25-14.79-14.43-24.67-14.43-4.71,0-9.46,1.16-13.84,3.64M332.96,679.65c-5.77,6.48-5.21,16.41,1.26,22.18,6.48,5.79,16.41,5.21,22.18-1.26,5.77-6.48,5.21-16.39-1.26-22.17-3-2.69-6.74-4-10.46-4-4.31,0-8.62,1.77-11.72,5.25M266.07,666.85c-9.64,7.41-11.43,21.21-4.03,30.84,7.41,9.64,21.23,11.44,30.84,4.03,9.64-7.41,11.44-21.23,4.03-30.84-4.33-5.64-10.85-8.59-17.46-8.59-4.67,0-9.38,1.49-13.38,4.56M146.66,658.96c-12.1,6.82-16.38,22.13-9.57,34.23,6.8,12.1,22.13,16.39,34.22,9.57,12.1-6.79,16.39-22.12,9.59-34.23-4.62-8.18-13.15-12.8-21.94-12.8-4.16,0-8.39,1.05-12.3,3.23M28.47,644.15c-8.51,1.64-14.1,9.87-12.46,18.38,1.62,8.52,9.85,14.12,18.36,12.49,8.54-1.64,14.12-9.87,12.49-18.39-1.44-7.52-8.03-12.75-15.43-12.75-.98,0-1.97.08-2.97.28M198.87,638.06c-10.59,5.97-14.35,19.38-8.39,29.95,5.97,10.59,19.36,14.35,29.95,8.38,10.59-5.95,14.33-19.35,8.39-29.95-4.05-7.16-11.51-11.2-19.2-11.2-3.66,0-7.36.9-10.75,2.82M245.37,619.83c-9.07,5.1-12.28,16.59-7.18,25.66,5.1,9.07,16.61,12.28,25.67,7.18,9.08-5.1,12.3-16.59,7.18-25.67-3.46-6.13-9.85-9.59-16.44-9.59-3.13,0-6.3.77-9.23,2.43M94.03,604.61c-14.74,5.13-22.53,21.26-17.38,36,5.13,14.76,21.26,22.53,36,17.4,14.74-5.15,22.53-21.26,17.38-36.02-4.07-11.66-15-18.97-26.69-18.97-3.1,0-6.23.51-9.31,1.59M286.19,604.22c-7.56,4.26-10.25,13.84-5.98,21.39,4.26,7.56,13.84,10.25,21.38,5.98,7.57-4.25,10.26-13.82,6-21.38-2.89-5.13-8.21-8.02-13.71-8.02-2.61,0-5.25.66-7.69,2.02M153.57,587.17c-13.1,4.57-20.02,18.9-15.44,32s18.9,20.02,32,15.44c13.12-4.56,20.03-18.9,15.48-32-3.62-10.36-13.35-16.85-23.74-16.85-2.75,0-5.54.46-8.3,1.41M207.22,571.79c-11.48,4-17.53,16.54-13.53,28,4,11.48,16.54,17.53,28,13.53,11.46-4,17.53-16.53,13.53-28-3.16-9.07-11.67-14.76-20.76-14.76-2.41,0-4.85.39-7.25,1.23M267.24,558.48c-9.82,3.43-15,14.18-11.57,24.02,3.43,9.82,14.18,15.02,24,11.59,9.82-3.44,15.02-14.18,11.59-24-2.72-7.79-10-12.66-17.8-12.66-2.07,0-4.15.34-6.21,1.05M54.4,530.9c-15.35,2.93-25.39,17.75-22.46,33.1,2.93,15.33,17.76,25.4,33.08,22.46,15.33-2.93,25.39-17.76,22.46-33.1-2.61-13.54-14.46-22.97-27.74-22.97-1.77,0-3.56.16-5.34.51M116.78,526.97c-13.64,2.61-22.58,15.79-19.97,29.43,2.62,13.61,15.77,22.56,29.41,19.94,13.64-2.61,22.58-15.77,19.97-29.4-2.31-12.05-12.85-20.41-24.67-20.41-1.56,0-3.15.13-4.74.44M172.92,523.74c-11.94,2.28-19.76,13.8-17.46,25.72,2.28,11.95,13.79,19.77,25.72,17.48,11.94-2.28,19.76-13.79,17.48-25.72-2.02-10.54-11.25-17.87-21.59-17.87-1.36,0-2.75.13-4.15.39M222.81,521.23c-10.21,1.95-16.92,11.82-14.95,22.03,1.93,10.23,11.84,16.95,22.05,14.98,10.23-1.97,16.94-11.84,14.97-22.07-1.72-9.02-9.62-15.3-18.49-15.3-1.18,0-2.36.12-3.57.34M258.17,491.77c-8.53,1.62-14.12,9.87-12.49,18.38,1.64,8.53,9.87,14.1,18.39,12.48,8.51-1.64,14.1-9.85,12.46-18.38-1.43-7.51-8.02-12.76-15.39-12.76-.98,0-1.97.1-2.97.28M187.66,485.15c-.03,12.15,9.79,22.02,21.94,22.05,12.15.03,22.02-9.8,22.05-21.94.02-12.15-9.8-22.02-21.95-22.05-12.13-.02-22.02,9.8-22.03,21.94M1.76,465.68c-3.98,7.71-.98,17.18,6.72,21.18,7.71,4,17.18.98,21.17-6.72,4-7.71,1-17.16-6.69-21.17-2.31-1.2-4.79-1.77-7.23-1.77-5.67,0-11.16,3.1-13.97,8.48M121.65,479.33c-.05,13.89,11.18,25.17,25.07,25.2,13.89.03,25.17-11.2,25.18-25.08.03-13.87-11.2-25.15-25.07-25.18h-.05c-13.87,0-25.1,11.21-25.13,25.07M49.35,479.18c-.05,15.62,12.59,28.31,28.21,28.35,15.61.03,28.3-12.61,28.33-28.22.03-15.61-12.59-28.3-28.2-28.33h-.08c-15.59,0-28.23,12.61-28.26,28.2M257.91,442.04c-1.28,8.57,4.62,16.58,13.21,17.85,8.57,1.31,16.57-4.61,17.87-13.18,1.28-8.59-4.62-16.59-13.21-17.87-.79-.12-1.57-.18-2.36-.18-7.64,0-14.33,5.59-15.51,13.38M212.56,431.9c-1.54,10.3,5.54,19.89,15.84,21.44,10.3,1.54,19.9-5.54,21.44-15.84,1.56-10.3-5.54-19.9-15.84-21.44-.93-.15-1.87-.21-2.8-.21-9.18,0-17.23,6.71-18.64,16.05M161.08,420.35c-1.8,12,6.48,23.2,18.48,25.02,12.02,1.8,23.21-6.48,25.02-18.49,1.8-11.98-6.46-23.2-18.48-25-1.1-.16-2.2-.25-3.3-.25-10.69,0-20.08,7.8-21.72,18.72M103.47,407.4c-2.07,13.72,7.39,26.53,21.12,28.59,13.74,2.07,26.53-7.38,28.59-21.12,2.07-13.72-7.39-26.53-21.12-28.59-1.26-.18-2.52-.28-3.77-.28-12.21,0-22.95,8.95-24.82,21.39M39.75,393.06c-2.31,15.44,8.33,29.84,23.76,32.17,15.44,2.31,29.85-8.31,32.17-23.76,2.31-15.44-8.33-29.84-23.76-32.17-1.43-.21-2.84-.33-4.23-.33-13.77,0-25.84,10.07-27.94,24.08M242.83,378.73c-3.41,9.84,1.8,20.56,11.64,23.97,9.82,3.41,20.56-1.8,23.97-11.64s-1.8-20.58-11.64-23.97c-2.03-.72-4.13-1.05-6.18-1.05-7.8,0-15.1,4.89-17.79,12.69M292.07,355.22c-4,7.7-.98,17.18,6.71,21.16,7.69,4,17.18,1,21.18-6.71,3.98-7.69.98-17.18-6.72-21.18-2.31-1.18-4.77-1.75-7.21-1.75-5.67,0-11.16,3.08-13.95,8.48M193.15,361.53c-3.98,11.46,2.11,24,13.57,27.99,11.49,3.97,24.02-2.12,27.99-13.59,3.98-11.49-2.1-24.02-13.57-27.99-2.39-.82-4.82-1.21-7.2-1.21-9.12,0-17.64,5.7-20.79,14.8M137.56,342.28c-4.54,13.12,2.41,27.43,15.53,31.97,13.12,4.54,27.43-2.43,31.97-15.54,4.54-13.1-2.41-27.43-15.54-31.95-2.72-.95-5.49-1.39-8.21-1.39-10.43,0-20.15,6.53-23.74,16.92M252.43,330.95c-4.8,9.25-1.18,20.62,8.05,25.41,9.23,4.8,20.61,1.18,25.41-8.05,4.79-9.25,1.2-20.62-8.07-25.41-2.77-1.44-5.74-2.13-8.66-2.13-6.82,0-13.39,3.72-16.74,10.18M76.01,320.97c-5.1,14.76,2.72,30.85,17.48,35.97,14.76,5.12,30.85-2.7,35.95-17.46,5.12-14.76-2.71-30.87-17.46-35.99-3.05-1.05-6.18-1.56-9.25-1.56-11.71,0-22.67,7.34-26.72,19.03M207.45,303.38c-5.59,10.79-1.38,24.05,9.39,29.64,10.79,5.61,24.07,1.39,29.66-9.38,5.59-10.79,1.38-24.07-9.39-29.66-3.25-1.67-6.71-2.48-10.12-2.48-7.95,0-15.62,4.33-19.54,11.87M290.7,290.03c-6.38,8.23-4.89,20.07,3.36,26.44,8.21,6.38,20.07,4.87,26.43-3.34,6.38-8.23,4.89-20.07-3.34-26.46-3.44-2.66-7.49-3.93-11.53-3.93-5.64,0-11.2,2.51-14.92,7.3M351.55,284.89c-6.25,6.02-6.44,15.95-.39,22.2,6.02,6.25,15.95,6.44,22.2.39,6.25-6.02,6.43-15.95.39-22.2-3.08-3.2-7.18-4.8-11.3-4.8s-7.85,1.46-10.9,4.41M746.45,268.59c-7.51,7.21-7.72,19.15-.51,26.66,7.23,7.49,19.15,7.7,26.66.49,7.49-7.21,7.72-19.15.51-26.64-3.71-3.85-8.64-5.79-13.59-5.79-4.69,0-9.41,1.75-13.07,5.28M157.13,272.51c-6.39,12.31-1.59,27.48,10.74,33.87,12.31,6.41,27.48,1.59,33.87-10.72,6.39-12.33,1.57-27.49-10.74-33.9-3.71-1.92-7.66-2.82-11.54-2.82-9.1,0-17.87,4.95-22.33,13.57M249.17,257.84c-7.46,9.61-5.71,23.41,3.89,30.85,9.61,7.43,23.43,5.69,30.85-3.92,7.46-9.59,5.71-23.39-3.89-30.85-4.02-3.1-8.77-4.61-13.48-4.61-6.56,0-13.05,2.93-17.38,8.53M321.75,249.21c-7.49,7.23-7.72,19.18-.49,26.67,7.21,7.48,19.15,7.71,26.66.48,7.49-7.23,7.71-19.17.48-26.66-3.69-3.84-8.62-5.75-13.57-5.75s-9.41,1.76-13.07,5.26M435.61,235.18c-7.9,3.56-11.44,12.85-7.89,20.77,3.56,7.92,12.85,11.44,20.77,7.89,7.9-3.56,11.44-12.85,7.89-20.76-2.61-5.84-8.34-9.28-14.35-9.28-2.15,0-4.33.44-6.43,1.38M589.36,238.75c-1.77,8.51,3.67,16.82,12.16,18.59,8.49,1.79,16.82-3.66,18.59-12.15,1.77-8.51-3.67-16.82-12.16-18.59-1.08-.23-2.16-.34-3.23-.34-7.28,0-13.82,5.1-15.36,12.49M101.46,238.31c-7.18,13.87-1.77,30.94,12.08,38.12,13.85,7.2,30.92,1.79,38.12-12.07,7.2-13.87,1.79-30.94-12.08-38.13-4.15-2.15-8.61-3.18-12.98-3.18-10.23,0-20.1,5.57-25.13,15.26M523.32,216.98c-8.62,1.02-14.77,8.84-13.74,17.46,1.03,8.61,8.85,14.75,17.46,13.72s14.76-8.84,13.72-17.46c-.95-7.98-7.72-13.84-15.56-13.84-.62,0-1.26.03-1.89.12M370.36,215c-8.92,5.36-11.82,16.94-6.44,25.87,5.36,8.92,16.94,11.8,25.85,6.44,8.92-5.34,11.82-16.94,6.46-25.85-3.54-5.89-9.79-9.15-16.18-9.15-3.3,0-6.64.87-9.69,2.69M202.66,221.78c-8.49,10.97-6.51,26.76,4.48,35.26,10.95,8.51,26.74,6.49,35.26-4.46,8.49-10.97,6.49-26.76-4.48-35.26-4.57-3.56-10-5.28-15.38-5.28-7.51,0-14.94,3.34-19.89,9.74M287.93,208.73c-8.75,8.43-9,22.35-.57,31.08,8.44,8.75,22.35,9,31.1.57,8.74-8.44,8.98-22.35.56-31.1-4.31-4.48-10.07-6.72-15.84-6.72s-10.98,2.05-15.25,6.16M648.59,208.54c-4.39,9.44-.31,20.66,9.12,25.05,9.44,4.41,20.66.31,25.05-9.12,4.39-9.43.33-20.66-9.12-25.05-2.57-1.2-5.28-1.77-7.95-1.77-7.1,0-13.9,4.03-17.1,10.89M806.34,198.86c-14.18,13.66-14.62,36.23-.95,50.43,13.66,14.2,36.23,14.62,50.43.95,14.2-13.66,14.62-36.23.97-50.43-7-7.26-16.35-10.93-25.71-10.93s-17.82,3.31-24.74,9.98M598.34,196.49c-2.13,10.2,4.39,20.18,14.59,22.31,10.18,2.12,20.18-4.41,22.31-14.61,2.13-10.18-4.41-20.16-14.61-22.3-1.3-.28-2.59-.41-3.87-.41-8.72,0-16.57,6.12-18.43,15M708.2,187.03c-6.03,10.54-2.41,23.97,8.13,30,10.53,6.07,23.97,2.41,30.02-8.12,6.03-10.54,2.41-23.99-8.13-30.02-3.44-1.98-7.21-2.92-10.92-2.92-7.62,0-15.03,3.97-19.1,11.05M534.68,185.86c-1.3,10.33,6.03,19.76,16.36,21.05,10.33,1.28,19.76-6.03,21.05-16.36,1.28-10.33-6.03-19.76-16.36-21.03-.8-.12-1.59-.16-2.38-.16-9.36,0-17.48,6.97-18.67,16.51M479.41,167.75c-10.2,2.16-16.69,12.16-14.51,22.35,2.15,10.2,12.16,16.69,22.35,14.53,10.18-2.16,16.67-12.18,14.53-22.36-1.89-8.85-9.72-14.93-18.43-14.93-1.3,0-2.61.15-3.93.43M343.29,169.96c-10.41,6.25-13.79,19.76-7.53,30.17,6.25,10.41,19.77,13.79,30.17,7.52,10.43-6.25,13.79-19.77,7.53-30.17-4.12-6.87-11.39-10.67-18.85-10.67-3.85,0-7.77,1.02-11.31,3.15M146.34,174.94c-1.31,8.57,4.61,16.57,13.18,17.87,8.57,1.28,16.59-4.62,17.87-13.21,1.28-8.57-4.62-16.57-13.18-17.87-.8-.12-1.57-.16-2.36-.16-7.64,0-14.35,5.59-15.51,13.38M250.09,163.39c-9.98,9.64-10.28,25.54-.64,35.54,9.64,9.98,25.56,10.28,35.54.64,9.98-9.62,10.28-25.54.66-35.53-4.93-5.12-11.53-7.69-18.12-7.69s-12.56,2.33-17.44,7.03M405.56,156.68c-9.49,4.26-13.74,15.41-9.48,24.92,4.28,9.49,15.43,13.74,24.92,9.48,9.51-4.3,13.74-15.44,9.48-24.94-3.13-6.98-10.02-11.13-17.2-11.13-2.59,0-5.21.54-7.72,1.67M675.03,157.57c-4.31,7.52-1.72,17.13,5.8,21.44,7.53,4.33,17.13,1.74,21.44-5.8,4.33-7.52,1.71-17.11-5.82-21.43-2.46-1.43-5.15-2.1-7.8-2.1-5.44,0-10.72,2.84-13.62,7.89M312.98,119.52c-11.89,7.15-15.74,22.59-8.59,34.49,7.15,11.9,22.58,15.74,34.49,8.59,11.89-7.15,15.74-22.59,8.59-34.48-4.71-7.85-13.03-12.2-21.56-12.2-4.41,0-8.87,1.16-12.94,3.59M756.58,122.12c-6.92,12.03-2.75,27.38,9.3,34.3,12.02,6.9,27.38,2.75,34.3-9.29,6.92-12.03,2.75-27.4-9.3-34.3-3.93-2.26-8.23-3.34-12.48-3.34-8.71,0-17.18,4.54-21.82,12.64M208.27,113.2c-11.25,10.85-11.57,28.74-.72,39.99,10.82,11.25,28.72,11.57,39.97.72,11.25-10.82,11.57-28.72.74-39.97-5.56-5.75-12.95-8.64-20.36-8.64s-14.13,2.62-19.62,7.9M446.82,99.87c-11.89,2.52-19.48,14.21-16.94,26.1,2.52,11.87,14.2,19.46,26.07,16.94,11.89-2.52,19.46-14.21,16.94-26.08-2.2-10.34-11.31-17.43-21.48-17.43-1.51,0-3.05.16-4.59.48M562.9,116.79c-1.49,12.05,7.05,23.05,19.1,24.54,12.05,1.51,23.05-7.03,24.56-19.07,1.49-12.05-7.05-23.05-19.1-24.56-.93-.12-1.85-.18-2.77-.18-10.92,0-20.38,8.15-21.79,19.26M635.79,105.61c-3.21,15.28,6.61,30.26,21.87,33.46,15.3,3.18,30.28-6.61,33.46-21.9,3.21-15.28-6.61-30.26-21.89-33.46-1.95-.41-3.9-.61-5.8-.61-13.12,0-24.87,9.16-27.64,22.51M518.63,71.1c-13.77,1.64-23.61,14.15-21.97,27.94,1.66,13.79,14.16,23.61,27.95,21.95,13.77-1.64,23.61-14.15,21.97-27.92-1.52-12.77-12.38-22.15-24.92-22.15-1,0-2.02.05-3.03.18M369.19,67.56c-14.23,6.39-20.59,23.13-14.2,37.38,6.41,14.25,23.15,20.61,37.38,14.2,14.26-6.41,20.61-23.13,14.21-37.38-4.72-10.48-15.03-16.69-25.82-16.69-3.87,0-7.8.8-11.57,2.49M279.45,63.71c-13.39,8.03-17.72,25.41-9.67,38.79,8.05,13.38,25.41,17.72,38.79,9.67,13.38-8.03,17.72-25.43,9.69-38.81-5.31-8.82-14.67-13.71-24.26-13.71-4.97,0-9.98,1.31-14.54,4.05M579.8,46.85c-1.72,13.77,8.03,26.31,21.8,28.05,13.79,1.72,26.35-8.05,28.07-21.8,1.72-13.77-8.05-26.35-21.8-28.07-1.07-.13-2.11-.2-3.16-.2-12.49,0-23.31,9.3-24.9,22.02M516.89,16.95c-7.9,3.54-11.43,12.84-7.87,20.76,3.56,7.9,12.85,11.44,20.76,7.89,7.9-3.56,11.44-12.85,7.89-20.77-2.61-5.82-8.33-9.26-14.33-9.26-2.15,0-4.34.44-6.44,1.39M432.92.62c-15.26,3.25-25.02,18.26-21.77,33.54,3.25,15.26,18.25,25.02,33.54,21.77,15.26-3.25,25.02-18.26,21.77-33.53-2.84-13.3-14.57-22.41-27.64-22.41-1.93,0-3.92.2-5.9.62"/></clipPath><linearGradient id="linear-gradient-5" x1="-1586.23" y1="4865.25" x2="-1569.83" y2="4865.25" gradientTransform="translate(-293463.56 95860.18) rotate(90) scale(60.41 -60.41)" gradientUnits="userSpaceOnUse"><stop offset="0" stop-color="#1b4899"/><stop offset=".17" stop-color="#28548e"/><stop offset=".48" stop-color="#4d7573"/><stop offset=".91" stop-color="#87aa46"/><stop offset="1" stop-color="#95b63d"/></linearGradient></defs><g class="cls-11"><rect class="cls-10" x="862.48" y="93.08" width="1144.21" height="881.08" transform="translate(-74.61 788.79) rotate(-30)"/></g><polygon points="2157.96 647.51 2262.91 356.36 2329.9 356.36 2188.55 730.32 2124.2 730.32 1984.96 356.36 2053.52 356.36 2157.96 647.51"/><path d="M2350.47,405.47c-7.74-7.74-11.61-17.07-11.61-27.95s3.87-20.31,11.61-28.23c7.74-7.9,17.05-11.87,27.95-11.87s20.76,3.89,28.49,11.61c7.72,7.74,11.59,17.23,11.59,28.49s-3.87,20.21-11.59,27.95c-7.74,7.72-17.23,11.59-28.49,11.59s-20.21-3.87-27.95-11.59M2409.01,724.55h-60.66v-256.87h60.66v256.87Z"/><path d="M2443.3,737.84l56.43-14.77c2.11,16.18,9.05,29.44,20.84,39.82,11.77,10.38,26.28,15.57,43.51,15.57,48.53,0,72.79-25.67,72.79-77.02v-26.89c-5.98,10.9-15.48,19.87-28.48,26.89-13.02,7.05-28.31,10.56-45.89,10.56-34.46,0-62.86-11.77-85.19-35.35-22.33-23.54-33.49-53.45-33.49-89.66s11.08-64.35,33.23-88.61c22.15-24.25,50.63-36.38,85.45-36.38,37.61,0,62.94,12.48,75.94,37.44v-32.71h59.07v232.6c0,37.97-10.72,69.53-32.17,94.66-21.44,25.15-54.68,37.72-99.68,37.72-33.07,0-60.84-8.97-83.33-26.9-22.51-17.94-35.53-40.26-39.04-66.99M2572.52,659.78c19.69,0,35.59-6.59,47.72-19.77,12.13-13.2,18.2-30.87,18.2-53.02s-6.15-39.28-18.46-52.48c-12.3-13.18-28.13-19.77-47.46-19.77s-35.79,6.59-48.27,19.77c-12.48,13.2-18.72,30.69-18.72,52.48s6.15,39.82,18.46,53.02c12.31,13.18,28.48,19.77,48.53,19.77"/><path d="M2748.15,405.47c-7.74-7.74-11.61-17.07-11.61-27.95s3.87-20.31,11.61-28.23c7.74-7.9,17.05-11.87,27.95-11.87s20.76,3.89,28.49,11.61c7.72,7.74,11.59,17.23,11.59,28.49s-3.87,20.21-11.59,27.95c-7.74,7.72-17.25,11.59-28.49,11.59s-20.21-3.87-27.95-11.59M2806.69,724.55h-60.66v-256.87h60.66v256.87Z"/><rect x="2859.43" y="342.69" width="61.18" height="381.86"/><g class="cls-6"><rect class="cls-2" x="637.79" y="630.91" width="83.89" height="79.9" transform="translate(-3.78 1337.87) rotate(-88.92)"/></g><g class="cls-9"><rect class="cls-5" x="646.66" y="655.76" width="209.35" height="199.04" transform="translate(-173.72 1283.7) rotate(-74.89)"/></g><g class="cls-8"><rect class="cls-4" x="328.6" y="297.17" width="425.21" height="440.21"/></g><g class="cls-1"><rect class="cls-7" x="-178.79" y="-140.32" width="1225.79" height="1287.65" transform="translate(-176.79 241.26) rotate(-26)"/></g></svg>