<svg xmlns="http://www.w3.org/2000/svg" xmlns:xlink="http://www.w3.org/1999/xlink" width="61" height="52.001" viewBox="0 0 61 52.001">
  <defs>
    <linearGradient id="linear-gradient" y1="0.5" x2="1" y2="0.5" gradientUnits="objectBoundingBox">
      <stop offset="0" stop-color="#0e90a2"/>
      <stop offset="0.32" stop-color="#19a574"/>
      <stop offset="1" stop-color="#90c43c"/>
    </linearGradient>
  </defs>
  <g id="Group_15763" data-name="Group 15763" transform="translate(6142.336 9640.263)">
    <path id="Path_26365" data-name="Path 26365" d="M6.307,645.1c6.64-10.915,19.255-32.512,25.48-43.2a4.366,4.366,0,0,1,7.486-.1l26.732,43.272a4.364,4.364,0,0,1-3.714,6.659H10.036A4.365,4.365,0,0,1,6.307,645.1Z" transform="translate(-6148 -10240)" fill="url(#linear-gradient)"/>
    <path id="Path_26366" data-name="Path 26366" d="M150.543,687.454c-1.03-6.37-1.7-12.79-2.425-19.2a6.46,6.46,0,0,1,.394-3.977,3.5,3.5,0,0,1,2.7-1.67,4.118,4.118,0,0,1,3.035,1.038,3.855,3.855,0,0,1,1.154,1.74,6.7,6.7,0,0,1,.081,2.639q-.9,8.775-1.792,17.549a4.081,4.081,0,0,1-.544,1.959,1.682,1.682,0,0,1-2.374.319" transform="translate(-6263.62 -10291.061)" fill="#fff"/>
    <circle id="Ellipse_58" data-name="Ellipse 58" cx="2.958" cy="2.958" r="2.958" transform="translate(-6114.794 -9600.241)" fill="#fff"/>
  </g>
</svg>
