<?xml version="1.0" encoding="UTF-8"?><svg id="Layer_1" xmlns="http://www.w3.org/2000/svg" viewBox="0 0 220.7 225.85"><defs><style>.cls-1{fill:#fff;stroke-width:0px;}</style></defs><path id="Path_26053" class="cls-1" d="m202.73,16h0c-23.17-22.08-59.85-21.2-81.93,1.96,0,0,0,0,0,0l-46.22,48.49,83.89,79.96,46.22-48.5c22.08-23.17,21.2-59.84-1.96-81.92Zm-18.84,22.43c-12.25-11.68-31.65-11.21-43.33,1.04l-10.55-10.06c17.23-18.08,45.86-18.77,63.94-1.53l-10.06,10.56Z"/><path id="Path_26054" class="cls-1" d="m119.35,187.47l-19.53,20.49c-22.12,23.13-58.81,23.94-81.93,1.81-23.07-22.07-23.94-58.63-1.96-81.78l46.22-48.5,53.37,50.87c-.11.19-.22.39-.32.57-8.9,16.96-8.08,37.39,2.15,53.59.63,1.01,1.3,1.99,2.01,2.95Z"/><path id="Path_26055" class="cls-1" d="m162.69,158.36l45.34,26.17c-15.83,25.04-48.95,32.51-73.99,16.68-5.72-3.61-10.7-8.27-14.68-13.74-.7-.96-1.37-1.94-2-2.94l45.33-26.17Z"/><path id="Path_26056" class="cls-1" d="m210.17,130.94l-47.48,27.41-47.48-27.41c.1-.19.2-.39.32-.57,14.1-26.05,46.65-35.74,72.7-21.64,9.36,5.06,17,12.8,21.95,22.22h0Z"/></svg>