<?xml version="1.0" encoding="UTF-8"?><svg id="Layer_1" xmlns="http://www.w3.org/2000/svg" viewBox="0 0 199.34 199.34"><defs><style>.cls-1{fill:#fff;stroke-width:0px;}</style></defs><g id="ICON"><path id="Path_26053" class="cls-1" d="m179.71,14.12h0c-20.44-19.48-52.8-18.71-72.29,1.73,0,0,0,0,0,0l-40.78,42.79,74.02,70.56,40.78-42.79c19.48-20.44,18.71-52.8-1.73-72.29,0,0,0,0,0,0Zm-16.62,19.79c-10.81-10.3-27.93-9.89-38.23.92h0s-9.31-8.88-9.31-8.88c15.21-15.95,40.47-16.56,56.42-1.35l-8.88,9.31Z"/><path id="Path_26054" class="cls-1" d="m106.14,165.41l-17.23,18.08c-19.48,20.44-51.85,21.22-72.29,1.73-20.44-19.48-21.22-51.85-1.73-72.29l40.78-42.79,47.09,44.89c-.1.17-.19.34-.28.51-7.85,14.97-7.13,32.99,1.89,47.28.56.89,1.15,1.75,1.77,2.6Z"/><path id="Path_26055" class="cls-1" d="m144.38,139.72l40,23.09c-13.97,22.09-43.2,28.68-65.29,14.71-5.04-3.19-9.43-7.3-12.94-12.11-.62-.85-1.21-1.71-1.77-2.6l40-23.09Z"/><path id="Path_26056" class="cls-1" d="m186.27,115.54l-41.9,24.19-41.9-24.19c.09-.17.18-.34.28-.51,12.44-22.99,41.16-31.54,64.15-19.1,8.26,4.47,15,11.29,19.37,19.6h0Z"/></g></svg>