<?xml version="1.0" encoding="UTF-8"?>
<svg id="Layer_1" data-name="Layer 1" xmlns="http://www.w3.org/2000/svg" xmlns:xlink="http://www.w3.org/1999/xlink" viewBox="0 0 200 200">
  <defs>
    <style>
      .cls-1 {
        fill: #fff;
      }

      .cls-2 {
        fill: url(#linear-gradient);
      }
    </style>
    <linearGradient id="linear-gradient" x1="1354.74" y1="-3391.11" x2="1359.07" y2="-3391.11" gradientTransform="translate(-60703.9 -129464.91) scale(44.81 -38.21)" gradientUnits="userSpaceOnUse">
      <stop offset="0" stop-color="#0e90a2"/>
      <stop offset=".32" stop-color="#19a574"/>
      <stop offset="1" stop-color="#90c43c"/>
    </linearGradient>
  </defs>
  <g id="Group_15436" data-name="Group 15436">
    <g id="Group_15762" data-name="Group 15762">
      <path id="Path_26365" data-name="Path 26365" class="cls-2" d="M4.91,161.68C26.06,126.92,66.23,58.13,86.06,24.1c3.87-6.64,12.38-8.88,19.02-5.01,1.97,1.15,3.63,2.76,4.82,4.7l85.14,137.82c4.03,6.53,2.01,15.1-4.52,19.13-2.2,1.36-4.73,2.07-7.31,2.07H16.78c-7.68,0-13.9-6.22-13.91-13.9,0-2.55.7-5.05,2.03-7.23h0Z"/>
      <path id="Path_26366" data-name="Path 26366" class="cls-1" d="M96.05,133.94c-3.28-20.29-5.41-40.75-7.72-61.15-.93-4.25-.49-8.68,1.26-12.67,1.85-3.05,5.04-5.02,8.59-5.32,3.54-.25,7.02.94,9.67,3.31,1.71,1.47,2.98,3.39,3.68,5.54.64,2.76.73,5.61.26,8.41-1.9,18.63-3.8,37.26-5.71,55.89-.04,2.19-.64,4.34-1.73,6.24-1.78,2.36-5.14,2.84-7.5,1.06-.02-.01-.04-.03-.06-.04"/>
      <circle id="Ellipse_58" data-name="Ellipse 58" class="cls-1" cx="100" cy="154.08" r="9.42"/>
    </g>
  </g>
</svg>