<?xml version="1.0" encoding="UTF-8"?><svg id="Layer_1" xmlns="http://www.w3.org/2000/svg" xmlns:xlink="http://www.w3.org/1999/xlink" viewBox="0 0 200 200"><defs><style>.cls-1{fill:#10949a;}.cls-2{fill:#8cc33e;}.cls-3{fill:#2baa6b;}.cls-4{fill:#29a96c;}.cls-5{fill:#80c044;}.cls-6{fill:#37ad66;}.cls-7{fill:#35ac67;}.cls-8{fill:#139a8c;}.cls-9{fill:#2aa96c;}.cls-10{fill:#16a07f;}.cls-11{fill:#44b060;}.cls-12{fill:#48b15e;}.cls-13{fill:#7bbe46;}.cls-14{fill:#74bd49;}.cls-15{fill:#5ab656;}.cls-16{fill:#5bb655;}.cls-17{fill:#4cb25c;}.cls-18{fill:#0f929e;}.cls-19{fill:#7cbf45;}.cls-20{fill:#60b753;}.cls-21{fill:#82c043;}.cls-22{fill:#47b15e;}.cls-23{fill:#8ec33d;}.cls-24{fill:#149c88;}.cls-25{fill:#6aba4e;}.cls-26{fill:url(#linear-gradient-2);}.cls-27{fill:#7abe46;}.cls-28{fill:#78be47;}.cls-29{fill:#36ad66;}.cls-30{fill:#46b15f;}.cls-31{fill:#159d85;}.cls-32{fill:#50b35a;}.cls-33{fill:#139a8d;}.cls-34{fill:#2caa6b;}.cls-35{fill:#30ab69;}.cls-36{fill:#56b558;}.cls-37{fill:#17a17c;}.cls-38{fill:#109598;}.cls-39{fill:#42b061;}.cls-40{fill:#fff;}.cls-41{fill:#19a476;}.cls-42{fill:#10939b;}.cls-43{fill:#0f939c;}.cls-44{fill:#8fc43c;}.cls-45{fill:#169f80;}.cls-46{fill:#4eb35b;}.cls-47{fill:#26a86e;}.cls-48{fill:#76bd48;}.cls-49{fill:#21a770;}.cls-50{fill:#6bba4e;}.cls-51{fill:#129793;}.cls-52{fill:#5cb655;}.cls-53{fill:#1ba673;}.cls-54{fill:#129891;}.cls-55{fill:none;}.cls-56{fill:#129792;}.cls-57{fill:#159e84;}.cls-58{fill:#0f919f;}.cls-59{fill:#3aae64;}.cls-60{fill:#2eab6a;}.cls-61{fill:#4bb25c;}.cls-62{fill:#18a379;}.cls-63{fill:#66b950;}.cls-64{fill:#62b852;}.cls-65{fill:#8ac23f;}.cls-66{fill:#31ab69;}.cls-67{fill:#7fc044;}.cls-68{fill:#0e91a0;}.cls-69{fill:#83c142;}.cls-70{fill:#4ab25d;}.cls-71{fill:#77bd48;}.cls-72{fill:#119696;}.cls-73{fill:#4fb35a;}.cls-74{fill:#20a771;}.cls-75{fill:#89c23f;}.cls-76{fill:#70bc4b;}.cls-77{fill:#61b852;}.cls-78{fill:#45b15f;}.cls-79{fill:#0f929d;}.cls-80{fill:#3cae63;}.cls-81{fill:#64b851;}.cls-82{fill:#2fab6a;}.cls-83{fill:#17a27b;}.cls-84{fill:#159d86;}.cls-85{fill:#24a86f;}.cls-86{fill:#68b94f;}.cls-87{fill:#88c240;}.cls-88{fill:#0e90a1;}.cls-89{fill:#7dbf45;}.cls-90{fill:#5db754;}.cls-91{fill:#39ad65;}.cls-92{fill:#69ba4f;}.cls-93{fill:#52b459;}.cls-94{fill:#73bc4a;}.cls-95{fill:#17a07e;}.cls-96{fill:#1ca673;}.cls-97{fill:#6cbb4d;}.cls-98{fill:#87c240;}.cls-99{fill:#22a770;}.cls-100{fill:#129890;}.cls-101{fill:#27a96d;}.cls-102{fill:#19a574;}.cls-103{fill:#84c142;}.cls-104{fill:#41b061;}.cls-105{fill:#51b459;}.cls-106{fill:#109499;}.cls-107{fill:#149b89;}.cls-108{fill:#81c043;}.cls-109{fill:#169f81;}.cls-110{fill:#38ad65;}.cls-111{fill:#8dc33d;}.cls-112{fill:#7ebf45;}.cls-113{fill:#159e83;}.cls-114{fill:#119597;}.cls-115{fill:#4db35b;}.cls-116{fill:#149b8a;}.cls-117{fill:#23a86f;}.cls-118{fill:#6dbb4d;}.cls-119{fill:#1fa771;}.cls-120{fill:#75bd49;}.cls-121{fill:#72bc4a;}.cls-122{fill:#1da672;}.cls-123{fill:#3faf62;}.cls-124{fill:#67b94f;}.cls-125{fill:#49b25d;}.cls-126{fill:#5fb753;}.cls-127{fill:#119695;}.cls-128{fill:#0e90a2;}.cls-129{fill:#8bc33e;}.cls-130{fill:#58b557;}.cls-131{fill:#17a17d;}.cls-132{fill:#32ac68;}.cls-133{fill:#79be47;}.cls-134{fill:#3bae64;}.cls-135{fill:#3dae63;}.cls-136{fill:#43b060;}.cls-137{fill:#85c141;}.cls-138{fill:#33ac68;}.cls-139{fill:#13998f;}.cls-140{fill:#1ea672;}.cls-141{fill:#3eaf62;}.cls-142{fill:#18a477;}.cls-143{fill:#65b950;}.cls-144{fill:#25a86e;}.cls-145{fill:#13998e;}.cls-146{fill:#55b558;}.cls-147{fill:#53b458;}.cls-148{fill:#6ebb4c;}.cls-149{fill:#57b557;}.cls-150{fill:url(#linear-gradient);}.cls-151{fill:#169e82;}.cls-152{fill:#63b851;}.cls-153{fill:#59b656;}.cls-154{fill:#149c87;}.cls-155{fill:#86c141;}.cls-156{fill:#71bc4b;}.cls-157{fill:#34ac67;}.cls-158{clip-path:url(#clippath);}.cls-159{fill:#2daa6b;}.cls-160{fill:#18a27a;}.cls-161{fill:#28a96d;}.cls-162{fill:#5eb754;}.cls-163{fill:#19a575;}.cls-164{fill:#119794;}.cls-165{fill:#40af61;}.cls-166{fill:#18a378;}.cls-167{fill:#1aa574;}.cls-168{fill:#6fbb4c;}.cls-169{fill:#90c43c;}</style><linearGradient id="linear-gradient" x1="-888.31" y1="114.24" x2="-855.72" y2="114.24" gradientTransform="translate(-711.51) rotate(-180) scale(1 -1)" gradientUnits="userSpaceOnUse"><stop offset="0" stop-color="#0e90a2"/><stop offset=".32" stop-color="#19a574"/><stop offset="1" stop-color="#90c43c"/></linearGradient><linearGradient id="linear-gradient-2" x1="-903.54" y1="129.32" x2="-716.56" y2="129.32" xlink:href="#linear-gradient"/><clipPath id="clippath"><polygon class="cls-55" points="106.58 20.26 116.06 49.43 146.73 49.43 121.91 67.46 131.39 96.64 106.58 78.61 81.76 96.64 91.24 67.46 66.42 49.43 97.1 49.43 106.58 20.26"/></clipPath></defs><path class="cls-150" d="M169.22,85.18c5.62,1.69,8.81,7.61,7.12,13.23l-11.33,37.78c-1.69,5.62-7.61,8.81-13.23,7.12h0c-5.62-1.69-8.81-7.61-7.12-13.23l11.33-37.78c1.69-5.62,7.61-8.81,13.23-7.12h0Z"/><path class="cls-40" d="M154.84,146.27h0c5.75,0,10.92-3.85,12.58-9.36l11.33-37.78c1.01-3.36.65-6.91-1.02-10-1.66-3.09-4.43-5.35-7.79-6.35-1.23-.37-2.5-.56-3.78-.56-5.75,0-10.92,3.85-12.58,9.36l-11.33,37.78c-2.08,6.94,1.87,14.27,8.81,16.35,1.23.37,2.5.56,3.78.56ZM166.17,87.24c.79,0,1.57.12,2.33.34,2.08.62,3.78,2.02,4.81,3.92,1.03,1.91,1.25,4.1.63,6.17l-11.33,37.78c-1.02,3.4-4.21,5.78-7.76,5.78h0c-.79,0-1.57-.12-2.33-.34-4.28-1.28-6.72-5.81-5.44-10.1l11.33-37.78c1.02-3.4,4.21-5.78,7.76-5.78Z"/><path class="cls-26" d="M10.39,114.8c.69.16,1.68.42,2.95.76,7.07,1.9,20.23,5.43,44.11,2.77.39-.04.76-.18,1.09-.39.4-.26.81-.51,1.24-.75,10.78-6.23,24.27-5.79,35.21,1.15l6.22,3.94c.38.24.81.37,1.25.39l26.62.95c2.77-.05,4.95.75,6.45,2.26,1.18,1.2,1.9,2.86,1.93,4.44.01.87-.07,1.68-.25,2.42-.07.18-.12.36-.15.55-.94,2.97-3.48,4.7-7.19,4.75l-24.03.34h-26.42c-1.39,0-2.51,1.12-2.51,2.51s1.12,2.51,2.51,2.51h26.46l24.06-.34c5.68-.08,9.94-2.97,11.68-7.58l15.55-7.18c.53-.24.95-.66,1.21-1.18l19.08-39.33c.72-1.58,2.12-2.81,3.84-3.43,1.39-.5,3.63-.82,6.39.44,4.5,2.05,5.1,6.09,3.71,9.18l-20.71,45.25-43.81,25.09c-5.29,3.03-10.5,5.9-16.12,7.83-3.97,1.36-8.22,1.9-13.38,2.29-12.14.92-23.81-.67-36.16-2.35-4.23-.58-8.61-1.17-12.95-1.65-10.16-1.11-25.67-.65-32.76.51-4.85.79-7.41-6.57-8.51-11.04-4.43-18.07-.26-43.89,3.43-45.11Z"/><path class="cls-40" d="M5.38,112.87c2.17-3.19,4.63-3.24,5.89-3,.94.18,2.01.47,3.36.84,6.69,1.8,19.11,5.13,41.68,2.7.31-.19.62-.38.94-.56,12.4-7.17,27.89-6.69,40.42,1.25l5.64,3.58,25.81.93c5.1-.05,8.24,2,9.97,3.76,1.94,1.96,3.13,4.56,3.34,7.21l11.79-5.45,18.66-38.47c1.26-2.76,3.7-4.95,6.7-6.02,3.21-1.14,6.82-.93,10.17.6,6.41,2.93,9.01,9.58,6.19,15.83l-21.05,45.99c-.22.48-.58.87-1.04,1.13l-44.51,25.49c-5.29,3.03-10.95,6.15-16.99,8.22-4.97,1.7-10.16,2.21-14.63,2.55-2.55.19-5.1.28-7.63.28-10.05,0-19.95-1.35-29.59-2.67-4.2-.57-8.54-1.17-12.82-1.64-9.61-1.06-24.77-.61-31.4.47-2.91.48-7.09-.09-10.51-5.45-8.62-13.53-6.59-48.49-.39-57.58ZM15.47,170.95c7.09-1.16,22.6-1.62,32.76-.51,4.35.48,8.72,1.07,12.95,1.65,12.35,1.69,24.02,3.28,36.16,2.35,5.17-.39,9.42-.93,13.38-2.29,5.62-1.93,10.83-4.8,16.12-7.83l43.81-25.09,20.71-45.25c1.39-3.09.79-7.13-3.71-9.18-2.76-1.26-4.99-.94-6.39-.44-1.73.62-3.12,1.85-3.84,3.43l-19.08,39.33c-.25.52-.68.94-1.21,1.18l-15.55,7.18c-1.74,4.61-6,7.5-11.68,7.58l-24.06.34h-26.46c-1.39,0-2.51-1.12-2.51-2.51s1.12-2.51,2.51-2.51h26.42l24.03-.34c3.72-.05,6.26-1.78,7.19-4.75.03-.19.08-.37.15-.55.18-.74.26-1.55.25-2.42-.02-1.58-.74-3.24-1.93-4.44-1.49-1.51-3.67-2.31-6.45-2.26l-26.62-.95c-.45-.02-.88-.15-1.25-.39l-6.22-3.94c-10.94-6.94-24.44-7.38-35.21-1.15-.43.25-.84.5-1.24.75-.33.21-.7.34-1.09.39-23.88,2.65-37.04-.88-44.11-2.77-1.26-.34-2.26-.61-2.95-.76-3.69,1.22-7.86,27.03-3.43,45.11,1.1,4.46,3.66,11.82,8.51,11.04Z"/><g class="cls-158"><rect class="cls-128" x="66.42" y="20.26" width=".56" height="76.37"/><rect class="cls-88" x="66.98" y="20.26" width=".56" height="76.37"/><rect class="cls-68" x="67.54" y="20.26" width=".56" height="76.37"/><rect class="cls-58" x="68.1" y="20.26" width=".56" height="76.37"/><rect class="cls-18" x="68.66" y="20.26" width=".56" height="76.37"/><rect class="cls-79" x="69.22" y="20.26" width=".56" height="76.37"/><rect class="cls-43" x="69.78" y="20.26" width=".56" height="76.37"/><rect class="cls-42" x="70.33" y="20.26" width=".56" height="76.37"/><rect class="cls-1" x="70.89" y="20.26" width=".56" height="76.37"/><rect class="cls-106" x="71.45" y="20.26" width=".56" height="76.37"/><rect class="cls-38" x="72.01" y="20.26" width=".56" height="76.37"/><rect class="cls-114" x="72.57" y="20.26" width=".56" height="76.37"/><rect class="cls-72" x="73.13" y="20.26" width=".56" height="76.37"/><rect class="cls-127" x="73.69" y="20.26" width=".56" height="76.37"/><rect class="cls-164" x="74.25" y="20.26" width=".56" height="76.37"/><rect class="cls-51" x="74.8" y="20.26" width=".56" height="76.37"/><rect class="cls-56" x="75.36" y="20.26" width=".56" height="76.37"/><rect class="cls-54" x="75.92" y="20.26" width=".56" height="76.37"/><rect class="cls-100" x="76.48" y="20.26" width=".56" height="76.37"/><rect class="cls-139" x="77.04" y="20.26" width=".56" height="76.37"/><rect class="cls-145" x="77.6" y="20.26" width=".56" height="76.37"/><rect class="cls-33" x="78.16" y="20.26" width=".56" height="76.37"/><rect class="cls-8" x="78.71" y="20.26" width=".56" height="76.37"/><rect class="cls-116" x="79.27" y="20.26" width=".56" height="76.37"/><rect class="cls-107" x="79.83" y="20.26" width=".56" height="76.37"/><rect class="cls-24" x="80.39" y="20.26" width=".56" height="76.37"/><rect class="cls-154" x="80.95" y="20.26" width=".56" height="76.37"/><rect class="cls-84" x="81.51" y="20.26" width=".56" height="76.37"/><rect class="cls-31" x="82.07" y="20.26" width=".56" height="76.37"/><rect class="cls-57" x="82.62" y="20.26" width=".56" height="76.37"/><rect class="cls-113" x="83.18" y="20.26" width=".56" height="76.37"/><rect class="cls-151" x="83.74" y="20.26" width=".56" height="76.37"/><rect class="cls-109" x="84.3" y="20.26" width=".56" height="76.37"/><rect class="cls-45" x="84.86" y="20.26" width=".56" height="76.37"/><rect class="cls-10" x="85.42" y="20.26" width=".56" height="76.37"/><rect class="cls-95" x="85.98" y="20.26" width=".56" height="76.37"/><rect class="cls-131" x="86.54" y="20.26" width=".56" height="76.37"/><rect class="cls-37" x="87.09" y="20.26" width=".56" height="76.37"/><rect class="cls-83" x="87.65" y="20.26" width=".56" height="76.37"/><rect class="cls-160" x="88.21" y="20.26" width=".56" height="76.37"/><rect class="cls-62" x="88.77" y="20.26" width=".56" height="76.37"/><rect class="cls-166" x="89.33" y="20.26" width=".56" height="76.37"/><rect class="cls-142" x="89.89" y="20.26" width=".56" height="76.37"/><rect class="cls-41" x="90.45" y="20.26" width=".56" height="76.37"/><rect class="cls-163" x="91" y="20.26" width=".56" height="76.37"/><rect class="cls-102" x="91.56" y="20.26" width=".56" height="76.37"/><rect class="cls-102" x="92.12" y="20.26" width=".46" height="76.37"/><rect class="cls-167" x="92.58" y="20.26" width=".46" height="76.37"/><rect class="cls-53" x="93.04" y="20.26" width=".46" height="76.37"/><rect class="cls-96" x="93.5" y="20.26" width=".46" height="76.37"/><rect class="cls-122" x="93.96" y="20.26" width=".46" height="76.37"/><rect class="cls-140" x="94.42" y="20.26" width=".46" height="76.37"/><rect class="cls-119" x="94.87" y="20.26" width=".46" height="76.37"/><rect class="cls-74" x="95.33" y="20.26" width=".46" height="76.37"/><rect class="cls-49" x="95.79" y="20.26" width=".46" height="76.37"/><rect class="cls-99" x="96.25" y="20.26" width=".46" height="76.37"/><rect class="cls-117" x="96.71" y="20.26" width=".46" height="76.37"/><rect class="cls-85" x="97.17" y="20.26" width=".46" height="76.37"/><rect class="cls-144" x="97.63" y="20.26" width=".46" height="76.37"/><rect class="cls-47" x="98.09" y="20.26" width=".46" height="76.37"/><rect class="cls-101" x="98.55" y="20.26" width=".46" height="76.37"/><rect class="cls-161" x="99" y="20.26" width=".46" height="76.37"/><rect class="cls-4" x="99.46" y="20.26" width=".46" height="76.37"/><rect class="cls-9" x="99.92" y="20.26" width=".46" height="76.37"/><rect class="cls-3" x="100.38" y="20.26" width=".46" height="76.37"/><rect class="cls-34" x="100.84" y="20.26" width=".46" height="76.37"/><rect class="cls-159" x="101.3" y="20.26" width=".46" height="76.37"/><rect class="cls-60" x="101.76" y="20.26" width=".46" height="76.37"/><rect class="cls-82" x="102.22" y="20.26" width=".46" height="76.37"/><rect class="cls-35" x="102.68" y="20.26" width=".46" height="76.37"/><rect class="cls-66" x="103.13" y="20.26" width=".46" height="76.37"/><rect class="cls-132" x="103.59" y="20.26" width=".46" height="76.37"/><rect class="cls-138" x="104.05" y="20.26" width=".46" height="76.37"/><rect class="cls-157" x="104.51" y="20.26" width=".46" height="76.37"/><rect class="cls-7" x="104.97" y="20.26" width=".46" height="76.37"/><rect class="cls-29" x="105.43" y="20.26" width=".46" height="76.37"/><rect class="cls-6" x="105.89" y="20.26" width=".46" height="76.37"/><rect class="cls-110" x="106.35" y="20.26" width=".46" height="76.37"/><rect class="cls-91" x="106.81" y="20.26" width=".46" height="76.37"/><rect class="cls-59" x="107.26" y="20.26" width=".46" height="76.37"/><rect class="cls-134" x="107.72" y="20.26" width=".46" height="76.37"/><rect class="cls-80" x="108.18" y="20.26" width=".46" height="76.37"/><rect class="cls-135" x="108.64" y="20.26" width=".46" height="76.37"/><rect class="cls-141" x="109.1" y="20.26" width=".46" height="76.37"/><rect class="cls-123" x="109.56" y="20.26" width=".46" height="76.37"/><rect class="cls-165" x="110.02" y="20.26" width=".46" height="76.37"/><rect class="cls-104" x="110.48" y="20.26" width=".46" height="76.37"/><rect class="cls-39" x="110.94" y="20.26" width=".46" height="76.37"/><rect class="cls-136" x="111.39" y="20.26" width=".46" height="76.37"/><rect class="cls-11" x="111.85" y="20.26" width=".46" height="76.37"/><rect class="cls-78" x="112.31" y="20.26" width=".46" height="76.37"/><rect class="cls-30" x="112.77" y="20.26" width=".46" height="76.37"/><rect class="cls-22" x="113.23" y="20.26" width=".46" height="76.37"/><rect class="cls-12" x="113.69" y="20.26" width=".46" height="76.37"/><rect class="cls-125" x="114.15" y="20.26" width=".46" height="76.37"/><rect class="cls-70" x="114.61" y="20.26" width=".46" height="76.37"/><rect class="cls-61" x="115.07" y="20.26" width=".46" height="76.37"/><rect class="cls-17" x="115.52" y="20.26" width=".46" height="76.37"/><rect class="cls-115" x="115.98" y="20.26" width=".46" height="76.37"/><rect class="cls-46" x="116.44" y="20.26" width=".46" height="76.37"/><rect class="cls-73" x="116.9" y="20.26" width=".46" height="76.37"/><rect class="cls-32" x="117.36" y="20.26" width=".46" height="76.37"/><rect class="cls-105" x="117.82" y="20.26" width=".46" height="76.37"/><rect class="cls-93" x="118.28" y="20.26" width=".46" height="76.37"/><rect class="cls-147" x="118.74" y="20.26" width=".46" height="76.37"/><rect class="cls-146" x="119.2" y="20.26" width=".46" height="76.37"/><rect class="cls-36" x="119.65" y="20.26" width=".46" height="76.37"/><rect class="cls-149" x="120.11" y="20.26" width=".46" height="76.37"/><rect class="cls-130" x="120.57" y="20.26" width=".46" height="76.37"/><rect class="cls-153" x="121.03" y="20.26" width=".46" height="76.37"/><rect class="cls-15" x="121.49" y="20.26" width=".46" height="76.37"/><rect class="cls-16" x="121.95" y="20.26" width=".46" height="76.37"/><rect class="cls-52" x="122.41" y="20.26" width=".46" height="76.37"/><rect class="cls-90" x="122.87" y="20.26" width=".46" height="76.37"/><rect class="cls-162" x="123.33" y="20.26" width=".46" height="76.37"/><rect class="cls-126" x="123.78" y="20.26" width=".46" height="76.37"/><rect class="cls-20" x="124.24" y="20.26" width=".46" height="76.37"/><rect class="cls-77" x="124.7" y="20.26" width=".46" height="76.37"/><rect class="cls-64" x="125.16" y="20.26" width=".46" height="76.37"/><rect class="cls-152" x="125.62" y="20.26" width=".46" height="76.37"/><rect class="cls-81" x="126.08" y="20.26" width=".46" height="76.37"/><rect class="cls-143" x="126.54" y="20.26" width=".46" height="76.37"/><rect class="cls-63" x="127" y="20.26" width=".46" height="76.37"/><rect class="cls-124" x="127.46" y="20.26" width=".46" height="76.37"/><rect class="cls-86" x="127.91" y="20.26" width=".46" height="76.37"/><rect class="cls-92" x="128.37" y="20.26" width=".46" height="76.37"/><rect class="cls-25" x="128.83" y="20.26" width=".46" height="76.37"/><rect class="cls-50" x="129.29" y="20.26" width=".46" height="76.37"/><rect class="cls-97" x="129.75" y="20.26" width=".46" height="76.37"/><rect class="cls-118" x="130.21" y="20.26" width=".46" height="76.37"/><rect class="cls-148" x="130.67" y="20.26" width=".46" height="76.37"/><rect class="cls-168" x="131.13" y="20.26" width=".46" height="76.37"/><rect class="cls-76" x="131.59" y="20.26" width=".46" height="76.37"/><rect class="cls-156" x="132.04" y="20.26" width=".46" height="76.37"/><rect class="cls-121" x="132.5" y="20.26" width=".46" height="76.37"/><rect class="cls-94" x="132.96" y="20.26" width=".46" height="76.37"/><rect class="cls-14" x="133.42" y="20.26" width=".46" height="76.37"/><rect class="cls-120" x="133.88" y="20.26" width=".46" height="76.37"/><rect class="cls-48" x="134.34" y="20.26" width=".46" height="76.37"/><rect class="cls-71" x="134.8" y="20.26" width=".46" height="76.37"/><rect class="cls-28" x="135.26" y="20.26" width=".46" height="76.37"/><rect class="cls-133" x="135.72" y="20.26" width=".46" height="76.37"/><rect class="cls-27" x="136.17" y="20.26" width=".46" height="76.37"/><rect class="cls-13" x="136.63" y="20.26" width=".46" height="76.37"/><rect class="cls-19" x="137.09" y="20.26" width=".46" height="76.37"/><rect class="cls-89" x="137.55" y="20.26" width=".46" height="76.37"/><rect class="cls-112" x="138.01" y="20.26" width=".46" height="76.37"/><rect class="cls-67" x="138.47" y="20.26" width=".46" height="76.37"/><rect class="cls-5" x="138.93" y="20.26" width=".46" height="76.37"/><rect class="cls-108" x="139.39" y="20.26" width=".46" height="76.37"/><rect class="cls-21" x="139.85" y="20.26" width=".46" height="76.37"/><rect class="cls-69" x="140.3" y="20.26" width=".46" height="76.37"/><rect class="cls-103" x="140.76" y="20.26" width=".46" height="76.37"/><rect class="cls-137" x="141.22" y="20.26" width=".46" height="76.37"/><rect class="cls-155" x="141.68" y="20.26" width=".46" height="76.37"/><rect class="cls-98" x="142.14" y="20.26" width=".46" height="76.37"/><rect class="cls-87" x="142.6" y="20.26" width=".46" height="76.37"/><rect class="cls-75" x="143.06" y="20.26" width=".46" height="76.37"/><rect class="cls-65" x="143.52" y="20.26" width=".46" height="76.37"/><rect class="cls-129" x="143.98" y="20.26" width=".46" height="76.37"/><rect class="cls-2" x="144.43" y="20.26" width=".46" height="76.37"/><rect class="cls-111" x="144.89" y="20.26" width=".46" height="76.37"/><rect class="cls-23" x="145.35" y="20.26" width=".46" height="76.37"/><rect class="cls-44" x="145.81" y="20.26" width=".46" height="76.37"/><rect class="cls-169" x="146.27" y="20.26" width=".46" height="76.37"/></g></svg>