<svg xmlns="http://www.w3.org/2000/svg" width="72.826" height="72.83" viewBox="0 0 72.826 72.83">
  <path id="Path_26833" data-name="Path 26833" d="M652.2,53.716a2.6,2.6,0,0,0-2.138-2.4C636,48.8,630.132,46.973,617.01,41.046a2.6,2.6,0,0,0-2.143,0c-13.122,5.927-18.992,7.751-33.054,10.274a2.6,2.6,0,0,0-2.138,2.4,63.86,63.86,0,0,0,3.972,27.512,56.808,56.808,0,0,0,11.646,18.29,59.449,59.449,0,0,0,19.682,13.937,2.6,2.6,0,0,0,1.951,0,59.447,59.447,0,0,0,19.682-13.937,56.809,56.809,0,0,0,11.623-18.29A63.862,63.862,0,0,0,652.2,53.716Zm-21.3,12.21L612.894,86.735a2.6,2.6,0,0,1-1.855.9h-.107a2.6,2.6,0,0,1-1.821-.743l-8-7.836a2.6,2.6,0,0,1,3.642-3.716h0l6.015,5.9,16.208-18.716a2.6,2.6,0,0,1,3.934,3.4Z" transform="translate(-579.525 -40.815)" fill="#fff"/>
</svg>
