<svg xmlns="http://www.w3.org/2000/svg" xmlns:xlink="http://www.w3.org/1999/xlink" width="39.21" height="39.21" viewBox="0 0 39.21 39.21">
  <defs>
    <linearGradient id="linear-gradient" y1="0.5" x2="1" y2="0.5" gradientUnits="objectBoundingBox">
      <stop offset="0" stop-color="#0e90a2"/>
      <stop offset="0.32" stop-color="#19a574"/>
      <stop offset="1" stop-color="#90c43c"/>
    </linearGradient>
    <clipPath id="clip-path">
      <path id="Path_26726" data-name="Path 26726" d="M13.01,17.75,10.57,20.2l6.44,6.44L28.64,15.01,26.2,12.56l-9.19,9.19Z" fill="none"/>
    </clipPath>
  </defs>
  <g id="Layer_1-2" transform="translate(0.01)">
    <g id="Path_26550">
      <path id="Path_26725" data-name="Path 26725" d="M19.6,39.21c-1.59,0-2.77-1.35-3.92-2.66a7.833,7.833,0,0,0-2.27-2.05,7.921,7.921,0,0,0-3.19-.2c-1.69.1-3.43.21-4.49-.85s-.95-2.8-.85-4.49a7.76,7.76,0,0,0-.2-3.19,7.516,7.516,0,0,0-2.03-2.26C1.34,22.37-.01,21.18-.01,19.6s1.35-2.77,2.66-3.91a7.516,7.516,0,0,0,2.03-2.26,7.986,7.986,0,0,0,.2-3.2c-.1-1.69-.21-3.43.85-4.49s2.8-.95,4.49-.85a7.872,7.872,0,0,0,3.21-.2,7.613,7.613,0,0,0,2.25-2.03C16.82,1.35,18.01,0,19.59,0s2.77,1.35,3.92,2.66a7.833,7.833,0,0,0,2.27,2.05,7.774,7.774,0,0,0,3.19.19c1.69-.11,3.43-.21,4.49.85s.95,2.8.85,4.49a8.516,8.516,0,0,0,.15,3.08l.05.11a7.635,7.635,0,0,0,2.03,2.26c1.31,1.14,2.66,2.33,2.66,3.91s-1.35,2.77-2.66,3.92a7.833,7.833,0,0,0-2.05,2.27,7.936,7.936,0,0,0-.2,3.19c.1,1.69.21,3.43-.85,4.49s-2.8.95-4.49.85a7.76,7.76,0,0,0-3.19.2,7.494,7.494,0,0,0-2.25,2.03c-1.14,1.31-2.33,2.66-3.91,2.66Zm-7.92-5.97a5.588,5.588,0,0,1,2.12.33,8.46,8.46,0,0,1,2.64,2.31c1,1.14,2.03,2.32,3.16,2.32s2.16-1.18,3.16-2.32a8.237,8.237,0,0,1,2.62-2.3,8.508,8.508,0,0,1,3.64-.27c1.47.09,2.98.18,3.72-.56s.65-2.26.56-3.72a8.521,8.521,0,0,1,.27-3.64,8.46,8.46,0,0,1,2.31-2.64c1.14-1,2.32-2.03,2.32-3.16s-1.18-2.16-2.32-3.16a11.008,11.008,0,0,1-2.02-2.09l-.05.03-.24-.56a8.508,8.508,0,0,1-.27-3.64c.09-1.47.18-2.98-.56-3.72s-2.26-.65-3.72-.56a8.521,8.521,0,0,1-3.64-.27,8.46,8.46,0,0,1-2.64-2.31c-1-1.14-2.03-2.32-3.16-2.32s-2.16,1.18-3.16,2.32a8.237,8.237,0,0,1-2.62,2.3,8.568,8.568,0,0,1-3.65.27c-1.54-.09-2.98-.18-3.73.56s-.65,2.19-.56,3.73a8.568,8.568,0,0,1-.27,3.65,8.237,8.237,0,0,1-2.3,2.62C2.15,17.44.97,18.47.97,19.6s1.18,2.16,2.32,3.16a8.237,8.237,0,0,1,2.3,2.62,8.508,8.508,0,0,1,.27,3.64c-.09,1.47-.18,2.98.56,3.72s2.26.65,3.72.56c.51-.03,1.02-.06,1.52-.06Z" fill="url(#linear-gradient)"/>
    </g>
    <g id="Group_15736" data-name="Group 15736" clip-path="url(#clip-path)">
      <rect id="Rectangle_880" data-name="Rectangle 880" width="0.13" height="14.08" transform="translate(10.57 12.56)" fill="#0e90a2"/>
      <rect id="Rectangle_881" data-name="Rectangle 881" width="0.13" height="14.08" transform="translate(10.69 12.56)" fill="#0e90a1"/>
      <rect id="Rectangle_882" data-name="Rectangle 882" width="0.13" height="14.08" transform="translate(10.82 12.56)" fill="#0e91a0"/>
      <rect id="Rectangle_883" data-name="Rectangle 883" width="0.13" height="14.08" transform="translate(10.94 12.56)" fill="#0f919f"/>
      <rect id="Rectangle_884" data-name="Rectangle 884" width="0.13" height="14.08" transform="translate(11.07 12.56)" fill="#0f929e"/>
      <rect id="Rectangle_885" data-name="Rectangle 885" width="0.13" height="14.08" transform="translate(11.2 12.56)" fill="#0f929d"/>
      <rect id="Rectangle_886" data-name="Rectangle 886" width="0.13" height="14.08" transform="translate(11.32 12.56)" fill="#0f939c"/>
      <rect id="Rectangle_887" data-name="Rectangle 887" width="0.13" height="14.08" transform="translate(11.45 12.56)" fill="#10939b"/>
      <rect id="Rectangle_888" data-name="Rectangle 888" width="0.13" height="14.08" transform="translate(11.57 12.56)" fill="#10949a"/>
      <rect id="Rectangle_889" data-name="Rectangle 889" width="0.13" height="14.08" transform="translate(11.7 12.56)" fill="#109499"/>
      <rect id="Rectangle_890" data-name="Rectangle 890" width="0.13" height="14.08" transform="translate(11.82 12.56)" fill="#109598"/>
      <rect id="Rectangle_891" data-name="Rectangle 891" width="0.13" height="14.08" transform="translate(11.95 12.56)" fill="#119597"/>
      <rect id="Rectangle_892" data-name="Rectangle 892" width="0.13" height="14.08" transform="translate(12.08 12.56)" fill="#119696"/>
      <rect id="Rectangle_893" data-name="Rectangle 893" width="0.13" height="14.08" transform="translate(12.2 12.56)" fill="#119695"/>
      <rect id="Rectangle_894" data-name="Rectangle 894" width="0.13" height="14.08" transform="translate(12.33 12.56)" fill="#119794"/>
      <rect id="Rectangle_895" data-name="Rectangle 895" width="0.13" height="14.08" transform="translate(12.45 12.56)" fill="#129793"/>
      <rect id="Rectangle_896" data-name="Rectangle 896" width="0.13" height="14.08" transform="translate(12.58 12.56)" fill="#129792"/>
      <rect id="Rectangle_897" data-name="Rectangle 897" width="0.13" height="14.08" transform="translate(12.7 12.56)" fill="#129891"/>
      <rect id="Rectangle_898" data-name="Rectangle 898" width="0.13" height="14.08" transform="translate(12.83 12.56)" fill="#129890"/>
      <rect id="Rectangle_899" data-name="Rectangle 899" width="0.13" height="14.08" transform="translate(12.96 12.56)" fill="#13998f"/>
      <rect id="Rectangle_900" data-name="Rectangle 900" width="0.13" height="14.08" transform="translate(13.08 12.56)" fill="#13998e"/>
      <rect id="Rectangle_901" data-name="Rectangle 901" width="0.13" height="14.08" transform="translate(13.21 12.56)" fill="#139a8d"/>
      <rect id="Rectangle_902" data-name="Rectangle 902" width="0.13" height="14.08" transform="translate(13.33 12.56)" fill="#139a8c"/>
      <rect id="Rectangle_903" data-name="Rectangle 903" width="0.13" height="14.08" transform="translate(13.46 12.56)" fill="#149b8a"/>
      <rect id="Rectangle_904" data-name="Rectangle 904" width="0.13" height="14.08" transform="translate(13.58 12.56)" fill="#149b89"/>
      <rect id="Rectangle_905" data-name="Rectangle 905" width="0.13" height="14.08" transform="translate(13.71 12.56)" fill="#149c88"/>
      <rect id="Rectangle_906" data-name="Rectangle 906" width="0.13" height="14.08" transform="translate(13.84 12.56)" fill="#149c87"/>
      <rect id="Rectangle_907" data-name="Rectangle 907" width="0.13" height="14.08" transform="translate(13.96 12.56)" fill="#159d86"/>
      <rect id="Rectangle_908" data-name="Rectangle 908" width="0.13" height="14.08" transform="translate(14.09 12.56)" fill="#159d85"/>
      <rect id="Rectangle_909" data-name="Rectangle 909" width="0.13" height="14.08" transform="translate(14.21 12.56)" fill="#159e84"/>
      <rect id="Rectangle_910" data-name="Rectangle 910" width="0.13" height="14.08" transform="translate(14.34 12.56)" fill="#159e83"/>
      <rect id="Rectangle_911" data-name="Rectangle 911" width="0.13" height="14.08" transform="translate(14.47 12.56)" fill="#169e82"/>
      <rect id="Rectangle_912" data-name="Rectangle 912" width="0.13" height="14.08" transform="translate(14.59 12.56)" fill="#169f81"/>
      <rect id="Rectangle_913" data-name="Rectangle 913" width="0.13" height="14.08" transform="translate(14.72 12.56)" fill="#169f80"/>
      <rect id="Rectangle_914" data-name="Rectangle 914" width="0.13" height="14.08" transform="translate(14.84 12.56)" fill="#16a07f"/>
      <rect id="Rectangle_915" data-name="Rectangle 915" width="0.13" height="14.08" transform="translate(14.97 12.56)" fill="#17a07e"/>
      <rect id="Rectangle_916" data-name="Rectangle 916" width="0.13" height="14.08" transform="translate(15.09 12.56)" fill="#17a17d"/>
      <rect id="Rectangle_917" data-name="Rectangle 917" width="0.13" height="14.08" transform="translate(15.22 12.56)" fill="#17a17c"/>
      <rect id="Rectangle_918" data-name="Rectangle 918" width="0.13" height="14.08" transform="translate(15.35 12.56)" fill="#17a27b"/>
      <rect id="Rectangle_919" data-name="Rectangle 919" width="0.13" height="14.08" transform="translate(15.47 12.56)" fill="#18a27a"/>
      <rect id="Rectangle_920" data-name="Rectangle 920" width="0.13" height="14.08" transform="translate(15.6 12.56)" fill="#18a379"/>
      <rect id="Rectangle_921" data-name="Rectangle 921" width="0.13" height="14.08" transform="translate(15.72 12.56)" fill="#18a378"/>
      <rect id="Rectangle_922" data-name="Rectangle 922" width="0.13" height="14.08" transform="translate(15.85 12.56)" fill="#18a477"/>
      <rect id="Rectangle_923" data-name="Rectangle 923" width="0.13" height="14.08" transform="translate(15.97 12.56)" fill="#19a476"/>
      <rect id="Rectangle_924" data-name="Rectangle 924" width="0.13" height="14.08" transform="translate(16.1 12.56)" fill="#19a575"/>
      <rect id="Rectangle_925" data-name="Rectangle 925" width="0.13" height="14.08" transform="translate(16.23 12.56)" fill="#19a574"/>
      <rect id="Rectangle_926" data-name="Rectangle 926" width="0.1" height="14.08" transform="translate(16.35 12.56)" fill="#19a574"/>
      <rect id="Rectangle_927" data-name="Rectangle 927" width="0.1" height="14.08" transform="translate(16.45 12.56)" fill="#1aa574"/>
      <rect id="Rectangle_928" data-name="Rectangle 928" width="0.1" height="14.08" transform="translate(16.56 12.56)" fill="#1ba673"/>
      <rect id="Rectangle_929" data-name="Rectangle 929" width="0.1" height="14.08" transform="translate(16.66 12.56)" fill="#1ca673"/>
      <rect id="Rectangle_930" data-name="Rectangle 930" width="0.1" height="14.08" transform="translate(16.76 12.56)" fill="#1da672"/>
      <rect id="Rectangle_931" data-name="Rectangle 931" width="0.1" height="14.08" transform="translate(16.87 12.56)" fill="#1ea672"/>
      <rect id="Rectangle_932" data-name="Rectangle 932" width="0.1" height="14.08" transform="translate(16.97 12.56)" fill="#1fa771"/>
      <rect id="Rectangle_933" data-name="Rectangle 933" width="0.1" height="14.08" transform="translate(17.07 12.56)" fill="#20a771"/>
      <rect id="Rectangle_934" data-name="Rectangle 934" width="0.1" height="14.08" transform="translate(17.18 12.56)" fill="#21a770"/>
      <rect id="Rectangle_935" data-name="Rectangle 935" width="0.1" height="14.08" transform="translate(17.28 12.56)" fill="#22a770"/>
      <rect id="Rectangle_936" data-name="Rectangle 936" width="0.1" height="14.08" transform="translate(17.38 12.56)" fill="#23a86f"/>
      <rect id="Rectangle_937" data-name="Rectangle 937" width="0.1" height="14.08" transform="translate(17.49 12.56)" fill="#24a86f"/>
      <rect id="Rectangle_938" data-name="Rectangle 938" width="0.1" height="14.08" transform="translate(17.59 12.56)" fill="#25a86e"/>
      <rect id="Rectangle_939" data-name="Rectangle 939" width="0.1" height="14.08" transform="translate(17.69 12.56)" fill="#26a86e"/>
      <rect id="Rectangle_940" data-name="Rectangle 940" width="0.1" height="14.08" transform="translate(17.8 12.56)" fill="#27a96d"/>
      <rect id="Rectangle_941" data-name="Rectangle 941" width="0.1" height="14.08" transform="translate(17.9 12.56)" fill="#28a96d"/>
      <rect id="Rectangle_942" data-name="Rectangle 942" width="0.1" height="14.08" transform="translate(18 12.56)" fill="#29a96c"/>
      <rect id="Rectangle_943" data-name="Rectangle 943" width="0.1" height="14.08" transform="translate(18.11 12.56)" fill="#2aa96c"/>
      <rect id="Rectangle_944" data-name="Rectangle 944" width="0.1" height="14.08" transform="translate(18.21 12.56)" fill="#2baa6b"/>
      <rect id="Rectangle_945" data-name="Rectangle 945" width="0.1" height="14.08" transform="translate(18.31 12.56)" fill="#2caa6b"/>
      <rect id="Rectangle_946" data-name="Rectangle 946" width="0.1" height="14.08" transform="translate(18.42 12.56)" fill="#2daa6b"/>
      <rect id="Rectangle_947" data-name="Rectangle 947" width="0.1" height="14.08" transform="translate(18.52 12.56)" fill="#2eab6a"/>
      <rect id="Rectangle_948" data-name="Rectangle 948" width="0.1" height="14.08" transform="translate(18.62 12.56)" fill="#2fab6a"/>
      <rect id="Rectangle_949" data-name="Rectangle 949" width="0.1" height="14.08" transform="translate(18.73 12.56)" fill="#30ab69"/>
      <rect id="Rectangle_950" data-name="Rectangle 950" width="0.1" height="14.08" transform="translate(18.83 12.56)" fill="#31ab69"/>
      <rect id="Rectangle_951" data-name="Rectangle 951" width="0.1" height="14.08" transform="translate(18.93 12.56)" fill="#32ac68"/>
      <rect id="Rectangle_952" data-name="Rectangle 952" width="0.1" height="14.08" transform="translate(19.04 12.56)" fill="#33ac68"/>
      <rect id="Rectangle_953" data-name="Rectangle 953" width="0.1" height="14.08" transform="translate(19.14 12.56)" fill="#34ac67"/>
      <rect id="Rectangle_954" data-name="Rectangle 954" width="0.1" height="14.08" transform="translate(19.24 12.56)" fill="#35ac67"/>
      <rect id="Rectangle_955" data-name="Rectangle 955" width="0.1" height="14.08" transform="translate(19.35 12.56)" fill="#36ad66"/>
      <rect id="Rectangle_956" data-name="Rectangle 956" width="0.1" height="14.08" transform="translate(19.45 12.56)" fill="#37ad66"/>
      <rect id="Rectangle_957" data-name="Rectangle 957" width="0.1" height="14.08" transform="translate(19.55 12.56)" fill="#38ad65"/>
      <rect id="Rectangle_958" data-name="Rectangle 958" width="0.1" height="14.08" transform="translate(19.66 12.56)" fill="#39ad65"/>
      <rect id="Rectangle_959" data-name="Rectangle 959" width="0.1" height="14.08" transform="translate(19.76 12.56)" fill="#3aae64"/>
      <rect id="Rectangle_960" data-name="Rectangle 960" width="0.1" height="14.08" transform="translate(19.86 12.56)" fill="#3bae64"/>
      <rect id="Rectangle_961" data-name="Rectangle 961" width="0.1" height="14.08" transform="translate(19.97 12.56)" fill="#3cae63"/>
      <rect id="Rectangle_962" data-name="Rectangle 962" width="0.1" height="14.08" transform="translate(20.07 12.56)" fill="#3dae63"/>
      <rect id="Rectangle_963" data-name="Rectangle 963" width="0.1" height="14.08" transform="translate(20.17 12.56)" fill="#3eaf62"/>
      <rect id="Rectangle_964" data-name="Rectangle 964" width="0.1" height="14.08" transform="translate(20.28 12.56)" fill="#3faf62"/>
      <rect id="Rectangle_965" data-name="Rectangle 965" width="0.1" height="14.08" transform="translate(20.38 12.56)" fill="#40af61"/>
      <rect id="Rectangle_966" data-name="Rectangle 966" width="0.1" height="14.08" transform="translate(20.48 12.56)" fill="#41b061"/>
      <rect id="Rectangle_967" data-name="Rectangle 967" width="0.1" height="14.08" transform="translate(20.59 12.56)" fill="#42b061"/>
      <rect id="Rectangle_968" data-name="Rectangle 968" width="0.1" height="14.08" transform="translate(20.69 12.56)" fill="#43b060"/>
      <rect id="Rectangle_969" data-name="Rectangle 969" width="0.1" height="14.08" transform="translate(20.79 12.56)" fill="#44b060"/>
      <rect id="Rectangle_970" data-name="Rectangle 970" width="0.1" height="14.08" transform="translate(20.9 12.56)" fill="#45b15f"/>
      <rect id="Rectangle_971" data-name="Rectangle 971" width="0.1" height="14.08" transform="translate(21 12.56)" fill="#46b15f"/>
      <rect id="Rectangle_972" data-name="Rectangle 972" width="0.1" height="14.08" transform="translate(21.1 12.56)" fill="#47b15e"/>
      <rect id="Rectangle_973" data-name="Rectangle 973" width="0.1" height="14.08" transform="translate(21.21 12.56)" fill="#48b15e"/>
      <rect id="Rectangle_974" data-name="Rectangle 974" width="0.1" height="14.08" transform="translate(21.31 12.56)" fill="#49b25d"/>
      <rect id="Rectangle_975" data-name="Rectangle 975" width="0.1" height="14.08" transform="translate(21.41 12.56)" fill="#4ab25d"/>
      <rect id="Rectangle_976" data-name="Rectangle 976" width="0.1" height="14.08" transform="translate(21.52 12.56)" fill="#4bb25c"/>
      <rect id="Rectangle_977" data-name="Rectangle 977" width="0.1" height="14.08" transform="translate(21.62 12.56)" fill="#4cb25c"/>
      <rect id="Rectangle_978" data-name="Rectangle 978" width="0.1" height="14.08" transform="translate(21.72 12.56)" fill="#4db35b"/>
      <rect id="Rectangle_979" data-name="Rectangle 979" width="0.1" height="14.08" transform="translate(21.83 12.56)" fill="#4eb35b"/>
      <rect id="Rectangle_980" data-name="Rectangle 980" width="0.1" height="14.08" transform="translate(21.93 12.56)" fill="#4fb35a"/>
      <rect id="Rectangle_981" data-name="Rectangle 981" width="0.1" height="14.08" transform="translate(22.03 12.56)" fill="#50b35a"/>
      <rect id="Rectangle_982" data-name="Rectangle 982" width="0.1" height="14.08" transform="translate(22.14 12.56)" fill="#51b459"/>
      <rect id="Rectangle_983" data-name="Rectangle 983" width="0.1" height="14.08" transform="translate(22.24 12.56)" fill="#52b459"/>
      <rect id="Rectangle_984" data-name="Rectangle 984" width="0.1" height="14.08" transform="translate(22.34 12.56)" fill="#53b458"/>
      <rect id="Rectangle_985" data-name="Rectangle 985" width="0.1" height="14.08" transform="translate(22.45 12.56)" fill="#55b558"/>
      <rect id="Rectangle_986" data-name="Rectangle 986" width="0.1" height="14.08" transform="translate(22.55 12.56)" fill="#56b558"/>
      <rect id="Rectangle_987" data-name="Rectangle 987" width="0.1" height="14.08" transform="translate(22.65 12.56)" fill="#57b557"/>
      <rect id="Rectangle_988" data-name="Rectangle 988" width="0.1" height="14.08" transform="translate(22.76 12.56)" fill="#58b557"/>
      <rect id="Rectangle_989" data-name="Rectangle 989" width="0.1" height="14.08" transform="translate(22.86 12.56)" fill="#59b656"/>
      <rect id="Rectangle_990" data-name="Rectangle 990" width="0.1" height="14.08" transform="translate(22.96 12.56)" fill="#5ab656"/>
      <rect id="Rectangle_991" data-name="Rectangle 991" width="0.1" height="14.08" transform="translate(23.07 12.56)" fill="#5bb655"/>
      <rect id="Rectangle_992" data-name="Rectangle 992" width="0.1" height="14.08" transform="translate(23.17 12.56)" fill="#5cb655"/>
      <rect id="Rectangle_993" data-name="Rectangle 993" width="0.1" height="14.08" transform="translate(23.27 12.56)" fill="#5db754"/>
      <rect id="Rectangle_994" data-name="Rectangle 994" width="0.1" height="14.08" transform="translate(23.38 12.56)" fill="#5eb754"/>
      <rect id="Rectangle_995" data-name="Rectangle 995" width="0.1" height="14.08" transform="translate(23.48 12.56)" fill="#5fb753"/>
      <rect id="Rectangle_996" data-name="Rectangle 996" width="0.1" height="14.08" transform="translate(23.58 12.56)" fill="#60b753"/>
      <rect id="Rectangle_997" data-name="Rectangle 997" width="0.1" height="14.08" transform="translate(23.69 12.56)" fill="#61b852"/>
      <rect id="Rectangle_998" data-name="Rectangle 998" width="0.1" height="14.08" transform="translate(23.79 12.56)" fill="#62b852"/>
      <rect id="Rectangle_999" data-name="Rectangle 999" width="0.1" height="14.08" transform="translate(23.89 12.56)" fill="#63b851"/>
      <rect id="Rectangle_1000" data-name="Rectangle 1000" width="0.1" height="14.08" transform="translate(24 12.56)" fill="#64b851"/>
      <rect id="Rectangle_1001" data-name="Rectangle 1001" width="0.1" height="14.08" transform="translate(24.1 12.56)" fill="#65b950"/>
      <rect id="Rectangle_1002" data-name="Rectangle 1002" width="0.1" height="14.08" transform="translate(24.2 12.56)" fill="#66b950"/>
      <rect id="Rectangle_1003" data-name="Rectangle 1003" width="0.1" height="14.08" transform="translate(24.31 12.56)" fill="#67b94f"/>
      <rect id="Rectangle_1004" data-name="Rectangle 1004" width="0.1" height="14.08" transform="translate(24.41 12.56)" fill="#68b94f"/>
      <rect id="Rectangle_1005" data-name="Rectangle 1005" width="0.1" height="14.08" transform="translate(24.51 12.56)" fill="#69ba4f"/>
      <rect id="Rectangle_1006" data-name="Rectangle 1006" width="0.1" height="14.08" transform="translate(24.62 12.56)" fill="#6aba4e"/>
      <rect id="Rectangle_1007" data-name="Rectangle 1007" width="0.1" height="14.08" transform="translate(24.72 12.56)" fill="#6bba4e"/>
      <rect id="Rectangle_1008" data-name="Rectangle 1008" width="0.1" height="14.08" transform="translate(24.82 12.56)" fill="#6cbb4d"/>
      <rect id="Rectangle_1009" data-name="Rectangle 1009" width="0.1" height="14.08" transform="translate(24.92 12.56)" fill="#6dbb4d"/>
      <rect id="Rectangle_1010" data-name="Rectangle 1010" width="0.1" height="14.08" transform="translate(25.03 12.56)" fill="#6ebb4c"/>
      <rect id="Rectangle_1011" data-name="Rectangle 1011" width="0.1" height="14.08" transform="translate(25.13 12.56)" fill="#6fbb4c"/>
      <rect id="Rectangle_1012" data-name="Rectangle 1012" width="0.1" height="14.08" transform="translate(25.23 12.56)" fill="#70bc4b"/>
      <rect id="Rectangle_1013" data-name="Rectangle 1013" width="0.1" height="14.08" transform="translate(25.34 12.56)" fill="#71bc4b"/>
      <rect id="Rectangle_1014" data-name="Rectangle 1014" width="0.1" height="14.08" transform="translate(25.44 12.56)" fill="#72bc4a"/>
      <rect id="Rectangle_1015" data-name="Rectangle 1015" width="0.1" height="14.08" transform="translate(25.54 12.56)" fill="#73bc4a"/>
      <rect id="Rectangle_1016" data-name="Rectangle 1016" width="0.1" height="14.08" transform="translate(25.65 12.56)" fill="#74bd49"/>
      <rect id="Rectangle_1017" data-name="Rectangle 1017" width="0.1" height="14.08" transform="translate(25.75 12.56)" fill="#75bd49"/>
      <rect id="Rectangle_1018" data-name="Rectangle 1018" width="0.1" height="14.08" transform="translate(25.85 12.56)" fill="#76bd48"/>
      <rect id="Rectangle_1019" data-name="Rectangle 1019" width="0.1" height="14.08" transform="translate(25.96 12.56)" fill="#77bd48"/>
      <rect id="Rectangle_1020" data-name="Rectangle 1020" width="0.1" height="14.08" transform="translate(26.06 12.56)" fill="#78be47"/>
      <rect id="Rectangle_1021" data-name="Rectangle 1021" width="0.1" height="14.08" transform="translate(26.16 12.56)" fill="#79be47"/>
      <rect id="Rectangle_1022" data-name="Rectangle 1022" width="0.1" height="14.08" transform="translate(26.27 12.56)" fill="#7abe46"/>
      <rect id="Rectangle_1023" data-name="Rectangle 1023" width="0.1" height="14.08" transform="translate(26.37 12.56)" fill="#7bbe46"/>
      <rect id="Rectangle_1024" data-name="Rectangle 1024" width="0.1" height="14.08" transform="translate(26.47 12.56)" fill="#7cbf45"/>
      <rect id="Rectangle_1025" data-name="Rectangle 1025" width="0.1" height="14.08" transform="translate(26.58 12.56)" fill="#7dbf45"/>
      <rect id="Rectangle_1026" data-name="Rectangle 1026" width="0.1" height="14.08" transform="translate(26.68 12.56)" fill="#7ebf45"/>
      <rect id="Rectangle_1027" data-name="Rectangle 1027" width="0.1" height="14.08" transform="translate(26.78 12.56)" fill="#7fc044"/>
      <rect id="Rectangle_1028" data-name="Rectangle 1028" width="0.1" height="14.08" transform="translate(26.89 12.56)" fill="#80c044"/>
      <rect id="Rectangle_1029" data-name="Rectangle 1029" width="0.1" height="14.08" transform="translate(26.99 12.56)" fill="#81c043"/>
      <rect id="Rectangle_1030" data-name="Rectangle 1030" width="0.1" height="14.08" transform="translate(27.09 12.56)" fill="#82c043"/>
      <rect id="Rectangle_1031" data-name="Rectangle 1031" width="0.1" height="14.08" transform="translate(27.2 12.56)" fill="#83c142"/>
      <rect id="Rectangle_1032" data-name="Rectangle 1032" width="0.1" height="14.08" transform="translate(27.3 12.56)" fill="#84c142"/>
      <rect id="Rectangle_1033" data-name="Rectangle 1033" width="0.1" height="14.08" transform="translate(27.4 12.56)" fill="#85c141"/>
      <rect id="Rectangle_1034" data-name="Rectangle 1034" width="0.1" height="14.08" transform="translate(27.51 12.56)" fill="#86c141"/>
      <rect id="Rectangle_1035" data-name="Rectangle 1035" width="0.1" height="14.08" transform="translate(27.61 12.56)" fill="#87c240"/>
      <rect id="Rectangle_1036" data-name="Rectangle 1036" width="0.1" height="14.08" transform="translate(27.71 12.56)" fill="#88c240"/>
      <rect id="Rectangle_1037" data-name="Rectangle 1037" width="0.1" height="14.08" transform="translate(27.82 12.56)" fill="#89c23f"/>
      <rect id="Rectangle_1038" data-name="Rectangle 1038" width="0.1" height="14.08" transform="translate(27.92 12.56)" fill="#8ac23f"/>
      <rect id="Rectangle_1039" data-name="Rectangle 1039" width="0.1" height="14.08" transform="translate(28.02 12.56)" fill="#8bc33e"/>
      <rect id="Rectangle_1040" data-name="Rectangle 1040" width="0.1" height="14.08" transform="translate(28.13 12.56)" fill="#8cc33e"/>
      <rect id="Rectangle_1041" data-name="Rectangle 1041" width="0.1" height="14.08" transform="translate(28.23 12.56)" fill="#8dc33d"/>
      <rect id="Rectangle_1042" data-name="Rectangle 1042" width="0.1" height="14.08" transform="translate(28.33 12.56)" fill="#8ec33d"/>
      <rect id="Rectangle_1043" data-name="Rectangle 1043" width="0.1" height="14.08" transform="translate(28.44 12.56)" fill="#8fc43c"/>
      <rect id="Rectangle_1044" data-name="Rectangle 1044" width="0.1" height="14.08" transform="translate(28.54 12.56)" fill="#90c43c"/>
    </g>
  </g>
</svg>
