<?xml version="1.0" encoding="UTF-8"?>
<svg id="Layer_1" data-name="Layer 1" xmlns="http://www.w3.org/2000/svg" xmlns:xlink="http://www.w3.org/1999/xlink" viewBox="0 0 200 200">
  <defs>
    <style>
      .cls-1 {
        fill: url(#linear-gradient-2);
      }

      .cls-2 {
        fill: url(#linear-gradient-4);
      }

      .cls-3 {
        fill: url(#linear-gradient-3);
      }

      .cls-4 {
        fill: url(#linear-gradient);
      }
    </style>
    <linearGradient id="linear-gradient" x1="1409.51" y1="-4543.9" x2="1414.51" y2="-4543.9" gradientTransform="translate(-11881.91 -38787.65) scale(8.54 -8.54)" gradientUnits="userSpaceOnUse">
      <stop offset="0" stop-color="#0e90a2"/>
      <stop offset=".32" stop-color="#19a574"/>
      <stop offset="1" stop-color="#90c43c"/>
    </linearGradient>
    <linearGradient id="linear-gradient-2" x1="1359.88" y1="-4668.95" x2="1364.88" y2="-4668.95" gradientTransform="translate(-9317.18 -33498.07) scale(6.91 -7.2)" xlink:href="#linear-gradient"/>
    <linearGradient id="linear-gradient-3" x1="1503.76" y1="-4190.77" x2="1508.76" y2="-4190.77" gradientTransform="translate(-29778.41 -83657.31) scale(19.86 -19.98)" xlink:href="#linear-gradient"/>
    <linearGradient id="linear-gradient-4" x1="1522.77" y1="-4118.77" x2="1527.77" y2="-4118.77" gradientTransform="translate(-42015.46 -113523.22) scale(27.59 -27.59)" xlink:href="#linear-gradient"/>
  </defs>
  <g id="Group_15968" data-name="Group 15968">
    <path id="Path_27057" data-name="Path 27057" class="cls-4" d="M187.18,47.69l6.64-6.64c5.21-5.21,5.21-13.66,0-18.87l-13.29-13.31c-5.21-5.21-13.66-5.21-18.87,0l-6.65,6.66,32.16,32.16h0Z"/>
    <path id="Path_27058" data-name="Path 27058" class="cls-1" d="M79.78,92.16l-5.17,33.68c-.16,1.09.6,2.11,1.69,2.27.19.03.39.03.58,0l32.25-5c-12.21-7.73-22.3-18.37-29.35-30.98v.03Z"/>
    <path id="Path_27059" data-name="Path 27059" class="cls-3" d="M150.47,20.09l-.79.79-66.34,66.32c7.15,13.73,18.08,25.12,31.51,32.82l67.03-66.99.79-.79-32.2-32.16Z"/>
    <path id="Path_27060" data-name="Path 27060" class="cls-2" d="M114.82,127.84l-37.09,5.73c-.38.05-.76.08-1.14.08-4.14,0-7.51-3.34-7.52-7.49,0-.38.03-.77.09-1.15l5.71-37.15,30.87-30.86H2.27v138.02h138.02v-92.65l-25.47,25.46h0ZM45.95,66.88c9.3,16.62,10.64,17.08,28.46,9.65-16.77,9.64-17.24,11-10.18,28.73-9.3-16.62-10.63-17.08-28.46-9.65,16.77-9.65,17.24-11,10.18-28.73h0ZM21.72,127.51h34.75c1.52.13,2.65,1.47,2.52,2.99-.11,1.34-1.18,2.4-2.52,2.52H21.72c-1.52-.13-2.65-1.47-2.52-2.99.11-1.34,1.18-2.4,2.52-2.52ZM21.72,149.84h49.56c1.52-.13,2.86,1,2.99,2.52.13,1.52-1,2.86-2.52,2.99-.16.01-.31.01-.47,0H21.72c-1.52-.13-2.65-1.47-2.52-2.99.11-1.34,1.18-2.4,2.52-2.52ZM88.46,177.69H21.72c-1.52-.13-2.65-1.47-2.52-2.99.11-1.34,1.18-2.4,2.52-2.52h66.74c1.52.13,2.65,1.47,2.52,2.99-.11,1.34-1.18,2.4-2.52,2.52h0Z"/>
  </g>
</svg>