<?xml version="1.0" encoding="UTF-8"?>
<svg id="Layer_1" data-name="Layer 1" xmlns="http://www.w3.org/2000/svg" xmlns:xlink="http://www.w3.org/1999/xlink" viewBox="0 0 200 200">
  <defs>
    <style>
      .cls-1 {
        fill: url(#linear-gradient);
      }
    </style>
    <linearGradient id="linear-gradient" x1="1141.67" y1="-3736.44" x2="1146.79" y2="-3736.44" gradientTransform="translate(-43620.95 -142661.8) scale(38.21 -38.21)" gradientUnits="userSpaceOnUse">
      <stop offset="0" stop-color="#0e90a2"/>
      <stop offset=".32" stop-color="#19a574"/>
      <stop offset="1" stop-color="#90c43c"/>
    </linearGradient>
  </defs>
  <g id="Validation-Filled">
    <path id="Path_26358" data-name="Path 26358" class="cls-1" d="M174.03,69.39c-4.54-10.85,3.38-30.35-4.81-38.53-8.18-8.19-27.67-.27-38.53-4.81-10.5-4.45-18.6-23.94-30.7-23.94s-20.2,19.47-30.62,23.85c-10.95,4.54-30.43-3.38-38.62,4.81-8.19,8.18-.27,27.67-4.81,38.62-4.37,10.41-23.84,18.51-23.84,30.61s19.47,20.2,23.85,30.62c4.54,10.85-3.38,30.35,4.81,38.53,8.18,8.19,27.67.27,38.53,4.81,10.5,4.45,18.6,23.94,30.7,23.94s20.2-19.47,30.62-23.85c10.85-4.54,30.35,3.38,38.53-4.81,8.19-8.18.27-27.67,4.81-38.53,4.45-10.5,23.94-18.6,23.94-30.7s-19.47-20.2-23.85-30.62h-.02ZM91.09,139.25l-33.02-33.02,12.54-12.55,20.47,20.5,47.08-47.08,12.53,12.52-59.62,59.63Z"/>
  </g>
</svg>