<?xml version="1.0" encoding="UTF-8"?>
<svg id="Layer_1" data-name="Layer 1" xmlns="http://www.w3.org/2000/svg" viewBox="0 0 200 200">
  <defs>
    <style>
      .cls-1 {
        fill: #fff;
      }
    </style>
  </defs>
  <g id="Group_15987" data-name="Group 15987">
    <g id="Group_15794" data-name="Group 15794">
      <path id="Path_26925" data-name="Path 26925" class="cls-1" d="M3.62,67.66h14.35V30.55h37.11v-14.35H3.62v51.46Z"/>
      <path id="Path_26926" data-name="Path 26926" class="cls-1" d="M144.91,16.2v14.35h37.11v37.11h14.35V16.2h-51.47Z"/>
    </g>
    <g id="Group_15795" data-name="Group 15795">
      <path id="Path_26924" data-name="Path 26924" class="cls-1" d="M17.97,132.33H3.62v51.47h51.46v-14.35H17.97v-37.12Z"/>
      <path id="Path_26927" data-name="Path 26927" class="cls-1" d="M182.02,169.44h-37.11v14.35h51.47v-51.47h-14.35v37.11Z"/>
    </g>
    <g id="Group_15793" data-name="Group 15793">
      <path id="Path_26928" data-name="Path 26928" class="cls-1" d="M106.12,67.94h-1.03c13.05,8.73,24.53,19.61,33.95,32.18-11.08,12.37-23.77,23.18-37.75,32.15h4.79c24.35,0,57.97-32.17,57.97-32.17,0,0-29.91-34.54-57.97-32.17h.04Z"/>
      <circle id="Ellipse_69" data-name="Ellipse 69" class="cls-1" cx="98.74" cy="100.05" r="17.25"/>
      <path id="Path_26929" data-name="Path 26929" class="cls-1" d="M87.32,67.12h1.02c-13.05,8.73-24.53,19.61-33.95,32.18,11.08,12.37,23.77,23.18,37.75,32.15h-4.81c-24.35,0-57.97-32.17-57.97-32.17,0,0,29.91-34.54,57.97-32.17h0Z"/>
    </g>
  </g>
</svg>