<?xml version="1.0" encoding="UTF-8"?>
<svg id="Layer_1" data-name="Layer 1" xmlns="http://www.w3.org/2000/svg" viewBox="0 0 200 200">
  <defs>
    <style>
      .cls-1 {
        fill: #fff;
      }
    </style>
  </defs>
  <path class="cls-1" d="M195.05,161.6L109.9,23.78c-1.2-1.94-2.86-3.55-4.82-4.7-6.64-3.87-15.15-1.62-19.02,5.01C66.23,58.13,26.05,126.92,4.91,161.68h0c-1.33,2.18-2.03,4.68-2.03,7.23,0,7.68,6.23,13.9,13.91,13.9h166.43c2.58,0,5.11-.72,7.31-2.07,6.53-4.03,8.56-12.6,4.52-19.13ZM100,163.5c-5.2,0-9.42-4.22-9.42-9.42s4.22-9.42,9.42-9.42,9.42,4.22,9.42,9.42-4.22,9.42-9.42,9.42ZM111.77,72.06c-1.9,18.63-3.8,37.26-5.71,55.89-.04,2.19-.64,4.34-1.73,6.24-1.78,2.36-5.14,2.84-7.5,1.06-.02-.01-.04-.03-.06-.04l-.72-1.27c-3.28-20.29-5.41-40.75-7.72-61.15-.93-4.25-.49-8.68,1.26-12.67,1.85-3.05,5.04-5.02,8.59-5.32,3.54-.25,7.02.94,9.67,3.31,1.71,1.47,2.98,3.39,3.68,5.54.64,2.76.73,5.61.26,8.41Z"/>
</svg>