<?xml version="1.0" encoding="UTF-8"?>
<svg id="Layer_1" data-name="Layer 1" xmlns="http://www.w3.org/2000/svg" viewBox="0 0 200 200">
  <defs>
    <style>
      .cls-1 {
        fill: #fff;
      }
    </style>
  </defs>
  <path class="cls-1" d="M62.14,144.48c-15.03,2.13-29.33,5.43-42.61,9.85-9.28-13.69-15.16-29.9-16.39-47.37h55.51c.35,12.9,1.46,25.48,3.49,37.52Z"/>
  <path class="cls-1" d="M58.65,93.07H3.14c1.24-17.47,7.12-33.68,16.39-47.37,13.28,4.42,27.58,7.72,42.61,9.85-2.03,12.04-3.15,24.62-3.49,37.52Z"/>
  <path class="cls-1" d="M64.84,158.14c2.92,12.71,6.7,24.78,11.31,35.93-18.3-4.64-34.54-14.46-47.05-27.77,11.31-3.59,23.29-6.32,35.74-8.16Z"/>
  <path class="cls-1" d="M64.84,41.89c-12.45-1.84-24.43-4.57-35.74-8.17,12.52-13.34,28.75-23.16,47.05-27.77-4.61,11.15-8.39,23.23-11.31,35.93Z"/>
  <path class="cls-1" d="M99.98,155.35c7.09,0,14.07.35,20.97.95-3.56,14.52-8.32,28.21-14.23,40.51-2.22.16-4.45.32-6.74.32s-4.48-.16-6.74-.32c-5.91-12.3-10.68-25.99-14.2-40.51,6.89-.6,13.85-.95,20.94-.95Z"/>
  <path class="cls-1" d="M95.31,44.62c-5.46-.1-10.9-.41-16.27-.89,3.53-14.52,8.29-28.21,14.2-40.51,2.26-.16,4.48-.35,6.74-.35s4.51.19,6.74.35c5.91,12.3,10.68,25.99,14.23,40.51-5.37.48-10.8.79-16.27.89-1.56.03-3.15.06-4.7.06s-3.11-.03-4.67-.06Z"/>
  <path class="cls-1" d="M127.53,95.55h-54.87c.38-12.2,1.49-24.24,3.56-35.77,7.12.63,14.33,1.02,21.67,1.05h.06c1.49-.16,2.99-.16,4.48,0h.06c7.28-.06,14.42-.41,21.45-1.05,2.1,11.53,3.21,23.57,3.59,35.77Z"/>
  <path class="cls-1" d="M127.43,106.96c-.38,12.2-1.49,24.21-3.59,35.77-7.82-.7-15.76-1.11-23.86-1.11s-16.04.41-23.86,1.11c-2.07-11.56-3.18-23.57-3.56-35.77h54.87Z"/>
  <path class="cls-1" d="M135.12,158.14c12.49,1.84,24.43,4.57,35.77,8.16-12.52,13.31-28.79,23.13-47.09,27.77,4.61-11.15,8.39-23.23,11.31-35.93Z"/>
  <path class="cls-1" d="M135.12,41.89c-2.92-12.71-6.7-24.78-11.31-35.93,18.3,4.61,34.57,14.42,47.09,27.77-11.34,3.59-23.29,6.32-35.77,8.17Z"/>
  <path class="cls-1" d="M141.32,106.96h55.54c-1.24,17.47-7.12,33.68-16.43,47.37-13.28-4.42-27.58-7.72-42.61-9.85,2.07-12.04,3.15-24.62,3.5-37.52Z"/>
  <path class="cls-1" d="M137.82,55.55c15.03-2.13,29.33-5.43,42.61-9.85,9.31,13.69,15.19,29.9,16.43,47.37h-55.54c-.35-12.9-1.43-25.48-3.5-37.52Z"/>
</svg>