<?xml version="1.0" encoding="UTF-8"?>
<svg id="Layer_1" data-name="Layer 1" xmlns="http://www.w3.org/2000/svg" xmlns:xlink="http://www.w3.org/1999/xlink" viewBox="0 0 200 200">
  <defs>
    <style>
      .cls-1 {
        fill: url(#linear-gradient-2);
      }

      .cls-2 {
        fill: url(#linear-gradient-10);
      }

      .cls-3 {
        fill: url(#linear-gradient-12);
      }

      .cls-4 {
        fill: url(#linear-gradient-4);
      }

      .cls-5 {
        fill: url(#linear-gradient-3);
      }

      .cls-6 {
        fill: url(#linear-gradient-5);
      }

      .cls-7 {
        fill: url(#linear-gradient-8);
      }

      .cls-8 {
        fill: url(#linear-gradient-7);
      }

      .cls-9 {
        fill: url(#linear-gradient-9);
      }

      .cls-10 {
        fill: url(#linear-gradient-11);
      }

      .cls-11 {
        fill: url(#linear-gradient-6);
      }

      .cls-12 {
        fill: url(#linear-gradient);
      }
    </style>
    <linearGradient id="linear-gradient" x1="3.14" y1="130.64" x2="62.14" y2="130.64" gradientUnits="userSpaceOnUse">
      <stop offset="0" stop-color="#0e90a2"/>
      <stop offset=".32" stop-color="#19a574"/>
      <stop offset="1" stop-color="#90c43c"/>
    </linearGradient>
    <linearGradient id="linear-gradient-2" y1="69.39" y2="69.39" xlink:href="#linear-gradient"/>
    <linearGradient id="linear-gradient-3" x1="29.1" y1="176.11" x2="76.16" y2="176.11" xlink:href="#linear-gradient"/>
    <linearGradient id="linear-gradient-4" x1="29.1" y1="23.92" x2="76.16" y2="23.92" xlink:href="#linear-gradient"/>
    <linearGradient id="linear-gradient-5" x1="79.05" y1="176.24" x2="120.95" y2="176.24" xlink:href="#linear-gradient"/>
    <linearGradient id="linear-gradient-6" x1="79.05" y1="23.78" x2="120.95" y2="23.78" xlink:href="#linear-gradient"/>
    <linearGradient id="linear-gradient-7" x1="72.66" y1="77.66" x2="127.53" y2="77.66" xlink:href="#linear-gradient"/>
    <linearGradient id="linear-gradient-8" x1="72.57" y1="124.85" x2="127.43" y2="124.85" xlink:href="#linear-gradient"/>
    <linearGradient id="linear-gradient-9" x1="123.81" y1="176.11" x2="170.9" y2="176.11" xlink:href="#linear-gradient"/>
    <linearGradient id="linear-gradient-10" x1="123.81" y1="23.92" x2="170.9" y2="23.92" xlink:href="#linear-gradient"/>
    <linearGradient id="linear-gradient-11" x1="137.82" x2="196.86" xlink:href="#linear-gradient"/>
    <linearGradient id="linear-gradient-12" x1="137.82" y1="69.39" x2="196.86" y2="69.39" xlink:href="#linear-gradient"/>
  </defs>
  <path class="cls-12" d="M62.14,144.48c-15.03,2.13-29.33,5.43-42.61,9.85-9.28-13.69-15.16-29.9-16.39-47.37h55.51c.35,12.9,1.46,25.48,3.49,37.52Z"/>
  <path class="cls-1" d="M58.65,93.07H3.14c1.24-17.47,7.12-33.68,16.39-47.37,13.28,4.42,27.58,7.72,42.61,9.85-2.03,12.04-3.15,24.62-3.49,37.52Z"/>
  <path class="cls-5" d="M64.84,158.14c2.92,12.71,6.7,24.78,11.31,35.93-18.3-4.64-34.54-14.46-47.05-27.77,11.31-3.59,23.29-6.32,35.74-8.16Z"/>
  <path class="cls-4" d="M64.84,41.89c-12.45-1.84-24.43-4.57-35.74-8.17,12.52-13.34,28.75-23.16,47.05-27.77-4.61,11.15-8.39,23.23-11.31,35.93Z"/>
  <path class="cls-6" d="M99.98,155.35c7.09,0,14.07.35,20.97.95-3.56,14.52-8.32,28.21-14.23,40.51-2.22.16-4.45.32-6.74.32s-4.48-.16-6.74-.32c-5.91-12.3-10.68-25.99-14.2-40.51,6.89-.6,13.85-.95,20.94-.95Z"/>
  <path class="cls-11" d="M95.31,44.62c-5.46-.1-10.9-.41-16.27-.89,3.53-14.52,8.29-28.21,14.2-40.51,2.26-.16,4.48-.35,6.74-.35s4.51.19,6.74.35c5.91,12.3,10.68,25.99,14.23,40.51-5.37.48-10.8.79-16.27.89-1.56.03-3.15.06-4.7.06s-3.11-.03-4.67-.06Z"/>
  <path class="cls-8" d="M127.53,95.55h-54.87c.38-12.2,1.49-24.24,3.56-35.77,7.12.63,14.33,1.02,21.67,1.05h.06c1.49-.16,2.99-.16,4.48,0h.06c7.28-.06,14.42-.41,21.45-1.05,2.1,11.53,3.21,23.57,3.59,35.77Z"/>
  <path class="cls-7" d="M127.43,106.96c-.38,12.2-1.49,24.21-3.59,35.77-7.82-.7-15.76-1.11-23.86-1.11s-16.04.41-23.86,1.11c-2.07-11.56-3.18-23.57-3.56-35.77h54.87Z"/>
  <path class="cls-9" d="M135.12,158.14c12.49,1.84,24.43,4.57,35.77,8.16-12.52,13.31-28.79,23.13-47.09,27.77,4.61-11.15,8.39-23.23,11.31-35.93Z"/>
  <path class="cls-2" d="M135.12,41.89c-2.92-12.71-6.7-24.78-11.31-35.93,18.3,4.61,34.57,14.42,47.09,27.77-11.34,3.59-23.29,6.32-35.77,8.17Z"/>
  <path class="cls-10" d="M141.32,106.96h55.54c-1.24,17.47-7.12,33.68-16.43,47.37-13.28-4.42-27.58-7.72-42.61-9.85,2.07-12.04,3.15-24.62,3.5-37.52Z"/>
  <path class="cls-3" d="M137.82,55.55c15.03-2.13,29.33-5.43,42.61-9.85,9.31,13.69,15.19,29.9,16.43,47.37h-55.54c-.35-12.9-1.43-25.48-3.5-37.52Z"/>
</svg>