<?xml version="1.0" encoding="UTF-8"?>
<svg id="Layer_1" data-name="Layer 1" xmlns="http://www.w3.org/2000/svg" xmlns:xlink="http://www.w3.org/1999/xlink" viewBox="0 0 200 200">
  <defs>
    <style>
      .cls-1 {
        fill: url(#linear-gradient-2);
      }

      .cls-2 {
        fill: url(#linear-gradient-3);
      }

      .cls-3 {
        fill: url(#linear-gradient);
      }
    </style>
    <linearGradient id="linear-gradient" x1="96.52" y1="93.77" x2="99.87" y2="93.77" gradientUnits="userSpaceOnUse">
      <stop offset="0" stop-color="#0e90a2"/>
      <stop offset=".32" stop-color="#19a574"/>
      <stop offset="1" stop-color="#90c43c"/>
    </linearGradient>
    <linearGradient id="linear-gradient-2" x1="2.79" y1="100" x2="197.21" y2="100" xlink:href="#linear-gradient"/>
    <linearGradient id="linear-gradient-3" x1="86.47" y1="72.27" x2="109.93" y2="72.27" xlink:href="#linear-gradient"/>
  </defs>
  <path class="cls-3" d="M98.2,87.63c-.93,0-1.68.75-1.68,1.68v8.94c0,.93.75,1.68,1.68,1.68s1.68-.75,1.68-1.68v-8.94c0-.93-.75-1.68-1.68-1.68Z"/>
  <path class="cls-1" d="M154.87,141.54c23.39,0,42.34-18.96,42.34-42.34s-18.96-42.34-42.34-42.34c-1.47,0-2.93.08-4.37.22-.67-24.75-20.94-44.61-45.86-44.61-18.33,0-34.14,10.75-41.49,26.28-3.03-1.24-6.35-1.92-9.82-1.92-14.37,0-26.03,11.65-26.03,26.03,0,2.89.47,5.68,1.34,8.27-14.94,4.35-25.86,18.15-25.86,34.49,0,19.84,16.08,35.92,35.92,35.92h11.94v17.65h-19.76c-.59-3.44-3.6-6.07-7.21-6.07-4.04,0-7.32,3.28-7.32,7.32s3.28,7.32,7.32,7.32c3.61,0,6.61-2.63,7.21-6.07h21c.69,0,1.25-.56,1.25-1.25v-18.9h12.12v37.43h-13.16c-.59-3.44-3.6-6.07-7.21-6.07-4.04,0-7.32,3.28-7.32,7.32s3.28,7.32,7.32,7.32c3.61,0,6.61-2.63,7.21-6.07h14.4c.69,0,1.25-.56,1.25-1.25v-38.68h12.09v17.24c0,.69.56,1.25,1.25,1.25s1.25-.56,1.25-1.25v-17.24h13.31v33.59c0,.69.56,1.25,1.25,1.25s1.25-.56,1.25-1.25v-33.59h13.31v17.24c0,.69.56,1.25,1.25,1.25s1.25-.56,1.25-1.25v-17.24h12.09v38.68c0,.69.56,1.25,1.25,1.25h14.4c.59,3.44,3.6,6.07,7.21,6.07,4.04,0,7.32-3.28,7.32-7.32s-3.28-7.32-7.32-7.32c-3.61,0-6.62,2.63-7.21,6.07h-13.16v-37.43h12.12v18.9c0,.69.56,1.25,1.25,1.25h21c.59,3.44,3.6,6.07,7.21,6.07,4.04,0,7.32-3.28,7.32-7.32s-3.28-7.32-7.32-7.32c-3.61,0-6.61,2.63-7.21,6.07h-19.76v-17.65h11.71ZM23.68,165.27c-2.66,0-4.82-2.16-4.82-4.82s2.16-4.82,4.82-4.82,4.82,2.16,4.82,4.82-2.16,4.82-4.82,4.82ZM44.9,185.04c-2.66,0-4.82-2.16-4.82-4.82s2.16-4.82,4.82-4.82,4.82,2.16,4.82,4.82-2.16,4.82-4.82,4.82ZM118.58,105.22c-1.96,1.96-5.12,1.96-11.44,1.96h-17.88c-6.32,0-9.48,0-11.44-1.96-1.96-1.96-1.96-5.12-1.96-11.44s0-9.48,1.96-11.44c1.19-1.19,2.81-1.66,5.3-1.84v-4.59c0-8.33,6.75-15.08,15.08-15.08s15.08,6.75,15.08,15.08v4.59c2.49.19,4.11.66,5.3,1.84,1.96,1.96,1.96,5.12,1.96,11.44s0,9.48-1.96,11.44ZM148.91,175.4c2.66,0,4.82,2.16,4.82,4.82s-2.16,4.82-4.82,4.82-4.82-2.16-4.82-4.82,2.16-4.82,4.82-4.82ZM170.13,155.62c2.66,0,4.82,2.16,4.82,4.82s-2.16,4.82-4.82,4.82-4.82-2.16-4.82-4.82,2.16-4.82,4.82-4.82Z"/>
  <path class="cls-2" d="M98.2,64.16c-6.48,0-11.73,5.25-11.73,11.73v4.48c.86,0,1.78,0,2.79,0h17.88c1.01,0,1.94,0,2.79,0v-4.48c0-6.48-5.25-11.73-11.73-11.73Z"/>
</svg>