<svg xmlns="http://www.w3.org/2000/svg" xmlns:xlink="http://www.w3.org/1999/xlink" width="54.529" height="55.541" viewBox="0 0 54.529 55.541">
  <defs>
    <linearGradient id="linear-gradient" y1="0.5" x2="1" y2="0.5" gradientUnits="objectBoundingBox">
      <stop offset="0" stop-color="#0e90a2"/>
      <stop offset="0.32" stop-color="#19a574"/>
      <stop offset="1" stop-color="#90c43c"/>
    </linearGradient>
  </defs>
  <g id="Layer_1-2" transform="translate(-0.005 -0.002)">
    <path id="Path_27180" data-name="Path 27180" d="M53.707,50.659h0L36.6,33.273A21.06,21.06,0,0,0,34.752,6.08,20.081,20.081,0,0,0,6.358,5.689c-.132.129-.262.259-.391.391a21.047,21.047,0,0,0,0,29.354A20.067,20.067,0,0,0,32.575,37.36L49.62,54.686a2.87,2.87,0,1,0,4.09-4.028Zm-40.3-24.116h-.962V7.345h8.177l1.44.959H13.406V26.542Zm1.918,1.918h-.962V9.264H23l1.4.959H15.325V28.461Zm16.317,1.921H16.281v-19.2H21.51c4.661,0,3.2,6.72,3.2,6.72,2.886-.714,6.931-1,6.931,2.275v10.2ZM26.789,15.77A5.689,5.689,0,0,0,25.5,11.255a20.418,20.418,0,0,1,6.143,5.04,5.916,5.916,0,0,0-4.855-.526Z" transform="translate(0)" fill="url(#linear-gradient)"/>
  </g>
</svg>
