<svg xmlns="http://www.w3.org/2000/svg" xmlns:xlink="http://www.w3.org/1999/xlink" width="55.522" height="47.349" viewBox="0 0 55.522 47.349">
  <defs>
    <linearGradient id="linear-gradient" y1="0.5" x2="1" y2="0.5" gradientUnits="objectBoundingBox">
      <stop offset="0" stop-color="#0e90a2"/>
      <stop offset="0.32" stop-color="#19a574"/>
      <stop offset="1" stop-color="#90c43c"/>
    </linearGradient>
  </defs>
  <path id="Path_27187" data-name="Path 27187" d="M155.319,41.291l-24.336-39.4a3.978,3.978,0,0,0-6.816.088c-5.663,9.736-17.156,29.417-23.2,39.339a3.974,3.974,0,0,0,3.4,6.038h47.572a3.971,3.971,0,0,0,3.382-6.058Zm-24.763-1.779a2.492,2.492,0,1,1-2.061-2.858A2.493,2.493,0,0,1,130.556,39.512Zm.655-23.681v-.009l-1.526,14.807a3.5,3.5,0,0,1-.458,1.657,1.424,1.424,0,0,1-1.993.279s-.006-.006-.009-.009l-.188-.333c-.865-5.378-1.432-10.793-2.05-16.2a5.466,5.466,0,0,1,.333-3.359,2.946,2.946,0,0,1,2.289-1.409,3.472,3.472,0,0,1,2.559.874,3.229,3.229,0,0,1,.974,1.469,5.653,5.653,0,0,1,.068,2.229Z" transform="translate(-100.39 -0.003)" fill="url(#linear-gradient)"/>
</svg>
