<svg xmlns="http://www.w3.org/2000/svg" xmlns:xlink="http://www.w3.org/1999/xlink" width="48.686" height="48.823" viewBox="0 0 48.686 48.823">
  <defs>
    <linearGradient id="linear-gradient" y1="0.5" x2="1" y2="0.5" gradientUnits="objectBoundingBox">
      <stop offset="0" stop-color="#0e90a2"/>
      <stop offset="0.32" stop-color="#19a574"/>
      <stop offset="1" stop-color="#90c43c"/>
    </linearGradient>
    <linearGradient id="linear-gradient-2" x1="0" y1="0.5" x2="1" y2="0.5" xlink:href="#linear-gradient"/>
    <linearGradient id="linear-gradient-3" x1="0" y1="0.5" x2="1" y2="0.5" xlink:href="#linear-gradient"/>
    <linearGradient id="linear-gradient-4" x1="0" y1="0.5" x2="1" y2="0.5" xlink:href="#linear-gradient"/>
    <linearGradient id="linear-gradient-5" x1="0" y1="0.5" x2="1" y2="0.5" xlink:href="#linear-gradient"/>
    <linearGradient id="linear-gradient-6" x1="0" y1="0.5" x2="1" y2="0.5" xlink:href="#linear-gradient"/>
    <linearGradient id="linear-gradient-7" x1="0" y1="0.5" x2="1" y2="0.5" xlink:href="#linear-gradient"/>
    <linearGradient id="linear-gradient-8" x1="0" y1="0.5" x2="1" y2="0.5" xlink:href="#linear-gradient"/>
    <linearGradient id="linear-gradient-11" x1="0" y1="0.5" x2="1" y2="0.5" xlink:href="#linear-gradient"/>
    <linearGradient id="linear-gradient-12" x1="0" y1="0.5" x2="1" y2="0.5" xlink:href="#linear-gradient"/>
  </defs>
  <g id="Group_16094" data-name="Group 16094" transform="translate(0 0)">
    <path id="Path_27161" data-name="Path 27161" d="M39.1,548.63A61.309,61.309,0,0,0,28.39,551.1a24.241,24.241,0,0,1-4.12-11.9H38.22A67.884,67.884,0,0,0,39.1,548.63Z" transform="translate(-24.27 -513.039)" fill="url(#linear-gradient)"/>
    <path id="Path_27162" data-name="Path 27162" d="M38.22,503H24.27a24.265,24.265,0,0,1,4.12-11.907A61.079,61.079,0,0,0,39.1,493.564a67.4,67.4,0,0,0-.877,9.43Z" transform="translate(-24.27 -480.328)" fill="url(#linear-gradient-2)"/>
    <path id="Path_27163" data-name="Path 27163" d="M53.625,579.38a57.053,57.053,0,0,0,2.842,9.03,24.519,24.519,0,0,1-11.827-6.978,57.708,57.708,0,0,1,8.982-2.052Z" transform="translate(-38.12 -540.358)" fill="url(#linear-gradient-3)"/>
    <path id="Path_27164" data-name="Path 27164" d="M53.632,468.93a57.624,57.624,0,0,1-8.982-2.052A24.371,24.371,0,0,1,56.477,459.9a57.262,57.262,0,0,0-2.842,9.03Z" transform="translate(-38.127 -459.122)" fill="url(#linear-gradient-4)"/>
    <path id="Path_27165" data-name="Path 27165" d="M89.115,577.19c1.78,0,3.537.086,5.269.24a52.348,52.348,0,0,1-3.579,10.182c-.56.042-1.117.08-1.693.08s-1.127-.038-1.693-.08A51.841,51.841,0,0,1,83.85,577.43c1.732-.15,3.483-.24,5.262-.24Z" transform="translate(-64.779 -538.869)" fill="url(#linear-gradient-5)"/>
    <path id="Path_27166" data-name="Path 27166" d="M87.948,467.963c-1.373-.026-2.74-.1-4.088-.224a51.915,51.915,0,0,1,3.569-10.182c.567-.038,1.127-.086,1.693-.086s1.133.048,1.693.086a52.483,52.483,0,0,1,3.579,10.182q-2.026.183-4.088.224c-.391.006-.791.016-1.181.016s-.781-.01-1.175-.016Z" transform="translate(-64.786 -457.47)" fill="url(#linear-gradient-6)"/>
    <path id="Path_27167" data-name="Path 27167" d="M92.639,511.141H78.85a62.36,62.36,0,0,1,.893-8.991c1.789.16,3.6.256,5.445.262H85.2a5.526,5.526,0,0,1,1.127,0h.016q2.742-.024,5.39-.262A61.027,61.027,0,0,1,92.639,511.141Z" transform="translate(-61.379 -487.848)" fill="url(#linear-gradient-7)"/>
    <path id="Path_27168" data-name="Path 27168" d="M92.576,539.2a61.117,61.117,0,0,1-.9,8.991c-1.965-.176-3.96-.278-6-.278s-4.033.106-6,.278a62.456,62.456,0,0,1-.893-8.991H92.579Z" transform="translate(-61.339 -513.039)" fill="url(#linear-gradient-8)"/>
    <path id="Path_27169" data-name="Path 27169" d="M121.852,579.38a57.837,57.837,0,0,1,8.991,2.052,24.538,24.538,0,0,1-11.834,6.978A57.263,57.263,0,0,0,121.852,579.38Z" transform="translate(-88.685 -540.358)" fill="url(#linear-gradient-6)"/>
    <path id="Path_27170" data-name="Path 27170" d="M121.852,468.93a57.054,57.054,0,0,0-2.842-9.03,24.44,24.44,0,0,1,11.834,6.978,57.83,57.83,0,0,1-8.991,2.052Z" transform="translate(-88.685 -459.122)" fill="url(#linear-gradient-7)"/>
    <path id="Path_27171" data-name="Path 27171" d="M130.9,539.2h13.959a24.156,24.156,0,0,1-4.129,11.9,61.09,61.09,0,0,0-10.707-2.474A66.444,66.444,0,0,0,130.9,539.2Z" transform="translate(-96.17 -513.039)" fill="url(#linear-gradient-11)"/>
    <path id="Path_27172" data-name="Path 27172" d="M130.01,493.574a61.3,61.3,0,0,0,10.707-2.474,24.188,24.188,0,0,1,4.129,11.907H130.887a66.445,66.445,0,0,0-.877-9.43Z" transform="translate(-96.164 -480.335)" fill="url(#linear-gradient-12)"/>
  </g>
</svg>
