<svg xmlns="http://www.w3.org/2000/svg" xmlns:xlink="http://www.w3.org/1999/xlink" width="62.485" height="53.396" viewBox="0 0 62.485 53.396">
  <defs>
    <linearGradient id="linear-gradient" y1="0.5" x2="1" y2="0.5" gradientUnits="objectBoundingBox">
      <stop offset="0" stop-color="#0e90a2"/>
      <stop offset="0.32" stop-color="#19a574"/>
      <stop offset="1" stop-color="#90c43c"/>
    </linearGradient>
    <linearGradient id="linear-gradient-2" x1="1" x2="0" xlink:href="#linear-gradient"/>
    <linearGradient id="linear-gradient-3" x1="1" x2="0" xlink:href="#linear-gradient"/>
  </defs>
  <g id="Group_16126" data-name="Group 16126" transform="translate(-6381 -2145.5)">
    <g id="Layer_1-2" transform="translate(6397.937 2145.5)">
      <path id="Path_27182" data-name="Path 27182" d="M14.485,0A14.485,14.485,0,1,0,28.97,14.485,14.485,14.485,0,0,0,14.485,0Zm6.367,7.082h-4.37a3.984,3.984,0,0,1,1.485,2.7h2.888V11.11H18c-.266,2.7-2.409,4.423-5.8,4.53,2.065,2.146,4.317,4.846,6.544,7.575H16.194c-2.067-2.49-4-4.793-6.49-7.443V14.129H11.16c2.86,0,4.4-1.191,4.583-3.02H9.7V9.785h5.961c-.37-1.535-1.776-2.305-4.079-2.305H9.706V5.757H20.858V7.082Z" fill="url(#linear-gradient)"/>
    </g>
    <g id="Layer_1-2-2" data-name="Layer_1-2" transform="translate(6381 2166.924)">
      <path id="Path_27183" data-name="Path 27183" d="M50.093,12.238a3.369,3.369,0,0,1,2.258,4.193L48.759,28.41a3.369,3.369,0,0,1-4.193,2.258h0a3.369,3.369,0,0,1-2.258-4.193L45.9,14.5a3.369,3.369,0,0,1,4.193-2.258h0Z" transform="translate(3.561 -10.25)" fill="url(#linear-gradient-2)"/>
      <path id="Path_27184" data-name="Path 27184" d="M41.1,27.171h0A4.192,4.192,0,0,0,45.087,24.2l3.593-11.979A4.168,4.168,0,0,0,44.689,6.86,4.192,4.192,0,0,0,40.7,9.829L37.109,21.808A4.168,4.168,0,0,0,41.1,27.171ZM44.69,8.453a2.574,2.574,0,0,1,2.464,3.312L43.562,23.745A2.586,2.586,0,0,1,41.1,25.577h0a2.576,2.576,0,0,1-2.464-3.31l3.593-11.979A2.586,2.586,0,0,1,44.69,8.455Z" transform="translate(7.996 -5.814)" fill="#f6f6e8"/>
      <path id="Path_27185" data-name="Path 27185" d="M12.179,20.224c.218.049.534.134.935.241,2.242.6,6.415,1.722,13.987.88a.793.793,0,0,0,.345-.122c.125-.081.256-.162.392-.239A10.753,10.753,0,0,1,39,21.347L40.974,22.6a.8.8,0,0,0,.4.124l8.44.3a2.688,2.688,0,0,1,2.043.717,2.114,2.114,0,0,1,.611,1.409,3.063,3.063,0,0,1-.079.767.773.773,0,0,0-.047.174,2.21,2.21,0,0,1-2.281,1.507l-7.618.108H34.063a.8.8,0,1,0,0,1.592h8.388l7.63-.108a3.8,3.8,0,0,0,3.7-2.4l4.93-2.278a.8.8,0,0,0,.383-.375l6.044-12.467a2.11,2.11,0,0,1,1.218-1.089,2.638,2.638,0,0,1,2.025.139,2.108,2.108,0,0,1,1.174,2.911L62.994,27.971,49.1,35.926a29.9,29.9,0,0,1-5.111,2.482,16.879,16.879,0,0,1-4.244.726,53.692,53.692,0,0,1-11.465-.747c-1.342-.183-2.728-.372-4.106-.525a48.845,48.845,0,0,0-10.386.162c-1.537.25-2.35-2.084-2.7-3.5-1.406-5.73-.082-13.916,1.087-14.3Z" transform="translate(-8.886 -8.843)" fill="url(#linear-gradient-3)"/>
      <path id="Path_27186" data-name="Path 27186" d="M1.7,10.767a1.8,1.8,0,0,1,1.868-.95c.3.058.637.149,1.066.265a32.8,32.8,0,0,0,13.216.855c.1-.059.2-.119.3-.178a12.345,12.345,0,0,1,12.815.4l1.789,1.133,8.184.294A4.221,4.221,0,0,1,44.1,13.775a3.706,3.706,0,0,1,1.06,2.287L48.9,14.337l5.918-12.2A3.692,3.692,0,0,1,56.938.229a4.27,4.27,0,0,1,3.224.191,3.7,3.7,0,0,1,1.962,5.02L55.45,20.023a.8.8,0,0,1-.328.36L41.008,28.466a31.7,31.7,0,0,1-5.387,2.607,18.609,18.609,0,0,1-4.64.808c-.81.061-1.616.088-2.42.088a69.455,69.455,0,0,1-9.382-.845c-1.331-.181-2.708-.371-4.065-.518a47.693,47.693,0,0,0-9.954.149,3.189,3.189,0,0,1-3.332-1.729C-.905,24.737-.263,13.653,1.7,10.77ZM4.9,29.181a48.845,48.845,0,0,1,10.386-.162c1.378.151,2.766.34,4.106.525a53.89,53.89,0,0,0,11.465.747,16.948,16.948,0,0,0,4.244-.726,30.015,30.015,0,0,0,5.111-2.482L54.1,19.128,60.674,4.779A2.109,2.109,0,0,0,59.5,1.868a2.631,2.631,0,0,0-2.025-.139,2.1,2.1,0,0,0-1.218,1.089L50.207,15.287a.8.8,0,0,1-.383.375l-4.93,2.278a3.8,3.8,0,0,1-3.7,2.4l-7.63.108H25.173a.8.8,0,1,1,0-1.592H33.55l7.618-.108a2.21,2.21,0,0,0,2.281-1.507.837.837,0,0,1,.047-.174,3.135,3.135,0,0,0,.079-.767,2.107,2.107,0,0,0-.611-1.409,2.692,2.692,0,0,0-2.043-.717l-8.44-.3a.784.784,0,0,1-.4-.124L30.111,12.5a10.753,10.753,0,0,0-11.165-.364c-.136.078-.267.159-.392.239a.774.774,0,0,1-.345.122c-7.571.842-11.746-.278-13.987-.88-.4-.107-.717-.192-.935-.241-1.17.386-2.493,8.571-1.087,14.3.348,1.415,1.16,3.75,2.7,3.5Z" transform="translate(0.002 0.002)" fill="#fcfcf5"/>
    </g>
  </g>
</svg>
