<svg xmlns="http://www.w3.org/2000/svg" xmlns:xlink="http://www.w3.org/1999/xlink" width="50.855" height="53.396" viewBox="0 0 50.855 53.396">
  <defs>
    <linearGradient id="linear-gradient" y1="0.5" x2="1" y2="0.5" gradientUnits="objectBoundingBox">
      <stop offset="0" stop-color="#0e90a2"/>
      <stop offset="0.32" stop-color="#19a574"/>
      <stop offset="1" stop-color="#90c43c"/>
    </linearGradient>
    <linearGradient id="linear-gradient-2" x1="0.222" y1="0.919" x2="0.778" y2="0.08" xlink:href="#linear-gradient"/>
  </defs>
  <g id="Group_16102" data-name="Group 16102" transform="translate(0 0)">
    <path id="Path_27177" data-name="Path 27177" d="M276.589,314.89H245.32v46.84h43.84V314.89H276.592Zm-27.45,13.4a.627.627,0,0,1,.883.069l1.032,1.2,2.74-2.74a.626.626,0,0,1,.885.886l-3.218,3.218a.622.622,0,0,1-.443.183h-.025a.62.62,0,0,1-.451-.219l-1.472-1.716a.627.627,0,0,1,.069-.883Zm5.54,20.466-3.218,3.218a.622.622,0,0,1-.443.183h-.025a.62.62,0,0,1-.451-.219l-1.472-1.716a.626.626,0,1,1,.952-.814l1.032,1.2,2.739-2.74a.626.626,0,1,1,.885.885Zm.387-11.467-3.218,3.218a.622.622,0,0,1-.443.183h-.025a.621.621,0,0,1-.451-.219l-1.472-1.716a.626.626,0,1,1,.952-.813l1.032,1.2,2.739-2.74a.626.626,0,0,1,.885.886Zm20.491-6.11c.343,0,.623.393.623.877s-.279.877-.623.877H260.028c-.343,0-.623-.393-.623-.877s.279-.877.623-.877Zm-16.149-4.646a.877.877,0,0,1,.877-.877h12.563a.877.877,0,1,1,0,1.754H260.285A.877.877,0,0,1,259.408,326.534Zm13.44,17.447H260.285a.877.877,0,0,1,0-1.754h12.563a.877.877,0,0,1,0,1.754Zm9.32,3.769a.877.877,0,1,1,0,1.754h-21.88a.877.877,0,1,1,0-1.754Zm4.782,7.278H260.285a.877.877,0,0,1,0-1.754h26.664a.877.877,0,0,1,0,1.754Zm0-16.57H260.285a.877.877,0,0,1,0-1.754h26.664a.877.877,0,0,1,0,1.754Z" transform="translate(-245.32 -308.335)" fill="url(#linear-gradient)"/>
    <path id="Path_27178" data-name="Path 27178" d="M356.814,313.974a1.343,1.343,0,0,1-1.342-1.342v-.307a9.86,9.86,0,0,1-2.283-.944l-.216.216a1.343,1.343,0,0,1-1.9,0l-1.918-1.918a1.341,1.341,0,0,1,0-1.9l.216-.216a10.11,10.11,0,0,1-.944-2.283h-.307a1.343,1.343,0,0,1-1.342-1.342v-2.712a1.343,1.343,0,0,1,1.342-1.342h.307a9.862,9.862,0,0,1,.944-2.283l-.216-.216a1.341,1.341,0,0,1,0-1.9l1.918-1.918a1.343,1.343,0,0,1,1.9,0l.216.216a9.985,9.985,0,0,1,2.283-.944v-.307a1.343,1.343,0,0,1,1.342-1.342h2.712a1.343,1.343,0,0,1,1.342,1.342v.307a9.986,9.986,0,0,1,2.283.944l.216-.216a1.343,1.343,0,0,1,1.9,0l1.918,1.918a1.343,1.343,0,0,1,0,1.9l-.216.216a9.986,9.986,0,0,1,.944,2.283h.307a1.343,1.343,0,0,1,1.342,1.342v2.712a1.343,1.343,0,0,1-1.342,1.342h-.307a9.866,9.866,0,0,1-.944,2.283l.216.216a1.343,1.343,0,0,1,0,1.9l-1.918,1.918a1.343,1.343,0,0,1-1.9,0l-.216-.216a9.987,9.987,0,0,1-2.283.944v.307a1.343,1.343,0,0,1-1.342,1.342h-2.712Z" transform="translate(-318.704 -291.2)" fill="#fcfcf5"/>
    <path id="Path_27179" data-name="Path 27179" d="M371.173,303.979h-1.035a.208.208,0,0,1-.2-.172,8.9,8.9,0,0,0-1.348-3.257.21.21,0,0,1,.025-.266l.731-.731a.214.214,0,0,0,0-.3l-1.918-1.918a.214.214,0,0,0-.3,0l-.73.731a.21.21,0,0,1-.266.025,8.9,8.9,0,0,0-3.257-1.348.21.21,0,0,1-.172-.2V295.5a.213.213,0,0,0-.213-.213h-2.712a.213.213,0,0,0-.213.213v1.035a.208.208,0,0,1-.172.2,8.9,8.9,0,0,0-3.257,1.348.21.21,0,0,1-.266-.025l-.731-.731a.214.214,0,0,0-.3,0l-1.918,1.918a.214.214,0,0,0,0,.3l.731.731a.21.21,0,0,1,.025.266,8.951,8.951,0,0,0-1.348,3.257.21.21,0,0,1-.2.172h-1.035a.213.213,0,0,0-.213.213V306.9a.213.213,0,0,0,.213.213h1.035a.208.208,0,0,1,.2.172,8.9,8.9,0,0,0,1.348,3.257.21.21,0,0,1-.025.266l-.731.731a.214.214,0,0,0,0,.3l1.918,1.918a.214.214,0,0,0,.3,0l.731-.731a.21.21,0,0,1,.266-.025,8.9,8.9,0,0,0,3.257,1.348.21.21,0,0,1,.172.2v1.035a.213.213,0,0,0,.213.213h2.712a.213.213,0,0,0,.213-.213v-1.035a.208.208,0,0,1,.172-.2,8.9,8.9,0,0,0,3.257-1.348.21.21,0,0,1,.266.025l.73.731a.214.214,0,0,0,.3,0l1.918-1.918a.214.214,0,0,0,0-.3l-.731-.731a.21.21,0,0,1-.025-.266,8.953,8.953,0,0,0,1.348-3.257.21.21,0,0,1,.2-.172h1.035a.213.213,0,0,0,.213-.213v-2.712A.213.213,0,0,0,371.173,303.979Zm-5.518,2.164a4.564,4.564,0,1,1-5.119-5.119A4.58,4.58,0,0,1,365.655,306.143Z" transform="translate(-321.663 -294.158)" fill="url(#linear-gradient-2)"/>
  </g>
</svg>
