<?xml version="1.0" encoding="UTF-8"?><svg id="Layer_1" xmlns="http://www.w3.org/2000/svg" xmlns:xlink="http://www.w3.org/1999/xlink" viewBox="0 0 200 200"><defs><style>.cls-1{stroke:url(#linear-gradient-4);}.cls-1,.cls-2,.cls-3,.cls-4,.cls-5{stroke-linecap:round;stroke-linejoin:round;}.cls-1,.cls-2,.cls-3,.cls-4,.cls-5,.cls-6{fill:none;stroke-width:3px;}.cls-7{fill:url(#linear-gradient);}.cls-7,.cls-8,.cls-9,.cls-10{stroke-width:0px;}.cls-2{stroke:url(#linear-gradient-5);}.cls-8{fill:#f6f6e8;}.cls-3{stroke:url(#linear-gradient-8);}.cls-4{stroke:url(#linear-gradient-7);}.cls-9{fill:url(#linear-gradient-2);}.cls-10{fill:url(#linear-gradient-3);}.cls-5{stroke:url(#linear-gradient-6);}.cls-6{stroke:#f6f6e8;stroke-miterlimit:10;}</style><linearGradient id="linear-gradient" x1="24.03" y1="112.77" x2="56.46" y2="112.77" gradientUnits="userSpaceOnUse"><stop offset="0" stop-color="#0e90a2"/><stop offset=".32" stop-color="#19a574"/><stop offset="1" stop-color="#90c43c"/></linearGradient><linearGradient id="linear-gradient-2" x1="8.87" y1="127.79" x2="194.98" y2="127.79" xlink:href="#linear-gradient"/><linearGradient id="linear-gradient-3" x1="61.76" y1="73.98" x2="113.99" y2="73.98" xlink:href="#linear-gradient"/><linearGradient id="linear-gradient-4" x1="86.38" y1="19.13" x2="89.38" y2="19.13" xlink:href="#linear-gradient"/><linearGradient id="linear-gradient-5" x1="117.72" y1="29.58" x2="125.94" y2="29.58" xlink:href="#linear-gradient"/><linearGradient id="linear-gradient-6" x1="128.16" y1="63.53" x2="136.39" y2="63.53" xlink:href="#linear-gradient"/><linearGradient id="linear-gradient-7" x1="39.37" y1="63.53" x2="47.59" y2="63.53" xlink:href="#linear-gradient"/><linearGradient id="linear-gradient-8" x1="49.82" y1="29.58" x2="58.04" y2="29.58" xlink:href="#linear-gradient"/></defs><path class="cls-7" d="m31.57,83.85c-5.59,1.68-8.77,7.57-7.09,13.16l11.28,37.61c1.68,5.59,7.57,8.77,13.16,7.09h0c5.59-1.68,8.77-7.57,7.09-13.16l-11.28-37.61c-1.68-5.59-7.57-8.77-13.16-7.09h0Z"/><path class="cls-8" d="m45.88,144.65h0c-5.72,0-10.87-3.83-12.52-9.32l-11.28-37.61c-1-3.35-.64-6.88,1.01-9.95,1.66-3.07,4.41-5.32,7.75-6.32,1.23-.37,2.49-.55,3.76-.55,5.72,0,10.87,3.83,12.52,9.32l11.28,37.61c2.07,6.9-1.86,14.21-8.77,16.28-1.23.37-2.49.55-3.76.55Zm-11.27-58.76c-.78,0-1.56.12-2.32.34-2.07.62-3.77,2.01-4.79,3.9-1.02,1.9-1.24,4.08-.63,6.15l11.28,37.61c1.02,3.39,4.19,5.76,7.73,5.76h0c.78,0,1.56-.12,2.32-.34,4.26-1.28,6.69-5.79,5.41-10.05l-11.28-37.61c-1.02-3.39-4.19-5.76-7.73-5.76Z"/><path class="cls-9" d="m189.66,113.33c-.68.15-1.68.42-2.93.76-7.04,1.89-20.14,5.4-43.91,2.76-.39-.04-.76-.17-1.08-.39-.39-.25-.81-.51-1.23-.75-10.72-6.2-24.16-5.76-35.05,1.14l-6.19,3.92c-.37.24-.81.37-1.25.39l-26.49.95c-2.76-.05-4.93.74-6.42,2.25-1.18,1.2-1.9,2.85-1.92,4.42-.01.87.07,1.67.25,2.41.07.18.12.36.15.55.93,2.96,3.46,4.68,7.16,4.73l23.91.34h26.3c1.38,0,2.5,1.12,2.5,2.5s-1.12,2.5-2.5,2.5h-26.33l-23.95-.34c-5.66-.08-9.89-2.96-11.62-7.54l-15.48-7.15c-.53-.24-.95-.66-1.2-1.18l-18.99-39.14c-.72-1.58-2.11-2.8-3.83-3.42-1.39-.49-3.61-.82-6.36.44-4.47,2.04-5.08,6.06-3.69,9.14l20.61,45.04,43.61,24.97c5.26,3.01,10.45,5.88,16.05,7.79,3.95,1.35,8.18,1.89,13.32,2.28,12.08.92,23.7-.67,35.99-2.34,4.21-.57,8.57-1.17,12.89-1.64,10.11-1.11,25.55-.65,32.6.51,4.83.78,7.38-6.54,8.47-10.99,4.41-17.99.26-43.69-3.41-44.9Z"/><path class="cls-8" d="m194.65,111.41c-2.16-3.17-4.61-3.23-5.87-2.98-.93.18-2,.47-3.35.83-6.66,1.79-19.02,5.1-41.49,2.68-.3-.19-.62-.38-.93-.56-12.34-7.13-27.75-6.66-40.23,1.25l-5.61,3.56-25.69.92c-5.07-.05-8.2,1.99-9.92,3.74-1.93,1.95-3.12,4.54-3.32,7.18l-11.73-5.42-18.57-38.29c-1.25-2.74-3.69-4.93-6.67-5.99-3.19-1.14-6.78-.93-10.12.6-6.38,2.92-8.97,9.54-6.16,15.76l20.95,45.78c.22.47.58.87,1.03,1.13l44.31,25.37c5.26,3.01,10.9,6.13,16.91,8.18,4.95,1.69,10.11,2.2,14.56,2.53,2.54.19,5.07.28,7.6.28,10,0,19.86-1.34,29.45-2.65,4.18-.57,8.5-1.16,12.76-1.63,9.56-1.05,24.65-.61,31.25.47,2.9.47,7.05-.09,10.46-5.43,8.58-13.47,6.56-48.26.39-57.31Zm-10.04,57.8c-7.05-1.15-22.49-1.61-32.6-.51-4.33.48-8.68,1.07-12.89,1.64-12.29,1.68-23.91,3.26-35.99,2.34-5.14-.39-9.38-.93-13.32-2.28-5.6-1.92-10.78-4.78-16.05-7.79l-43.61-24.97-20.61-45.04c-1.39-3.07-.79-7.09,3.69-9.14,2.75-1.26,4.97-.93,6.36-.44,1.72.61,3.11,1.84,3.83,3.42l18.99,39.14c.25.52.68.94,1.2,1.18l15.48,7.15c1.74,4.58,5.97,7.46,11.62,7.54l23.95.34h26.33c1.38,0,2.5-1.12,2.5-2.5s-1.12-2.5-2.5-2.5h-26.3l-23.91-.34c-3.7-.05-6.23-1.77-7.16-4.73-.03-.19-.08-.37-.15-.55-.18-.74-.26-1.54-.25-2.41.02-1.57.74-3.23,1.92-4.42,1.49-1.51,3.66-2.3,6.42-2.25l26.49-.95c.44-.02.87-.15,1.25-.39l6.19-3.92c10.89-6.9,24.32-7.34,35.05-1.14.42.25.84.5,1.23.75.33.21.7.34,1.08.39,23.77,2.64,36.87-.87,43.91-2.76,1.26-.34,2.25-.6,2.93-.76,3.67,1.21,7.83,26.91,3.41,44.9-1.09,4.44-3.64,11.77-8.47,10.99Z"/><path class="cls-10" d="m87.88,37.41c-14.42,0-26.12,11.69-26.12,26.12,0,7.11,2.84,13.56,7.45,18.27,1.8,1.83,3.27,4.02,3.77,6.53l2.76,13.81c.98,4.88,5.26,8.4,10.24,8.4h3.77c4.98,0,9.27-3.51,10.24-8.4l2.76-13.81c.5-2.52,1.98-4.7,3.77-6.53,4.61-4.71,7.45-11.16,7.45-18.27,0-14.42-11.69-26.12-26.12-26.12Z"/><path class="cls-1" d="m87.88,21.74v-5.22"/><path class="cls-2" d="m119.22,32.19l5.22-5.22"/><path class="cls-5" d="m129.66,63.53h5.22"/><path class="cls-4" d="m46.09,63.53h-5.22"/><path class="cls-3" d="m51.32,26.97l5.22,5.22"/><path class="cls-6" d="m72.52,89.65h30.26"/></svg>