<?xml version="1.0" encoding="UTF-8"?><svg id="Layer_1" xmlns="http://www.w3.org/2000/svg" xmlns:xlink="http://www.w3.org/1999/xlink" viewBox="0 0 200 200"><defs><style>.cls-1{fill:url(#linear-gradient);stroke-width:0px;}</style><linearGradient id="linear-gradient" x1=".68" y1="110.54" x2="200" y2="110.54" gradientUnits="userSpaceOnUse"><stop offset="0" stop-color="#0e90a2"/><stop offset=".32" stop-color="#19a574"/><stop offset="1" stop-color="#90c43c"/></linearGradient></defs><path class="cls-1" d="m154.65,50.23l-18.72,16.94c-.9.81-1.42,1.94-1.47,3.15-.05,1.15.36,2.28,1.12,3.14-1.01.41-2.02.73-3.02.93-9.91,2.01-20.57-2.62-28.76-1.38-.53.08-1.05.18-1.55.27-1.41-.36-2.87-.66-4.42-.9-1.12-.17-2.25-.24-3.38-.24-3.23,0-6.45.54-9.65,1.03-3.19.49-6.35.96-9.33.96-1.57,0-3.08-.12-4.53-.42-1.55-.31-3.22-1-4.91-1.95.13-.45.2-.94.18-1.42-.05-1.2-.58-2.34-1.47-3.15l-18.72-16.94C34.96,41.8-4.54,94.99,1.26,101.32c5.79,6.32,16.23,15.8,16.23,15.8.86.83,2.01,1.29,3.21,1.27,1.2-.02,2.33-.53,3.16-1.4l7.05-7.44c.1.11.2.22.28.33.6.7,1.07,1.4,1.25,1.79.79,1.68,2.81,5.78,5.49,10.37,1.34,2.29,2.86,4.7,4.48,7.01.82,1.16,1.67,2.29,2.54,3.37-2.38,2.94-2.36,7.26.23,10.19,2.89,3.27,7.89,3.57,11.16.67l.23-.2c-1.41,2.81-1.06,6.3,1.14,8.79,2.89,3.27,7.89,3.57,11.15.67l1.28-1.17c-1.76,2.88-1.52,6.69.84,9.35,2.89,3.26,7.89,3.56,11.15.68l1.98-1.79c-1.86,2.9-1.67,6.8.73,9.5,2.89,3.27,7.89,3.57,11.15.67l3.19-2.74c.31.15.6.28.87.4l2.18,1.27-.02-.02c1.08.65,2.22,1.18,3.39,1.55,1.18.37,2.39.58,3.63.58,1.34,0,2.72-.26,3.99-.83,1.29-.56,2.47-1.44,3.45-2.55,1.17-1.32,1.95-2.86,2.35-4.48,1.16.42,2.38.63,3.59.63,1.46,0,2.92-.3,4.27-.9,1.35-.6,2.61-1.49,3.66-2.67,1.29-1.45,2.11-3.18,2.46-4.97.69.14,1.39.22,2.1.22,1.46,0,2.92-.3,4.27-.9,1.36-.59,2.61-1.49,3.65-2.67,1.41-1.59,2.26-3.52,2.54-5.48.3.03.61.04.9.04,1.75,0,3.47-.38,5.06-1.05,1.59-.68,3.06-1.66,4.25-2.99,1.1-1.25,1.94-2.71,2.53-4.28.59-1.58.94-3.26.94-4.98,0-.63-.05-1.26-.16-1.89,6.09-6.77,9.31-18.05,10.71-21.01.05-.1.09-.2.15-.3l6.86,7.23c.82.87,1.96,1.37,3.15,1.4,1.21.03,2.36-.44,3.22-1.27,0,0,10.44-9.48,16.24-15.8,5.79-6.32-33.71-59.51-44.77-51.08Zm-2.25,85.47c-.34.92-.85,1.76-1.35,2.32h0c-.45.52-1.16,1.02-1.99,1.38-.83.35-1.76.54-2.59.54-.54,0-1.04-.08-1.44-.22-.03-.01-.05-.02-.07-.03l-9.01-8.7c-1.26-1.21-3.26-1.17-4.47.08-1.21,1.26-1.18,3.26.08,4.47l7.27,7.02c.03.07.05.14.09.21.3.59.45,1.26.45,1.92,0,1.02-.35,2-1.07,2.82-.43.48-.93.83-1.47,1.08-.54.24-1.13.37-1.72.37-1.02,0-2.01-.35-2.83-1.08l-.19-.17s-.06-.08-.09-.12l-7.9-8.25c-1.21-1.26-3.21-1.31-4.47-.1-1.26,1.21-1.3,3.21-.1,4.47l6.7,7s.03.05.05.08c.41.67.62,1.45.62,2.22,0,1.02-.34,2.01-1.07,2.83-.43.48-.93.83-1.47,1.08-.54.24-1.13.36-1.73.36-1.01,0-2-.34-2.82-1.07l-.12-.1-2.45-1.96-4-4.25c-1.2-1.27-3.2-1.33-4.47-.13-1.27,1.19-1.33,3.2-.13,4.47l3.8,4.03c.39.66.6,1.41.6,2.17,0,1.01-.35,2-1.07,2.81-.43.49-.85.78-1.27.97-.43.19-.88.28-1.43.29-.5,0-1.08-.09-1.73-.29-.65-.2-1.34-.52-2.07-.95l-.02-.02-1.11-.65c3.09-2.92,3.33-7.78.49-10.98-2.86-3.22-7.75-3.55-11.02-.77l.59-.53c3.26-2.89,3.56-7.89.67-11.15-2.89-3.27-7.89-3.57-11.15-.67l-1.93,1.75c1.86-2.9,1.67-6.8-.73-9.5-2.89-3.27-7.88-3.57-11.15-.67l-2.57,2.34c1.2-2.73.8-6.04-1.31-8.43-2.89-3.27-7.89-3.57-11.15-.68l-5.44,4.83c-.68-.86-1.37-1.78-2.04-2.73-2.23-3.16-4.32-6.69-5.98-9.72-1.66-3.02-2.9-5.55-3.44-6.71-.28-.61-.62-1.16-.99-1.69-.57-.83-1.22-1.6-1.89-2.33l26.74-28.23c2.37,1.44,4.91,2.61,7.66,3.18,1.96.4,3.9.54,5.79.54,3.61,0,7.08-.53,10.3-1.03.81-.13,1.6-.25,2.37-.37-2.41,1.66-4.74,3.63-7.23,5.95-7.08,6.61-13.19,14.68-16.58,18.35-3.39,3.66,2.91,10.02,12.94,7.11,10.03-2.91,14.35-10.39,14.35-10.39l12.58-4.52,12.49,2.86,30.2,27.18,5.22,5.05.11.09c.2.19.37.42.51.79.14.37.23.86.23,1.45,0,.83-.19,1.83-.54,2.75Z"/></svg>