<?xml version="1.0" encoding="UTF-8"?>
<svg id="Layer_1" data-name="Layer 1" xmlns="http://www.w3.org/2000/svg" viewBox="0 0 200 200">
  <defs>
    <style>
      .cls-1 {
        fill: #fff;
      }

      .cls-2 {
        fill: none;
        stroke: #fff;
        stroke-miterlimit: 10;
        stroke-width: 4px;
      }
    </style>
  </defs>
  <g>
    <path class="cls-2" d="M2.76,80.03C11.91,37.81,49.48,6.19,94.44,6.19s82.54,31.62,91.68,73.84"/>
    <path class="cls-2" d="M4.58,127c11.58,38.66,47.44,66.81,89.86,66.81s78.28-28.16,89.86-66.81"/>
    <polyline class="cls-1" points="193.82 66.14 187.74 82.76 171.04 76.66"/>
    <polyline class="cls-1" points="-2.18 141.23 3.9 124.6 20.6 130.7"/>
  </g>
  <g>
    <circle class="cls-1" cx="95.91" cy="82.58" r="31.23" transform="translate(6.74 172.4) rotate(-85.93)"/>
    <path class="cls-1" d="M68.94,109.47c-3.39.5-15.26,2.65-22.94,12.66-4.57,5.96-6.12,12.69-6.69,15.29-1,4.53-1.08,8.44-.96,11.23h114.92c.15-2.75.57-15.44-8.84-26.52-8.38-9.87-19.17-12.13-22.22-12.66-2.76,2.32-12.2,9.67-26.3,10.03-12.3.32-21.14-4.84-24.35-6.93"/>
  </g>
</svg>