<?xml version="1.0" encoding="UTF-8"?>
<svg id="Layer_1" data-name="Layer 1" xmlns="http://www.w3.org/2000/svg" xmlns:xlink="http://www.w3.org/1999/xlink" viewBox="0 0 200 200">
  <defs>
    <style>
      .cls-1 {
        fill: url(#linear-gradient-5);
      }

      .cls-2 {
        fill: url(#linear-gradient-6);
      }

      .cls-3 {
        stroke: url(#linear-gradient);
      }

      .cls-3, .cls-4, .cls-5, .cls-6 {
        fill: none;
        stroke-linecap: round;
        stroke-linejoin: round;
        stroke-width: 4px;
      }

      .cls-4 {
        stroke: url(#linear-gradient-3);
      }

      .cls-5 {
        stroke: url(#linear-gradient-2);
      }

      .cls-6 {
        stroke: url(#linear-gradient-4);
      }
    </style>
    <linearGradient id="linear-gradient" x1="4.94" y1="43.11" x2="192.3" y2="43.11" gradientUnits="userSpaceOnUse">
      <stop offset="0" stop-color="#0e90a2"/>
      <stop offset=".32" stop-color="#19a574"/>
      <stop offset="1" stop-color="#90c43c"/>
    </linearGradient>
    <linearGradient id="linear-gradient-2" x1="6.76" y1="160.41" x2="190.49" y2="160.41" xlink:href="#linear-gradient"/>
    <linearGradient id="linear-gradient-3" x1="-1523.88" y1="-1537.23" x2="-1545.51" y2="-1539.16" gradientTransform="translate(1100.59 2043.35) rotate(20.08)" xlink:href="#linear-gradient"/>
    <linearGradient id="linear-gradient-4" x1="-8779.24" y1="8996.7" x2="-8800.87" y2="8994.77" gradientTransform="translate(-11722.43 6397.47) rotate(-159.92)" xlink:href="#linear-gradient"/>
    <linearGradient id="linear-gradient-5" x1="68.86" y1="82.58" x2="131.33" y2="82.58" gradientTransform="translate(175.37 -23.11) rotate(85.93)" xlink:href="#linear-gradient"/>
    <linearGradient id="linear-gradient-6" x1="42.49" y1="129.06" x2="157.51" y2="129.06" xlink:href="#linear-gradient"/>
  </defs>
  <g>
    <path class="cls-3" d="M6.94,80.03C16.09,37.81,53.66,6.19,98.62,6.19s82.54,31.62,91.68,73.84"/>
    <path class="cls-5" d="M8.76,127c11.58,38.66,47.44,66.81,89.86,66.81s78.28-28.16,89.86-66.81"/>
    <polyline class="cls-4" points="198 66.14 191.92 82.76 175.22 76.66"/>
    <polyline class="cls-6" points="2 141.23 8.08 124.6 24.78 130.7"/>
  </g>
  <g>
    <circle class="cls-1" cx="100.09" cy="82.58" r="31.23" transform="translate(10.62 176.57) rotate(-85.93)"/>
    <path class="cls-2" d="M73.12,109.47c-3.39.5-15.26,2.65-22.94,12.66-4.57,5.96-6.12,12.69-6.69,15.29-1,4.53-1.08,8.44-.96,11.23h114.92c.15-2.75.57-15.44-8.84-26.52-8.38-9.87-19.17-12.13-22.22-12.66-2.76,2.32-12.2,9.67-26.3,10.03-12.3.32-21.14-4.84-24.35-6.93"/>
  </g>
</svg>