<?xml version="1.0" encoding="UTF-8"?>
<svg id="Layer_1" data-name="Layer 1" xmlns="http://www.w3.org/2000/svg" xmlns:xlink="http://www.w3.org/1999/xlink" viewBox="0 0 200 200">
  <defs>
    <style>
      .cls-1 {
        fill: url(#linear-gradient);
        fill-rule: evenodd;
      }
    </style>
    <linearGradient id="linear-gradient" x1="6.19" y1="100" x2="193.81" y2="100" gradientUnits="userSpaceOnUse">
      <stop offset="0" stop-color="#0e90a2"/>
      <stop offset=".32" stop-color="#19a574"/>
      <stop offset="1" stop-color="#90c43c"/>
    </linearGradient>
  </defs>
  <g id="Page-1">
    <g id="Dribbble-Light-Preview">
      <g id="icons">
        <path id="target-_102_" data-name="target-[#102]" class="cls-1" d="M109.38,174.4v-18.96c28.14-3.96,42.1-22.5,46.06-46.06h18.96c-4.26,33.88-27.5,60.77-65.02,65.02h0ZM109.38,116.17c0-1.64,5.14-3.96,6.78-6.78h20.03c-3.41,13.12-17.43,23.41-26.81,26.81v-20.03ZM109.38,63.81c9.38,3.41,23.4,13.7,26.81,26.81h-20.03c-1.64-2.81-6.78-5.14-6.78-6.77v-20.04ZM109.38,25.61c37.52,4.25,60.76,31.14,65.02,65.01h-18.96c-3.96-23.55-17.92-42.09-46.06-46.06v-18.95ZM90.62,44.56c-28.14,3.97-42.1,22.51-46.06,46.06h-18.96c4.26-33.87,27.5-60.76,65.02-65.01v18.95ZM90.62,83.84c0,1.64-5.14,3.96-6.78,6.77h-20.03c3.41-13.11,17.43-23.4,26.81-26.81v20.04ZM90.62,136.19c-9.38-3.4-23.4-13.69-26.81-26.81h20.03c1.64,2.82,6.78,5.14,6.78,6.78v20.03ZM90.62,174.4c-37.52-4.25-60.76-31.14-65.02-65.02h18.96c3.96,23.56,17.92,42.1,46.06,46.06v18.96ZM100,6.19C48.19,6.19,6.19,48.2,6.19,100s42,93.81,93.81,93.81,93.81-42,93.81-93.81S151.81,6.19,100,6.19h0Z"/>
      </g>
    </g>
  </g>
</svg>