<?xml version="1.0" encoding="UTF-8"?>
<svg id="Layer_1" data-name="Layer 1" xmlns="http://www.w3.org/2000/svg" xmlns:xlink="http://www.w3.org/1999/xlink" viewBox="0 0 200 200">
  <defs>
    <style>
      .cls-1 {
        fill: url(#linear-gradient-2);
      }

      .cls-2 {
        fill: url(#linear-gradient-3);
      }

      .cls-3 {
        fill: url(#linear-gradient);
      }
    </style>
    <linearGradient id="linear-gradient" x1="55.88" y1="64.67" x2="97.66" y2="64.67" gradientTransform="translate(135.83 -16.49) rotate(85.93)" gradientUnits="userSpaceOnUse">
      <stop offset="0" stop-color="#0e90a2"/>
      <stop offset=".32" stop-color="#19a574"/>
      <stop offset="1" stop-color="#90c43c"/>
    </linearGradient>
    <linearGradient id="linear-gradient-2" x1="38.25" y1="95.75" x2="115.17" y2="95.75" gradientTransform="matrix(1,0,0,1,0,0)" xlink:href="#linear-gradient"/>
    <linearGradient id="linear-gradient-3" x1="3.07" y1="100" x2="196.93" y2="100" gradientTransform="matrix(1,0,0,1,0,0)" xlink:href="#linear-gradient"/>
  </defs>
  <g>
    <circle class="cls-3" cx="76.77" cy="64.67" r="20.89" transform="translate(6.82 136.66) rotate(-85.93)"/>
    <path class="cls-1" d="M58.73,82.65c-2.27.33-10.2,1.77-15.34,8.47-3.06,3.98-4.09,8.48-4.47,10.23-.67,3.03-.72,5.64-.64,7.51h76.85c.1-1.84.38-10.32-5.91-17.73-5.6-6.6-12.82-8.11-14.86-8.47-1.85,1.55-8.16,6.46-17.59,6.71-8.22.22-14.14-3.24-16.28-4.63"/>
  </g>
  <path class="cls-2" d="M194,181.37h0l-60.82-61.82c21.77-29.49,19-70.4-6.56-96.68C99.12-5.38,53.91-6.01,25.65,21.49c-.47.46-.93.92-1.39,1.39-28.26,29.05-28.26,75.31,0,104.36,25.23,25.95,65.89,28.89,94.6,6.85l60.6,61.59c3.95,4.02,10.41,4.07,14.43.12,4.02-3.95,4.07-10.41.12-14.43ZM75.66,136.17c-32.94,0-59.64-26.7-59.64-59.64s26.7-59.64,59.64-59.64,59.64,26.7,59.64,59.64-26.7,59.64-59.64,59.64Z"/>
</svg>