<?xml version="1.0" encoding="UTF-8"?><svg id="Layer_1" xmlns="http://www.w3.org/2000/svg" xmlns:xlink="http://www.w3.org/1999/xlink" viewBox="0 0 200 200"><defs><style>.cls-1{fill:url(#linear-gradient);}.cls-1,.cls-2,.cls-3,.cls-4,.cls-5,.cls-6{stroke-width:0px;}.cls-2{fill:url(#linear-gradient-6);}.cls-3{fill:url(#linear-gradient-5);}.cls-4{fill:url(#linear-gradient-2);}.cls-5{fill:url(#linear-gradient-3);}.cls-6{fill:url(#linear-gradient-4);}</style><linearGradient id="linear-gradient" x1="15.62" y1="83.86" x2="65.39" y2="83.86" gradientUnits="userSpaceOnUse"><stop offset="0" stop-color="#0e90a2"/><stop offset=".32" stop-color="#19a574"/><stop offset="1" stop-color="#90c43c"/></linearGradient><linearGradient id="linear-gradient-2" x1="3.95" y1="134.8" x2="77.45" y2="134.8" xlink:href="#linear-gradient"/><linearGradient id="linear-gradient-3" x1="134.61" x2="184" xlink:href="#linear-gradient"/><linearGradient id="linear-gradient-4" x1="122.55" y1="134.8" x2="196.05" y2="134.8" xlink:href="#linear-gradient"/><linearGradient id="linear-gradient-5" x1="71.61" y1="72.78" x2="128.39" y2="72.78" xlink:href="#linear-gradient"/><linearGradient id="linear-gradient-6" x1="48.28" y1="131.89" x2="151.33" y2="131.89" xlink:href="#linear-gradient"/></defs><path class="cls-1" d="m40.5,108.56c-6.61,0-12.83-2.72-17.5-7-4.28-4.67-7.39-10.89-7.39-17.89,0-6.61,3.11-12.83,7.39-17.5,4.67-4.28,10.89-7,17.5-7,7,0,13.22,2.72,17.5,7,4.67,4.67,7.39,10.89,7.39,17.5,0,7-2.72,13.22-7.39,17.89-4.28,4.28-10.5,7-17.5,7Zm-9.72-14.78c2.33,2.33,5.83,3.89,9.72,3.89s7.39-1.56,10.11-3.89c2.33-2.72,3.89-6.22,3.89-10.11s-1.56-7-3.89-9.72c-2.72-2.33-6.22-3.89-10.11-3.89s-7.39,1.56-9.72,3.89c-2.72,2.72-4.28,5.83-4.28,9.72s1.56,7.39,4.28,10.11Z"/><path class="cls-4" d="m40.5,155.61H9.39c-3.11,0-5.44-2.33-5.44-5.44v-13.22c0-11.28,9.72-18.28,22.55-21.39,4.67-.78,9.33-1.56,14-1.56s9.72.78,14,1.56c4.28,1.17,8.17,2.33,11.67,4.28-4.28,1.94-7.78,4.67-10.11,7.39-1.17-.39-2.33-.78-3.89-1.17-3.5-.78-7.39-1.17-11.67-1.17-3.89,0-7.78.39-11.67,1.17-7.78,1.94-14,5.44-14,10.89v7.78h38.89v5.44h23.72c0,3.11-2.33,5.44-5.44,5.44h-31.5Z"/><path class="cls-5" d="m159.11,108.56c-6.61,0-12.83-2.72-17.5-7-4.28-4.67-7-10.89-7-17.89,0-6.61,2.72-12.83,7-17.5,4.67-4.28,10.89-7,17.5-7,7,0,13.22,2.72,17.89,7,4.28,4.67,7,10.89,7,17.5,0,7-2.72,13.22-7,17.89-4.67,4.28-10.89,7-17.89,7Zm-9.72-14.78c2.72,2.33,6.22,3.89,9.72,3.89,3.89,0,7.39-1.56,10.11-3.89,2.33-2.72,3.89-6.22,3.89-10.11s-1.56-7-3.89-9.72c-2.72-2.33-6.22-3.89-10.11-3.89-3.5,0-7,1.56-9.72,3.89-2.33,2.72-3.89,5.83-3.89,9.72s1.56,7.39,3.89,10.11h0Z"/><path class="cls-6" d="m159.11,155.61h-31.11c-3.11,0-5.44-2.33-5.44-5.44h23.33v-5.44h39.28v-7.78c0-5.44-6.22-8.94-14.39-10.89-3.5-.78-7.39-1.17-11.67-1.17-3.89,0-7.78.39-11.28,1.17-1.56.39-2.72.78-4.28,1.17-1.94-2.72-5.44-5.44-9.72-7.39,3.11-1.94,7.39-3.11,11.28-4.28,4.67-.78,9.33-1.56,14-1.56,5.06,0,9.72.78,14,1.56,12.83,3.11,22.94,10.11,22.94,21.39v13.22c0,3.11-2.33,5.44-5.44,5.44h-31.5Z"/><path class="cls-3" d="m100,101.17c-7.78,0-15.17-3.11-20.22-8.17h0c-5.06-5.44-8.17-12.44-8.17-20.22s3.11-15.17,8.17-20.22h0c5.06-5.06,12.44-8.17,20.22-8.17s14.78,3.11,20.22,8.17c5.06,5.06,8.17,12.44,8.17,20.22s-3.11,15.17-8.17,20.22c-5.44,5.06-12.44,8.17-20.22,8.17Z"/><path class="cls-2" d="m100,155.61h-46.28c-2.72,0-5.44-2.33-5.44-5.44v-15.55c0-13.22,14-21.39,31.89-24.5,6.22-1.17,13.22-1.94,19.83-1.94s13.61.78,19.83,1.94c17.89,3.11,31.5,11.28,31.5,24.5v15.55c0,3.11-2.33,5.44-5.44,5.44h-45.89Z"/></svg>