<?xml version="1.0" encoding="UTF-8"?><svg id="Layer_1" xmlns="http://www.w3.org/2000/svg" xmlns:xlink="http://www.w3.org/1999/xlink" viewBox="0 0 200 200"><defs><style>.cls-1{fill:url(#linear-gradient);}.cls-1,.cls-2{stroke-width:0px;}.cls-2{fill:url(#linear-gradient-2);}</style><linearGradient id="linear-gradient" x1="3" y1="151.88" x2="197" y2="151.88" gradientUnits="userSpaceOnUse"><stop offset="0" stop-color="#0e90a2"/><stop offset=".32" stop-color="#19a574"/><stop offset="1" stop-color="#90c43c"/></linearGradient><linearGradient id="linear-gradient-2" x1="54.86" y1="62.11" x2="158.28" y2="62.11" xlink:href="#linear-gradient"/></defs><path class="cls-1" d="m193.06,112.81c5.43,4.97,5.09,13.84-.13,19.06l-44.86,44.86c-3.19,3.19-7.52,4.98-12.03,4.98H56.75c-7.53,0-11.34,4.04-16.99,9.88-1.88,1.94-4.59,2.91-7.27,2.56-16.65-2.19-29.48-16.42-29.48-33.67v-17.71c0-2.25.89-4.41,2.49-6l13.76-13.76c3.19-3.19,7.52-4.98,12.03-4.98h24.11c13.88,0,12.91,12.74,26.83,12.74h31.16c6.66,0,12.74,5.39,12.74,12.74,0,6.96-5.56,12.74-12.74,12.74h-55.19c0,4.67,3.82,8.49,8.49,8.49h50.36c4.5,0,8.82-1.79,12.01-4.97l46.48-46.48c2.46-2.46,5.73-3.74,9-3.74,3.06,0,6.11,1.1,8.53,3.27Z"/><path class="cls-2" d="m106.57,10.41c-28.56,0-51.71,23.15-51.71,51.71s23.15,51.71,51.71,51.71,51.71-23.15,51.71-51.71-23.15-51.71-51.71-51.71Zm22.73,25.28h-15.6c2.74,2.18,4.73,5.3,5.3,9.65h10.31v4.73h-10.21c-.95,9.64-8.6,15.79-20.71,16.17,7.37,7.66,15.41,17.3,23.36,27.04h-9.08c-7.38-8.89-14.28-17.11-23.17-26.57v-5.86h5.2c10.21,0,15.7-4.25,16.36-10.78h-21.56v-4.73h21.28c-1.32-5.48-6.34-8.23-14.56-8.23h-6.71v-6.15h39.81v4.73Z"/></svg>