<?xml version="1.0" encoding="UTF-8"?><svg id="Layer_1" xmlns="http://www.w3.org/2000/svg" xmlns:xlink="http://www.w3.org/1999/xlink" viewBox="0 0 200 200"><defs><style>.cls-1{fill:url(#linear-gradient);stroke-width:0px;}</style><linearGradient id="linear-gradient" x1="6.04" y1="100" x2="193.96" y2="100" gradientUnits="userSpaceOnUse"><stop offset="0" stop-color="#0e90a2"/><stop offset=".32" stop-color="#19a574"/><stop offset="1" stop-color="#90c43c"/></linearGradient></defs><path class="cls-1" d="m172.43,80.42c11.89,0,21.53,9.65,21.53,21.54,0,11.89-9.65,21.53-21.54,21.53-8.09,0-15.5-4.54-19.18-11.75h-3.56c-21.1.23-28.54,6.66-40.37,28.74l-.67,1.29-.78,1.49c-7.05,13.19-11.04,19.18-18.25,25.53-10.14,8.89-23.22,13.43-40.52,13.43h-2.35c-5.41,10.59-18.38,14.8-28.97,9.39-10.59-5.41-14.8-18.38-9.39-28.97,5.41-10.59,18.38-14.8,28.97-9.39,4.04,2.06,7.33,5.35,9.39,9.39h3.56c21.49-.23,28.82-6.89,41.03-30.03h0l.82-1.29c3.34-6.95,7.42-13.51,12.18-19.58h-57.59c-5.41,10.59-18.38,14.8-28.97,9.39-10.59-5.41-14.8-18.38-9.39-28.97,5.41-10.59,18.38-14.8,28.97-9.39,4.04,2.06,7.33,5.35,9.39,9.39h106.5c3.55-6.92,10.55-11.41,18.32-11.75h.86Zm0-74.39c11.89,0,21.53,9.65,21.53,21.54,0,11.89-9.65,21.53-21.54,21.53-8.09,0-15.5-4.54-19.18-11.75H46.75c-5.41,10.59-18.38,14.8-28.97,9.39-10.59-5.41-14.8-18.38-9.39-28.97C13.8,7.19,26.77,2.98,37.36,8.39c4.04,2.06,7.33,5.35,9.39,9.39h106.5c3.68-7.21,11.09-11.75,19.18-11.75Z"/></svg>