<?xml version="1.0" encoding="UTF-8"?><svg id="Layer_1" xmlns="http://www.w3.org/2000/svg" xmlns:xlink="http://www.w3.org/1999/xlink" viewBox="0 0 200 200"><defs><style>.cls-1{fill:url(#linear-gradient);}.cls-1,.cls-2,.cls-3{stroke-width:0px;}.cls-2{fill:url(#linear-gradient-2);}.cls-3{fill:url(#linear-gradient-3);}</style><linearGradient id="linear-gradient" x1="67.74" y1="183.32" x2="95.03" y2="183.32" gradientUnits="userSpaceOnUse"><stop offset="0" stop-color="#0e90a2"/><stop offset=".32" stop-color="#19a574"/><stop offset="1" stop-color="#90c43c"/></linearGradient><linearGradient id="linear-gradient-2" x1="150.55" x2="177.84" xlink:href="#linear-gradient"/><linearGradient id="linear-gradient-3" x1="7.82" y1="87.13" x2="196.43" y2="87.13" xlink:href="#linear-gradient"/></defs><path class="cls-1" d="m81.38,169.68c-7.52,0-13.64,6.12-13.64,13.64s6.12,13.64,13.64,13.64,13.64-6.12,13.64-13.64-6.12-13.64-13.64-13.64Z"/><path class="cls-2" d="m164.2,169.68c-7.52,0-13.64,6.12-13.64,13.64s6.12,13.64,13.64,13.64,13.64-6.12,13.64-13.64c0-7.52-6.12-13.64-13.64-13.64Z"/><path class="cls-3" d="m169.43,52.58l21.94.02c1.5,0,2.93.67,3.89,1.83.96,1.16,1.36,2.68,1.09,4.16l-13.19,72.08c-.44,2.41-2.54,4.16-4.99,4.16h-108.9l2.8,13.2c.7,3.28,3.64,5.66,6.99,5.66h92.08c2.8,0,5.07,2.27,5.07,5.07s-2.27,5.07-5.07,5.07h-92.08c-8.12,0-15.23-5.76-16.91-13.7l-4.08-19.25L30.9,20.55H12.89c-2.8,0-5.07-2.27-5.07-5.07s2.27-5.07,5.07-5.07h21.98c2.33,0,4.37,1.59,4.93,3.86l9.4,38.19,30.41.03"/></svg>