<?xml version="1.0" encoding="UTF-8"?><svg id="Layer_1" xmlns="http://www.w3.org/2000/svg" xmlns:xlink="http://www.w3.org/1999/xlink" viewBox="0 0 200 200"><defs><style>.cls-1{fill:url(#linear-gradient);}.cls-1,.cls-2,.cls-3{stroke-width:0px;}.cls-2{fill:url(#linear-gradient-2);}.cls-3{fill:url(#linear-gradient-3);}</style><linearGradient id="linear-gradient" x1="20.42" y1="100" x2="179.58" y2="100" gradientUnits="userSpaceOnUse"><stop offset="0" stop-color="#0e90a2"/><stop offset=".32" stop-color="#19a574"/><stop offset="1" stop-color="#90c43c"/></linearGradient><linearGradient id="linear-gradient-2" x1="96.68" y1="63.44" x2="113.6" y2="63.44" xlink:href="#linear-gradient"/><linearGradient id="linear-gradient-3" x1="83.64" y1="102.89" x2="126.64" y2="102.89" gradientUnits="userSpaceOnUse"><stop offset="0" stop-color="#0e90a2"/><stop offset=".32" stop-color="#19a574"/><stop offset="1" stop-color="#90c43c"/></linearGradient></defs><path class="cls-1" d="m100,2.73S20.42,25.28,20.42,29.26v80.46c0,40.67,58.8,76.48,75.16,86.21,2.68,1.79,6.17,1.79,8.84,0,16.8-9.28,75.16-45.54,75.16-86.21V29.26c0-3.98-79.58-26.53-79.58-26.53Zm39.69,125.19c0,2.44-2,4.44-4.44,4.44h-60.21c-2.44,0-4.44-2-4.44-4.44v-50.89c0-2.44,2-4.44,4.44-4.44h7.28v-5.94c0-14.74,10.24-26.73,22.83-26.73,6.29,0,12.37,3.08,16.66,8.44,3.98,4.97,6.17,11.47,6.17,18.29v5.94h7.28c2.44,0,4.44,2,4.44,4.44v50.89Z"/><path class="cls-2" d="m113.6,66.65c0-3.52-1.1-6.91-3.02-9.31-.91-1.14-2.83-3.05-5.44-3.05-4.51,0-8.46,5.78-8.46,12.36v5.94h16.92v-5.94Z"/><polygon class="cls-3" points="98.97 119.63 83.64 104.31 89.46 98.48 98.97 108 120.82 86.14 126.64 91.96 98.97 119.63"/></svg>