<?xml version="1.0" encoding="UTF-8"?><svg id="Layer_1" xmlns="http://www.w3.org/2000/svg" xmlns:xlink="http://www.w3.org/1999/xlink" viewBox="0 0 200 200"><defs><style>.cls-1{fill:url(#linear-gradient);fill-rule:evenodd;stroke-width:0px;}</style><linearGradient id="linear-gradient" x1="-6017.81" y1="1084.39" x2="-6012.64" y2="1084.39" gradientTransform="translate(228678.51 41306.74) scale(38 -38)" gradientUnits="userSpaceOnUse"><stop offset="0" stop-color="#0e90a2"/><stop offset=".32" stop-color="#19a574"/><stop offset="1" stop-color="#90c43c"/></linearGradient></defs><path id="Combined-Shape" class="cls-1" d="m165.49,34.49v130.99H34.49V34.49h131Zm-75.86,32.75h-12.76l-24.22,65.5h11.51l4.57-12.8h29l4.48,12.8h12.2l-24.77-65.5Zm45.2,0h-11.47v65.5h11.47v-65.5Zm-51.68,10.99l11.42,32.68h-22.65l11.24-32.68Zm93.25,54.51h21.84v21.83h-21.83v-21.83Zm-130.99,43.67h21.83v21.83h-21.83v-21.83Zm43.67,0h21.83v21.83h-21.83v-21.83ZM45.42,1.75h21.83v21.83h-21.83V1.75Zm87.34,174.66h21.83v21.83h-21.83v-21.83ZM89.08,1.75h21.83v21.83h-21.83V1.75Zm43.67,0h21.83v21.83h-21.83V1.75Zm43.67,87.34h21.83v21.83h-21.83v-21.83ZM1.76,132.76h21.83v21.83H1.75v-21.83ZM176.42,45.42h21.83v21.83h-21.83v-21.83ZM1.75,89.09h21.83v21.83H1.75v-21.83Zm0-43.67h21.83v21.83H1.75v-21.83Z"/></svg>