<?xml version="1.0" encoding="UTF-8"?><svg id="Layer_1" xmlns="http://www.w3.org/2000/svg" xmlns:xlink="http://www.w3.org/1999/xlink" viewBox="0 0 200 200"><defs><style>.cls-1{fill:#fff;}.cls-2{fill:url(#linear-gradient);}</style><linearGradient id="linear-gradient" x1="76.26" y1="74.08" x2="124.09" y2="74.08" gradientUnits="userSpaceOnUse"><stop offset="0" stop-color="#0e90a2"/><stop offset=".32" stop-color="#19a574"/><stop offset="1" stop-color="#90c43c"/></linearGradient></defs><path class="cls-1" d="M165.52,68.38c0-8.7-1.73-17.31-5.09-25.33-3.36-8.02-8.29-15.29-14.49-21.39-6.2-6.1-13.56-10.9-21.63-14.12-8.08-3.23-16.72-4.81-25.41-4.66-16.69.5-32.59,7.26-44.52,18.95-11.93,11.69-19.02,27.44-19.86,44.12-.4,11.13,2.05,22.18,7.11,32.1,5.06,9.92,12.57,18.39,21.81,24.6,2.6,1.69,4.75,4.01,6.23,6.74,1.49,2.73,2.27,5.78,2.28,8.89v14.32h56.14v-14.32c0-3.1.77-6.15,2.24-8.88,1.47-2.73,3.59-5.05,6.18-6.75,8.91-5.98,16.22-14.05,21.27-23.52,5.06-9.46,7.71-20.02,7.73-30.75Z"/><path class="cls-1" d="M100.02,197.13c-11.57,0-23.03-3.82-32.28-10.76-3.1-2.33-3.73-6.72-1.4-9.83,2.33-3.1,6.72-3.73,9.83-1.4,6.84,5.13,15.31,7.95,23.86,7.95s17.02-2.82,23.86-7.95c3.1-2.33,7.5-1.7,9.83,1.4,2.33,3.1,1.7,7.5-1.4,9.83-9.25,6.94-20.72,10.76-32.28,10.76Z"/><path class="cls-2" d="M100.29,118.53c-1.23,0-2.48-.32-3.61-1.01-3.32-2-4.39-6.31-2.39-9.63l15.72-26.11s.05-.13.05-.21-.02-.16-.06-.24c-.04-.07-.1-.13-.17-.17-.07-.04-.15-.06-.24-.06h-18.71c-2.58.02-5.12-.65-7.35-1.93-2.25-1.3-4.11-3.17-5.39-5.43-1.28-2.26-1.93-4.82-1.88-7.41.05-2.58.78-5.1,2.13-7.29l15.51-25.98c1.99-3.33,6.3-4.42,9.62-2.43,3.33,1.99,4.41,6.3,2.43,9.62l-15.53,26.01s-.04.06-.05.09c-.04.07-.07.15-.07.23,0,.08.02.17.06.24.04.07.1.13.17.18.07.04.16.06.24.06.03,0,.05,0,.08,0h18.77c2.52,0,5.03.67,7.24,1.95,2.22,1.29,4.07,3.14,5.34,5.37,1.27,2.23,1.93,4.76,1.9,7.33-.03,2.57-.73,5.09-2.05,7.29l-15.73,26.13c-1.32,2.19-3.64,3.4-6.02,3.4Z"/></svg>