<?xml version="1.0" encoding="UTF-8"?><svg id="Layer_1" xmlns="http://www.w3.org/2000/svg" xmlns:xlink="http://www.w3.org/1999/xlink" viewBox="0 0 200 200"><defs><style>.cls-1{fill:url(#linear-gradient);}.cls-1,.cls-2{fill-rule:evenodd;stroke-width:0px;}.cls-2{fill:url(#linear-gradient-2);}</style><linearGradient id="linear-gradient" x1="2.2" y1="173.26" x2="197.8" y2="173.26" gradientUnits="userSpaceOnUse"><stop offset="0" stop-color="#0e90a2"/><stop offset=".32" stop-color="#19a574"/><stop offset="1" stop-color="#90c43c"/></linearGradient><linearGradient id="linear-gradient-2" x1="18.12" y1="87.55" x2="181.88" y2="87.55" xlink:href="#linear-gradient"/></defs><path class="cls-1" d="m2.2,173.26c0-3.73,3.05-6.76,6.82-6.76h181.96c3.77,0,6.82,3.03,6.82,6.76s-3.05,6.76-6.82,6.76H9.02c-3.77,0-6.82-3.03-6.82-6.76Z"/><path class="cls-2" d="m173.89,27.9c-7.99-7.92-20.86-7.92-46.59-7.92h-54.59c-25.73,0-38.6,0-46.59,7.92-7.99,7.92-7.99,20.66-7.99,46.14v45.05c0,16.99,0,25.48,5.33,30.76,5.33,5.28,13.91,5.28,31.06,5.28h90.98c17.15,0,25.73,0,31.06-5.28,5.33-5.28,5.33-13.77,5.33-30.76v-45.05c0-25.48,0-38.22-7.99-46.14Zm-108.33,21.26c.16,0,.31.03.47.05l18.93-11.98c-.04-.24-.07-.48-.07-.72,0-2.58,2.09-4.67,4.67-4.67,2.43,0,4.4,1.86,4.62,4.23l18.97,7.97,3.65,30.03c1.93.57,3.35,2.34,3.35,4.46,0,1.03-.35,1.98-.91,2.75l18.05,19.18c2.47.12,4.44,2.14,4.44,4.64s-2.09,4.67-4.67,4.67-4.67-2.09-4.67-4.67c0-1.07.37-2.04.98-2.83l-10.7-11.38v48.3h-18.74v-48.49h18.55l-7.07-7.51c-2.54-.04-4.6-2.11-4.6-4.66,0-1.55.77-2.92,1.94-3.77l-3.39-27.86-16.64-6.99c-.83.78-1.95,1.27-3.18,1.27-.81,0-1.56-.23-2.23-.59l-17.61,11.15c.32.63.52,1.34.52,2.1,0,2.58-2.09,4.67-4.67,4.67s-4.67-2.09-4.67-4.67,2.09-4.67,4.67-4.67Zm79.75,65.82v24.21h-18.74v-24.21h18.74Zm-46.4-67.22v91.43h-18.74V47.75h18.74Zm-42.82,17.78h18.92v73.65h-18.92v-73.65Zm94.13,77.74H55.92v-2.26h94.31v2.26Z"/></svg>