<?xml version="1.0" encoding="UTF-8"?><svg id="Layer_1" xmlns="http://www.w3.org/2000/svg" xmlns:xlink="http://www.w3.org/1999/xlink" viewBox="0 0 200 200"><defs><style>.cls-1{fill:url(#linear-gradient);}.cls-1,.cls-2,.cls-3,.cls-4{stroke-width:0px;}.cls-2{fill:url(#linear-gradient-3);}.cls-2,.cls-3,.cls-4{fill-rule:evenodd;}.cls-3{fill:url(#linear-gradient-2);}.cls-4{fill:url(#linear-gradient-4);}</style><linearGradient id="linear-gradient" x1="46.04" y1="181.4" x2="153.97" y2="18.59" gradientUnits="userSpaceOnUse"><stop offset="0" stop-color="#0e90a2"/><stop offset=".32" stop-color="#19a574"/><stop offset="1" stop-color="#90c43c"/></linearGradient><linearGradient id="linear-gradient-2" x1="68.82" y1="100.88" x2="126.66" y2="100.88" xlink:href="#linear-gradient"/><linearGradient id="linear-gradient-3" x1="473.79" y1="906.53" x2="498.12" y2="906.53" gradientTransform="translate(567.85 991.22) rotate(-180)" xlink:href="#linear-gradient"/><linearGradient id="linear-gradient-4" x1="436.67" y1="874.43" x2="471.04" y2="874.43" gradientTransform="translate(567.85 991.22) rotate(-180)" xlink:href="#linear-gradient"/></defs><path class="cls-1" d="m195.01,85.16h-9.79c-.96,0-1.76-.68-1.94-1.62-2.2-11.22-6.6-21.64-12.74-30.8-.53-.8-.44-1.84.24-2.52l6.89-6.91c.78-.78.78-2.05,0-2.83l-18.13-18.14c-.78-.78-2.06-.78-2.85,0l-6.91,6.89c-.68.68-1.72.78-2.52.24-9.16-6.14-19.58-10.54-30.8-12.74-.94-.19-1.62-.99-1.62-1.94V4.99c0-1.11-.9-2.01-2.01-2.01h-25.66c-1.11,0-2.01.9-2.01,2.01v9.79c0,.96-.68,1.76-1.62,1.94-11.22,2.2-21.64,6.6-30.8,12.74-.8.55-1.84.44-2.52-.24l-6.91-6.89c-.78-.78-2.05-.78-2.83,0l-18.14,18.14c-.78.78-.78,2.05,0,2.83l6.91,6.91c.66.68.77,1.72.22,2.52-6.14,9.16-10.52,19.58-12.74,30.8-.17.94-.99,1.62-1.94,1.62H4.99c-1.11,0-2.01.9-2.01,2.01v25.66c0,1.11.9,2.01,2.01,2.01h9.79c.95,0,1.77.68,1.94,1.62,2.22,11.22,6.6,21.64,12.74,30.8.55.8.44,1.84-.22,2.52l-6.91,6.91c-.78.78-.78,2.05,0,2.83l18.14,18.14c.78.78,2.05.78,2.83,0l6.91-6.91c.68-.67,1.72-.77,2.52-.22,9.16,6.14,19.58,10.54,30.8,12.74.94.17,1.62.99,1.62,1.94v9.79c0,1.11.9,2.01,2.01,2.01h25.66c1.11,0,2.01-.9,2.01-2.01v-9.79c0-.95.68-1.77,1.62-1.94,11.22-2.2,21.64-6.6,30.8-12.74.8-.55,1.84-.44,2.52.22l6.91,6.91c.78.78,2.06.78,2.85,0l18.13-18.14c.78-.78.78-2.05,0-2.83l-6.89-6.91c-.68-.68-.77-1.72-.24-2.52,6.16-9.16,10.54-19.58,12.74-30.8.19-.94.99-1.62,1.94-1.62h9.79c1.11,0,2.01-.9,2.01-2.01v-25.66c0-1.11-.9-2.01-2.01-2.01Zm-95,63.03c-26.62,0-48.19-21.57-48.19-48.19s21.57-48.17,48.19-48.17,48.17,21.57,48.17,48.17-21.57,48.19-48.17,48.19Z"/><path class="cls-3" d="m93.93,112.41l15.1-15.12c4.62,1.69,10.01.71,13.72-3.01,2.52-2.53,3.71-5.54,3.92-9.06l-2.45,2.51-8,2.67-8.2-8.16,2.8-7.86,2.43-2.42c-3.42.28-6.5,1.3-8.99,3.79-3.68,3.69-4.67,9.02-3.04,13.63l-14.99,15.03c-4.58-1.65-9.89-.42-13.61,3.3-5.1,5.12-5.01,13.33,0,18.36,5.01,5.03,13.21,4.95,18.31-.16,3.62-3.63,4.45-9,3-13.5h0Zm-18.98,11.21c-3.53-3.53-3.53-9.25,0-12.78,3.53-3.53,9.25-3.53,12.78,0s3.53,9.25,0,12.78c-3.53,3.53-9.26,3.53-12.78,0h0Z"/><path class="cls-2" d="m94.06,94.64l-7.88-7.88-2.45-7.19-11.78-7.04-2.22,2.22,7.19,11.93,7.03,2.3,7.89,7.88"/><path class="cls-4" d="m99.55,114.85l4.02-4.05c-.6,1.5-.41,3.15.66,4.23l17.73,17.94c1.49,1.5,4.1,1.31,5.83-.44l1.96-1.98c1.73-1.76,1.92-4.4.43-5.9l-17.72-17.94c-1.06-1.08-2.69-1.27-4.17-.66l3.64-3.67-2.75-2.77-12.37,12.48,2.74,2.77h0Z"/></svg>