<?xml version="1.0" encoding="UTF-8"?><svg id="Layer_1" xmlns="http://www.w3.org/2000/svg" xmlns:xlink="http://www.w3.org/1999/xlink" viewBox="0 0 200 200"><defs><style>.cls-1{fill:url(#linear-gradient);stroke-width:0px;}</style><linearGradient id="linear-gradient" x1="20.86" y1="100" x2="179.14" y2="100" gradientUnits="userSpaceOnUse"><stop offset="0" stop-color="#0e90a2"/><stop offset=".32" stop-color="#19a574"/><stop offset="1" stop-color="#90c43c"/></linearGradient></defs><g id="icons_Q2"><path class="cls-1" d="m100,3.27S20.86,25.69,20.86,29.65v80.02c0,40.45,58.47,76.06,74.74,85.73,2.66,1.78,6.13,1.78,8.79,0,16.71-9.23,74.74-45.28,74.74-85.73V29.65c0-3.96-79.14-26.38-79.14-26.38Zm41.33,72.1l-48.36,48.36c-3.12,3.4-8.4,3.63-11.8.51-.18-.16-.35-.33-.51-.51l-21.54-21.54c-3.27-3.07-3.99-7.98-1.76-11.87,2.81-3.96,8.3-4.89,12.26-2.08.5.35.96.76,1.37,1.2l15.83,15.83,42.21-42.21c3.89-2.91,9.4-2.13,12.31,1.76,2.34,3.13,2.34,7.43,0,10.55Z"/></g></svg>