<?xml version="1.0" encoding="UTF-8"?><svg id="Layer_1" xmlns="http://www.w3.org/2000/svg" xmlns:xlink="http://www.w3.org/1999/xlink" viewBox="0 0 200 200"><defs><style>.cls-1{fill:url(#linear-gradient);}</style><linearGradient id="linear-gradient" x1="7.08" y1="100" x2="192.92" y2="100" gradientUnits="userSpaceOnUse"><stop offset="0" stop-color="#0e90a2"/><stop offset=".32" stop-color="#19a574"/><stop offset="1" stop-color="#90c43c"/></linearGradient></defs><path class="cls-1" d="M100,174.34c41.05,0,74.34-33.28,74.34-74.34S141.05,25.66,100,25.66,25.66,58.95,25.66,100s33.28,74.34,74.34,74.34ZM100,192.92c-51.32,0-92.92-41.6-92.92-92.92S48.68,7.08,100,7.08s92.92,41.6,92.92,92.92-41.6,92.92-92.92,92.92ZM100,137.17c20.53,0,37.17-16.64,37.17-37.17s-16.64-37.17-37.17-37.17-37.17,16.64-37.17,37.17,16.64,37.17,37.17,37.17ZM100,155.75c-30.79,0-55.75-24.96-55.75-55.75s24.96-55.75,55.75-55.75,55.75,24.96,55.75,55.75-24.96,55.75-55.75,55.75ZM100,118.58c-10.26,0-18.58-8.32-18.58-18.58s8.32-18.58,18.58-18.58,18.58,8.32,18.58,18.58-8.32,18.58-18.58,18.58Z"/></svg>