<?xml version="1.0" encoding="UTF-8"?><svg id="Layer_1" xmlns="http://www.w3.org/2000/svg" viewBox="0 0 200 200"><defs><style>.cls-1{fill:#fff;}</style></defs><path class="cls-1" d="M192.57,111.94c5.4,4.94,5.07,13.77-.13,18.96l-44.62,44.62c-3.17,3.17-7.48,4.96-11.97,4.96H56.98c-7.49,0-11.28,4.02-16.9,9.83-1.87,1.93-4.57,2.9-7.23,2.55-16.56-2.18-29.33-16.34-29.33-33.49v-17.62c0-2.24.89-4.39,2.47-5.97l13.68-13.68c3.17-3.17,7.48-4.96,11.97-4.96h23.98c13.81,0,12.84,12.67,26.69,12.67h30.99c6.63,0,12.67,5.36,12.67,12.67,0,6.93-5.53,12.67-12.67,12.67h-54.89c0,4.64,3.8,8.45,8.45,8.45h50.09c4.48,0,8.78-1.78,11.94-4.95l46.23-46.23c2.45-2.45,5.7-3.72,8.95-3.72,3.04,0,6.08,1.1,8.49,3.25Z"/><path class="cls-1" d="M60.74,64.91c7.53,6.91,22.21,5.21,27.19,6,5.21,7.59,5.55,9.12,7.25,12.29l1.76-9.8c-2.1-2.49-4.82-4.53-8.67-8.38-2.38-5.61-5.1-16.32-10.88-21.64-9.29-8.33-23.4-5.61-24.64-5.95-1.25-.34-1.3,19.15,7.99,27.48h0Z"/><path class="cls-1" d="M117.79,95.05c0-.44-.36-.79-.79-.79h-11.67c-.41.04-.76-.26-.8-.67,0-.06,0-.12,0-.18,1.13-8.44,1.98-17.96,4.25-27.98,1.02-4.53,3.06-9.23,5.38-12.07.23-.29.63-.39.96-.23,8.1,4.02,19.03,1.13,25.95-7.48,6.91-8.61,6.85-31.72,6.74-37.79,0-.44-.36-.79-.8-.79-.14,0-.27.04-.39.11-4.2,2.72-8.9,4.59-13.82,5.5-8.84,1.81-16.94,3.91-21.3,9.29-6.29,7.87-7.25,18.01-3,25.04.24.37.73.47,1.1.23.11-.07.2-.17.26-.28,3.06-5.61,9.57-11.22,14.84-15.13.37-.23.86-.11,1.09.26.18.29.15.67-.07.93-8.55,8.04-16.82,15.35-21.92,30.76-2.1,6.4-2.83,9.01-4.76,20.22,0,0-.57,3.17-.74,4.02l-1.02,5.66c-.08.35-.38.61-.74.62h-19.71c-.44,0-.79.36-.79.79.55,11.1,9.73,19.81,20.85,19.77,11.27-.06,20.45-8.84,20.9-19.83h0Z"/></svg>