<?xml version="1.0" encoding="UTF-8"?><svg id="Layer_1" xmlns="http://www.w3.org/2000/svg" xmlns:xlink="http://www.w3.org/1999/xlink" viewBox="0 0 200 200"><defs><style>.cls-1{fill:url(#linear-gradient);}.cls-1,.cls-2,.cls-3,.cls-4,.cls-5,.cls-6,.cls-7,.cls-8,.cls-9,.cls-10{stroke-width:0px;}.cls-2{fill:url(#linear-gradient-6);}.cls-3{fill:url(#linear-gradient-5);}.cls-4{fill:url(#linear-gradient-2);}.cls-5{fill:url(#linear-gradient-7);}.cls-6{fill:url(#linear-gradient-3);}.cls-7{fill:url(#linear-gradient-9);}.cls-8{fill:url(#linear-gradient-8);}.cls-9{fill:url(#linear-gradient-10);}.cls-10{fill:url(#linear-gradient-4);}</style><linearGradient id="linear-gradient" x1="29.26" y1="195.26" x2="170.74" y2="195.26" gradientUnits="userSpaceOnUse"><stop offset="0" stop-color="#0e90a2"/><stop offset=".32" stop-color="#19a574"/><stop offset="1" stop-color="#90c43c"/></linearGradient><linearGradient id="linear-gradient-2" x1="29.53" y1="120.56" x2="57.91" y2="120.56" xlink:href="#linear-gradient"/><linearGradient id="linear-gradient-3" x1="65.65" y1="133.64" x2="93.76" y2="133.64" xlink:href="#linear-gradient"/><linearGradient id="linear-gradient-4" x1="101.29" y1="157.69" x2="129.4" y2="157.69" xlink:href="#linear-gradient"/><linearGradient id="linear-gradient-5" x1="135.26" y1="166.97" x2="163.37" y2="166.97" xlink:href="#linear-gradient"/><linearGradient id="linear-gradient-6" x1="112.18" y1="28.42" x2="123.78" y2="28.42" xlink:href="#linear-gradient"/><linearGradient id="linear-gradient-7" x1="93.76" y1="28.43" x2="142.22" y2="28.43" xlink:href="#linear-gradient"/><linearGradient id="linear-gradient-8" x1="129.83" y1="64.68" x2="135.64" y2="64.68" xlink:href="#linear-gradient"/><linearGradient id="linear-gradient-9" x1="120.63" y1="64.68" x2="144.86" y2="64.68" xlink:href="#linear-gradient"/><linearGradient id="linear-gradient-10" x1="56.82" y1="77.58" x2="166.95" y2="77.58" xlink:href="#linear-gradient"/></defs><g id="Group_15946"><rect id="Rectangle_648" class="cls-1" x="29.26" y="193.15" width="141.48" height="4.24"/><rect id="Rectangle_649" class="cls-4" x="29.53" y="51.43" width="28.38" height="138.27"/><rect id="Rectangle_650" class="cls-6" x="65.65" y="77.58" width="28.11" height="112.11"/><rect id="Rectangle_651" class="cls-10" x="101.29" y="125.69" width="28.11" height="64"/><rect id="Rectangle_652" class="cls-3" x="135.26" y="144.24" width="28.11" height="45.45"/></g><circle class="cls-2" cx="117.98" cy="28.42" r="5.8"/><path class="cls-5" d="m139.73,32.44c-4.07-2.29-4.11-6.11-.08-8.48,2.31-1.36,3.09-4.39,1.71-6.71l-2.64-4.42c-1.18-2.06-3.83-2.72-5.88-1.54l-.49.29c-4.03,2.38-7.36.5-7.39-4.16v-.57c-.06-2.37-2-4.29-4.37-4.23l-5.14.04c-2.7.02-4.88,2.25-4.85,4.94.06,4.68-3.23,6.62-7.29,4.33-2.36-1.33-5.36-.47-6.68,1.87l-2.23,3.96c-1.32,2.34-.49,5.35,1.87,6.68,4.07,2.29,4.11,6.11.08,8.48-2.31,1.36-3.09,4.39-1.71,6.71l2.64,4.42c1.18,2.06,3.83,2.72,5.88,1.54l.49-.29c4.03-2.38,7.36-.5,7.39,4.16v.57c.06,2.37,2,4.29,4.37,4.23l5.14-.04c2.7-.02,4.87-2.23,4.85-4.94-.06-4.68,3.23-6.62,7.29-4.33,2.36,1.33,5.36.47,6.68-1.87l2.23-3.96c1.33-2.36.47-5.36-1.87-6.68Zm-26.5,4.41c-4.65-2.62-6.3-8.53-3.68-13.18s8.53-6.3,13.18-3.68c4.65,2.62,6.3,8.53,3.68,13.18-2.62,4.65-8.53,6.3-13.18,3.68Z"/><circle class="cls-8" cx="132.73" cy="64.68" r="2.9"/><path class="cls-7" d="m143.61,66.68c-2.03-1.15-2.06-3.05-.04-4.24,1.15-.68,1.55-2.19.85-3.35l-1.32-2.21c-.59-1.03-1.91-1.36-2.94-.77l-.24.14c-2.02,1.19-3.68.25-3.7-2.08v-.28c-.03-1.19-1-2.15-2.19-2.12l-2.57.02c-1.35,0-2.44,1.13-2.43,2.47.03,2.34-1.61,3.31-3.65,2.16-1.18-.66-2.68-.24-3.34.93l-1.11,1.98c-.66,1.17-.25,2.67.93,3.34,2.03,1.15,2.06,3.05.04,4.24-1.15.68-1.55,2.19-.85,3.35l1.32,2.21c.59,1.03,1.91,1.36,2.94.77l.24-.14c2.02-1.19,3.68-.25,3.7,2.08v.28c.03,1.19,1,2.15,2.19,2.12l2.57-.02c1.35,0,2.43-1.12,2.43-2.47-.03-2.34,1.61-3.31,3.65-2.16,1.18.66,2.68.24,3.34-.93l1.11-1.98c.66-1.18.24-2.68-.93-3.34Zm-13.25,2.21c-2.32-1.31-3.15-4.26-1.84-6.59s4.26-3.15,6.59-1.84c2.32,1.31,3.15,4.26,1.84,6.59-1.31,2.32-4.26,3.15-6.59,1.84Z"/><path class="cls-9" d="m166.95,104.34v25.87c0,1.48-1.21,2.69-2.69,2.69h-25.87c-1.48,0-2.69-1.21-2.69-2.69s1.21-2.69,2.69-2.69h18.54L57.57,26.73c-1.01-1.02-1.01-2.67,0-3.69s2.64-1.02,3.65,0l100.35,101.8v-20.5c0-1.49,1.2-2.69,2.69-2.69s2.69,1.2,2.69,2.69Z"/></svg>