<?xml version="1.0" encoding="UTF-8"?><svg id="Layer_1" xmlns="http://www.w3.org/2000/svg" xmlns:xlink="http://www.w3.org/1999/xlink" viewBox="0 0 200 200"><defs><style>.cls-1{fill:#fff;}.cls-1,.cls-2,.cls-3,.cls-4{stroke-width:0px;}.cls-2{fill:url(#linear-gradient-2);}.cls-3{fill:url(#linear-gradient-3);}.cls-5{stroke:url(#linear-gradient);}.cls-5,.cls-6{fill:none;stroke-miterlimit:10;stroke-width:9px;}.cls-6{stroke:#fff;}.cls-4{fill:url(#linear-gradient-4);}</style><linearGradient id="linear-gradient" x1="22.62" y1="110.86" x2="177.38" y2="110.86" gradientUnits="userSpaceOnUse"><stop offset="0" stop-color="#0e90a2"/><stop offset=".32" stop-color="#19a574"/><stop offset="1" stop-color="#90c43c"/></linearGradient><linearGradient id="linear-gradient-2" x1="71.64" y1="37.98" x2="128.36" y2="37.98" xlink:href="#linear-gradient"/><linearGradient id="linear-gradient-3" x1="4.29" y1="162.02" x2="61.02" y2="162.02" xlink:href="#linear-gradient"/><linearGradient id="linear-gradient-4" x1="138.98" y1="162.01" x2="195.71" y2="162.01" xlink:href="#linear-gradient"/></defs><circle class="cls-6" cx="100" cy="110.86" r="72.88"/><path class="cls-1" d="m100,9.62c15.66,0,28.36,12.7,28.36,28.36s-12.7,28.36-28.36,28.36-28.36-12.69-28.36-28.35c.02-15.66,12.7-28.35,28.36-28.36h0Z"/><path class="cls-1" d="m32.65,190.38c-15.66,0-28.36-12.7-28.36-28.36,0-15.66,12.7-28.36,28.36-28.36s28.36,12.69,28.36,28.35c-.02,15.66-12.7,28.35-28.36,28.36h0Z"/><path class="cls-1" d="m167.35,190.37c-15.66,0-28.36-12.7-28.36-28.36s12.7-28.36,28.36-28.36,28.36,12.7,28.36,28.36c-.02,15.66-12.7,28.35-28.36,28.36Z"/><circle class="cls-5" cx="100" cy="110.86" r="72.88"/><path class="cls-2" d="m100,9.62c15.66,0,28.36,12.7,28.36,28.36s-12.7,28.36-28.36,28.36-28.36-12.69-28.36-28.35c.02-15.66,12.7-28.35,28.36-28.36h0Z"/><path class="cls-3" d="m32.65,190.38c-15.66,0-28.36-12.7-28.36-28.36,0-15.66,12.7-28.36,28.36-28.36s28.36,12.69,28.36,28.35c-.02,15.66-12.7,28.35-28.36,28.36h0Z"/><path class="cls-4" d="m167.35,190.37c-15.66,0-28.36-12.7-28.36-28.36s12.7-28.36,28.36-28.36,28.36,12.7,28.36,28.36c-.02,15.66-12.7,28.35-28.36,28.36Z"/></svg>