<?xml version="1.0" encoding="UTF-8"?><svg id="Layer_1" xmlns="http://www.w3.org/2000/svg" viewBox="0 0 200 200"><defs><style>.cls-1{fill:#fff;stroke-width:0px;}</style></defs><path class="cls-1" d="m192.88,85.49h-9.57c-.94,0-1.72-.67-1.9-1.58-2.15-10.97-6.44-21.16-12.45-30.12-.52-.78-.43-1.8.23-2.46l6.75-6.75c.77-.77.77-2.01,0-2.78l-17.74-17.74c-.77-.77-2.01-.77-2.78,0l-6.75,6.75c-.66.66-1.69.75-2.47.23-8.96-6.01-19.15-10.3-30.12-12.45-.92-.18-1.59-.97-1.59-1.9V7.11c0-1.09-.88-1.97-1.97-1.97h-25.08c-1.09,0-1.97.88-1.97,1.97v9.57c0,.94-.67,1.72-1.59,1.9-10.97,2.15-21.16,6.44-30.11,12.45-.78.52-1.8.43-2.47-.23l-6.75-6.75c-.77-.77-2.01-.77-2.78,0l-17.74,17.74c-.77.77-.77,2.01,0,2.78l6.75,6.75c.66.66.75,1.69.23,2.46-6.01,8.96-10.3,19.15-12.45,30.12-.18.92-.97,1.58-1.9,1.58H7.12c-1.09,0-1.97.88-1.97,1.97v25.08c0,1.09.88,1.97,1.97,1.97h9.57c.94,0,1.72.67,1.9,1.58,2.15,10.97,6.44,21.16,12.45,30.12.52.78.43,1.8-.23,2.46l-6.75,6.75c-.77.77-.77,2.01,0,2.78l17.74,17.74c.77.77,2.01.77,2.78,0l6.75-6.75c.66-.66,1.69-.75,2.47-.23,8.96,6.01,19.15,10.3,30.12,12.45.92.18,1.59.97,1.59,1.9v9.57c0,1.09.88,1.97,1.97,1.97h25.08c1.09,0,1.97-.88,1.97-1.97v-9.57c0-.94.67-1.72,1.59-1.9,10.97-2.15,21.16-6.44,30.12-12.45.78-.52,1.8-.43,2.47.23l6.75,6.75c.77.77,2.01.77,2.78,0l17.74-17.74c.77-.77.77-2.01,0-2.78l-6.75-6.75c-.66-.66-.75-1.69-.23-2.46,6.01-8.96,10.3-19.15,12.45-30.12.18-.92.97-1.58,1.9-1.58h9.57c1.09,0,1.97-.88,1.97-1.97v-25.08c0-1.09-.88-1.97-1.97-1.97Zm-51.03,20.01c-2.39,18.79-17.56,33.96-36.35,36.35-27.57,3.5-50.85-19.78-47.35-47.35,2.39-18.79,17.56-33.96,36.35-36.35,27.57-3.5,50.85,19.78,47.35,47.35Z"/></svg>