<?xml version="1.0" encoding="UTF-8"?><svg id="Layer_1" xmlns="http://www.w3.org/2000/svg" xmlns:xlink="http://www.w3.org/1999/xlink" viewBox="0 0 200 200"><defs><style>.cls-1{fill:url(#linear-gradient);}.cls-1,.cls-2,.cls-3{stroke-width:0px;}.cls-2{fill:url(#linear-gradient-2);}.cls-3{fill:url(#linear-gradient-3);}</style><linearGradient id="linear-gradient" x1="3" y1="151.61" x2="197" y2="151.61" gradientUnits="userSpaceOnUse"><stop offset="0" stop-color="#0e90a2"/><stop offset=".32" stop-color="#19a574"/><stop offset="1" stop-color="#90c43c"/></linearGradient><linearGradient id="linear-gradient-2" x1="87.88" y1="101.07" x2="129.34" y2="38.53" xlink:href="#linear-gradient"/><linearGradient id="linear-gradient-3" x1="132.55" y1="36.54" x2="150.99" y2="8.71" xlink:href="#linear-gradient"/></defs><path class="cls-1" d="m193.06,112.54c5.43,4.97,5.09,13.84-.13,19.06l-44.86,44.86c-3.19,3.19-7.52,4.98-12.03,4.98H56.75c-7.53,0-11.34,4.04-16.99,9.88-1.88,1.94-4.59,2.91-7.27,2.56-16.65-2.19-29.48-16.42-29.48-33.67v-17.71c0-2.25.89-4.41,2.49-6l13.76-13.76c3.19-3.19,7.52-4.98,12.03-4.98h24.11c13.88,0,12.91,12.74,26.83,12.74h31.16c6.66,0,12.74,5.39,12.74,12.74,0,6.96-5.56,12.74-12.74,12.74h-55.19c0,4.67,3.82,8.49,8.49,8.49h50.36c4.5,0,8.82-1.79,12.01-4.97l46.48-46.48c2.46-2.46,5.73-3.74,9-3.74,3.06,0,6.11,1.1,8.53,3.27Z"/><path class="cls-2" d="m145.1,64.1h-3.76c-.37,0-.68-.26-.75-.62-.85-4.31-2.53-8.31-4.89-11.83-.2-.3-.17-.71.09-.97l2.65-2.65c.3-.3.3-.79,0-1.09l-6.97-6.97c-.3-.3-.79-.3-1.09,0l-2.65,2.65c-.26.26-.66.29-.97.09-3.52-2.36-7.52-4.05-11.83-4.89-.36-.07-.62-.38-.62-.75v-3.76c0-.43-.35-.77-.77-.77h-9.85c-.43,0-.77.35-.77.77v3.76c0,.37-.26.68-.62.75-4.31.85-8.31,2.53-11.83,4.89-.31.2-.71.17-.97-.09l-2.65-2.65c-.3-.3-.79-.3-1.09,0l-6.97,6.97c-.3.3-.3.79,0,1.09l2.65,2.65c.26.26.29.66.09.97-2.36,3.52-4.05,7.52-4.89,11.83-.07.36-.38.62-.75.62h-3.76c-.43,0-.77.35-.77.77v9.85c0,.43.35.77.77.77h3.76c.37,0,.68.26.75.62.85,4.31,2.53,8.31,4.89,11.83.2.3.17.71-.09.97l-2.65,2.65c-.3.3-.3.79,0,1.09l6.97,6.97c.3.3.79.3,1.09,0l2.65-2.65c.26-.26.66-.29.97-.09,3.52,2.36,7.52,4.05,11.83,4.89.36.07.62.38.62.75v3.76c0,.43.35.77.77.77h9.85c.43,0,.77-.35.77-.77v-3.76c0-.37.26-.68.62-.75,4.31-.85,8.31-2.53,11.83-4.89.31-.2.71-.17.97.09l2.65,2.65c.3.3.79.3,1.09,0l6.97-6.97c.3-.3.3-.79,0-1.09l-2.65-2.65c-.26-.26-.29-.66-.09-.97,2.36-3.52,4.05-7.52,4.89-11.83.07-.36.38-.62.75-.62h3.76c.43,0,.77-.35.77-.77v-9.85c0-.43-.35-.77-.77-.77Zm-20.05,7.86c-.94,7.38-6.9,13.34-14.28,14.28-10.83,1.38-19.98-7.77-18.6-18.6.94-7.38,6.9-13.34,14.28-14.28,10.83-1.38,19.98,7.77,18.6,18.6Z"/><path class="cls-3" d="m158.01,20.09h-1.67c-.16,0-.3-.12-.33-.28-.38-1.92-1.13-3.7-2.18-5.26-.09-.14-.08-.32.04-.43l1.18-1.18c.13-.13.13-.35,0-.49l-3.1-3.1c-.13-.13-.35-.13-.49,0l-1.18,1.18c-.12.12-.3.13-.43.04-1.57-1.05-3.35-1.8-5.26-2.18-.16-.03-.28-.17-.28-.33v-1.67c0-.19-.15-.34-.34-.34h-4.38c-.19,0-.34.15-.34.34v1.67c0,.16-.12.3-.28.33-1.92.38-3.7,1.13-5.26,2.18-.14.09-.32.08-.43-.04l-1.18-1.18c-.13-.13-.35-.13-.49,0l-3.1,3.1c-.13.13-.13.35,0,.49l1.18,1.18c.12.12.13.3.04.43-1.05,1.57-1.8,3.35-2.18,5.26-.03.16-.17.28-.33.28h-1.67c-.19,0-.34.15-.34.34v4.38c0,.19.15.34.34.34h1.67c.16,0,.3.12.33.28.38,1.92,1.13,3.7,2.18,5.26.09.14.08.32-.04.43l-1.18,1.18c-.13.13-.13.35,0,.49l3.1,3.1c.13.13.35.13.49,0l1.18-1.18c.12-.12.3-.13.43-.04,1.57,1.05,3.35,1.8,5.26,2.18.16.03.28.17.28.33v1.67c0,.19.15.34.34.34h4.38c.19,0,.34-.15.34-.34v-1.67c0-.16.12-.3.28-.33,1.92-.38,3.7-1.13,5.26-2.18.14-.09.32-.08.43.04l1.18,1.18c.13.13.35.13.49,0l3.1-3.1c.13-.13.13-.35,0-.49l-1.18-1.18c-.12-.12-.13-.3-.04-.43,1.05-1.57,1.8-3.35,2.18-5.26.03-.16.17-.28.33-.28h1.67c.19,0,.34-.15.34-.34v-4.38c0-.19-.15-.34-.34-.34Zm-8.92,3.5c-.42,3.28-3.07,5.94-6.35,6.35-4.82.61-8.89-3.46-8.28-8.28.42-3.28,3.07-5.94,6.35-6.35,4.82-.61,8.89,3.46,8.28,8.28Z"/></svg>