<?xml version="1.0" encoding="UTF-8"?><svg id="Layer_1" xmlns="http://www.w3.org/2000/svg" xmlns:xlink="http://www.w3.org/1999/xlink" viewBox="0 0 200 200"><defs><style>.cls-1{fill:url(#linear-gradient);stroke-width:0px;}</style><linearGradient id="linear-gradient" x1="3.86" y1="100" x2="196.81" y2="100" gradientUnits="userSpaceOnUse"><stop offset="0" stop-color="#0e90a2"/><stop offset=".32" stop-color="#19a574"/><stop offset="1" stop-color="#90c43c"/></linearGradient></defs><path class="cls-1" d="m115.57,59.38h-15.33c-6.4,0-12.69,3.05-16.15,7.11l-9.14-27.42h-29.15l-24.27,71.09h17.16l7.51-20.31h28.74v40.62H24.17c-11.17,0-20.31-9.14-20.31-20.31V39.07c0-11.17,9.14-20.31,20.31-20.31h71.09c11.17,0,20.31,9.14,20.31,20.31v20.31Zm-45.6,20.31h-20.51l10.16-29.76,10.36,29.76Zm35.44-10.16h71.09c11.17,0,20.31,9.14,20.31,20.31v71.09c0,11.17-9.14,20.31-20.31,20.31h-71.09c-11.17,0-20.31-9.14-20.31-20.31v-71.09c0-11.17,9.14-20.31,20.31-20.31Zm73.63,50.78v-10.97h-32.19v-22.04h-11.78v22.04h-32.19v10.97h13c1.12,8.63,5.69,18.79,13,26.61-8.84,3.66-19.19,6.3-23.46,6.3-.1.2,2.23,9.85,2.03,14.83,8.53,0,22.44-5.08,33.31-11.68,11.07,6.6,25.19,11.68,33.92,11.68-.2-4.98,2.03-14.62,2.03-14.83-4.37,0-15.13-2.74-24.17-6.4,7.11-7.82,11.58-17.97,12.69-26.51h13.81Zm-38.69,19.6c-5.08-4.67-8.63-11.48-10.26-19.6h21.22c-1.73,8.12-5.18,14.93-10.16,19.6l-.41.3s-.3-.2-.41-.3Z"/></svg>