<?xml version="1.0" encoding="UTF-8"?><svg id="Layer_1" xmlns="http://www.w3.org/2000/svg" xmlns:xlink="http://www.w3.org/1999/xlink" viewBox="0 0 200 200"><defs><style>.cls-1{fill:url(#linear-gradient);stroke-width:0px;}</style><linearGradient id="linear-gradient" x1="3.11" y1="101.2" x2="196.89" y2="101.2" gradientUnits="userSpaceOnUse"><stop offset="0" stop-color="#0e90a2"/><stop offset=".32" stop-color="#19a574"/><stop offset="1" stop-color="#90c43c"/></linearGradient></defs><path class="cls-1" d="m196.5,38.63c-.2-3.18-2.55-5.81-5.69-6.38-37.42-6.71-53.04-11.57-87.96-27.34-1.81-.82-3.89-.82-5.7,0C62.23,20.69,46.61,25.54,9.19,32.26c-3.14.56-5.49,3.19-5.69,6.38-1.67,26.43,1.89,51.07,10.57,73.21,7.11,18.06,17.63,34.59,30.99,48.67,23.13,24.54,47.69,35.2,52.37,37.09,1.66.67,3.53.67,5.19,0,4.68-1.89,29.24-12.54,52.37-37.09,13.34-14.09,23.84-30.61,30.93-48.67,8.68-22.14,12.23-46.77,10.57-73.21Zm-56.67,32.49l-47.93,55.37c-1.25,1.44-3.03,2.31-4.94,2.39h-.29c-1.81,0-3.55-.71-4.84-1.98l-21.28-20.85c-2.73-2.68-2.78-7.06-.1-9.79,2.68-2.73,7.06-2.78,9.79-.1h0l16.01,15.7,43.13-49.8c2.5-2.89,6.87-3.21,9.76-.71s3.21,6.87.71,9.76h-.01Z"/></svg>