<?xml version="1.0" encoding="UTF-8"?><svg id="Layer_1" xmlns="http://www.w3.org/2000/svg" viewBox="0 0 200 200"><defs><style>.cls-1{fill:#fff;stroke-width:0px;}</style></defs><polygon class="cls-1" points="18.43 144.66 4.16 144.66 4.16 195.84 55.33 195.84 55.33 181.57 18.43 181.57 18.43 144.66"/><polygon class="cls-1" points="4.16 55.34 18.43 55.34 18.43 18.43 55.33 18.43 55.33 4.16 4.16 4.16 4.16 55.34"/><polygon class="cls-1" points="144.66 4.16 144.66 18.43 181.57 18.43 181.57 55.34 195.84 55.34 195.84 4.16 144.66 4.16"/><polygon class="cls-1" points="181.57 181.57 144.66 181.57 144.66 195.84 195.84 195.84 195.84 144.66 181.57 144.66 181.57 181.57"/><g id="Validation-Filled"><path id="Path_26358" class="cls-1" d="m139.47,83.68c-2.42-5.79,1.8-16.18-2.56-20.55s-14.75-.14-20.55-2.56c-5.6-2.37-9.92-12.77-16.37-12.77s-10.77,10.38-16.33,12.72c-5.84,2.42-16.23-1.8-20.59,2.56s-.14,14.75-2.56,20.59c-2.33,5.55-12.71,9.87-12.71,16.32s10.38,10.77,12.72,16.33c2.42,5.79-1.8,16.18,2.56,20.55s14.75.14,20.55,2.56c5.6,2.37,9.92,12.77,16.37,12.77s10.77-10.38,16.33-12.72c5.79-2.42,16.18,1.8,20.55-2.56,4.37-4.36.14-14.75,2.56-20.55,2.37-5.6,12.77-9.92,12.77-16.37s-10.38-10.77-12.72-16.33h0Zm-44.23,37.25l-17.6-17.6,6.69-6.69,10.92,10.93,25.1-25.1,6.68,6.68-31.79,31.8Z"/></g></svg>