<?xml version="1.0" encoding="UTF-8"?><svg id="Layer_1" xmlns="http://www.w3.org/2000/svg" xmlns:xlink="http://www.w3.org/1999/xlink" viewBox="0 0 200 200"><defs><style>.cls-1{fill:url(#linear-gradient);}.cls-1,.cls-2,.cls-3{stroke-width:0px;}.cls-2{fill:url(#linear-gradient-2);}.cls-3{fill:url(#linear-gradient-3);}</style><linearGradient id="linear-gradient" x1="3.07" y1="100" x2="196.93" y2="100" gradientUnits="userSpaceOnUse"><stop offset="0" stop-color="#0e90a2"/><stop offset=".32" stop-color="#19a574"/><stop offset="1" stop-color="#90c43c"/></linearGradient><linearGradient id="linear-gradient-2" x1="-4105.91" y1="-4315.43" x2="-4101.08" y2="-4315.43" gradientTransform="translate(-4628.74 -6106.84) rotate(-80.78) scale(1.31 -1.31)" xlink:href="#linear-gradient"/><linearGradient id="linear-gradient-3" x1="-277.36" y1="-3934.58" x2="-272.54" y2="-3934.58" gradientTransform="translate(538.88 -22207.53) scale(1.68 -5.66)" xlink:href="#linear-gradient"/></defs><g id="Group_15960"><path class="cls-1" d="m194,181.37h0l-60.82-61.82c21.77-29.49,19-70.4-6.55-96.68C99.12-5.38,53.91-6.01,25.65,21.49c-.47.46-.93.92-1.39,1.39-28.26,29.05-28.26,75.31,0,104.36,25.23,25.95,65.89,28.89,94.6,6.85l60.6,61.59c3.95,4.02,10.41,4.07,14.43.12s4.07-10.41.12-14.43Zm-85.55-85.62c-.79.49-1.7.75-2.64.75h-60.03c-2.77,0-5.01-2.24-5.02-5.01,0-.92.25-1.82.73-2.61,7.63-12.52,22.13-37.36,29.28-49.65,1.4-2.39,4.47-3.2,6.86-1.8.71.41,1.31,1,1.74,1.69l30.71,49.73c1.45,2.36.72,5.45-1.63,6.9Z"/><circle id="Ellipse_86" class="cls-2" cx="75.73" cy="86.1" r="3.14"/><path id="Path_27063" class="cls-3" d="m79.66,56.71l-1.93,18.69c-.02.73-.21,1.45-.58,2.09-.6.79-1.72.95-2.52.35,0,0,0,0-.01,0l-.24-.42c-1.09-6.79-1.81-13.62-2.59-20.44-.31-1.42-.16-2.9.42-4.24.62-1.02,1.7-1.68,2.89-1.78,1.18-.08,2.35.31,3.23,1.1.57.49,1,1.13,1.23,1.85.21.92.24,1.88.09,2.81h0Z"/></g></svg>