<?xml version="1.0" encoding="UTF-8"?><svg id="Layer_1" xmlns="http://www.w3.org/2000/svg" xmlns:xlink="http://www.w3.org/1999/xlink" viewBox="0 0 200 200"><defs><style>.cls-1{fill:url(#linear-gradient);}.cls-1,.cls-2{fill-rule:evenodd;stroke-width:0px;}.cls-2{fill:url(#linear-gradient-2);}</style><linearGradient id="linear-gradient" x1="4.17" y1="173.96" x2="195.18" y2="173.96" gradientUnits="userSpaceOnUse"><stop offset="0" stop-color="#0e90a2"/><stop offset=".32" stop-color="#19a574"/><stop offset="1" stop-color="#90c43c"/></linearGradient><linearGradient id="linear-gradient-2" x1="19.72" y1="90.26" x2="179.63" y2="90.26" xlink:href="#linear-gradient"/></defs><path class="cls-1" d="m4.17,173.96c0-3.64,2.98-6.6,6.66-6.6h177.69c3.68,0,6.66,2.95,6.66,6.6s-2.98,6.6-6.66,6.6H10.83c-3.68,0-6.66-2.95-6.66-6.6Z"/><path class="cls-2" d="m171.83,32c-7.81-7.73-20.37-7.73-45.5-7.73h-53.31c-25.13,0-37.69,0-45.5,7.73-7.81,7.73-7.81,20.17-7.81,45.06v43.99c0,16.59,0,24.88,5.2,30.04,5.2,5.15,13.58,5.15,30.33,5.15h88.84c16.75,0,25.13,0,30.33-5.15,5.2-5.15,5.2-13.45,5.2-30.04v-43.99c0-24.88,0-37.33-7.81-45.06Zm-104.7,87.19h-3.62V46.86h30.8l5.42,3.61h-32.6v68.72Zm7.23,7.23h-3.62V54.08h32.56l5.28,3.62h-34.21v68.72Zm61.47,7.23h-57.87V61.31h19.69c17.57,0,12.06,25.33,12.06,25.33,10.87-2.69,26.11-3.78,26.11,8.58v38.44Zm-18.28-55.05c.9-6.1-.86-12.3-4.85-17.01,8.88,4.76,16.74,11.21,23.14,18.99-4.65-3.26-10.89-3.71-18.29-1.98Z"/></svg>