<?xml version="1.0" encoding="UTF-8"?><svg id="Layer_1" xmlns="http://www.w3.org/2000/svg" xmlns:xlink="http://www.w3.org/1999/xlink" viewBox="0 0 200 200"><defs><style>.cls-1{fill:url(#linear-gradient);}.cls-1,.cls-2,.cls-3{stroke-width:0px;}.cls-2{fill:url(#linear-gradient-2);}.cls-3{fill:url(#linear-gradient-3);}</style><linearGradient id="linear-gradient" x1="2.96" y1="84.31" x2="171.28" y2="84.31" gradientUnits="userSpaceOnUse"><stop offset="0" stop-color="#0e90a2"/><stop offset=".32" stop-color="#19a574"/><stop offset="1" stop-color="#90c43c"/></linearGradient><linearGradient id="linear-gradient-2" x1="156.65" y1="136.34" x2="170" y2="136.34" xlink:href="#linear-gradient"/><linearGradient id="linear-gradient-3" x1="129.61" y1="145.97" x2="197.04" y2="145.97" xlink:href="#linear-gradient"/></defs><g id="bcb20d87-9a45-4e25-814f-6152e53bb23a"><path class="cls-1" d="m160.76,31.7h-42.56v-7.88c0-7.27-5.88-13.15-13.15-13.15h-36.82c-7.27,0-13.15,5.88-13.15,13.15v7.88H13.47c-5.8,0-10.51,4.71-10.51,10.52v105.2c0,5.81,4.71,10.52,10.51,10.52h118.4c-3.79-6.63-6.12-13.56-6.12-21.09,0-21.09,16.72-38.24,37.27-38.24,2.84,0,5.61.33,8.26.95v-57.34c0-5.81-4.71-10.52-10.52-10.52Zm-95.16-7.88c0-1.46,1.17-2.63,2.63-2.63h36.82c1.46,0,2.63,1.17,2.63,2.63v7.88h-42.07v-7.88Zm56.44,81c0,1.46-1.18,2.63-2.63,2.63h-18.42v18.42c0,1.46-1.17,2.63-2.63,2.63h-17.88c-1.46,0-2.64-1.17-2.64-2.63v-18.42h-18.4c-1.46,0-2.63-1.17-2.63-2.63v-17.88c0-1.46,1.17-2.63,2.63-2.63h18.4v-18.42c0-1.44,1.18-2.63,2.64-2.63h17.88c1.46,0,2.63,1.18,2.63,2.63v18.42h18.42c1.44,0,2.63,1.17,2.63,2.63v17.88Z"/></g><path class="cls-2" d="m163.33,129.66c-3.68,0-6.68,2.99-6.68,6.68s2.99,6.68,6.68,6.68,6.68-2.99,6.68-6.68-3-6.68-6.68-6.68Z"/><path class="cls-3" d="m171.59,103.67c-2.64-.69-5.41-1.05-8.26-1.05-18.62,0-33.72,15.53-33.72,34.69,0,7.48,2.57,14.39,6.7,21.09,6.46,10.46,16.75,20.36,27.02,30.94,16.87-17.35,33.72-32.88,33.72-52.03,0-16.23-10.83-29.85-25.46-33.64Zm-8.26,45.26c-6.94,0-12.59-5.65-12.59-12.59s5.65-12.59,12.59-12.59,12.59,5.65,12.59,12.59-5.65,12.59-12.59,12.59Z"/></svg>