<?xml version="1.0" encoding="UTF-8"?><svg id="Layer_1" xmlns="http://www.w3.org/2000/svg" xmlns:xlink="http://www.w3.org/1999/xlink" viewBox="0 0 200 200"><defs><style>.cls-1{fill:url(#linear-gradient);stroke-width:0px;}</style><linearGradient id="linear-gradient" x1="13.89" y1="100" x2="190.13" y2="100" gradientUnits="userSpaceOnUse"><stop offset="0" stop-color="#0e90a2"/><stop offset=".32" stop-color="#19a574"/><stop offset="1" stop-color="#90c43c"/></linearGradient></defs><path class="cls-1" d="m139.6,5.84H13.89v188.31h176.25V5.84h-50.53ZM29.25,59.72c1.06-.91,2.65-.78,3.55.27l4.14,4.84,11.02-11.02c.98-.98,2.58-.98,3.56,0s.98,2.58,0,3.56l-12.94,12.94c-.47.47-1.11.74-1.78.74-.03,0-.06,0-.1,0-.7-.03-1.36-.34-1.82-.88l-5.92-6.9c-.91-1.06-.78-2.65.27-3.55Zm22.28,82.28l-12.94,12.94c-.47.47-1.11.74-1.78.74-.03,0-.06,0-.1,0-.7-.03-1.36-.34-1.82-.88l-5.92-6.9c-.91-1.06-.78-2.65.27-3.55,1.06-.9,2.65-.78,3.55.27l4.14,4.84,11.02-11.02c.98-.98,2.58-.98,3.56,0,.98.98.98,2.58,0,3.56Zm1.56-46.1l-12.94,12.94c-.47.47-1.11.74-1.78.74-.03,0-.06,0-.1,0-.7-.03-1.36-.34-1.82-.88l-5.92-6.9c-.91-1.06-.78-2.65.27-3.55,1.06-.91,2.65-.78,3.55.27l4.14,4.83,11.02-11.02c.98-.98,2.58-.98,3.56,0,.98.98.98,2.58,0,3.56Zm82.37-24.57c1.38,0,2.5,1.58,2.5,3.53s-1.12,3.52-2.5,3.52h-62.43c-1.38,0-2.5-1.58-2.5-3.52s1.12-3.53,2.5-3.53h62.43Zm-64.93-18.68c0-1.95,1.58-3.53,3.52-3.53h50.5c1.95,0,3.52,1.58,3.52,3.53s-1.58,3.52-3.52,3.52h-50.5c-1.95,0-3.52-1.58-3.52-3.52Zm54.03,70.14h-50.5c-1.95,0-3.52-1.58-3.52-3.52s1.58-3.52,3.52-3.52h50.5c1.95,0,3.52,1.58,3.52,3.52s-1.58,3.52-3.52,3.52Zm37.47,15.16c1.95,0,3.52,1.58,3.52,3.52s-1.58,3.52-3.52,3.52h-87.97c-1.95,0-3.52-1.58-3.52-3.52s1.58-3.52,3.52-3.52h87.97Zm19.23,29.26h-107.19c-1.95,0-3.52-1.58-3.52-3.52s1.58-3.52,3.52-3.52h107.19c1.95,0,3.52,1.58,3.52,3.52s-1.58,3.52-3.52,3.52Zm0-66.62h-107.19c-1.95,0-3.52-1.58-3.52-3.53s1.58-3.52,3.52-3.52h107.19c1.95,0,3.52,1.58,3.52,3.52s-1.58,3.53-3.52,3.53Z"/></svg>