<?xml version="1.0" encoding="UTF-8"?><svg id="Layer_1" xmlns="http://www.w3.org/2000/svg" xmlns:xlink="http://www.w3.org/1999/xlink" viewBox="0 0 200 200"><defs><style>.cls-1{fill:url(#linear-gradient);}.cls-1,.cls-2,.cls-3,.cls-4{stroke-width:0px;}.cls-2{fill:url(#linear-gradient-2);}.cls-3{fill:url(#linear-gradient-3);}.cls-4{fill:url(#linear-gradient-4);}</style><linearGradient id="linear-gradient" x1="129.3" y1="56.89" x2="181.35" y2="56.89" gradientUnits="userSpaceOnUse"><stop offset="0" stop-color="#0e90a2"/><stop offset=".32" stop-color="#19a574"/><stop offset="1" stop-color="#90c43c"/></linearGradient><linearGradient id="linear-gradient-2" x1="34.92" y1="99.99" x2="120" y2="99.99" xlink:href="#linear-gradient"/><linearGradient id="linear-gradient-3" x1="18.65" y1="83.73" x2="100.11" y2="83.73" xlink:href="#linear-gradient"/><linearGradient id="linear-gradient-4" x1="51.17" y1="116.26" x2="181.32" y2="116.26" xlink:href="#linear-gradient"/></defs><path class="cls-1" d="m129.3,35.53c8.96,10.6,12.93,24.54,10.9,38.26,16.65-3.89,30.68-2.88,41.14,4.46-14.38-17.51-32.06-32.02-52.04-42.72Z"/><polygon class="cls-2" points="108.13 18.64 34.92 18.64 34.92 181.34 43.06 181.34 43.06 26.79 120 26.79 108.13 18.64"/><polygon class="cls-3" points="87.92 2.39 18.65 2.39 18.65 165.07 26.8 165.07 26.8 10.52 100.11 10.52 87.92 2.39"/><path class="cls-4" d="m122.59,91.86s12.38-56.96-27.13-56.96h-44.29v162.71h130.15v-86.46c0-27.79-34.28-25.35-58.73-19.29Zm23.83,61.48h-15.09v15.09h-30.17v-15.09h-15.09v-30.17h15.09v-15.09h30.17v15.09h15.09v30.17Z"/></svg>