<?xml version="1.0" encoding="UTF-8"?><svg id="Layer_1" xmlns="http://www.w3.org/2000/svg" xmlns:xlink="http://www.w3.org/1999/xlink" viewBox="0 0 200 200"><defs><style>.cls-1{fill:url(#linear-gradient);}.cls-1,.cls-2,.cls-3,.cls-4,.cls-5{stroke-width:0px;}.cls-2{fill:url(#linear-gradient-5);}.cls-3{fill:url(#linear-gradient-2);}.cls-4{fill:url(#linear-gradient-3);}.cls-5{fill:url(#linear-gradient-4);}</style><linearGradient id="linear-gradient" x1="129.3" y1="56.89" x2="181.35" y2="56.89" gradientUnits="userSpaceOnUse"><stop offset="0" stop-color="#0e90a2"/><stop offset=".32" stop-color="#19a574"/><stop offset="1" stop-color="#90c43c"/></linearGradient><linearGradient id="linear-gradient-2" x1="34.92" y1="99.99" x2="120" y2="99.99" xlink:href="#linear-gradient"/><linearGradient id="linear-gradient-3" x1="18.65" y1="83.73" x2="100.11" y2="83.73" xlink:href="#linear-gradient"/><linearGradient id="linear-gradient-4" x1="99.19" y1="178.88" x2="133.29" y2="178.88" xlink:href="#linear-gradient"/><linearGradient id="linear-gradient-5" x1="51.17" y1="116.26" x2="181.32" y2="116.26" xlink:href="#linear-gradient"/></defs><path class="cls-1" d="m129.3,35.53c8.96,10.6,12.93,24.54,10.9,38.26,16.65-3.89,30.68-2.88,41.14,4.46-14.38-17.51-32.06-32.02-52.04-42.72Z"/><polygon class="cls-3" points="108.13 18.64 34.92 18.64 34.92 181.34 43.06 181.34 43.06 26.79 120 26.79 108.13 18.64"/><polygon class="cls-4" points="87.92 2.39 18.65 2.39 18.65 165.07 26.8 165.07 26.8 10.52 100.11 10.52 87.92 2.39"/><path class="cls-5" d="m131.59,177.18h-30.69c-.94,0-1.7.76-1.7,1.7s.76,1.7,1.7,1.7h30.69c.94,0,1.7-.76,1.7-1.7s-.76-1.7-1.7-1.7Z"/><path class="cls-2" d="m122.59,91.86s12.38-56.96-27.13-56.96h-44.29v162.71h130.15v-86.46c0-27.79-34.28-25.35-58.73-19.29Zm-25.65,34.51l13.24-16.43c.48-.59,1.01-1.09,1.57-1.53.98-1.28,2.51-2.12,4.24-2.12,1.32,0,2.51.5,3.45,1.29,1.03.54,2.02,1.33,2.85,2.36l13.25,16.43c2.53,3.14,2.64,7.25.25,9.18-2.39,1.93-6.38.95-8.92-2.19l-5.51-6.84v35.8c0,2.96-2.4,5.36-5.36,5.36s-5.36-2.4-5.36-5.36v-35.2l-5.03,6.24c-2.53,3.14-6.53,4.12-8.92,2.19-2.39-1.93-2.28-6.04.25-9.18Zm48.15,49.8l-1.95,5.43c-.95,2.66-4.02,4.81-6.84,4.81h-40.35c-2.82,0-5.85-2.17-6.76-4.84l-1.82-5.37c-.91-2.68.64-4.84,3.47-4.84h50.86c2.82,0,4.34,2.16,3.39,4.81Z"/></svg>