<?xml version="1.0" encoding="UTF-8"?><svg id="Layer_1" xmlns="http://www.w3.org/2000/svg" viewBox="0 0 200 200"><defs><style>.cls-1{fill:#fff;stroke-width:0px;}</style></defs><path class="cls-1" d="m122.59,91.86s12.38-56.96-27.13-56.96h-44.29v162.71h130.15v-86.46c0-27.79-34.28-25.35-58.73-19.29Zm-12.63,78.9l-24.94-24.94,9.48-9.48,15.46,15.48,35.56-35.56,9.47,9.46-45.03,45.04Z"/><path class="cls-1" d="m129.3,35.53c8.96,10.6,12.93,24.54,10.9,38.26,16.65-3.89,30.68-2.88,41.14,4.46-14.38-17.51-32.06-32.02-52.04-42.72Z"/><polygon class="cls-1" points="108.13 18.64 34.92 18.64 34.92 181.34 43.06 181.34 43.06 26.79 120 26.79 108.13 18.64"/><polygon class="cls-1" points="87.92 2.39 18.65 2.39 18.65 165.07 26.8 165.07 26.8 10.52 100.11 10.52 87.92 2.39"/></svg>