<?xml version="1.0" encoding="UTF-8"?><svg id="Layer_1" xmlns="http://www.w3.org/2000/svg" viewBox="0 0 200 200"><defs><style>.cls-1{fill:#fff;stroke-width:0px;}</style></defs><path class="cls-1" d="m40.85,36.69c-2.06,0-4.11-.78-5.68-2.35-3.14-3.14-3.14-8.22,0-11.36L51.24,6.91c3.14-3.14,8.22-3.14,11.36,0,3.14,3.14,3.14,8.22,0,11.36l-16.06,16.06c-1.57,1.57-3.62,2.35-5.68,2.35Z"/><path class="cls-1" d="m185.43,36.69c-2.06,0-4.11-.78-5.68-2.35l-16.06-16.06c-3.14-3.14-3.14-8.22,0-11.36,3.14-3.14,8.22-3.14,11.36,0l16.06,16.06c3.14,3.14,3.14,8.22,0,11.36-1.57,1.57-3.62,2.35-5.68,2.35Z"/><path class="cls-1" d="m55.09,128c2.1,2.8,4.41,5.48,6.93,8,2.41,2.4,4.95,4.62,7.62,6.63v-14.63h-14.55Zm109.17-94.24c-13.66-13.65-31.81-21.17-51.12-21.17s-37.46,7.52-51.12,21.17c-13.65,13.66-21.17,31.81-21.17,51.12,0,14.72,4.37,28.77,12.5,40.67h18.75v18.86c11.98,8.3,26.16,12.76,41.04,12.76,19.31,0,37.46-7.52,51.12-21.17,13.65-13.66,21.17-31.81,21.17-51.12s-7.52-37.46-21.17-51.12Zm-51.12,107.35c-31,0-56.23-25.23-56.23-56.23s25.23-56.23,56.23-56.23,56.22,25.23,56.22,56.23-25.22,56.23-56.22,56.23Z"/><path class="cls-1" d="m156.47,84.67c0,23.94-19.4,43.34-43.34,43.34s-42.52-18.59-43.31-41.82h49.44v-44.42c21.03,2.97,37.21,21.05,37.21,42.91Z"/><path class="cls-1" d="m6.53,128v67.44h63.11v-67.44H6.53Zm21.55,15.5h18.08c.7,0,1.26.57,1.26,1.26s-.56,1.27-1.26,1.27h-18.08c-.7,0-1.27-.57-1.27-1.27s.57-1.26,1.27-1.26Zm-.37,7.95h22.35c.5,0,.9.57.9,1.27s-.4,1.26-.9,1.26h-22.35c-.5,0-.9-.57-.9-1.26s.4-1.27.9-1.27Zm.37,23.86h31.5c.69,0,1.26.57,1.26,1.26s-.57,1.27-1.26,1.27h-31.5c-.7,0-1.27-.57-1.27-1.27s.57-1.26,1.27-1.26Zm-1.27-6.69c0-.7.57-1.26,1.27-1.26h18.08c.7,0,1.26.56,1.26,1.26s-.56,1.26-1.26,1.26h-18.08c-.7,0-1.27-.56-1.27-1.26Zm-14.78-21.32c.38-.33.95-.28,1.27.09l1.49,1.74,3.94-3.95c.35-.35.92-.35,1.28,0,.35.35.35.92,0,1.28l-4.64,4.63c-.17.17-.4.27-.63.27h-.04c-.25-.01-.49-.13-.65-.32l-2.12-2.47c-.32-.38-.28-.95.1-1.27Zm7.98,29.46l-4.64,4.63c-.17.17-.4.27-.63.27h-.04c-.25,0-.49-.13-.65-.32l-2.12-2.47c-.32-.38-.28-.95.1-1.27s.95-.28,1.27.1l1.49,1.73,3.94-3.95c.35-.35.92-.35,1.28,0,.35.36.35.93,0,1.28Zm.56-16.51l-4.64,4.64c-.17.17-.4.26-.64.26h-.03c-.25-.01-.49-.12-.65-.31l-2.12-2.48c-.32-.37-.28-.94.1-1.27.38-.32.95-.28,1.27.1l1.48,1.73,3.95-3.94c.35-.36.92-.36,1.28,0,.35.35.35.92,0,1.27Zm45.89,25.54H28.08c-.7,0-1.27-.57-1.27-1.26s.57-1.27,1.27-1.27h38.38c.7,0,1.26.57,1.26,1.27s-.56,1.26-1.26,1.26Zm0-23.86H28.08c-.7,0-1.27-.56-1.27-1.26s.57-1.26,1.27-1.26h38.38c.7,0,1.26.56,1.26,1.26s-.56,1.26-1.26,1.26Z"/></svg>