<?xml version="1.0" encoding="UTF-8"?><svg id="Layer_1" xmlns="http://www.w3.org/2000/svg" xmlns:xlink="http://www.w3.org/1999/xlink" viewBox="0 0 200 200"><defs><style>.cls-1{fill:url(#linear-gradient);}.cls-1,.cls-2,.cls-3,.cls-4,.cls-5,.cls-6{stroke-width:0px;}.cls-2{fill:#fcfcf5;}.cls-3{fill:url(#linear-gradient-5);}.cls-4{fill:url(#linear-gradient-2);}.cls-5{fill:url(#linear-gradient-3);}.cls-6{fill:url(#linear-gradient-4);}</style><linearGradient id="linear-gradient" x1="34.05" y1="19.4" x2="66.18" y2="19.4" gradientUnits="userSpaceOnUse"><stop offset="0" stop-color="#0e90a2"/><stop offset=".32" stop-color="#19a574"/><stop offset="1" stop-color="#90c43c"/></linearGradient><linearGradient id="linear-gradient-2" x1="162.56" y1="19.4" x2="194.69" y2="19.4" xlink:href="#linear-gradient"/><linearGradient id="linear-gradient-3" x1="42.08" y1="83.66" x2="186.66" y2="83.66" xlink:href="#linear-gradient"/><linearGradient id="linear-gradient-4" x1="71.04" y1="83.66" x2="157.7" y2="83.66" xlink:href="#linear-gradient"/><linearGradient id="linear-gradient-5" x1="7.76" y1="160.5" x2="70.87" y2="160.5" xlink:href="#linear-gradient"/></defs><path class="cls-1" d="m42.08,35.46c-2.06,0-4.11-.78-5.68-2.35-3.14-3.14-3.14-8.22,0-11.36L52.46,5.68c3.14-3.14,8.22-3.14,11.36,0,3.14,3.14,3.14,8.22,0,11.36l-16.06,16.06c-1.57,1.57-3.62,2.35-5.68,2.35Z"/><path class="cls-4" d="m186.66,35.46c-2.06,0-4.11-.78-5.68-2.35l-16.06-16.06c-3.14-3.14-3.14-8.22,0-11.36,3.14-3.14,8.22-3.14,11.36,0l16.06,16.06c3.14,3.14,3.14,8.22,0,11.36-1.57,1.57-3.62,2.35-5.68,2.35Z"/><path class="cls-5" d="m114.37,155.95c-19.31,0-37.46-7.52-51.12-21.17-13.65-13.65-21.17-31.81-21.17-51.12s7.52-37.46,21.17-51.12c13.65-13.65,31.81-21.17,51.12-21.17s37.46,7.52,51.12,21.17c13.65,13.65,21.17,31.81,21.17,51.12s-7.52,37.46-21.17,51.12c-13.65,13.65-31.81,21.17-51.12,21.17Zm0-128.52c-31,0-56.23,25.22-56.23,56.23s25.22,56.23,56.23,56.23,56.23-25.22,56.23-56.23-25.22-56.23-56.23-56.23Z"/><path class="cls-6" d="m157.7,83.44c0,23.94-19.4,43.34-43.34,43.34s-42.52-18.59-43.31-41.82h49.44v-44.42c21.03,2.97,37.21,21.05,37.21,42.91Z"/><rect class="cls-2" x="5.31" y="124.33" width="68.02" height="72.34"/><path class="cls-3" d="m52.78,126.78H7.76v67.44h63.11v-67.44h-18.1Zm-39.52,19.29c.38-.32.95-.28,1.27.1l1.48,1.73,3.95-3.95c.35-.35.92-.35,1.28,0,.35.35.35.92,0,1.28l-4.63,4.63c-.17.17-.4.26-.64.26-.01,0-.02,0-.03,0-.25,0-.49-.12-.65-.31l-2.12-2.47c-.32-.38-.28-.95.1-1.27Zm7.98,29.46l-4.63,4.63c-.17.17-.4.26-.64.26-.01,0-.02,0-.03,0-.25,0-.49-.12-.65-.31l-2.12-2.47c-.32-.38-.28-.95.1-1.27.38-.32.95-.28,1.27.1l1.48,1.73,3.95-3.95c.35-.35.92-.35,1.28,0,.35.35.35.92,0,1.28Zm.56-16.51l-4.63,4.63c-.17.17-.4.26-.64.26-.01,0-.02,0-.03,0-.25,0-.49-.12-.65-.31l-2.12-2.47c-.32-.38-.28-.95.1-1.27.38-.32.95-.28,1.27.1l1.48,1.73,3.95-3.94c.35-.35.92-.35,1.28,0,.35.35.35.92,0,1.28Zm7.51-16.75h18.09c.7,0,1.26.57,1.26,1.26s-.57,1.26-1.26,1.26h-18.09c-.7,0-1.26-.57-1.26-1.26s.57-1.26,1.26-1.26Zm-.37,7.95h22.36c.49,0,.9.57.9,1.26s-.4,1.26-.9,1.26h-22.36c-.49,0-.9-.57-.9-1.26s.4-1.26.9-1.26Zm.37,23.86h31.5c.7,0,1.26.57,1.26,1.26s-.57,1.26-1.26,1.26h-31.5c-.7,0-1.26-.56-1.26-1.26s.57-1.26,1.26-1.26Zm-1.26-6.69c0-.7.57-1.26,1.26-1.26h18.09c.7,0,1.26.57,1.26,1.26s-.57,1.26-1.26,1.26h-18.09c-.7,0-1.26-.57-1.26-1.26Zm39.65,17.17H29.31c-.7,0-1.26-.56-1.26-1.26s.57-1.26,1.26-1.26h38.39c.7,0,1.26.57,1.26,1.26s-.57,1.26-1.26,1.26Zm0-23.86H29.31c-.7,0-1.26-.57-1.26-1.26s.57-1.26,1.26-1.26h38.39c.7,0,1.26.57,1.26,1.26s-.57,1.26-1.26,1.26Z"/></svg>