<?xml version="1.0" encoding="UTF-8"?><svg id="Layer_1" xmlns="http://www.w3.org/2000/svg" xmlns:xlink="http://www.w3.org/1999/xlink" viewBox="0 0 200 200"><defs><style>.cls-1{fill:url(#linear-gradient);}.cls-1,.cls-2,.cls-3,.cls-4{stroke-width:0px;}.cls-2{fill:url(#linear-gradient-2);}.cls-3{fill:url(#linear-gradient-3);}.cls-4{fill:url(#linear-gradient-4);}</style><linearGradient id="linear-gradient" x1="130.98" y1="28.8" x2="148.7" y2="28.8" gradientUnits="userSpaceOnUse"><stop offset="0" stop-color="#0e90a2"/><stop offset=".32" stop-color="#19a574"/><stop offset="1" stop-color="#90c43c"/></linearGradient><linearGradient id="linear-gradient-2" x1="51.11" x2="68.84" xlink:href="#linear-gradient"/><linearGradient id="linear-gradient-3" x1="78.18" y1="29.19" x2="121.01" y2="29.19" xlink:href="#linear-gradient"/><linearGradient id="linear-gradient-4" x1="5.64" y1="109.32" x2="194.36" y2="109.32" xlink:href="#linear-gradient"/></defs><path class="cls-1" d="m130.98,12.89c0-4.01,3.96-7.26,8.86-7.26s8.86,3.26,8.86,7.26v31.82c0,4.01-3.96,7.26-8.86,7.26s-8.86-3.26-8.86-7.26V12.89h0Z"/><path class="cls-2" d="m51.11,12.89c0-4.01,3.96-7.26,8.86-7.26s8.86,3.26,8.86,7.26v31.82c0,4.01-3.96,7.26-8.86,7.26s-8.86-3.26-8.86-7.26V12.89h0Z"/><path class="cls-3" d="m83.09,34.1c-2.72,0-4.91-2.2-4.91-4.91s2.2-4.91,4.91-4.91h33.01c2.72,0,4.91,2.2,4.91,4.91s-2.2,4.91-4.91,4.91h-33.01Z"/><path class="cls-4" d="m190.16,28.48c-2.6-2.6-6.17-4.21-10.12-4.21h-16.2c-2.72,0-4.91,2.2-4.91,4.91s2.2,4.91,4.91,4.91h16.2c1.24,0,2.37.51,3.18,1.32.81.83,1.32,1.95,1.32,3.18v36.63H15.47v-36.63c0-1.24.51-2.37,1.32-3.18.83-.81,1.95-1.32,3.18-1.32h17.31c2.72,0,4.91-2.2,4.91-4.91s-2.2-4.91-4.91-4.91h-17.31c-3.95,0-7.53,1.61-10.12,4.21-2.6,2.6-4.21,6.17-4.21,10.12v141.42c0,3.95,1.61,7.53,4.21,10.14,2.6,2.6,6.17,4.21,10.12,4.21h160.07c3.95,0,7.53-1.61,10.12-4.21,2.6-2.6,4.21-6.17,4.21-10.12V38.6c0-3.95-1.61-7.53-4.21-10.12Zm-100.52,137.06l-25.72-25.72,9.77-9.78,15.95,15.97,36.68-36.68,9.76,9.76-46.45,46.46Z"/></svg>