<?xml version="1.0" encoding="UTF-8"?><svg id="Layer_1" xmlns="http://www.w3.org/2000/svg" xmlns:xlink="http://www.w3.org/1999/xlink" viewBox="0 0 200 200"><defs><style>.cls-1{fill:url(#linear-gradient);stroke-width:0px;}</style><linearGradient id="linear-gradient" x1="3.28" y1="100" x2="196.72" y2="100" gradientUnits="userSpaceOnUse"><stop offset="0" stop-color="#0e90a2"/><stop offset=".32" stop-color="#19a574"/><stop offset="1" stop-color="#90c43c"/></linearGradient></defs><path class="cls-1" d="m141.26,4.43H3.28v191.13h193.43V4.43h-55.46ZM20.14,42.75c1.16-1.03,2.91-.89,3.9.31l4.55,5.5,12.09-12.52c1.08-1.12,2.83-1.12,3.91,0,1.08,1.12,1.08,2.93,0,4.05l-14.2,14.71c-.52.54-1.22.84-1.96.84-.04,0-.07,0-.11,0-.77-.03-1.49-.39-1.99-1l-6.49-7.85c-.99-1.2-.86-3.01.3-4.04Zm24.45,93.52l-14.2,14.71c-.52.54-1.22.84-1.96.84-.04,0-.07,0-.11,0-.77-.03-1.49-.39-1.99-1l-6.49-7.85c-.99-1.2-.86-3.01.3-4.04,1.16-1.03,2.91-.89,3.9.31l4.55,5.5,12.09-12.52c1.08-1.12,2.83-1.12,3.91,0,1.08,1.12,1.08,2.93,0,4.05Zm1.71-52.4l-14.2,14.71c-.52.54-1.22.84-1.96.84-.04,0-.07,0-.11,0-.77-.03-1.49-.39-1.99-1l-6.49-7.84c-.99-1.2-.86-3.01.3-4.04s2.9-.89,3.9.31l4.55,5.5,12.09-12.52c1.08-1.12,2.83-1.12,3.91,0,1.08,1.12,1.08,2.93,0,4.05Zm90.41-27.93c1.52,0,2.75,1.79,2.75,4.01s-1.23,4.01-2.75,4.01h-68.52c-1.52,0-2.75-1.79-2.75-4.01s1.23-4.01,2.75-4.01h68.52Zm-71.26-21.23c0-2.21,1.73-4.01,3.87-4.01h55.43c2.14,0,3.87,1.79,3.87,4.01s-1.73,4.01-3.87,4.01h-55.43c-2.14,0-3.87-1.79-3.87-4.01Zm59.3,79.73h-55.43c-2.14,0-3.87-1.79-3.87-4.01s1.73-4.01,3.87-4.01h55.43c2.14,0,3.87,1.79,3.87,4.01s-1.73,4.01-3.87,4.01Zm41.12,17.23c2.14,0,3.87,1.79,3.87,4.01s-1.73,4.01-3.87,4.01h-96.55c-2.14,0-3.87-1.79-3.87-4.01s1.73-4.01,3.87-4.01h96.55Zm21.1,33.26h-117.65c-2.14,0-3.87-1.79-3.87-4.01s1.73-4.01,3.87-4.01h117.65c2.14,0,3.87,1.79,3.87,4.01s-1.73,4.01-3.87,4.01Zm0-75.73h-117.65c-2.14,0-3.87-1.79-3.87-4.01s1.73-4.01,3.87-4.01h117.65c2.14,0,3.87,1.79,3.87,4.01s-1.73,4.01-3.87,4.01Z"/></svg>