<?xml version="1.0" encoding="UTF-8"?><svg id="Layer_1" xmlns="http://www.w3.org/2000/svg" xmlns:xlink="http://www.w3.org/1999/xlink" viewBox="0 0 200 200"><defs><style>.cls-1{fill:none;stroke:url(#linear-gradient-5);stroke-linecap:round;stroke-linejoin:round;stroke-width:8px;}.cls-2{fill:url(#linear-gradient);}.cls-2,.cls-3,.cls-4,.cls-5{stroke-width:0px;}.cls-3{fill:url(#linear-gradient-2);}.cls-4{fill:url(#linear-gradient-3);}.cls-5{fill:url(#linear-gradient-4);}</style><linearGradient id="linear-gradient" x1="2.63" y1="136.81" x2="95.35" y2="136.81" gradientUnits="userSpaceOnUse"><stop offset="0" stop-color="#0e90a2"/><stop offset=".32" stop-color="#19a574"/><stop offset="1" stop-color="#90c43c"/></linearGradient><linearGradient id="linear-gradient-2" x1="32.45" y1="37.97" x2="65.53" y2="37.97" xlink:href="#linear-gradient"/><linearGradient id="linear-gradient-3" x1="164.77" y1="37.97" x2="197.86" y2="37.97" xlink:href="#linear-gradient"/><linearGradient id="linear-gradient-4" x1="41.17" y1="104.14" x2="189.58" y2="104.14" xlink:href="#linear-gradient"/><linearGradient id="linear-gradient-5" x1="111.15" y1="104.14" x2="143.06" y2="104.14" xlink:href="#linear-gradient"/></defs><path class="cls-2" d="m94.36,166.23l-40.64-65.81c-.57-.92-1.36-1.69-2.3-2.24-3.17-1.85-7.23-.78-9.08,2.39-9.46,16.26-28.65,49.13-38.74,65.7-.63,1.04-.97,2.23-.97,3.45,0,3.66,2.97,6.63,6.64,6.63h79.45c1.23,0,2.44-.34,3.49-.99,3.12-1.92,4.08-6.01,2.16-9.13Zm-41.35-2.97c-.37,2.27-2.51,3.81-4.78,3.44-2.27-.37-3.81-2.51-3.44-4.78s2.51-3.81,4.78-3.44c2.27.37,3.81,2.51,3.44,4.77Zm1.09-39.55h0s-2.55,24.72-2.55,24.72c-.02.97-.28,1.92-.76,2.77-.79,1.05-2.28,1.26-3.33.46,0,0-.01,0-.02-.01l-.31-.55c-1.45-8.98-2.39-18.02-3.42-27.06-.41-1.88-.22-3.84.55-5.61.82-1.35,2.25-2.23,3.82-2.35,1.56-.11,3.11.42,4.28,1.46.76.65,1.32,1.5,1.63,2.45.28,1.22.32,2.49.11,3.72Z"/><path class="cls-3" d="m40.72,54.51c-2.12,0-4.23-.81-5.85-2.42-3.23-3.23-3.23-8.47,0-11.7l16.54-16.54c3.23-3.23,8.47-3.23,11.7,0,3.23,3.23,3.23,8.47,0,11.7l-16.54,16.54c-1.61,1.61-3.73,2.42-5.85,2.42Z"/><path class="cls-4" d="m189.59,54.51c-2.12,0-4.23-.81-5.85-2.42l-16.54-16.54c-3.23-3.23-3.23-8.47,0-11.7,3.23-3.23,8.47-3.23,11.7,0l16.54,16.54c3.23,3.23,3.23,8.47,0,11.7-1.61,1.61-3.73,2.42-5.85,2.42Z"/><path class="cls-5" d="m167.78,51.51c-14.06-14.06-32.75-21.8-52.63-21.8s-38.57,7.74-52.63,21.8c-12.1,12.1-19.53,27.65-21.35,44.43,2.02-1.35,4.42-2.1,6.91-2.1,2.21,0,4.39.59,6.3,1.71,1.2.7,2.28,1.6,3.17,2.65,2.99-29.15,27.68-51.95,57.59-51.95,31.93,0,57.89,25.97,57.89,57.9s-25.97,57.89-57.89,57.89c-7.12,0-13.94-1.29-20.24-3.65l4.33,7.01c1.75,2.84,2.3,6.2,1.52,9.44-.19.77-.43,1.51-.74,2.21,4.92,1.01,9.98,1.53,15.13,1.53,19.88,0,38.58-7.74,52.63-21.8,14.06-14.06,21.8-32.74,21.8-52.63s-7.74-38.58-21.8-52.63Z"/><polyline class="cls-1" points="115.15 75.67 115.15 108.7 139.06 132.61"/></svg>