<?xml version="1.0" encoding="UTF-8"?><svg id="Layer_1" xmlns="http://www.w3.org/2000/svg" xmlns:xlink="http://www.w3.org/1999/xlink" viewBox="0 0 200 200"><defs><style>.cls-1{fill:url(#linear-gradient);}.cls-1,.cls-2,.cls-3,.cls-4{stroke-width:0px;}.cls-2{fill:url(#linear-gradient-2);}.cls-3{fill:url(#linear-gradient-3);}.cls-4{fill:url(#linear-gradient-4);}</style><linearGradient id="linear-gradient" x1="1.72" y1="131.92" x2="129.33" y2="131.92" gradientUnits="userSpaceOnUse"><stop offset="0" stop-color="#0e90a2"/><stop offset=".32" stop-color="#19a574"/><stop offset="1" stop-color="#90c43c"/></linearGradient><linearGradient id="linear-gradient-2" x1="70.67" y1="106.82" x2="198.28" y2="106.82" xlink:href="#linear-gradient"/><linearGradient id="linear-gradient-3" x1="15.76" y1="-1974.47" x2="63.63" y2="-1974.47" gradientTransform="translate(9.59 2181.7) scale(1 1.08)" xlink:href="#linear-gradient"/><linearGradient id="linear-gradient-4" x1="-2577.74" y1="-5962.26" x2="-2529.87" y2="-5962.26" gradientTransform="translate(2630.65 6169.77) scale(1 1.03)" xlink:href="#linear-gradient"/></defs><path class="cls-1" d="m119.46,84.53c-.96-1.18-2-2.34-3.1-3.44-3.28-3.28-6.96-5.95-10.89-7.98-14.47-7.52-32.26-6.53-45.87,2.97l13.05,13.05c5.88-3.11,12.69-3.84,19-2.2,4.4,1.14,8.56,3.43,12,6.87,1.11,1.11,2.11,2.31,2.98,3.55,7.19,10.29,6.19,24.59-2.98,33.77l-38.94,38.95c-5.15,5.15-11.9,7.72-18.66,7.72s-13.51-2.57-18.66-7.72c-10.29-10.29-10.29-27.03,0-37.32l33.86-33.86-12.7-12.7L14.69,120.04c-17.29,17.29-17.29,45.43,0,62.72,8.64,8.64,20,12.97,31.36,12.97s22.72-4.32,31.36-12.97l38.95-38.95c16.19-16.19,17.22-41.88,3.1-59.28Z"/><path class="cls-2" d="m185.31,55.98c-17.29-17.29-45.43-17.29-62.72,0l-5.51,5.51,14.19,11.22,4.03-4.03c10.29-10.29,27.03-10.29,37.32,0,10.29,10.29,10.29,27.03,0,37.32l-38.95,38.95c-5.14,5.14-11.9,7.72-18.66,7.72-2.24,0-4.47-.28-6.66-.85-4.4-1.14-8.56-3.43-12-6.87-1.11-1.11-2.11-2.31-2.98-3.55-6.66-9.54-6.3-22.54,1.12-31.69h-20.61c-5.88,14.63-3.66,31.79,6.67,44.51.96,1.18,1.99,2.33,3.1,3.43,3.29,3.29,6.96,5.95,10.89,7.99,6.39,3.32,13.44,4.99,20.48,4.99,11.36,0,22.72-4.32,31.36-12.97l38.95-38.95c17.29-17.29,17.29-45.43,0-62.72Z"/><rect class="cls-3" x="25.35" y="46.3" width="47.87" height="7.65" transform="translate(20.08 -13.82) rotate(19.97)"/><rect class="cls-4" x="52.91" y="24.13" width="47.87" height="7.3" transform="translate(73.14 -53.85) rotate(67.52)"/></svg>