<?xml version="1.0" encoding="UTF-8"?><svg id="Layer_1" xmlns="http://www.w3.org/2000/svg" xmlns:xlink="http://www.w3.org/1999/xlink" viewBox="0 0 200 200"><defs><style>.cls-1{fill:url(#linear-gradient);}.cls-1,.cls-2{stroke-width:0px;}.cls-2{fill:url(#linear-gradient-2);}</style><linearGradient id="linear-gradient" x1="-4983.87" y1="1303.95" x2="-4978.69" y2="1303.95" gradientTransform="translate(148653.48 44606.32) scale(29.82 -34.14)" gradientUnits="userSpaceOnUse"><stop offset="0" stop-color="#0e90a2"/><stop offset=".32" stop-color="#19a574"/><stop offset="1" stop-color="#90c43c"/></linearGradient><linearGradient id="linear-gradient-2" x1="-4874.92" y1="1298.65" x2="-4869.75" y2="1298.65" gradientTransform="translate(90425.09 24658.63) scale(18.53 -18.87)" xlink:href="#linear-gradient"/></defs><g id="Group_15957"><path id="Path_27051" class="cls-1" d="m119.58,31.17c8.45,9.4,12.25,22.1,10.35,34.6,15.79-3.51,29.1-2.59,39.02,4.05-13.79-15.97-30.56-29.09-49.36-38.65Zm-6.37,50.96s11.74-51.52-25.73-51.52h-41.97v147.16h56.45c-4.2-2.12-8.06-4.87-11.43-8.15-17.52-16.88-18.04-44.76-1.17-62.29.38-.4.77-.78,1.17-1.17,18.36-17.64,47.36-17.64,65.72,0,6.48,6.27,10.9,14.36,12.67,23.2v-29.81c-.02-25.16-32.5-22.93-55.71-17.44h0Zm51.39,76.42l4.33,4.2v-16.28c-.84,4.22-2.3,8.29-4.33,12.08h0ZM99.51,15.9H30.08v147.17h7.71V23.25h72.96l-11.25-7.36ZM80.37,1.17H14.67v147.17h7.71V8.53h69.55l-11.57-7.36Z"/><path id="Path_27052" class="cls-2" d="m183.86,190.25l-30.07-30.57c10.76-14.58,9.39-34.8-3.24-47.8-13.59-13.97-35.94-14.28-49.92-.68-.23.22-.46.45-.68.68-13.97,14.36-13.97,37.23,0,51.59,12.47,12.83,32.57,14.28,46.77,3.39l29.95,30.45c.95.97,2.26,1.52,3.62,1.51,1.32.01,2.6-.51,3.53-1.45,1.98-1.95,2.01-5.14.06-7.13,0,0,0,0,0,0h-.02Zm-40.94-65.18c-1.53,1.5-4,1.48-5.5-.05,0,0,0,0,0,0-6.51-6.71-17.23-6.88-23.95-.36-.12.12-.24.24-.36.36-1.54,1.51-4.01,1.48-5.52-.06-1.46-1.49-1.49-3.87-.06-5.4,9.52-9.79,25.17-10.01,34.96-.5.17.16.33.33.5.5,1.5,1.53,1.48,4-.05,5.5,0,0,0,0,0,0h-.02Z"/></g></svg>