<?xml version="1.0" encoding="UTF-8"?><svg id="Layer_1" xmlns="http://www.w3.org/2000/svg" xmlns:xlink="http://www.w3.org/1999/xlink" viewBox="0 0 200 200"><defs><style>.cls-1{fill:none;stroke:url(#linear-gradient);stroke-miterlimit:10;stroke-width:3px;}.cls-2{fill:#fff;}.cls-2,.cls-3{stroke-width:0px;}.cls-3{fill:url(#linear-gradient-2);}</style><linearGradient id="linear-gradient" x1="51.87" y1="72.55" x2="99.47" y2="72.55" gradientUnits="userSpaceOnUse"><stop offset="0" stop-color="#0e90a2"/><stop offset=".32" stop-color="#19a574"/><stop offset="1" stop-color="#90c43c"/></linearGradient><linearGradient id="linear-gradient-2" x1="63.66" y1="72.55" x2="87.68" y2="72.55" xlink:href="#linear-gradient"/></defs><path class="cls-2" d="m194,181.37h0l-60.82-61.82c21.77-29.49,19-70.4-6.56-96.68C99.12-5.38,53.91-6.01,25.65,21.49c-.47.46-.93.92-1.39,1.39-28.26,29.05-28.26,75.31,0,104.36,25.23,25.95,65.89,28.89,94.6,6.85l60.6,61.59c3.95,4.02,10.41,4.07,14.43.12,4.02-3.95,4.07-10.41.12-14.43Zm-118.8-81.37c-23.27,0-43.35-11.22-52.72-27.45,9.36-16.23,29.45-27.45,52.72-27.45s43.35,11.22,52.72,27.45c-9.36,16.23-29.45,27.45-52.72,27.45Z"/><circle class="cls-1" cx="75.67" cy="72.55" r="22.3"/><circle class="cls-3" cx="75.67" cy="72.55" r="12.01"/><circle class="cls-2" cx="67.09" cy="63.97" r="5.15"/></svg>