<?xml version="1.0" encoding="UTF-8"?><svg id="Layer_1" xmlns="http://www.w3.org/2000/svg" xmlns:xlink="http://www.w3.org/1999/xlink" viewBox="0 0 200 200"><defs><style>.cls-1{fill:url(#linear-gradient-2);}.cls-2{fill:#fff;}.cls-3{fill:url(#linear-gradient-3);}.cls-4{fill:url(#linear-gradient);}</style><linearGradient id="linear-gradient" x1="74.91" y1="58.3" x2="146.13" y2="58.3" gradientUnits="userSpaceOnUse"><stop offset="0" stop-color="#0e90a2"/><stop offset=".32" stop-color="#19a574"/><stop offset="1" stop-color="#90c43c"/></linearGradient><linearGradient id="linear-gradient-2" x1="-1787.83" y1="115.87" x2="-1755.73" y2="115.87" gradientTransform="translate(-1610.73) rotate(-180) scale(1 -1)" gradientUnits="userSpaceOnUse"><stop offset="0" stop-color="#0e90a2"/><stop offset=".32" stop-color="#19a574"/><stop offset="1" stop-color="#90c43c"/></linearGradient><linearGradient id="linear-gradient-3" x1="-1802.84" y1="130.72" x2="-1618.63" y2="130.72" xlink:href="#linear-gradient-2"/></defs><g id="icons_Q2"><path class="cls-4" d="M110.52,14.77s-35.61,10.09-35.61,11.87v36.01c0,18.2,26.31,34.23,33.63,38.58,1.2.8,2.76.8,3.96,0,7.52-4.15,33.63-20.38,33.63-38.58V26.64c0-1.78-35.61-11.87-35.61-11.87ZM129.12,47.22l-21.76,21.76c-1.4,1.53-3.78,1.63-5.31.23-.08-.07-.16-.15-.23-.23l-9.69-9.69c-1.47-1.38-1.8-3.59-.79-5.34,1.26-1.78,3.73-2.2,5.52-.94.22.16.43.34.62.54l7.12,7.12,18.99-18.99c1.75-1.31,4.23-.96,5.54.79,1.06,1.41,1.06,3.34,0,4.75Z"/></g><path class="cls-1" d="M169.64,87.23c5.54,1.66,8.68,7.49,7.02,13.03l-11.16,37.22c-1.66,5.54-7.49,8.68-13.03,7.02h0c-5.54-1.66-8.68-7.49-7.02-13.03l11.16-37.22c1.66-5.54,7.49-8.68,13.03-7.02h0Z"/><path class="cls-2" d="M155.47,147.42h0c5.67,0,10.76-3.79,12.39-9.22l11.16-37.22c.99-3.31.64-6.81-1-9.85-1.64-3.04-4.36-5.27-7.68-6.26-1.21-.36-2.46-.55-3.72-.55-5.67,0-10.76,3.79-12.39,9.23l-11.16,37.22c-2.05,6.83,1.84,14.06,8.68,16.11,1.21.36,2.47.55,3.72.55ZM166.63,89.26c.78,0,1.55.11,2.3.34,2.04.61,3.73,1.99,4.74,3.86,1.01,1.88,1.23,4.04.62,6.08l-11.16,37.22c-1.01,3.35-4.15,5.7-7.65,5.7h0c-.77,0-1.55-.11-2.3-.34-4.22-1.27-6.62-5.73-5.36-9.95l11.16-37.22c1.01-3.35,4.15-5.7,7.65-5.7Z"/><path class="cls-3" d="M13.16,116.42c.68.15,1.66.42,2.9.75,6.96,1.87,19.93,5.35,43.46,2.73.38-.04.75-.17,1.07-.38.39-.25.8-.5,1.22-.74,10.62-6.13,23.91-5.7,34.69,1.13l6.12,3.88c.37.23.8.37,1.24.38l26.22.94c2.73-.05,4.88.73,6.35,2.23,1.17,1.18,1.88,2.82,1.9,4.38.01.86-.07,1.65-.24,2.38-.07.17-.12.36-.15.54-.92,2.93-3.43,4.63-7.09,4.68l-23.67.33h-26.03c-1.37,0-2.48,1.11-2.48,2.48s1.11,2.48,2.48,2.48h26.06l23.71-.33c5.6-.08,9.79-2.93,11.51-7.47l15.32-7.08c.52-.24.94-.65,1.19-1.17l18.79-38.74c.71-1.56,2.09-2.77,3.79-3.38,1.37-.49,3.57-.81,6.29.43,4.43,2.02,5.02,6,3.65,9.04l-20.4,44.58-43.16,24.72c-5.21,2.98-10.34,5.82-15.88,7.71-3.91,1.34-8.1,1.87-13.19,2.26-11.96.91-23.46-.66-35.62-2.32-4.17-.57-8.48-1.16-12.76-1.63-10.01-1.1-25.29-.64-32.27.5-4.78.78-7.3-6.48-8.38-10.87-4.37-17.81-.25-43.24,3.38-44.44Z"/><path class="cls-2" d="M8.22,114.52c2.14-3.14,4.56-3.2,5.81-2.95.93.18,1.98.46,3.31.82,6.6,1.77,18.82,5.05,41.06,2.66.3-.19.61-.37.92-.55,12.21-7.06,27.47-6.59,39.82,1.24l5.56,3.52,25.43.91c5.02-.05,8.12,1.97,9.82,3.7,1.91,1.93,3.08,4.49,3.29,7.11l11.62-5.37,18.38-37.9c1.24-2.72,3.65-4.88,6.6-5.93,3.16-1.13,6.72-.92,10.02.59,6.31,2.89,8.88,9.44,6.1,15.6l-20.74,45.31c-.22.47-.57.86-1.02,1.12l-43.85,25.11c-5.21,2.98-10.79,6.06-16.74,8.1-4.89,1.68-10.01,2.17-14.42,2.51-2.52.19-5.02.28-7.52.28-9.9,0-19.66-1.33-29.15-2.63-4.14-.56-8.41-1.15-12.63-1.61-9.47-1.04-24.4-.6-30.93.46-2.87.47-6.98-.08-10.35-5.37-8.49-13.33-6.5-47.77-.39-56.73ZM18.16,171.73c6.98-1.14,22.26-1.6,32.27-.5,4.28.47,8.59,1.06,12.76,1.63,12.17,1.66,23.67,3.23,35.62,2.32,5.09-.39,9.28-.92,13.19-2.26,5.54-1.9,10.67-4.73,15.88-7.71l43.16-24.72,20.4-44.58c1.37-3.04.78-7.02-3.65-9.04-2.72-1.24-4.92-.92-6.29-.43-1.7.61-3.07,1.82-3.79,3.38l-18.79,38.74c-.25.51-.67.93-1.19,1.17l-15.32,7.08c-1.72,4.54-5.91,7.39-11.51,7.47l-23.71.33h-26.06c-1.37,0-2.48-1.11-2.48-2.48s1.11-2.48,2.48-2.48h26.03l23.67-.33c3.66-.05,6.16-1.75,7.09-4.68.03-.19.08-.37.15-.54.17-.73.26-1.52.24-2.38-.02-1.56-.73-3.19-1.9-4.38-1.47-1.49-3.62-2.28-6.35-2.23l-26.22-.94c-.44-.02-.87-.15-1.24-.38l-6.12-3.88c-10.78-6.83-24.08-7.27-34.69-1.13-.42.24-.83.49-1.22.74-.32.21-.69.34-1.07.38-23.53,2.61-36.49-.86-43.46-2.73-1.24-.33-2.22-.6-2.9-.75-3.63,1.2-7.75,26.63-3.38,44.44,1.08,4.4,3.6,11.65,8.38,10.87Z"/></svg>