<?xml version="1.0" encoding="UTF-8"?><svg id="Layer_1" xmlns="http://www.w3.org/2000/svg" viewBox="0 0 2488.43 535.56"><defs><style>.cls-1{fill:#20a676;}</style></defs><path d="M1992.5,132.68V49.59h-171.09v83.09h0c20.11,0,36.41,16.3,36.41,36.41v199.07c0,20.11-16.3,36.41-36.41,36.41h0v83.09h171.09v-83.09h0c-20.11,0-36.41-16.3-36.41-36.41v-199.07c0-20.11,16.3-36.41,36.41-36.41h0Z"/><path d="M2413.02,407.77c32.77-40.1,49.16-88.43,49.16-144.94,0-67.13-21.9-121.81-65.73-163.96-43.81-42.18-97.24-63.26-160.29-63.26s-116.59,21-160.61,62.96c-44.02,41.97-66.01,96.72-66.01,164.27s21.98,121.72,66.01,163.69,97.54,62.96,160.61,62.96c41.36,0,79.02-9.41,113-28.27l53.44,58.98,63.87-54.07-53.44-58.35h0ZM2344.87,332.23l-63.89-70.02-64.47,54.04,63.87,70.02c-14.74,4.91-29.48,7.38-44.21,7.38-33.59,0-62.96-11.25-88.13-33.78-25.19-22.5-37.79-55.06-37.79-97.66s12.6-75.23,37.79-97.96c25.17-22.73,54.54-34.09,88.13-34.09s62.85,11.36,87.83,34.09c24.98,22.73,37.46,55.39,37.46,97.96,0,26.63-5.54,49.95-16.58,70.02h0Z"/><path class="cls-1" d="M600.08,300.32v187.45h-77.38V162.9h75.38v43.36c10.22-17.78,23.9-31.02,41.02-39.69,17.12-8.67,35.46-13.01,55.04-13.01,38.24,0,67.37,12.01,87.38,36.02,20.01,24.01,30.02,54.93,30.02,92.72v205.46h-77.38v-192.12c0-21.79-5.33-39.24-16.01-52.36-10.68-13.11-27.58-19.68-50.69-19.68-21.35,0-37.92,7.23-49.7,21.68-11.79,14.46-17.68,32.8-17.68,55.03h-.01Z"/><path class="cls-1" d="M1048.34,152.89c48.92,0,89.27,16.24,121.07,48.7,31.79,32.47,47.7,73.61,47.7,123.41s-15.91,91.05-47.7,123.74c-31.8,32.68-72.16,49.03-121.07,49.03s-88.61-16.34-120.41-49.03c-31.8-32.69-47.69-73.93-47.69-123.74s15.9-90.94,47.69-123.41c31.79-32.46,71.93-48.7,120.41-48.7h0ZM983.97,400.71c17.56,18.46,39.02,27.69,64.37,27.69s46.8-9.11,64.37-27.35c17.56-18.23,26.35-43.58,26.35-76.05s-8.79-57.03-26.35-75.04c-17.57-18.01-39.03-27.02-64.37-27.02s-46.81,9-64.37,27.02c-17.57,18.01-26.35,43.02-26.35,75.04s8.78,57.27,26.35,75.71Z"/><path class="cls-1" d="M1368.54,487.76h-76.71V162.9h74.04v41.36c8.89-16.01,22.35-28.45,40.36-37.36,18.01-8.89,36.57-13.34,55.7-13.34,21.78,0,41.36,4.9,58.7,14.68,17.34,9.79,30.24,24.02,38.69,42.7,22.68-38.24,57.81-57.37,105.4-57.37,32.02,0,59.14,10.45,81.38,31.35,22.23,20.91,33.35,51.6,33.35,92.06v210.8h-74.71v-198.12c0-20.01-5.23-36.13-15.68-48.36-10.45-12.23-26.13-18.35-47.03-18.35s-36.25,6.9-48.7,20.68c-12.46,13.79-18.68,30.92-18.68,51.36v192.78h-76.04v-198.12c0-20.01-5.23-36.13-15.67-48.36-10.46-12.23-26.13-18.35-47.03-18.35s-36.81,6.79-49.03,20.34c-12.24,13.57-18.35,30.8-18.35,51.7v192.78h0Z"/><path class="cls-1" d="M285.4,192.28c-23.5-23.5-61.62-23.5-85.14.03-23.5,23.5-23.5,61.62,0,85.11,23.52,23.52,61.65,23.52,85.14.03,23.52-23.52,23.52-61.65,0-85.17h0ZM214.45,268.42c1.13,1.13,1.13,2.96,0,4.12-1.13,1.13-2.99,1.13-4.12,0-20.78-20.75-20.78-54.54,0-75.32,1.13-1.13,2.99-1.13,4.12,0,1.13,1.15,1.15,2.99,0,4.12-18.5,18.5-18.5,48.58,0,67.08h0Z"/><path class="cls-1" d="M472.67,487.03h-87.14l-44.57-118.4h-92.93v-57.31c17.84-1.18,35.38-8.59,49.02-22.23,29.91-29.95,29.89-78.47-.03-108.41-29.92-29.89-78.44-29.91-108.39,0-29.92,29.95-29.89,78.47,0,108.39,12.24,12.22,27.58,19.46,43.5,21.68v57.88h-90.74l-43.92,118.4H13L188.08,37.26c5.13-13.2,17.84-21.9,32.03-21.9h45.45c14.16,0,26.9,8.7,32.03,21.9l175.08,449.76h0Z"/></svg>