<?xml version="1.0" encoding="UTF-8"?><svg id="Layer_1" xmlns="http://www.w3.org/2000/svg" xmlns:xlink="http://www.w3.org/1999/xlink" viewBox="0 0 200 200"><defs><style>.cls-1{fill:url(#linear-gradient);}</style><linearGradient id="linear-gradient" x1="4.2" y1="100" x2="195.8" y2="100" gradientUnits="userSpaceOnUse"><stop offset="0" stop-color="#0e90a2"/><stop offset=".32" stop-color="#19a574"/><stop offset="1" stop-color="#90c43c"/></linearGradient></defs><g id="Validation-Filled"><path class="cls-1" d="M172.46,70.04c-4.44-10.63,3.31-29.7-4.7-37.71-8.01-8.01-27.09-.26-37.71-4.7-10.28-4.35-18.2-23.43-30.05-23.43s-19.77,19.07-29.96,23.34c-10.71,4.44-29.79-3.31-37.8,4.7-8.01,8.01-.26,27.09-4.7,37.8-4.27,10.19-23.34,18.12-23.34,29.96s19.07,19.77,23.34,29.96c4.44,10.63-3.31,29.7,4.7,37.71,8.01,8.01,27.09.26,37.71,4.7,10.28,4.35,18.2,23.43,30.05,23.43s19.77-19.07,29.96-23.34c10.63-4.44,29.7,3.31,37.71-4.7,8.01-8.01.26-27.09,4.7-37.71,4.35-10.28,23.43-18.2,23.43-30.05s-19.07-19.77-23.34-29.96ZM91.29,138.41l-32.31-32.31,12.28-12.28,20.03,20.03,46.07-46.07,12.28,12.28-58.35,58.35Z"/></g></svg>