<?xml version="1.0" encoding="UTF-8"?><svg id="Layer_1" xmlns="http://www.w3.org/2000/svg" xmlns:xlink="http://www.w3.org/1999/xlink" viewBox="0 0 200 200"><defs><style>.cls-1{fill:url(#linear-gradient-2);}.cls-2{fill:#fff;}.cls-3{fill:url(#linear-gradient-3);}.cls-4{fill:url(#linear-gradient);}</style><linearGradient id="linear-gradient" x1="5.69" y1="114.42" x2="194.31" y2="114.42" gradientUnits="userSpaceOnUse"><stop offset="0" stop-color="#1b8ea1"/><stop offset=".3" stop-color="#20a476"/><stop offset="1" stop-color="#73bd44"/></linearGradient><linearGradient id="linear-gradient-2" x1="126.08" y1="14.37" x2="144.82" y2="14.37" xlink:href="#linear-gradient"/><linearGradient id="linear-gradient-3" x1="54.88" y1="61.88" x2="145.12" y2="61.88" xlink:href="#linear-gradient"/></defs><path class="cls-4" d="M77.76,197.99c-.05,0-.46-.31-.99-.31-7.23-.09-14.46.12-21.69,0-4.41-1.56-4.25-8.18.34-9.29,4.28-1.04,10.39.26,14.88.24.67,0,4.55-.39,4.69-.59,1.45-7.33,1.37-14.82,1.31-22.27H15.83c-3.69,0-10.6-8.74-10.12-12.73l.02-110.41c-.48-3.35,7.12-11.86,9.81-11.86h32.07v8.49h-29.43c-.38,0-3.37,2.54-3.37,2.78v94.44h170.43V42.05c0-.48-3.05-2.78-3.37-2.78h-29.43v-8.49h32.07c.41,0,2.22,1.08,2.7,1.4,3.26,2.09,5.95,6.06,7.11,9.73v112.45c-1.3,3.99-3.69,7.88-7.35,10.08-.44.26-2.46,1.34-2.76,1.34h-61.06l.3,12.15,1.5,10.36c5.7.36,11.74-.34,17.4.03,2.22.15,4.05.27,5.17,2.44,1.56,3.02-.24,6.21-3.28,7.23-22.15-.18-44.33.24-66.47,0Z"/><path class="cls-1" d="M144.82,23.45h-17.72c-.07,0-1.02-.95-1.02-1.02V5.3l18.74,18.16Z"/><path class="cls-3" d="M145.12,31.07v85.95c0,.07-.82,1.13-.88,1.17-.65.4-6.14.09-7.48.14-22.19.74-44.53.07-66.77.29-4.02.04-8.24.69-12.3.32-1.97-.18-2.6-.82-2.78-2.78V7.77c-.25-.94,1.07-3.06,1.92-3.06h61.79s.44.41.44.44v19.33c0,.5,1.58,2.99,2.04,3.52.61.69,3.85,3.07,4.55,3.07h19.47Z"/><rect class="cls-2" x="66.75" y="73.12" width="66.49" height="9.7" rx="4.85" ry="4.85"/><rect class="cls-2" x="66.63" y="89.84" width="66.49" height="9.7" rx="4.85" ry="4.85"/><path class="cls-2" d="M92,44.46h-14.7v-9.83h14.7v-15.04h11.03v15.04h14.53v9.83h-14.53v15.13h-11.03v-15.13Z"/></svg>