<?xml version="1.0" encoding="UTF-8"?><svg id="Layer_1" xmlns="http://www.w3.org/2000/svg" viewBox="0 0 1253.48 535.56"><defs><style>.cls-1{fill:#ddda2d;}.cls-1,.cls-2,.cls-3,.cls-4{fill-rule:evenodd;}.cls-2{fill:#55565b;}.cls-3{fill:#d8df24;}.cls-4{fill:#8bc540;}</style></defs><path class="cls-2" d="M131.43,456.14c24.01-8.88,46.45,14.48,36.82,38.06-7.49,23.9-41.77,34.18-56.33,16.87-15.91-15.45-4.25-48.37,19.51-54.94Z"/><path class="cls-2" d="M258.79,456.63c23.33-9.77,46.95,11.59,39.06,35.25-5.85,24.44-40.35,36.89-55.97,20.19-16.98-14.52-6.67-47.8,16.91-55.47v.04Z"/><polygon class="cls-2" points="555.31 367.7 413.68 367.7 460.06 148.56 508.93 148.56 472.15 321.04 565.23 321.04 555.31 367.74 555.31 367.7"/><path class="cls-2" d="M590.52,214.09h46.98l-18.55,86.79c-.61,3.07-.93,5.96-.93,8.63,0,6.39,1.82,11.38,5.42,14.98,3.57,3.6,8.81,5.42,15.59,5.42s12.74-2.43,17.16-7.28c4.42-4.82,7.56-11.38,9.42-19.58l19.16-88.97h46.98l-26.58,126.64c-1.82,8.45-2.75,17.37-2.75,26.86h-45.45c-.21-1.25-.32-3-.32-5.24s.21-5.49.61-9.6c-3.5,5.78-8.7,10.35-15.59,13.73-6.92,3.42-14.09,5.1-21.48,5.1-16.09,0-28.54-4.82-37.39-14.38-8.88-9.56-13.31-21.76-13.31-36.6,0-5.32.61-10.81,1.86-16.37l19.16-90.18v.04Z"/><path class="cls-2" d="M867.95,367.74h-46.95l18.19-84.62c.86-3.5,1.25-6.71,1.25-9.6,0-6.39-1.86-11.56-5.57-15.59-3.71-4.03-8.95-6.03-15.73-6.03s-12.77,2.39-17.3,7.1c-4.53,4.74-7.71,11.24-9.56,19.44l-19.16,89.26h-46.95l26.86-127.85c1.85-9.28,2.78-17.8,2.78-25.65h45.7c0,7.24-.21,12.06-.61,14.55,4.35-5.99,10.2-10.56,17.62-13.73,7.42-3.21,15.05-4.82,22.87-4.82,19.55,0,33.43,7.42,41.67,22.22,11.74-14.8,28.61-22.22,50.66-22.22,15.05,0,27.08,4.82,36.14,14.38,9.06,9.56,13.59,21.76,13.59,36.6,0,4.32-.5,9.38-1.57,15.13l-19.44,91.4h-46.66l17.91-84.3c.82-3.28,1.25-6.6,1.25-9.92,0-6.39-1.82-11.56-5.42-15.59-3.57-4-8.78-6.03-15.59-6.03-13.98,0-22.97,8.88-26.86,26.58l-19.16,89.22.04.07Z"/><path class="cls-2" d="M1024.31,169.25c0-8.24,2.93-15.23,8.78-21.01,5.89-5.78,13.02-8.67,21.44-8.67,7.21,0,13.06,2.25,17.59,6.81,4.53,4.57,6.81,10.2,6.81,16.98,0,8.67-3,15.77-8.95,21.33-5.96,5.57-13.06,8.35-21.3,8.35-6.96,0-12.77-2.25-17.41-6.81-4.64-4.53-6.96-10.2-6.96-16.98ZM1032.94,367.74h-46.91l32.71-153.65h46.91l-32.71,153.65Z"/><path class="cls-2" d="M1203.21,367.74h-46.91l17.3-81.23c1.21-5.14,1.82-9.56,1.82-13.31,0-6.56-1.82-11.77-5.39-15.59-3.6-3.82-8.92-5.74-15.87-5.74s-12.81,2.5-17.44,7.42c-4.64,4.92-7.88,11.42-9.74,19.44l-19.12,88.97h-46.91l26.83-127.85c1.86-8.85,2.78-17.41,2.78-25.65h45.66c0,5.99-.32,10.81-.89,14.55,4.49-6.17,10.52-10.81,18.02-13.91,7.49-3.07,15.2-4.64,23.01-4.64,15.45,0,27.33,4.57,35.64,13.73s12.49,21.05,12.49,35.67c0,5.35-.61,11.02-1.85,16.98l-19.44,91.11.04.04Z"/><path class="cls-1" d="M264.96,64.37c-3.53,0-6.64-1.39-8.6-3.85-2.07-2.6-2.75-6.06-1.89-9.77l4.17-18.37c1.75-7.67,9.45-13.95,17.16-13.95,3.53,0,6.64,1.36,8.6,3.85,2.07,2.57,2.75,6.03,1.89,9.77l-4.17,18.34c-1.75,7.71-9.45,13.98-17.16,13.98ZM296,73.18c-2.39,0-4.64-.61-6.42-1.78-2.35-1.57-3.82-3.96-4.28-6.88-.61-3.92.75-8.24,3.67-11.88l12.77-15.91c3.46-4.35,8.7-6.99,13.7-6.99,2.39,0,4.64.61,6.39,1.78,2.71,1.82,4.32,4.74,4.42,8.24.18,3.57-1.18,7.31-3.78,10.52l-12.77,15.91c-3.46,4.35-8.7,6.99-13.7,6.99ZM229.96,73.18c-1.21,0-2.39-.14-3.46-.46-3.28-.93-5.71-3.18-6.78-6.31l-5.57-15.87c-1.11-3.18-.78-6.89,1-10.49,1.78-3.6,4.82-6.64,8.45-8.53,2.39-1.21,4.96-1.85,7.35-1.85,4.89,0,8.81,2.57,10.27,6.74l5.57,15.91c2.32,6.6-1.93,15.09-9.45,18.94-2.39,1.25-4.96,1.89-7.35,1.89l-.04.04ZM200.21,97.37c-2.39,0-4.57-.64-6.39-1.82l-13.81-9.17c-2.71-1.78-4.28-4.71-4.42-8.24-.14-3.57,1.21-7.31,3.78-10.56,2.6-3.21,6.14-5.57,9.99-6.49,1.28-.32,2.53-.5,3.75-.5,2.39,0,4.6.64,6.39,1.86l13.81,9.17c2.35,1.57,3.85,3.92,4.28,6.85.61,3.92-.71,8.24-3.67,11.91-3.46,4.32-8.74,6.99-13.7,6.99ZM314.72,97.37c-4.89,0-8.81-2.57-10.27-6.74-2.32-6.6,1.93-15.13,9.45-18.94l18.02-9.2c2.39-1.21,4.92-1.89,7.35-1.89,1.21,0,2.39.18,3.46.5,3.28.93,5.71,3.14,6.78,6.28,1.11,3.17.75,6.88-1,10.49-1.78,3.6-4.82,6.64-8.49,8.53l-17.94,9.17c-2.39,1.21-4.92,1.89-7.35,1.89v-.07ZM165.54,130.4c-3.57,0-6.67-1.36-8.63-3.82-2.07-2.6-2.75-6.06-1.89-9.77,1.75-7.71,9.45-13.98,17.16-13.98h18.34c3.57,0,6.67,1.39,8.63,3.85,2.07,2.6,2.75,6.06,1.89,9.77-1.78,7.71-9.45,13.95-17.16,13.95h-18.34ZM316.01,130.4c-3.57,0-6.64-1.36-8.6-3.82-2.07-2.6-2.75-6.06-1.89-9.77,1.75-7.71,9.45-13.98,17.16-13.98h18.34c3.57,0,6.64,1.39,8.63,3.85,2.07,2.6,2.71,6.06,1.85,9.77-1.75,7.71-9.45,13.95-17.12,13.95h-18.37ZM246.55,134.18c-5.57,0-10.06-1.89-13.09-5.46-4.35-4-5.89-10.35-4.28-17.44,1.96-8.78,8.95-19.19,20.23-22.76,2.96-1.18,5.89-1.78,8.78-1.78,6.53,0,12.52,3.14,15.98,8.38,3.57,5.35,4,12.16,1.28,18.69-4.21,12.77-17.98,20.33-28.86,20.33l-.04.04ZM166.25,177.17c-4.85,0-8.81-2.57-10.27-6.74-2.32-6.6,1.93-15.09,9.49-18.94l17.98-9.2c2.35-1.25,4.92-1.89,7.31-1.89,1.21,0,2.39.18,3.53.5,3.25.93,5.67,3.18,6.74,6.28,1.14,3.17.78,6.88-1,10.45-1.78,3.6-4.82,6.64-8.45,8.53l-17.98,9.17c-2.39,1.21-4.92,1.89-7.35,1.89v-.04ZM312.44,177.17c-2.39,0-4.6-.64-6.42-1.82l-13.81-9.13c-2.35-1.57-3.82-3.96-4.28-6.92-.61-3.92.75-8.24,3.67-11.88,2.6-3.21,6.14-5.57,9.99-6.49,1.25-.32,2.5-.5,3.75-.5,2.39,0,4.57.64,6.35,1.82l13.81,9.17c2.35,1.57,3.85,3.92,4.28,6.88.61,3.92-.71,8.24-3.64,11.91-3.46,4.32-8.74,6.99-13.7,6.99v-.04ZM170.85,363.06l45.31-197.2c3.03-13.31,16.27-24.12,29.54-24.12,6.24,0,11.59,2.39,15.05,6.71,3.6,4.53,4.78,10.56,3.28,17.02l-45.41,197.6h-47.8.04ZM105,434.95c-20.16,0-39.06-8.95-51.83-24.51-12.81-15.55-17.91-35.82-13.98-55.58L91.23,90.8c1.82-9.2-2.21-15.84-4.78-18.94s-8.28-8.38-17.66-8.38h-31.11c-12.2,0-22.12-9.92-22.12-22.08s9.92-22.15,22.12-22.15h31.11c20.16,0,39.03,8.95,51.83,24.51,12.77,15.59,17.91,35.85,13.98,55.62l-52.08,264.06c-1.82,9.2,2.18,15.84,4.74,18.94,2.6,3.14,8.28,8.38,17.69,8.38h217.54c10.77,0,19.91-7.31,22.3-17.8l3.14-13.73h-.25l19.91-87.76c1.89-8.21,1.18-14.91-2.07-19.91-3.25-5.07-9.2-7.63-17.69-7.63-7.81,0-14.73,2.6-20.62,7.74-5.89,5.17-9.77,11.77-11.56,19.73l-21.33,91.65h-45.31l35.96-156.18h43.81l-4.57,20.01,2.18-2.71c5.35-6.64,12.52-11.91,21.37-15.66,8.88-3.78,17.55-5.67,25.86-5.67,17.94,0,30.43,5.64,37.14,16.77,6.74,11.2,8.13,25.83,4.1,43.45l-18.73,82.51c-.11,1.5-.25,2.68-.5,3.75l-7.71,33.5c-7.03,30.64-33.93,52.08-65.43,52.08H105v.07Z"/><path class="cls-3" d="M245.73,140.96h0c-13.66,0-27.25,11.06-30.36,24.69l-45.52,198.24h49.44l45.52-198.24c3.07-13.63-5.46-24.69-19.12-24.69h.04ZM305.34,139.6c-1.28,0-2.6.18-3.96.5-4,1.03-7.67,3.46-10.38,6.81-5.6,6.96-5.24,15.91.82,19.94l13.81,9.2c2,1.36,4.35,1.93,6.81,1.93,5.07,0,10.56-2.6,14.34-7.31,5.6-6.96,5.21-15.91-.82-19.94l-13.81-9.17c-1.96-1.28-4.32-1.96-6.81-1.96ZM190.76,139.6c-2.53,0-5.17.68-7.71,1.96l-17.98,9.2c-7.88,4-12.31,12.99-9.85,19.94,1.64,4.67,5.96,7.28,10.99,7.28,2.5,0,5.14-.61,7.74-1.93l17.98-9.2c3.82-1.93,6.92-5.07,8.81-8.85,1.86-3.82,2.21-7.71,1.03-11.09-1.18-3.35-3.78-5.78-7.31-6.81-1.18-.32-2.43-.5-3.67-.5h-.04ZM190.51,102.04h-18.37c-8.03,0-16.09,6.56-17.91,14.59-1.82,8.06,3.25,14.63,11.31,14.63h18.34c8.06,0,16.09-6.56,17.91-14.63,1.82-8.03-3.25-14.59-11.27-14.59ZM341.02,102.04h-18.34c-8.06,0-16.09,6.56-17.91,14.59-1.82,8.06,3.25,14.63,11.27,14.63h18.37c8.06,0,16.09-6.56,17.91-14.63,1.82-8.03-3.25-14.59-11.31-14.59ZM258.15,85.95c-2.85,0-5.89.57-8.99,1.78-18.19,5.74-28.08,30.64-16.3,41.49,3.35,3.96,8.31,5.71,13.7,5.71,11.7,0,25.51-8.31,29.61-20.8,6.21-14.7-3.96-28.18-18.02-28.18ZM339.27,59.77c-2.5,0-5.17.68-7.67,2l-18.02,9.17c-7.85,4.03-12.31,12.99-9.88,19.98,1.68,4.67,5.96,7.28,11.02,7.28,2.46,0,5.14-.64,7.74-1.96l17.94-9.17c3.82-1.96,6.96-5.1,8.81-8.88,1.89-3.78,2.25-7.71,1.07-11.06-1.18-3.39-3.78-5.81-7.31-6.78-1.18-.36-2.43-.54-3.71-.54v-.04ZM193.08,59.77c-1.28,0-2.57.18-3.96.54-4,1-7.67,3.42-10.38,6.78s-4.14,7.31-4,11.06c.18,3.78,1.85,6.92,4.78,8.88l13.81,9.2c2,1.32,4.35,1.93,6.81,1.93,5.07,0,10.56-2.6,14.34-7.31,5.6-6.96,5.21-15.91-.82-19.94l-13.81-9.17c-1.96-1.32-4.28-1.96-6.81-1.96h.04ZM230.93,28.87c-2.46,0-5.1.64-7.71,1.96-3.82,1.96-6.92,5.1-8.81,8.88-1.86,3.78-2.21,7.71-1.03,11.06l5.57,15.91c1.18,3.39,3.78,5.78,7.31,6.81,1.18.36,2.43.5,3.67.5,2.53,0,5.21-.68,7.71-1.96,7.88-4.03,12.31-12.99,9.88-19.94l-5.57-15.91c-1.64-4.67-5.96-7.31-11.02-7.31ZM315.44,28.87c-5.07,0-10.6,2.64-14.34,7.31l-12.77,15.91c-5.6,6.96-5.24,15.91.82,19.94,2,1.32,4.35,1.93,6.85,1.93,5.03,0,10.56-2.6,14.31-7.28l12.77-15.91c2.71-3.35,4.14-7.31,4-11.06-.18-3.78-1.86-6.96-4.78-8.88-2-1.36-4.35-1.96-6.85-1.96ZM68.72,18.42h-31.11c-12.66,0-22.9,10.27-22.9,22.9s10.24,22.9,22.9,22.9h31.11c9.1,0,14.59,5.07,17.09,8.1,2.5,3.03,6.35,9.38,4.6,18.34l-52.08,264.09c-3.96,20.01,1.21,40.53,14.13,56.26,12.95,15.77,32.07,24.79,52.51,24.79h217.57c31.86,0,59.08-21.69,66.21-52.73l7.71-33.5c.29-1.25.43-2.46.5-3.71l18.73-82.58c4.07-17.91,2.68-32.61-4.17-44.02-6.89-11.42-19.51-17.12-37.85-17.12-8.45,0-17.16,1.89-26.18,5.71-8.99,3.82-16.2,9.13-21.69,15.91l4.03-17.62h-45.45l-36.35,157.78h46.98l21.48-92.25c1.78-7.81,5.57-14.23,11.31-19.3,5.81-5.07,12.49-7.6,20.12-7.6,8.24,0,13.95,2.43,17.05,7.28,3.1,4.82,3.78,11.27,1.93,19.3l-20.01,88.04h-.04c-.07.21-.18.43-.25.68h.43l-2.93,12.77c-2.32,10.13-11.17,17.16-21.55,17.16H104.96c-9.1,0-14.59-5.07-17.09-8.1-2.5-3-6.35-9.38-4.6-18.3l52.08-264.09c3.96-20.01-1.21-40.53-14.13-56.26-12.99-15.8-32.11-24.83-52.51-24.83ZM275.77,17.56c-8.06,0-16.12,6.56-17.91,14.59l-4.17,18.37c-1.82,8.06,3.25,14.59,11.27,14.59s16.09-6.53,17.91-14.59l4.17-18.37c1.82-8.03-3.25-14.59-11.27-14.59ZM245.73,142.53c5.96,0,11.09,2.28,14.41,6.42,3.42,4.32,4.53,10.13,3.14,16.37l-45.27,196.99h-46.2l45.09-196.31c2.93-12.95,15.84-23.47,28.79-23.47M305.34,141.21c2.21,0,4.25.57,5.96,1.68l13.81,9.17c2.14,1.43,3.53,3.6,3.92,6.31.57,3.71-.68,7.81-3.5,11.27-3.35,4.14-8.35,6.71-13.09,6.71-2.25,0-4.32-.57-5.96-1.68l-13.81-9.2c-2.18-1.43-3.53-3.64-3.96-6.35-.57-3.71.71-7.81,3.5-11.27,2.53-3.1,5.89-5.32,9.56-6.24,1.21-.32,2.39-.43,3.53-.43M190.76,141.21c1.14,0,2.21.14,3.28.43,3,.86,5.24,2.93,6.24,5.78,1.07,2.96.71,6.46-.96,9.85-1.71,3.46-4.6,6.35-8.13,8.17l-17.94,9.2c-2.32,1.18-4.71,1.78-7.03,1.78-4.57,0-8.13-2.32-9.49-6.24-2.21-6.28,1.89-14.34,9.1-18.02l17.98-9.17c2.28-1.18,4.67-1.78,6.96-1.78M190.51,103.61c3.32,0,6.17,1.28,7.99,3.57,1.89,2.39,2.5,5.64,1.71,9.1-1.71,7.38-9.03,13.38-16.37,13.38h-18.34c-3.35,0-6.17-1.28-7.99-3.57-1.93-2.39-2.5-5.64-1.71-9.1,1.68-7.38,8.99-13.38,16.34-13.38h18.37M341.02,103.61c3.35,0,6.17,1.28,7.99,3.57,1.93,2.39,2.53,5.64,1.71,9.1-1.68,7.38-8.99,13.38-16.34,13.38h-18.34c-3.35,0-6.21-1.28-7.99-3.57-1.93-2.39-2.53-5.64-1.71-9.1,1.68-7.38,8.99-13.38,16.34-13.38h18.34M258.15,87.52c6.31,0,12.06,3,15.38,8.03,3.42,5.1,3.85,11.67,1.14,18.09-4.03,12.34-17.44,19.73-28.08,19.73-3.71,0-8.88-.89-12.52-5.14l-.04-.07-.07-.07c-4.07-3.75-5.53-9.81-4.03-16.62,1.93-8.56,8.78-18.73,19.87-22.22,2.78-1.11,5.64-1.68,8.38-1.68M339.27,61.37c1.14,0,2.25.18,3.25.46,3.03.86,5.24,2.93,6.28,5.78,1.03,2.96.71,6.46-1,9.81-1.71,3.5-4.57,6.39-8.1,8.17l-17.98,9.17c-2.28,1.18-4.71,1.78-6.99,1.78-4.57,0-8.13-2.32-9.52-6.21-2.18-6.28,1.93-14.34,9.1-18.02l18.02-9.2c2.28-1.18,4.71-1.78,6.96-1.78M193.08,61.37c2.21,0,4.25.57,5.96,1.68l13.81,9.17c2.14,1.43,3.53,3.64,3.92,6.35.57,3.67-.68,7.78-3.5,11.24-3.32,4.14-8.35,6.74-13.09,6.74-2.25,0-4.32-.61-5.96-1.71l-13.81-9.17c-2.5-1.68-3.96-4.39-4.07-7.63-.14-3.35,1.14-6.92,3.64-10.02,2.5-3.1,5.89-5.28,9.56-6.21,1.21-.32,2.39-.5,3.53-.5M230.93,30.48c4.6,0,8.13,2.32,9.52,6.24l5.57,15.91c2.18,6.24-1.93,14.31-9.1,18.02-2.28,1.18-4.71,1.78-6.99,1.78-1.18,0-2.25-.18-3.28-.46-3.03-.86-5.24-2.93-6.28-5.78l-5.57-15.91c-1.03-2.96-.71-6.46,1-9.85,1.71-3.46,4.57-6.35,8.1-8.13h.07c2.25-1.18,4.64-1.78,6.89-1.78M315.44,30.48h0c2.21,0,4.28.57,5.92,1.68l.14.11c2.43,1.64,3.82,4.32,3.92,7.53.14,3.39-1.14,6.96-3.6,10.02l-12.81,15.91c-3.32,4.14-8.31,6.71-13.06,6.71-2.25,0-4.32-.57-5.96-1.68-2.18-1.43-3.53-3.64-3.96-6.31-.57-3.71.71-7.81,3.53-11.27l12.77-15.91c3.32-4.14,8.35-6.71,13.09-6.71M68.72,20.02c19.91,0,38.6,8.81,51.26,24.19,12.66,15.41,17.69,35.42,13.84,54.97l-52.12,264.13c-1.89,9.52,2.28,16.41,4.92,19.62,2.64,3.25,8.56,8.63,18.3,8.63h217.57c11.13,0,20.62-7.56,23.12-18.37l2.93-12.77.43-1.93h-.25l19.73-86.79c1.93-8.42,1.18-15.34-2.18-20.51-3.42-5.32-9.6-7.99-18.37-7.99-7.99,0-15.13,2.68-21.15,7.96-6.03,5.24-9.99,12.02-11.84,20.12l-21.19,91.04h-43.7l35.64-154.61h42.17l-3.57,15.66-1.5,6.74,4.32-5.35c5.24-6.56,12.34-11.74,21.05-15.48,8.78-3.71,17.37-5.6,25.54-5.6,17.66,0,29.93,5.49,36.46,16.41,6.64,10.99,7.99,25.44,4.03,42.84l-18.73,82.55v.14l-.04.11c-.07,1.28-.21,2.43-.46,3.46l-7.71,33.53c-6.96,30.29-33.57,51.48-64.64,51.48H104.96c-19.91,0-38.6-8.81-51.26-24.19-12.66-15.41-17.69-35.42-13.84-54.97L91.98,90.94c1.89-9.52-2.28-16.41-4.92-19.62-2.64-3.25-8.56-8.63-18.3-8.63h-31.14c-11.77,0-21.3-9.6-21.3-21.33s9.56-21.33,21.3-21.33h31.11M275.77,19.17c3.32,0,6.17,1.25,7.99,3.53,1.93,2.39,2.53,5.64,1.71,9.13l-4.14,18.34c-1.71,7.38-9.03,13.38-16.37,13.38-3.32,0-6.17-1.28-7.99-3.57-1.93-2.39-2.53-5.64-1.75-9.1l4.17-18.37c1.68-7.38,9.03-13.34,16.37-13.34"/><path class="cls-4" d="M245.52,139.28c-14.34,0-28.65,11.67-31.89,25.97l-45.48,198.35-.46,1.96h52.69l.29-1.25,45.52-198.35c1.61-7.24.32-13.98-3.75-19.05-3.92-4.92-9.92-7.67-16.87-7.67l-.04.04ZM305.09,137.96c-1.39,0-2.85.18-4.32.54-4.32,1.07-8.35,3.67-11.27,7.35-3.32,4.17-4.85,9.17-4.17,13.77.57,3.53,2.46,6.56,5.35,8.53l13.81,9.2c2.21,1.46,4.85,2.21,7.71,2.21,5.67,0,11.63-3.03,15.59-7.88,3.32-4.17,4.85-9.17,4.1-13.77-.54-3.57-2.43-6.56-5.32-8.49l-13.81-9.17c-2.21-1.46-4.85-2.21-7.71-2.21l.04-.07ZM190.54,137.96c-2.75,0-5.67.71-8.42,2.14l-17.94,9.17c-8.56,4.39-13.34,14.2-10.67,21.9,1.82,5.17,6.6,8.38,12.49,8.38,2.82,0,5.74-.75,8.42-2.14l17.98-9.2c4.14-2.1,7.49-5.49,9.52-9.56,2.03-4.17,2.43-8.53,1.14-12.34-1.39-3.85-4.35-6.64-8.42-7.78-1.28-.39-2.68-.57-4.14-.57h.04ZM190.3,100.36h-18.34c-8.74,0-17.44,7.1-19.48,15.84-1,4.46-.18,8.63,2.35,11.81,2.46,3.07,6.17,4.74,10.52,4.74h18.34c8.74,0,17.44-7.1,19.44-15.84,1.03-4.46.21-8.63-2.35-11.81-2.43-3.07-6.17-4.74-10.49-4.74ZM340.77,100.36h-18.34c-8.74,0-17.48,7.1-19.48,15.84-1,4.46-.18,8.63,2.35,11.81,2.46,3.07,6.17,4.74,10.49,4.74h18.37c8.74,0,17.44-7.1,19.44-15.84,1.03-4.46.21-8.63-2.35-11.81-2.43-3.07-6.17-4.74-10.49-4.74ZM257.93,84.24c-3.17,0-6.42.64-9.6,1.93-10.42,3.28-19.19,13.13-21.76,24.47-1.78,7.92,0,15.09,4.89,19.66,3.5,4.03,8.63,6.21,14.84,6.21,11.77,0,26.61-8.2,31.11-21.94,3-7.17,2.46-14.8-1.53-20.83-3.92-5.92-10.67-9.49-18.02-9.49h.07ZM339.02,58.09c-2.78,0-5.67.75-8.42,2.14l-18.02,9.2c-8.53,4.35-13.31,14.2-10.63,21.9,1.82,5.14,6.6,8.35,12.49,8.35,2.82,0,5.74-.71,8.42-2.14l17.98-9.17c4.14-2.1,7.49-5.53,9.49-9.6,2.07-4.17,2.46-8.53,1.18-12.31-1.39-3.89-4.35-6.67-8.42-7.81-1.28-.39-2.71-.57-4.14-.57h.07ZM192.86,58.09c-1.39,0-2.85.18-4.32.57-4.32,1.07-8.31,3.71-11.24,7.35-2.96,3.67-4.49,7.99-4.35,12.13.18,4.32,2.14,7.88,5.53,10.13l13.77,9.2c2.21,1.46,4.85,2.21,7.71,2.21,5.71,0,11.63-3.03,15.59-7.88,3.35-4.17,4.85-9.17,4.14-13.73-.54-3.57-2.46-6.6-5.35-8.53l-13.81-9.17c-2.18-1.46-4.82-2.21-7.67-2.21v-.07ZM230.71,27.19c-2.78,0-5.67.71-8.42,2.1h-.11v.04c-4.07,2.1-7.38,5.53-9.42,9.56-2.07,4.17-2.43,8.53-1.14,12.31l5.57,15.91c1.39,3.89,4.35,6.67,8.42,7.81,1.28.39,2.68.57,4.1.57,2.82,0,5.71-.71,8.45-2.14,8.53-4.35,13.31-14.2,10.63-21.9l-5.57-15.91c-1.78-5.14-6.56-8.35-12.49-8.35h-.04ZM315.19,27.19h0c-5.71,0-11.67,3-15.55,7.88l-12.81,15.91c-3.32,4.17-4.85,9.2-4.14,13.77.54,3.53,2.43,6.56,5.32,8.49,2.21,1.46,4.85,2.21,7.71,2.21,5.71,0,11.63-3.03,15.55-7.88l12.77-15.91c2.96-3.67,4.49-7.99,4.32-12.13-.14-4.32-2.1-7.88-5.49-10.13l-.39-.25c-2.1-1.28-4.64-1.93-7.28-1.93v-.04ZM68.58,16.71h-31.11c-13.48,0-24.47,11.02-24.47,24.51s10.99,24.51,24.47,24.51h31.11c8.42,0,13.56,4.67,15.84,7.49,2.28,2.78,5.92,8.7,4.25,16.98l-52.05,264.27c-4.03,20.51,1.25,41.52,14.52,57.65,13.23,16.12,32.82,25.4,53.65,25.4h217.5c32.61,0,60.47-22.22,67.74-53.97l7.71-33.53c.29-1.18.43-2.46.54-3.85l18.69-82.48c4.14-18.27,2.68-33.46-4.39-45.23-7.17-11.88-20.37-17.91-39.17-17.91-8.63,0-17.62,1.96-26.79,5.85-7.1,3.03-13.2,6.99-18.19,11.84l2.68-11.7.46-1.96h-48.66l-.29,1.25-36.35,157.89-.43,1.93h50.19l.29-1.25,21.48-92.29c1.68-7.49,5.32-13.7,10.84-18.51,5.42-4.74,11.84-7.17,19.05-7.17,7.71,0,12.88,2.14,15.7,6.53,2.85,4.46,3.42,10.52,1.71,18.09l-19.87,87.61-.14.36-.11.36-.11.29-.71,2.1h.61l-2.46,10.84c-2.18,9.38-10.38,15.91-19.98,15.91H104.79c-8.42,0-13.52-4.67-15.84-7.49-2.28-2.78-5.89-8.7-4.25-16.98l52.05-264.31c4.03-20.48-1.25-41.49-14.48-57.65-13.23-16.09-32.82-25.36-53.69-25.36ZM275.52,15.85c-8.74,0-17.48,7.1-19.44,15.84l-4.17,18.37c-1.03,4.46-.21,8.63,2.35,11.81,2.43,3.07,6.17,4.74,10.49,4.74,8.74,0,17.48-7.1,19.44-15.84l4.17-18.37c1.03-4.46.21-8.63-2.35-11.81-2.43-3.07-6.17-4.74-10.49-4.74ZM245.52,140.89c13.63,0,22.19,11.06,19.09,24.72l-45.48,198.35h-49.41l45.48-198.35c3.1-13.66,16.66-24.72,30.36-24.72M305.09,139.53c2.5,0,4.85.68,6.81,2l13.81,9.17c6.03,4.03,6.42,12.99.82,19.94-3.78,4.67-9.28,7.31-14.34,7.31-2.5,0-4.85-.61-6.81-1.93l-13.81-9.2c-6.03-4.03-6.42-12.99-.82-19.94,2.71-3.39,6.39-5.81,10.38-6.81,1.36-.36,2.68-.54,3.96-.54M190.54,139.53c1.28,0,2.53.18,3.71.54,3.53,1,6.14,3.42,7.31,6.81,1.18,3.35.78,7.28-1.07,11.06-1.86,3.78-4.99,6.96-8.81,8.88l-17.94,9.2c-2.57,1.32-5.24,1.93-7.74,1.93-5.07,0-9.38-2.6-10.99-7.28-2.46-6.99,2-15.95,9.85-19.94l17.98-9.2c2.53-1.32,5.17-2,7.67-2M190.3,101.97c8.06,0,13.09,6.53,11.31,14.59-1.82,8.06-9.88,14.63-17.91,14.63h-18.34c-8.06,0-13.13-6.56-11.31-14.63,1.82-8.06,9.85-14.59,17.91-14.59h18.34M340.77,101.97c8.06,0,13.09,6.53,11.31,14.59-1.82,8.06-9.88,14.63-17.91,14.63h-18.37c-8.03,0-13.09-6.56-11.27-14.63,1.82-8.06,9.85-14.59,17.91-14.59h18.34M257.93,85.84c14.02,0,24.19,13.48,18.02,28.22-4.1,12.49-17.87,20.8-29.61,20.8-5.42,0-10.38-1.78-13.7-5.67-11.77-10.92-1.89-35.78,16.3-41.52,3.07-1.25,6.14-1.82,8.99-1.82M339.02,59.69c1.28,0,2.53.14,3.67.5,3.53,1,6.17,3.39,7.31,6.78,1.18,3.39.86,7.31-1.03,11.09s-4.99,6.92-8.81,8.85l-17.94,9.2c-2.64,1.36-5.28,1.96-7.74,1.96-5.07,0-9.38-2.6-10.99-7.31-2.46-6.96,2-15.95,9.85-19.94l17.98-9.2c2.57-1.28,5.21-1.96,7.71-1.96M192.86,59.69c2.53,0,4.89.64,6.81,1.96l13.81,9.17c6.03,4.03,6.42,12.99.82,19.94-3.78,4.71-9.28,7.35-14.34,7.35-2.46,0-4.82-.64-6.81-1.96l-13.77-9.2c-2.93-1.93-4.64-5.07-4.78-8.88-.18-3.78,1.25-7.71,3.96-11.06,2.71-3.39,6.39-5.81,10.42-6.78,1.32-.36,2.68-.5,3.92-.5M230.71,28.76c5.07,0,9.38,2.6,11.02,7.31l5.57,15.91c2.39,6.96-2.03,15.91-9.88,19.94-2.53,1.32-5.17,2-7.71,2-1.25,0-2.5-.18-3.67-.54-3.53-1-6.14-3.42-7.31-6.81l-5.57-15.91c-1.18-3.35-.78-7.28,1.07-11.06,1.86-3.82,4.96-6.96,8.78-8.88,2.6-1.36,5.24-1.96,7.71-1.96M315.19,28.76c2.46,0,4.82.64,6.81,1.96,2.93,1.93,4.64,5.07,4.78,8.88.14,3.78-1.25,7.71-3.96,11.06l-12.81,15.91c-3.75,4.67-9.28,7.31-14.31,7.31-2.46,0-4.82-.64-6.85-1.96-6.03-4-6.42-12.99-.82-19.94l12.81-15.91c3.75-4.71,9.24-7.31,14.31-7.31M68.58,18.31c20.37,0,39.49,9.03,52.48,24.79,12.95,15.73,18.09,36.28,14.13,56.29l-52.08,264.23c-1.75,8.92,2.14,15.3,4.64,18.34,2.46,3.03,7.96,8.1,17.05,8.1h217.5c10.38,0,19.23-7.06,21.55-17.16l2.93-12.77h-.43c.07-.21.18-.46.21-.71h.07l20.01-88.08c1.82-8.03,1.18-14.48-1.96-19.3-3.1-4.85-8.78-7.28-17.02-7.28-7.63,0-14.31,2.53-20.12,7.6-5.78,5.03-9.56,11.49-11.31,19.3l-21.48,92.32h-46.95l36.35-157.89h45.38l-4,17.62c5.46-6.78,12.7-12.09,21.69-15.91,8.99-3.82,17.73-5.71,26.18-5.71,18.3,0,30.93,5.71,37.78,17.16,6.88,11.42,8.28,26.11,4.21,44.06l-18.73,82.58c-.07,1.25-.21,2.5-.5,3.71l-7.71,33.53c-7.13,31.07-34.35,52.73-66.17,52.73H104.79c-20.37,0-39.49-9.03-52.44-24.79-12.95-15.73-18.12-36.28-14.16-56.29L90.27,90.55c1.75-8.92-2.14-15.3-4.6-18.34-2.5-3.03-7.99-8.06-17.09-8.06h-31.11c-12.63,0-22.87-10.27-22.87-22.94s10.24-22.9,22.87-22.9h31.11M275.52,17.46c8.06,0,13.09,6.53,11.27,14.59l-4.14,18.37c-1.82,8.06-9.88,14.63-17.91,14.63s-13.09-6.56-11.31-14.63l4.17-18.37c1.82-8.06,9.88-14.59,17.91-14.59"/></svg>