<?xml version="1.0" encoding="UTF-8"?><svg id="Layer_1" xmlns="http://www.w3.org/2000/svg" xmlns:xlink="http://www.w3.org/1999/xlink" viewBox="0 0 200 200"><defs><style>.cls-1{fill:url(#linear-gradient-2);}.cls-2{fill:url(#linear-gradient);}</style><linearGradient id="linear-gradient" x1="7.15" y1="100" x2="192.74" y2="100" gradientUnits="userSpaceOnUse"><stop offset="0" stop-color="#0e90a2"/><stop offset=".32" stop-color="#19a574"/><stop offset="1" stop-color="#90c43c"/></linearGradient><linearGradient id="linear-gradient-2" x1="123" y1="42.28" x2="192.85" y2="42.28" xlink:href="#linear-gradient"/></defs><path class="cls-2" d="M159.55,104.42s0,0,0,.01c-2.16,29.44-25.67,52.95-55.11,55.12-1.47.11-2.94.16-4.44.16-1.34,0-2.68-.05-4-.13-31.11-2.06-55.72-27.95-55.72-59.59s26.74-59.71,59.71-59.71V7.15C48.72,7.15,7.15,48.72,7.15,100s38.25,89.45,86.63,92.65c2.06.14,4.13.21,6.22.21,2.32,0,4.62-.08,6.9-.25,45.78-3.36,82.33-39.92,85.69-85.7.06-.82.11-1.65.15-2.47h-33.19Z"/><polygon class="cls-1" points="123 36.42 163.3 36.42 163.3 77.41 192.85 48.13 192.85 7.15 152 7.15 123 36.42"/></svg>