<?xml version="1.0" encoding="UTF-8"?><svg id="Layer_1" xmlns="http://www.w3.org/2000/svg" xmlns:xlink="http://www.w3.org/1999/xlink" viewBox="0 0 1615.04 535.56"><defs><style>.cls-1{clip-path:url(#clippath-4);}.cls-2{fill:url(#linear-gradient-2);}.cls-3{fill:none;}.cls-4{fill:url(#linear-gradient-4);}.cls-5{fill:url(#linear-gradient-3);}.cls-6{clip-path:url(#clippath-1);}.cls-7{fill:url(#linear-gradient-5);}.cls-8{clip-path:url(#clippath-3);}.cls-9{clip-path:url(#clippath-2);}.cls-10{fill:url(#linear-gradient);}.cls-11{clip-path:url(#clippath);}</style><clipPath id="clippath"><path class="cls-3" d="M927.88,245.81l-35.9,92.98-36.75-92.98h-36.47l56.41,130.11h33.05l54.41-130.11h-34.76ZM724.33,341.06c-7.51-7.38-11.25-17.5-11.25-30.32s3.75-22.85,11.25-30.06c7.5-7.22,16.67-10.82,27.49-10.82s19.99,3.6,27.5,10.82c7.5,7.21,11.25,17.22,11.25,30.06s-3.75,23.16-11.25,30.45c-7.51,7.31-16.67,10.96-27.5,10.96s-19.99-3.7-27.49-11.1M700.4,261.31c-13.58,13.01-20.36,29.49-20.36,49.43s6.77,36.47,20.36,49.56c13.58,13.09,30.73,19.63,51.42,19.63s38.13-6.54,51.71-19.63c13.58-13.09,20.38-29.62,20.38-49.56s-6.79-36.43-20.38-49.43c-13.57-13-30.81-19.5-51.71-19.5s-37.84,6.5-51.42,19.5M1001.66,350.68c-3.61-3.29-5.41-7.25-5.41-11.88,0-9.8,6.17-15.67,18.53-17.64l36.17-5.07v5.89c0,11.93-3.19,20.53-9.55,25.78-6.37,5.25-14.67,7.88-24.93,7.88-6.26,0-11.2-1.64-14.81-4.95M984,254.23c-10.64,8.28-16.62,18.3-17.95,30.06l30.2,6.41c.75-6.94,3.61-12.6,8.55-16.97,4.93-4.36,11.57-6.54,19.93-6.54s15.29,1.83,19.66,5.47c4.37,3.65,6.55,8.42,6.55,14.3,0,5.34-3.42,8.46-10.25,9.35l-35.62,5.07c-12.53,1.79-22.64,6-30.34,12.69-7.7,6.69-11.53,15.54-11.53,26.58s4.31,19.91,12.96,27.66c8.63,7.75,19.99,11.62,34.05,11.62,19.37,0,33.61-6.85,42.73-20.57,0,8.37.47,13.89,1.42,16.56h30.77c-1.14-5.34-1.71-12.28-1.71-20.84v-64.66c0-14.24-4.81-25.91-14.39-34.99-9.59-9.09-24.46-13.63-44.59-13.63-16.34,0-29.82,4.14-40.45,12.42M625.91,186.5v134.4l-91.74-134.4h-43.59v189.43h34.19v-143.47l99.71,143.47h35.61v-189.43h-34.18Z"/></clipPath><linearGradient id="linear-gradient" x1="1285.31" y1="-1714.26" x2="1294.06" y2="-1714.26" gradientTransform="translate(45566.19 -104982.63) rotate(60) scale(53.32 -53.32)" gradientUnits="userSpaceOnUse"><stop offset="0" stop-color="#006582"/><stop offset=".3" stop-color="#287b6f"/><stop offset=".96" stop-color="#8fb23f"/><stop offset="1" stop-color="#95b63d"/></linearGradient><clipPath id="clippath-1"><polygon class="cls-3" points="358.98 345.03 384.59 373.61 401.31 360.45 375.69 331.86 358.98 345.03"/></clipPath><linearGradient id="linear-gradient-2" x1="1407.12" y1="-1737.51" x2="1415.43" y2="-1737.51" gradientTransform="translate(29334.74 -22296.36) rotate(91.08) scale(16.42 -16.42)" gradientUnits="userSpaceOnUse"><stop offset="0" stop-color="#1f4b9d"/><stop offset=".18" stop-color="#1e4694"/><stop offset=".48" stop-color="#1c397c"/><stop offset=".86" stop-color="#192455"/><stop offset=".95" stop-color="#191e4a"/><stop offset="1" stop-color="#191e4a"/></linearGradient><clipPath id="clippath-2"><path class="cls-3" d="M375.81,368.53l49.12,61.58c6.69,8.15,19.26,9.42,27.65,2.81,8.39-6.62,9.23-18.45,1.82-26.04l-56.93-55.42-21.67,17.07Z"/></clipPath><linearGradient id="linear-gradient-3" x1="1473.78" y1="-1699.28" x2="1482.25" y2="-1699.28" gradientTransform="translate(25911.27 -11940.35) rotate(105.11) scale(12.59 -12.59)" xlink:href="#linear-gradient-2"/><clipPath id="clippath-3"><path class="cls-3" d="M251.45,293.26v7.85c0,12.42,10.79,22.54,24.05,22.54h8.36c4.03,0,7.31-3.08,7.31-6.86s-3.29-6.86-7.31-6.86h-8.36c-5.19,0-9.41-3.96-9.41-8.82v-7.85c0-3.79-3.28-6.87-7.31-6.87s-7.32,3.08-7.32,6.87M343.44,293.26v7.85c0,4.86-4.22,8.82-9.4,8.82h-8.37c-4.03,0-7.31,3.07-7.31,6.86s3.29,6.86,7.31,6.86h8.37c13.26,0,24.04-10.12,24.04-22.54v-7.85c0-3.79-3.29-6.87-7.32-6.87s-7.31,3.08-7.31,6.87M293.27,273.65c0,5.95,5.15,10.79,11.49,10.79s11.5-4.84,11.5-10.79-5.15-10.78-11.5-10.78-11.49,4.83-11.49,10.78M282.21,273.63c2.78-3.77,11.25-12.73,22.55-12.73s19.76,8.94,22.55,12.71c-2.8,3.8-11.28,12.77-22.55,12.77s-19.81-8.98-22.55-12.76M268.27,268.8c-1.65,3.09-1.65,6.63,0,9.71,2.44,4.57,15.76,21.61,36.49,21.61s34.08-17.06,36.51-21.63c1.25-2.35,1.54-4.97.88-7.46l.24-.12-1.12-2.1c-2.42-4.58-15.73-21.63-36.5-21.63s-34.07,17.05-36.49,21.62M275.5,223.65c-13.27,0-24.05,10.12-24.05,22.55v7.84c0,3.79,3.29,6.86,7.32,6.86s7.31-3.07,7.31-6.86v-7.84c0-4.87,4.22-8.83,9.41-8.83h8.36c4.03,0,7.31-3.07,7.31-6.86s-3.29-6.86-7.31-6.86h-8.36ZM325.67,223.65c-4.03,0-7.31,3.08-7.31,6.86s3.29,6.86,7.31,6.86h8.37c5.18,0,9.4,3.96,9.4,8.83v7.84c0,3.79,3.29,6.86,7.31,6.86s7.32-3.07,7.32-6.86v-7.84c0-12.43-10.79-22.55-24.04-22.55h-8.37ZM297.08,351.77c-23.69-1.93-45.16-12.4-60.45-29.47-15.29-17.07-22.58-38.71-20.52-60.92.15-1.66.35-3.3.6-4.93,3.16-20.25,13.97-38.48,30.82-51.76,18.21-14.34,41.27-21.17,64.96-19.24,23.69,1.93,45.15,12.4,60.45,29.47,31.56,35.25,26.67,88-10.9,117.61-16.18,12.75-36.21,19.57-57.09,19.57-2.61,0-5.24-.1-7.87-.32M232.66,188.08c-22.93,18.06-36.99,43.38-39.58,71.41-2.59,27.99,6.58,55.24,25.85,76.74,39.77,44.41,110.64,50.19,157.98,12.89,21.87-17.23,34.94-40.66,38.78-65.29,4.46-28.68-3.64-58.97-25.03-82.87-19.27-21.51-46.31-34.7-76.15-37.13-3.31-.27-6.61-.4-9.89-.4-26.32,0-51.55,8.59-71.95,24.65"/></clipPath><linearGradient id="linear-gradient-4" x1="1208.99" y1="-1779.56" x2="1217.84" y2="-1779.56" gradientTransform="translate(-30420.64 -44786.14) scale(25.32 -25.32)" xlink:href="#linear-gradient"/><clipPath id="clippath-4"><path class="cls-3" d="M218.56,506.29c-3.37,3.05-3.46,8.09-.21,11.25,3.25,3.16,8.62,3.26,11.99.21,3.38-3.06,3.48-8.09.22-11.25-1.66-1.62-3.88-2.43-6.1-2.43s-4.25.74-5.9,2.23M347.32,502.11c-3.37,3.05-3.47,8.09-.22,11.26,3.25,3.16,8.62,3.25,12,.2,3.37-3.05,3.47-8.09.22-11.25-1.66-1.62-3.89-2.43-6.11-2.43s-4.24.74-5.89,2.23M256.83,507.64c-.42,7.91,6.08,14.62,14.5,15.01,8.42.37,15.59-5.71,16-13.61.41-7.91-6.08-14.62-14.51-15.01-.26,0-.5-.02-.76-.02-8.08,0-14.84,5.97-15.23,13.63M312.89,473.79c-8.42.35-14.96,7.03-14.59,14.92.36,7.91,7.49,14.04,15.92,13.69,8.42-.34,14.96-7.03,14.59-14.92-.35-7.69-7.11-13.71-15.24-13.7-.23,0-.45,0-.68,0M171.67,480.19c-3.16,7.33.62,15.68,8.45,18.64,7.81,2.96,16.72-.57,19.87-7.91,3.16-7.34-.61-15.69-8.44-18.64-1.87-.71-3.81-1.05-5.71-1.05-6.04,0-11.77,3.38-14.17,8.96M134.25,468.68c-4.66.52-7.97,4.48-7.41,8.84.55,4.37,4.77,7.48,9.43,6.96,4.65-.52,7.97-4.48,7.42-8.84-.52-4.04-4.18-7.01-8.42-7.01-.34,0-.67.02-1.02.06M219.28,475.23c-2.35,7.59,2.32,15.54,10.42,17.74,8.1,2.2,16.57-2.18,18.91-9.77,2.35-7.6-2.32-15.55-10.41-17.74-1.43-.39-2.85-.57-4.26-.57-6.62,0-12.73,4.08-14.66,10.35M262.69,476.45c-.35,7.03,5.41,13,12.9,13.34,7.49.35,13.86-5.07,14.22-12.09.36-7.03-5.41-13-12.89-13.35-.23,0-.45,0-.67,0-7.2,0-13.2,5.3-13.56,12.11M354.16,463.37c-7.16,2.1-11.15,9.25-8.9,15.96,2.24,6.7,9.86,10.44,17.01,8.34,7.15-2.1,11.14-9.24,8.89-15.95-1.82-5.45-7.16-8.93-12.94-8.93-1.35,0-2.72.19-4.06.58M188.16,452.55c-2.81,6.52.55,13.94,7.5,16.58,6.94,2.62,14.86-.52,17.67-7.03,2.81-6.53-.55-13.94-7.51-16.58-1.66-.62-3.38-.92-5.08-.92-5.37,0-10.45,3.01-12.58,7.96M311.53,444.01c-7.48.3-13.3,6.24-12.98,13.26.33,7.03,6.66,12.47,14.15,12.17,7.49-.31,13.3-6.25,12.98-13.27-.32-6.83-6.33-12.18-13.57-12.18-.19,0-.39,0-.58.02M268.14,448.42c-.32,6.15,4.74,11.37,11.28,11.67,6.55.31,12.12-4.43,12.44-10.58.32-6.15-4.73-11.37-11.28-11.67-.19,0-.4-.02-.58-.02-6.3,0-11.55,4.64-11.86,10.6M347.85,437.3c-6.26,1.84-9.75,8.09-7.78,13.96,1.97,5.87,8.62,9.14,14.89,7.3,6.26-1.84,9.74-8.09,7.78-13.96-1.59-4.76-6.28-7.81-11.33-7.81-1.17,0-2.37.16-3.55.51M230.23,445.51c-2.09,6.76,2.06,13.82,9.26,15.78,7.2,1.95,14.73-1.94,16.82-8.69,2.08-6.76-2.06-13.82-9.26-15.77-1.27-.35-2.54-.51-3.79-.51-5.89,0-11.31,3.62-13.03,9.18M151,440.24c-4.74,6.54-2.92,15.45,4.06,19.9,6.97,4.44,16.47,2.74,21.22-3.8,4.73-6.55,2.92-15.46-4.06-19.9-2.63-1.68-5.61-2.48-8.57-2.48-4.89,0-9.69,2.2-12.65,6.28M105.64,427.11c-5.61,5.9-5.07,14.96,1.23,20.21,6.29,5.27,15.94,4.76,21.56-1.15,5.61-5.9,5.07-14.96-1.23-20.22-2.91-2.43-6.54-3.64-10.16-3.64-4.21,0-8.39,1.62-11.41,4.79M203.13,427.77c-2.45,5.71.49,12.2,6.56,14.5,6.08,2.3,13.01-.45,15.46-6.16,2.46-5.7-.48-12.19-6.56-14.5-1.46-.55-2.97-.81-4.45-.81-4.69,0-9.15,2.64-11.02,6.98M310.3,417.41c-6.56.27-11.64,5.46-11.36,11.61.29,6.15,5.83,10.91,12.38,10.66,6.56-.27,11.64-5.46,11.36-11.62-.27-5.98-5.53-10.66-11.85-10.66-.18,0-.35,0-.53,0M273.17,423.56c-.28,5.27,4.06,9.75,9.67,10.01,5.61.26,10.39-3.81,10.67-9.07.27-5.27-4.06-9.75-9.68-10.01-.17,0-.35,0-.51,0-5.39,0-9.89,3.98-10.15,9.08M342.31,414.33c-5.37,1.58-8.36,6.93-6.68,11.97,1.68,5.03,7.39,7.83,12.76,6.25,5.38-1.57,8.35-6.93,6.68-11.97-1.36-4.08-5.38-6.69-9.71-6.69-1.01,0-2.03.14-3.05.44M240.22,418.85c-1.82,5.91,1.81,12.09,8.11,13.8,6.3,1.72,12.88-1.69,14.71-7.6,1.82-5.91-1.81-12.09-8.1-13.8-1.11-.3-2.22-.44-3.31-.44-5.15,0-9.9,3.17-11.41,8.04M171.22,415.16c-4.22,5.82-2.59,13.74,3.6,17.69,6.2,3.95,14.64,2.44,18.85-3.37,4.22-5.82,2.6-13.74-3.6-17.69-2.34-1.49-4.99-2.2-7.62-2.2-4.35,0-8.62,1.95-11.25,5.57M58.8,410.37c-5.61,5.9-5.07,14.96,1.23,20.21,6.29,5.27,15.95,4.76,21.56-1.15,5.61-5.9,5.07-14.96-1.23-20.22-2.91-2.43-6.54-3.64-10.17-3.64-4.2,0-8.38,1.62-11.4,4.79M131.11,406.32c-4.99,5.25-4.5,13.3,1.1,17.97,5.59,4.68,14.17,4.23,19.16-1.02,4.99-5.25,4.51-13.3-1.09-17.97-2.59-2.17-5.82-3.23-9.03-3.23-3.74,0-7.46,1.43-10.14,4.25M216.6,405.84c-2.11,4.89.42,10.45,5.62,12.43,5.22,1.98,11.15-.39,13.26-5.27,2.11-4.89-.41-10.46-5.63-12.43-1.25-.47-2.54-.7-3.81-.7-4.03,0-7.84,2.25-9.44,5.97M337.52,394.46c-4.47,1.32-6.95,5.78-5.55,9.97,1.4,4.19,6.16,6.53,10.63,5.22,4.47-1.31,6.95-5.77,5.55-9.97-1.13-3.4-4.48-5.58-8.09-5.58-.84,0-1.69.12-2.54.37M299.04,391.14c-5.61.22-9.98,4.68-9.73,9.95.24,5.27,4.99,9.36,10.61,9.14,5.62-.23,9.98-4.69,9.73-9.96-.23-5.12-4.74-9.14-10.15-9.14-.16,0-.31,0-.46,0M249.28,395.26c-1.57,5.07,1.54,10.36,6.94,11.83s11.05-1.45,12.61-6.51c1.57-5.07-1.54-10.37-6.95-11.83-.94-.26-1.9-.37-2.83-.37-4.41,0-8.48,2.71-9.77,6.89M189.52,392.72c-3.67,5.09-2.27,12.02,3.15,15.48,5.43,3.45,12.81,2.13,16.51-2.97,3.68-5.08,2.27-12.01-3.16-15.47-2.04-1.3-4.36-1.92-6.65-1.92-3.81,0-7.54,1.7-9.85,4.88M154.13,387.73c-4.37,4.59-3.94,11.64.96,15.73,4.89,4.09,12.41,3.7,16.77-.9,4.37-4.59,3.94-11.63-.96-15.73-2.27-1.89-5.09-2.82-7.91-2.82-3.27,0-6.52,1.25-8.86,3.72M97.12,386.45c-6.69,4.83-7.94,13.82-2.8,20.09,5.14,6.26,14.73,7.43,21.42,2.62,6.69-4.83,7.94-13.81,2.79-20.08-3-3.67-7.54-5.6-12.11-5.6-3.25,0-6.53.97-9.3,2.97M216.59,378.8c-1.75,4.08.35,8.72,4.69,10.36,4.34,1.64,9.28-.32,11.03-4.4,1.76-4.07-.34-8.71-4.68-10.36-1.04-.4-2.12-.58-3.17-.58-3.36,0-6.54,1.88-7.87,4.97M174.7,371.36c-3.75,3.93-3.37,9.97.82,13.48,4.19,3.5,10.63,3.16,14.38-.76,3.74-3.94,3.36-9.97-.82-13.49-1.95-1.63-4.37-2.42-6.77-2.42-2.81,0-5.59,1.08-7.61,3.2M124.69,368.57c-5.94,4.29-7.06,12.28-2.49,17.86,4.57,5.57,13.1,6.61,19.03,2.33,5.95-4.29,7.07-12.28,2.49-17.86-2.67-3.26-6.69-4.97-10.77-4.97-2.89,0-5.8.86-8.26,2.64M60.94,358.65c-7.35,3.88-9.95,12.61-5.82,19.51,4.14,6.89,13.44,9.33,20.79,5.46,7.36-3.88,9.96-12.61,5.83-19.5-2.81-4.68-7.99-7.31-13.33-7.31-2.54,0-5.11.59-7.47,1.84M192.84,357.19c-3.12,3.28-2.82,8.31.68,11.24,3.5,2.93,8.86,2.64,11.98-.64,3.12-3.28,2.82-8.3-.68-11.23-1.62-1.36-3.64-2.03-5.65-2.03-2.33,0-4.66.9-6.33,2.66M156.71,350.7c-5.21,3.75-6.17,10.75-2.18,15.62,4,4.88,11.47,5.8,16.66,2.04,5.21-3.75,6.18-10.75,2.18-15.62-2.34-2.86-5.86-4.35-9.43-4.35-2.52,0-5.07.76-7.23,2.31M92.21,346.71c-6.54,3.45-8.85,11.21-5.17,17.34,3.67,6.13,11.95,8.3,18.48,4.85,6.54-3.44,8.86-11.2,5.18-17.34-2.5-4.14-7.1-6.49-11.85-6.49-2.25,0-4.53.53-6.64,1.64M28.37,339.21c-4.6.83-7.62,5-6.73,9.31.88,4.32,5.32,7.15,9.92,6.33,4.61-.83,7.62-5,6.75-9.32-.78-3.81-4.34-6.46-8.33-6.46-.53,0-1.06.04-1.6.14M120.41,336.12c-5.72,3.02-7.75,9.82-4.53,15.17,3.22,5.36,10.46,7.27,16.18,4.24,5.72-3.01,7.74-9.8,4.53-15.17-2.19-3.63-6.22-5.67-10.37-5.67-1.97,0-3.98.46-5.81,1.43M145.53,326.88c-4.9,2.58-6.63,8.4-3.88,13,2.75,4.59,8.97,6.22,13.87,3.64,4.91-2.58,6.64-8.4,3.88-13.01-1.87-3.11-5.32-4.86-8.88-4.86-1.69,0-3.4.39-4.99,1.23M63.78,319.17c-7.96,2.6-12.17,10.77-9.39,18.24,2.77,7.47,11.49,11.41,19.45,8.81,7.96-2.61,12.17-10.77,9.39-18.25-2.2-5.9-8.1-9.61-14.42-9.61-1.67,0-3.36.26-5.03.81M167.58,318.98c-4.08,2.16-5.53,7.01-3.23,10.84,2.3,3.83,7.47,5.19,11.55,3.03,4.09-2.15,5.54-7,3.24-10.83-1.56-2.6-4.44-4.06-7.4-4.06-1.41,0-2.83.33-4.15,1.02M95.95,310.34c-7.08,2.32-10.81,9.58-8.34,16.21,2.47,6.64,10.21,10.14,17.29,7.82,7.08-2.31,10.82-9.58,8.36-16.21-1.96-5.25-7.21-8.54-12.82-8.54-1.49,0-2.99.23-4.48.71M124.92,302.55c-6.2,2.03-9.47,8.38-7.31,14.18,2.16,5.81,8.93,8.88,15.12,6.85,6.19-2.03,9.47-8.37,7.31-14.18-1.71-4.59-6.3-7.47-11.21-7.47-1.3,0-2.62.2-3.91.62M157.34,295.8c-5.3,1.74-8.1,7.18-6.25,12.17,1.85,4.97,7.66,7.61,12.96,5.87,5.3-1.74,8.11-7.18,6.26-12.16-1.47-3.94-5.4-6.41-9.62-6.41-1.12,0-2.24.17-3.36.53M42.38,281.84c-8.29,1.49-13.72,8.99-12.13,16.77,1.59,7.77,9.59,12.86,17.87,11.38,8.28-1.49,13.72-8.99,12.13-16.77-1.41-6.86-7.81-11.64-14.98-11.64-.96,0-1.92.08-2.89.26M76.08,279.84c-7.37,1.32-12.19,8-10.79,14.91,1.42,6.89,8.52,11.43,15.89,10.1,7.37-1.32,12.19-7.99,10.79-14.89-1.25-6.1-6.94-10.34-13.33-10.34-.84,0-1.7.07-2.56.22M106.4,278.21c-6.45,1.15-10.67,6.99-9.43,13.03,1.23,6.05,7.45,10.02,13.89,8.85,6.45-1.15,10.67-6.98,9.44-13.03-1.09-5.34-6.07-9.05-11.66-9.05-.73,0-1.49.07-2.24.2M133.34,276.94c-5.52.99-9.14,5.99-8.08,11.16,1.04,5.18,6.39,8.59,11.91,7.59,5.53-1,9.15-6,8.08-11.18-.93-4.57-5.2-7.75-9.99-7.75-.64,0-1.28.06-1.93.17M152.44,262.01c-4.6.82-7.62,5-6.75,9.31.89,4.32,5.33,7.14,9.94,6.32,4.6-.83,7.62-4.99,6.73-9.31-.77-3.8-4.33-6.46-8.32-6.46-.53,0-1.06.05-1.6.14M114.36,258.66c-.02,6.15,5.29,11.15,11.85,11.17,6.56.02,11.89-4.97,11.91-11.11,0-6.15-5.3-11.15-11.86-11.17-6.55,0-11.89,4.97-11.9,11.11M13.95,248.8c-2.15,3.9-.53,8.7,3.63,10.73,4.16,2.03,9.28.5,11.43-3.4,2.16-3.9.54-8.7-3.61-10.72-1.25-.61-2.59-.9-3.91-.9-3.06,0-6.03,1.57-7.54,4.29M78.71,255.71c-.03,7.03,6.04,12.75,13.54,12.76,7.5.02,13.59-5.67,13.6-12.71.02-7.03-6.05-12.74-13.54-12.76h-.03c-7.49,0-13.56,5.68-13.57,12.7M39.65,255.63c-.03,7.91,6.8,14.34,15.24,14.36,8.43.02,15.28-6.39,15.3-14.29.02-7.91-6.8-14.33-15.23-14.35h-.04c-8.42,0-15.25,6.39-15.27,14.28M152.3,236.82c-.69,4.34,2.5,8.4,7.14,9.04,4.63.66,8.95-2.33,9.65-6.68.69-4.35-2.5-8.4-7.14-9.05-.43-.06-.85-.09-1.28-.09-4.13,0-7.74,2.83-8.38,6.78M127.81,231.68c-.83,5.22,2.99,10.07,8.55,10.86,5.56.78,10.75-2.81,11.58-8.02.84-5.22-2.99-10.08-8.55-10.86-.5-.08-1.01-.11-1.51-.11-4.96,0-9.31,3.4-10.07,8.13M100,225.84c-.97,6.08,3.5,11.75,9.98,12.67,6.49.91,12.54-3.28,13.51-9.37.97-6.07-3.49-11.75-9.98-12.67-.59-.08-1.19-.12-1.78-.12-5.77,0-10.85,3.95-11.73,9.48M68.89,219.28c-1.12,6.95,3.99,13.44,11.41,14.48,7.42,1.05,14.33-3.74,15.44-10.7,1.12-6.95-3.99-13.44-11.41-14.48-.68-.09-1.36-.14-2.04-.14-6.6,0-12.4,4.53-13.41,10.84M34.47,212.01c-1.25,7.82,4.5,15.11,12.83,16.29,8.34,1.17,16.13-4.21,17.37-12.03s-4.5-15.11-12.83-16.29c-.77-.11-1.53-.17-2.28-.17-7.44,0-13.96,5.1-15.09,12.2M144.15,204.75c-1.84,4.98.97,10.41,6.29,12.14,5.3,1.73,11.1-.91,12.95-5.9s-.97-10.42-6.29-12.14c-1.1-.37-2.23-.53-3.34-.53-4.22,0-8.16,2.48-9.61,6.43M170.76,192.84c-2.16,3.9-.53,8.7,3.62,10.72,4.15,2.03,9.28.51,11.44-3.4,2.15-3.89.53-8.7-3.63-10.73-1.25-.6-2.58-.89-3.9-.89-3.06,0-6.03,1.56-7.54,4.29M117.32,196.04c-2.15,5.81,1.14,12.16,7.33,14.18,6.21,2.01,12.97-1.07,15.12-6.88,2.15-5.82-1.13-12.17-7.33-14.18-1.29-.42-2.6-.61-3.89-.61-4.92,0-9.53,2.89-11.23,7.5M87.3,186.29c-2.45,6.64,1.3,13.89,8.39,16.19,7.08,2.3,14.81-1.23,17.27-7.87,2.45-6.64-1.3-13.89-8.39-16.19-1.47-.48-2.97-.71-4.44-.71-5.63,0-10.88,3.31-12.82,8.57M149.34,180.55c-2.59,4.68-.64,10.45,4.35,12.87,4.99,2.43,11.13.6,13.73-4.08,2.59-4.68.65-10.45-4.36-12.87-1.5-.73-3.1-1.08-4.68-1.08-3.68,0-7.23,1.89-9.04,5.16M54.05,175.49c-2.75,7.47,1.47,15.63,9.44,18.22s16.67-1.37,19.42-8.84c2.76-7.47-1.46-15.64-9.43-18.23-1.65-.53-3.34-.79-4.99-.79-6.32,0-12.25,3.72-14.43,9.64M125.04,166.58c-3.02,5.46-.74,12.18,5.07,15.02,5.83,2.84,13,.71,16.02-4.75,3.02-5.46.74-12.19-5.07-15.02-1.75-.85-3.62-1.25-5.46-1.25-4.29,0-8.44,2.19-10.56,6.01M170.01,159.82c-3.44,4.17-2.64,10.17,1.82,13.4,4.44,3.23,10.84,2.47,14.27-1.69,3.44-4.17,2.64-10.17-1.81-13.4-1.86-1.35-4.05-1.99-6.23-1.99-3.05,0-6.05,1.27-8.06,3.7M202.88,157.21c-3.37,3.05-3.48,8.08-.21,11.24,3.25,3.16,8.62,3.26,11.99.2,3.37-3.05,3.47-8.08.21-11.24-1.66-1.62-3.88-2.43-6.1-2.43s-4.24.74-5.89,2.23M416.18,148.96c-4.06,3.65-4.17,9.7-.27,13.5,3.91,3.8,10.34,3.9,14.4.25,4.05-3.65,4.17-9.7.27-13.5-2-1.95-4.67-2.93-7.34-2.93-2.53,0-5.08.89-7.06,2.67M97.87,150.94c-3.45,6.24-.86,13.92,5.8,17.16,6.65,3.25,14.84.81,18.29-5.43,3.45-6.25.85-13.93-5.8-17.17-2-.97-4.14-1.43-6.23-1.43-4.91,0-9.65,2.51-12.06,6.88M147.58,143.51c-4.03,4.87-3.08,11.86,2.1,15.63,5.19,3.76,12.65,2.88,16.67-1.98,4.03-4.86,3.08-11.85-2.1-15.63-2.17-1.57-4.74-2.33-7.28-2.33-3.54,0-7.05,1.49-9.39,4.32M186.78,139.14c-4.05,3.66-4.17,9.72-.27,13.51,3.9,3.79,10.34,3.9,14.4.24,4.05-3.66,4.16-9.71.26-13.5-1.99-1.94-4.66-2.92-7.33-2.92s-5.08.89-7.06,2.67M248.28,132.03c-4.27,1.8-6.18,6.51-4.26,10.52,1.92,4.01,6.94,5.8,11.22,3.99,4.27-1.8,6.18-6.51,4.26-10.51-1.41-2.96-4.51-4.7-7.75-4.7-1.16,0-2.34.22-3.47.7M331.33,133.84c-.96,4.31,1.98,8.52,6.57,9.42,4.59.91,9.09-1.85,10.04-6.15.96-4.31-1.98-8.52-6.57-9.42-.58-.12-1.17-.17-1.74-.17-3.93,0-7.46,2.58-8.3,6.33M67.8,133.62c-3.88,7.03-.96,15.67,6.53,19.31,7.48,3.65,16.7.91,20.59-6.11,3.89-7.03.97-15.67-6.53-19.32-2.24-1.09-4.65-1.61-7.01-1.61-5.53,0-10.86,2.82-13.57,7.73M295.66,122.81c-4.66.51-7.98,4.48-7.42,8.84.56,4.36,4.78,7.47,9.43,6.95s7.97-4.48,7.41-8.84c-.51-4.04-4.17-7.01-8.4-7.01-.34,0-.68.02-1.02.06M213.04,121.81c-4.82,2.72-6.38,8.58-3.48,13.11,2.9,4.52,9.15,5.98,13.96,3.26,4.82-2.71,6.38-8.58,3.49-13.1-1.91-2.98-5.29-4.63-8.74-4.63-1.78,0-3.59.44-5.23,1.36M122.46,125.25c-4.59,5.56-3.52,13.55,2.42,17.86,5.92,4.31,14.44,3.29,19.05-2.26,4.59-5.56,3.51-13.55-2.42-17.86-2.47-1.8-5.4-2.67-8.31-2.67-4.06,0-8.07,1.69-10.74,4.93M168.51,118.64c-4.73,4.27-4.86,11.32-.31,15.75,4.56,4.43,12.07,4.56,16.8.29,4.72-4.28,4.85-11.32.3-15.75-2.33-2.27-5.44-3.41-8.55-3.41s-5.93,1.04-8.24,3.12M363.32,118.54c-2.37,4.78-.17,10.46,4.92,12.69,5.1,2.23,11.16.16,13.53-4.62,2.37-4.78.18-10.46-4.92-12.69-1.39-.61-2.85-.9-4.29-.9-3.83,0-7.51,2.04-9.24,5.51M448.52,113.64c-7.66,6.92-7.9,18.35-.51,25.55,7.38,7.19,19.57,7.41,27.24.48,7.67-6.92,7.9-18.35.52-25.55-3.78-3.68-8.83-5.54-13.88-5.54s-9.63,1.68-13.36,5.06M336.18,112.43c-1.15,5.17,2.37,10.22,7.88,11.3,5.5,1.07,10.9-2.23,12.05-7.4,1.15-5.16-2.38-10.21-7.89-11.29-.7-.14-1.4-.21-2.09-.21-4.71,0-8.95,3.1-9.95,7.6M395.52,107.64c-3.26,5.34-1.3,12.14,4.39,15.2,5.68,3.07,12.95,1.22,16.21-4.11,3.26-5.34,1.3-12.15-4.39-15.21-1.86-1.01-3.9-1.48-5.9-1.48-4.12,0-8.12,2.01-10.32,5.6M301.79,107.05c-.7,5.23,3.26,10.01,8.84,10.66,5.58.65,10.67-3.06,11.37-8.29.69-5.23-3.26-10.01-8.84-10.66-.43-.06-.86-.08-1.28-.08-5.06,0-9.44,3.53-10.09,8.36M271.94,97.88c-5.51,1.1-9.01,6.16-7.84,11.32,1.16,5.17,6.57,8.45,12.07,7.36,5.5-1.1,9.01-6.17,7.85-11.33-1.02-4.48-5.25-7.57-9.95-7.57-.7,0-1.41.07-2.13.22M198.42,99c-5.62,3.16-7.45,10.01-4.06,15.28,3.37,5.27,10.68,6.98,16.29,3.81,5.63-3.16,7.45-10.02,4.06-15.28-2.22-3.48-6.15-5.41-10.18-5.41-2.08,0-4.2.51-6.11,1.59M92.04,101.52c-.71,4.34,2.49,8.4,7.12,9.05,4.63.65,8.96-2.34,9.65-6.69.69-4.34-2.5-8.4-7.12-9.05-.43-.06-.85-.08-1.28-.08-4.13,0-7.75,2.83-8.38,6.78M148.08,95.67c-5.39,4.88-5.55,12.94-.35,18.01,5.21,5.06,13.81,5.21,19.2.32,5.39-4.87,5.55-12.94.35-18-2.67-2.59-6.23-3.89-9.78-3.89s-6.78,1.18-9.42,3.56M232.05,92.27c-5.13,2.16-7.42,7.81-5.12,12.62,2.31,4.81,8.33,6.96,13.46,4.8,5.14-2.18,7.42-7.82,5.12-12.63-1.69-3.54-5.41-5.64-9.29-5.64-1.4,0-2.82.27-4.17.85M377.6,92.72c-2.33,3.81-.93,8.68,3.13,10.86,4.06,2.19,9.25.88,11.58-2.94,2.34-3.81.92-8.67-3.14-10.85-1.33-.72-2.78-1.06-4.22-1.06-2.94,0-5.79,1.44-7.36,3.99M182.05,73.44c-6.42,3.62-8.5,11.44-4.64,17.47s12.19,7.97,18.63,4.35c6.42-3.62,8.5-11.44,4.64-17.47-2.54-3.98-7.04-6.18-11.64-6.18-2.38,0-4.79.59-6.99,1.82M421.65,74.76c-3.74,6.1-1.49,13.87,5.02,17.37,6.49,3.5,14.79,1.4,18.52-4.71,3.74-6.1,1.49-13.88-5.02-17.37-2.13-1.15-4.45-1.69-6.74-1.69-4.7,0-9.28,2.3-11.79,6.4M125.49,70.24c-6.07,5.5-6.25,14.56-.39,20.26,5.84,5.7,15.51,5.86,21.59.36,6.07-5.48,6.25-14.55.4-20.25-3-2.91-7-4.38-11-4.38s-7.63,1.33-10.6,4M254.34,63.49c-6.42,1.28-10.52,7.2-9.15,13.22,1.36,6.01,7.67,9.86,14.08,8.58,6.42-1.28,10.51-7.2,9.15-13.21-1.19-5.24-6.11-8.83-11.6-8.83-.81,0-1.65.08-2.48.24M317.03,72.06c-.81,6.1,3.81,11.68,10.32,12.43,6.51.76,12.45-3.56,13.27-9.66.81-6.1-3.81-11.68-10.32-12.44-.5-.06-1-.09-1.5-.09-5.9,0-11.01,4.13-11.77,9.76M356.4,66.4c-1.74,7.74,3.57,15.33,11.81,16.95,8.26,1.61,16.36-3.35,18.07-11.1,1.74-7.74-3.57-15.33-11.82-16.95-1.05-.21-2.11-.31-3.13-.31-7.08,0-13.43,4.64-14.93,11.4M293.12,48.92c-7.44.83-12.75,7.17-11.87,14.15.89,6.98,7.65,11.96,15.1,11.12,7.44-.83,12.75-7.17,11.87-14.14-.82-6.47-6.69-11.22-13.46-11.22-.54,0-1.09.02-1.64.09M212.41,47.12c-7.69,3.24-11.12,11.72-7.67,18.93,3.46,7.22,12.5,10.44,20.19,7.19,7.7-3.25,11.13-11.72,7.68-18.93-2.55-5.31-8.12-8.45-13.95-8.45-2.09,0-4.22.41-6.25,1.26M163.94,45.17c-7.23,4.07-9.57,12.87-5.22,19.65,4.35,6.78,13.73,8.98,20.95,4.9,7.23-4.07,9.57-12.88,5.23-19.66-2.87-4.47-7.93-6.94-13.11-6.94-2.68,0-5.39.66-7.85,2.05M326.16,36.63c-.93,6.98,4.34,13.33,11.78,14.21,7.45.87,14.23-4.08,15.16-11.05.93-6.98-4.35-13.35-11.78-14.22-.58-.07-1.14-.1-1.71-.1-6.75,0-12.59,4.71-13.45,11.15M292.19,21.49c-4.27,1.79-6.17,6.5-4.25,10.51,1.92,4,6.94,5.8,11.21,3.99,4.27-1.8,6.18-6.51,4.26-10.52-1.41-2.95-4.5-4.69-7.74-4.69-1.16,0-2.35.22-3.48.71M246.83,13.22c-8.24,1.64-13.51,9.25-11.76,16.99,1.75,7.73,9.86,12.67,18.12,11.03,8.24-1.64,13.51-9.25,11.76-16.98-1.53-6.74-7.87-11.35-14.93-11.35-1.04,0-2.12.1-3.19.32"/></clipPath><linearGradient id="linear-gradient-5" x1="1279.87" y1="-1715.22" x2="1288.49" y2="-1715.22" gradientTransform="translate(59374.43 -114860.74) rotate(64) scale(60.41 -60.41)" gradientUnits="userSpaceOnUse"><stop offset="0" stop-color="#1b4899"/><stop offset=".17" stop-color="#28548e"/><stop offset=".48" stop-color="#4d7573"/><stop offset=".91" stop-color="#87aa46"/><stop offset="1" stop-color="#95b63d"/></linearGradient></defs><g class="cls-11"><polygon class="cls-10" points="936.5 -54.95 1174.45 331.57 639.22 621.38 401.27 234.86 936.5 -54.95"/></g><polygon points="1178.57 340.9 1235.26 193.42 1271.45 193.42 1195.1 382.85 1160.34 382.85 1085.13 193.42 1122.17 193.42 1178.57 340.9"/><path d="M1282.55,218.3c-4.18-3.92-6.27-8.65-6.27-14.16s2.09-10.29,6.27-14.3c4.18-4,9.21-6.01,15.1-6.01s11.21,1.97,15.39,5.88c4.17,3.92,6.26,8.73,6.26,14.43s-2.09,10.24-6.26,14.16c-4.18,3.91-9.31,5.87-15.39,5.87s-10.92-1.96-15.1-5.87M1314.18,379.93h-32.76v-130.12h32.76v130.12Z"/><path d="M1332.69,386.66l30.48-7.48c1.14,8.2,4.89,14.92,11.25,20.17,6.36,5.26,14.19,7.89,23.5,7.89,26.21,0,39.32-13.01,39.32-39.02v-13.62c-3.23,5.52-8.36,10.07-15.38,13.62-7.03,3.57-15.29,5.35-24.79,5.35-18.61,0-33.95-5.96-46.01-17.91-12.06-11.93-18.09-27.07-18.09-45.42s5.99-32.6,17.95-44.89c11.96-12.28,27.34-18.43,46.15-18.43,20.31,0,33.99,6.32,41.02,18.97v-16.57h31.91v117.83c0,19.23-5.79,35.22-17.37,47.95-11.58,12.74-29.53,19.11-53.84,19.11-17.86,0-32.86-4.54-45.01-13.63-12.16-9.09-19.19-20.4-21.08-33.93M1402.49,347.12c10.63,0,19.22-3.34,25.78-10.02,6.55-6.69,9.83-15.64,9.83-26.86s-3.32-19.9-9.97-26.58c-6.64-6.68-15.2-10.02-25.64-10.02s-19.33,3.34-26.07,10.02c-6.74,6.69-10.11,15.55-10.11,26.58s3.32,20.17,9.97,26.86c6.65,6.68,15.38,10.02,26.21,10.02"/><path d="M1497.35,218.3c-4.18-3.92-6.27-8.65-6.27-14.16s2.09-10.29,6.27-14.3c4.18-4,9.21-6.01,15.1-6.01s11.21,1.97,15.39,5.88c4.17,3.92,6.26,8.73,6.26,14.43s-2.09,10.24-6.26,14.16c-4.18,3.91-9.32,5.87-15.39,5.87s-10.92-1.96-15.1-5.87M1528.97,379.93h-32.76v-130.12h32.76v130.12Z"/><rect x="1557.46" y="186.5" width="33.05" height="193.44"/><g class="cls-6"><polygon class="cls-2" points="402.14 331.87 401.29 374.36 358.14 373.6 358.99 331.11 402.14 331.87"/></g><g class="cls-9"><polygon class="cls-5" points="485.45 357.45 455.97 459.83 352.18 433.54 381.66 331.16 485.45 357.45"/></g><g class="cls-8"><rect class="cls-4" x="190.48" y="163.43" width="229.67" height="222.99"/></g><g class="cls-1"><polygon class="cls-7" points="392.57 -161.27 697.45 424.99 102.38 697.19 -202.51 110.93 392.57 -161.27"/></g></svg>