<?xml version="1.0" encoding="UTF-8"?><svg id="Layer_1" xmlns="http://www.w3.org/2000/svg" xmlns:xlink="http://www.w3.org/1999/xlink" viewBox="0 0 200 200"><defs><style>.cls-1{fill:url(#linear-gradient-2);}.cls-2{fill:url(#linear-gradient-3);}.cls-3{fill:url(#linear-gradient);}</style><linearGradient id="linear-gradient" x1="53.34" y1="53.86" x2="146.83" y2="53.86" gradientUnits="userSpaceOnUse"><stop offset="0" stop-color="#1b8ea1"/><stop offset=".3" stop-color="#20a476"/><stop offset="1" stop-color="#73bd44"/></linearGradient><linearGradient id="linear-gradient-2" x1="104.36" y1="137.89" x2="194.93" y2="137.89" xlink:href="#linear-gradient"/><linearGradient id="linear-gradient-3" x1="5.37" y1="126.19" x2="106.96" y2="126.19" xlink:href="#linear-gradient"/></defs><path class="cls-3" d="M110.03,7.57c1.58.1,3.57.31,5.03,1.09,1.17.63,3.83,3.18,3.83,4.51v22.01h21.75c2.16,0,4.59,3.05,5.2,4.96,1.17,3.64,1.05,14.65.93,18.88-.08,2.95-.11,7.98-1.52,10.46-.52.92-2.49,3.21-3.57,3.21h-22.79v22.01c0,.25-.96,2.09-1.19,2.45-1.54,2.43-3.44,2.95-6.22,3.16-8.2.6-16.98-.79-25.26-.29-1.5-.02-4.83-3.65-4.83-4.8v-22.53h-22.79c-1.69,0-4.1-3.59-4.49-5.15-1.07-4.29-.76-13.75-.6-18.43.13-3.85-.03-9.6,3.01-12.36.51-.47,2.51-1.56,3.12-1.56h21.75V12.65c0-.16,1.18-1.97,1.42-2.22,1.83-1.96,4.39-2.66,6.91-2.85,5.69-.43,14.59-.37,20.31,0Z"/><path class="cls-1" d="M194.93,104.71v1.56c-2.17,4.17-7.15,5.05-10.85,7.25-14.5,8.6-18.64,32.65-28,45.96-9.33,13.27-27.4,21.42-43.59,20.5-.67-.04-1.29-.16-1.93-.28.19-2.63,1.14-5.31,1.29-7.94.16-2.7-.79-5.97.13-8.46.43-1.15,2.5-3.39,3.38-4.43,8.88-10.46,19.95-18.67,29.56-28.38-13.17,5.31-23.86,15.08-33.47,25.26-1.09-8.42-3.55-16.37-7.1-24.05,9.51-16.83,26.57-31.45,45.98-34.98,12.76-2.32,27.73-.44,39.77,4.34,1.98.79,4.05,1.46,4.81,3.65Z"/><path class="cls-2" d="M46.48,127.11c3.36,5.16,6.96,10.24,11.06,14.85,5.71,6.42,12.58,11.75,18.37,18.09,8.79,9.62,15.59,21.05,21.35,32.69-11.52-1.98-23.23-5.05-34.18-9.18-31.1-11.72-54.63-30.94-57.49-66.21-1.35-16.71,3.43-37.95,11.84-52.48,1.82-3.15,3.97-6.46,8.13-4.73s5.08,8.28,6.47,12.02c8.05,21.64,39.57,31.02,55.73,46.1,17.54,16.37,23.2,43.14,16.4,65.89-.22.75-1.63,5.14-1.94,5.35s-.7.18-.93-.15c-2.8-4.55-5.16-9.39-7.9-13.98-11.02-18.45-28.19-33.26-44.71-46.69-.29-.24-2.01-1.75-2.21-1.57Z"/></svg>