<?xml version="1.0" encoding="UTF-8"?><svg id="Layer_1" xmlns="http://www.w3.org/2000/svg" xmlns:xlink="http://www.w3.org/1999/xlink" viewBox="0 0 200 200"><defs><style>.cls-1{fill:url(#linear-gradient-2);}.cls-2{fill:url(#linear-gradient-4);}.cls-3{fill:url(#linear-gradient-3);}.cls-4{fill:url(#linear-gradient-5);}.cls-5{fill:url(#linear-gradient-7);}.cls-6{fill:url(#linear-gradient-6);}.cls-7{fill:url(#linear-gradient);}</style><linearGradient id="linear-gradient" x1="139.6" y1="167.31" x2="195.1" y2="167.31" gradientUnits="userSpaceOnUse"><stop offset="0" stop-color="#1b8ea1"/><stop offset=".3" stop-color="#20a476"/><stop offset="1" stop-color="#73bd44"/></linearGradient><linearGradient id="linear-gradient-2" x1="167.07" y1="115.27" x2="173.65" y2="115.27" xlink:href="#linear-gradient"/><linearGradient id="linear-gradient-3" x1="72.11" y1="47.88" y2="47.88" xlink:href="#linear-gradient"/><linearGradient id="linear-gradient-4" x1="38.36" y1="87.52" x2="143.15" y2="87.52" xlink:href="#linear-gradient"/><linearGradient id="linear-gradient-5" x1="4.9" y1="121.28" x2="97" y2="121.28" xlink:href="#linear-gradient"/><linearGradient id="linear-gradient-6" x1="50.66" y1="175.05" x2="130.75" y2="175.05" xlink:href="#linear-gradient"/><linearGradient id="linear-gradient-7" x1="111.87" y1="147.31" x2="130.75" y2="147.31" xlink:href="#linear-gradient"/></defs><path class="cls-7" d="M195.1,158.46v.29c-1.37,3.27-4.2,2.03-4.57,6.15-.13,1.39-.08,5.83.43,7,.44,1.01,3.87,1.94,4.14,3.72v.29c-1.31,2.54-3.67,8-5.86,9.73-2.34,1.84-3.42-.78-5.43-.88-2.99-.16-5.63,2.97-8.46,3.87-1.36,2.26.09,5.52-3.13,6.45-2.86-.27-6.38.37-9.15,0-.25-.03-1.57-.47-1.83-.61-2.25-1.19-.64-4.27-2.02-5.7-.24-.25-5.42-3.24-5.97-3.47-.96-.4-1.85-.67-2.92-.54-1.7.21-2.59,2.56-4.98,1.01-.93-.6-5.27-7.78-5.6-8.99-.92-3.4,3.27-3.23,3.97-5.49.43-1.41.41-7.49-.38-8.68-1.05-1.57-4.04-1.85-3.71-4.55.09-.74,1.22-2.43,1.66-3.22.69-1.25,2.77-4.97,3.64-5.8,2.2-2.1,3.44.25,4.97.71,2.42.73,5.13-1.73,7.15-2.88.57-.32,1.38-.42,1.84-.73,1.79-1.24.01-5.48,2.8-6.36,2.37-.18,10.14-.87,11.83.37s.75,4.63,1.72,5.72c.42.47,2.14.94,2.9,1.39,1.44.84,3.43,2.65,5.1,2.65,1.9,0,4.05-2.68,6.13-1.01s4.27,7.23,5.74,9.57ZM177.46,167.25c0-5.63-4.57-10.2-10.2-10.2s-10.2,4.57-10.2,10.2,4.57,10.2,10.2,10.2,10.2-4.57,10.2-10.2Z"/><rect class="cls-1" x="167.07" y="99.83" width="6.58" height="30.89"/><path class="cls-3" d="M195.1,84.95v3.15c-.28.73-1.64,2.86-2.43,2.86h-43.48s-.43-.4-.43-.43v-41.47c0-.72-3.43-4.15-4.15-4.15h-72.51V7.01c0-.6,2.09-2.53,2.99-2.16,39.24.12,78.51-.17,117.72.15.66.34,1.56.59,1.7,1.44.65,25.82.14,51.7.27,77.54l.31.97ZM176.23,11.16h-5.72v6.01h5.72v-6.01ZM188.53,11.16h-5.72v6.01h5.72v-6.01Z"/><path class="cls-2" d="M102.72,124.43v-38.76c0-.88-3.51-4.15-4.43-4.15h-59.92v-28.46c0-1.05,2.49-2.59,3.56-2.45h97.28c4.24.38,3.08,2.47,3.28,5.59,1.3,20.45.32,42.84.27,63.51,0,1.45.56,1.6-.26,3.14-.16.3-1.11,1.56-1.29,1.56h-38.47ZM118.45,57.21v5.72h5.72v-5.72h-5.72ZM130.75,57.21v5.72h5.72v-5.72h-5.72Z"/><path class="cls-4" d="M4.9,87.53h92.1v67.5H4.9v-67.5ZM78.4,93.82h-6.01v6.01h6.01v-6.01ZM90.42,93.82h-5.72v6.01h5.72v-6.01Z"/><path class="cls-6" d="M57.24,164.18v15.16h73.08s.43.4.43.43v5.72s-.4.43-.43.43H53.09c-.4,0-2.43-2.03-2.43-2.43v-19.31h6.58Z"/><path class="cls-5" d="M118.45,154.75h11.87s.43.4.43.43v5.72s-.4.43-.43.43h-16.3c-.15,0-2.15-1.99-2.15-2.15v-25.46s.4-.43.43-.43h5.72s.43.4.43.43v21.02Z"/></svg>