<?xml version="1.0" encoding="UTF-8"?><svg id="Layer_1" xmlns="http://www.w3.org/2000/svg" xmlns:xlink="http://www.w3.org/1999/xlink" viewBox="0 0 200 200"><defs><style>.cls-1{fill:url(#linear-gradient-2);}.cls-2{fill:url(#linear-gradient-3);}.cls-3{fill:url(#linear-gradient);}</style><linearGradient id="linear-gradient" x1="4.61" y1="156.16" x2="151.43" y2="156.16" gradientUnits="userSpaceOnUse"><stop offset="0" stop-color="#1b8ea1"/><stop offset=".3" stop-color="#20a476"/><stop offset="1" stop-color="#73bd44"/></linearGradient><linearGradient id="linear-gradient-2" x1="49.88" y1="99.76" x2="196.9" y2="99.76" xlink:href="#linear-gradient"/><linearGradient id="linear-gradient-3" x1="4.65" y1="43.77" x2="151.54" y2="43.77" xlink:href="#linear-gradient"/></defs><path class="cls-3" d="M124.94,184.51c-.98.07-2.38.07-3.36,0-6.65-.5-14.4-4-18.74-9.1-3.27-3.84-5.18-8.87-9.89-11.37-6-3.19-17.18-3.2-23.8-2.15-10.47,1.66-11.82,11.85-19.68,17.26-21.95,15.11-51.47-5.9-43.54-31.5,6.7-21.64,35.85-27.01,49.73-8.99,3.22,4.18,3.85,7.77,9.3,10.01,5.78,2.38,19.56,2.34,25.5.4,7.22-2.36,8.14-8.92,13.21-13.65,13.08-12.2,33.84-9.36,43.49,5.48,11.48,17.64-1.65,42.06-22.22,43.62ZM128.58,150.37h-10.91v11.19h10.91v-11.19Z"/><path class="cls-1" d="M196.86,98.33c.05.87.05,1.92,0,2.8-1.25,22.74-29.23,35.3-46.86,20.42-5.71-4.82-7.54-12.83-15.26-15.24-4.9-1.53-19.06-1.51-23.86.2-7.06,2.51-9.14,10.43-14.62,15.04-17.46,14.67-45,2.78-46.32-19.98-1.39-23.99,26.34-38.91,45.48-24.21,5.85,4.5,8.43,13.16,15.39,15.67,4.75,1.72,20.17,1.72,24.85-.08,6.85-2.64,9.52-11.24,15.34-15.72,17.76-13.64,44.66-1.03,45.87,21.1ZM83.8,94.42h-11.19v10.91h11.19v-10.91Z"/><path class="cls-2" d="M12.82,63.26C-2.52,48.01,4.92,22.26,25.39,16.56c11.62-3.24,23.29.63,30.55,10.17,3.3,4.33,3.91,7.8,9.68,9.9,5.54,2.02,19.6,1.95,25.18,0,6.34-2.22,6.88-6.67,10.65-11.18,11.27-13.46,31.99-13.24,43.37-.02,20.02,23.26-8.48,58.65-35.93,42.63-8.51-4.96-9.66-14.73-18.99-17.66-5.48-1.72-17.96-2.01-23.38-.28-6.16,1.97-8.11,7.12-11.83,11.68-10.7,13.13-30.05,13.2-41.87,1.45ZM128.58,38.18h-10.91v10.91h10.91v-10.91Z"/></svg>