<?xml version="1.0" encoding="UTF-8"?><svg id="Layer_1" xmlns="http://www.w3.org/2000/svg" viewBox="0 0 200 200"><defs><style>.cls-1{fill:#fff;stroke-width:0px;}</style></defs><path class="cls-1" d="m133.79,15.36H20.79v169.27h158.43V15.36h-45.42ZM34.59,63.79c.95-.81,2.38-.7,3.19.25l3.73,4.35,9.9-9.9c.88-.88,2.32-.88,3.2,0s.88,2.32,0,3.2l-11.63,11.63c-.43.43-1,.66-1.6.66-.03,0-.06,0-.09,0-.63-.02-1.22-.31-1.63-.79l-5.32-6.2c-.81-.95-.7-2.38.25-3.19Zm20.02,73.96l-11.63,11.63c-.43.43-1,.66-1.6.66-.03,0-.06,0-.09,0-.63-.02-1.22-.31-1.63-.79l-5.32-6.2c-.81-.95-.7-2.38.25-3.19.95-.81,2.38-.7,3.19.25l3.73,4.35,9.9-9.9c.88-.88,2.32-.88,3.2,0,.88.88.88,2.32,0,3.2Zm1.4-41.44l-11.63,11.63c-.43.43-1,.66-1.6.66-.03,0-.06,0-.09,0-.63-.02-1.22-.31-1.63-.79l-5.32-6.2c-.81-.95-.7-2.38.25-3.19.95-.81,2.38-.7,3.19.25l3.73,4.35,9.9-9.9c.88-.88,2.32-.88,3.2,0,.88.88.88,2.32,0,3.2Zm74.05-22.08c1.24,0,2.25,1.42,2.25,3.17s-1.01,3.17-2.25,3.17h-56.12c-1.24,0-2.25-1.42-2.25-3.17s1.01-3.17,2.25-3.17h56.12Zm-58.36-16.79c0-1.75,1.42-3.17,3.17-3.17h45.4c1.75,0,3.17,1.42,3.17,3.17s-1.42,3.17-3.17,3.17h-45.4c-1.75,0-3.17-1.42-3.17-3.17Zm48.57,63.05h-45.4c-1.75,0-3.17-1.42-3.17-3.17s1.42-3.17,3.17-3.17h45.4c1.75,0,3.17,1.42,3.17,3.17s-1.42,3.17-3.17,3.17Zm33.68,13.62c1.75,0,3.17,1.42,3.17,3.17s-1.42,3.17-3.17,3.17h-79.07c-1.75,0-3.17-1.42-3.17-3.17s1.42-3.17,3.17-3.17h79.07Zm17.28,26.3h-96.36c-1.75,0-3.17-1.42-3.17-3.17s1.42-3.17,3.17-3.17h96.36c1.75,0,3.17,1.42,3.17,3.17s-1.42,3.17-3.17,3.17Zm0-59.88h-96.36c-1.75,0-3.17-1.42-3.17-3.17s1.42-3.17,3.17-3.17h96.36c1.75,0,3.17,1.42,3.17,3.17s-1.42,3.17-3.17,3.17Z"/></svg>