<?xml version="1.0" encoding="UTF-8"?><svg id="Layer_1" xmlns="http://www.w3.org/2000/svg" viewBox="0 0 200 200"><defs><style>.cls-1{fill:#fff;stroke-width:0px;}</style></defs><path class="cls-1" d="m192.65,39.92c-.19-3.06-2.45-5.58-5.46-6.12-35.93-6.45-50.92-11.11-84.45-26.25-1.74-.79-3.73-.79-5.47,0C63.74,22.7,48.74,27.36,12.81,33.8c-3.01.54-5.27,3.07-5.46,6.12-1.6,25.38,1.81,49.03,10.15,70.29,6.83,17.34,16.93,33.21,29.75,46.73,22.21,23.56,45.79,33.8,50.28,35.61,1.6.65,3.39.65,4.98,0,4.5-1.81,28.08-12.04,50.28-35.61,12.81-13.53,22.89-29.39,29.7-46.73,8.34-21.26,11.75-44.91,10.15-70.29Zm-92.65,106.33c-27.22,0-49.28-22.06-49.28-49.28s22.06-49.28,49.28-49.28,49.28,22.06,49.28,49.28-22.06,49.28-49.28,49.28Z"/><path class="cls-1" d="m83.72,73.15h6.4c7.84,0,12.62,2.61,13.88,7.84h-20.28v4.51h20.55c-.63,6.22-5.86,10.27-15.59,10.27h-4.96v5.59c8.47,9.01,15.05,16.85,22.08,25.32h8.65c-7.57-9.28-15.23-18.47-22.26-25.77,11.53-.36,18.83-6.22,19.73-15.41h9.73v-4.51h-9.82c-.54-4.15-2.43-7.12-5.05-9.19h14.87v-4.51h-37.94v5.86Z"/></svg>