<?xml version="1.0" encoding="UTF-8"?><svg id="Layer_1" xmlns="http://www.w3.org/2000/svg" viewBox="0 0 200 200"><defs><style>.cls-1{fill:#fff;stroke-width:0px;}</style></defs><g id="Group_15946"><rect id="Rectangle_648" class="cls-1" x="29.66" y="190.3" width="140.67" height="4.21"/><rect id="Rectangle_649" class="cls-1" x="141.85" y="49.4" width="28.22" height="137.47"/><rect id="Rectangle_650" class="cls-1" x="106.2" y="75.4" width="27.95" height="111.47"/><rect id="Rectangle_651" class="cls-1" x="70.77" y="123.24" width="27.95" height="63.64"/><rect id="Rectangle_652" class="cls-1" x="36.99" y="141.68" width="27.95" height="45.19"/></g><path class="cls-1" d="m142.13,33.62l-1.83-25.65c-.1-1.47-1.39-2.58-2.86-2.47l-25.66,1.83c-1.47.1-2.58,1.39-2.47,2.86s1.39,2.58,2.86,2.47l18.39-1.31L39.14,118.32c-.93,1.08-.81,2.72.26,3.66s2.69.83,3.62-.26L135.34,13.67l1.45,20.33c.11,1.48,1.38,2.58,2.86,2.47s2.58-1.38,2.47-2.86Z"/></svg>