<?xml version="1.0" encoding="UTF-8"?><svg id="Layer_1" xmlns="http://www.w3.org/2000/svg" viewBox="0 0 200 200"><defs><style>.cls-1{fill:#fff;stroke-width:0px;}</style></defs><path class="cls-1" d="m129.3,35.53c8.96,10.6,12.93,24.54,10.9,38.26,16.65-3.89,30.68-2.88,41.14,4.46-14.38-17.51-32.06-32.02-52.04-42.72Z"/><polygon class="cls-1" points="108.13 18.64 34.92 18.64 34.92 181.34 43.06 181.34 43.06 26.79 120 26.79 108.13 18.64"/><polygon class="cls-1" points="87.92 2.39 18.65 2.39 18.65 165.07 26.8 165.07 26.8 10.52 100.11 10.52 87.92 2.39"/><path class="cls-1" d="m105.82,146.66h9.67l1.49,4.27h4.07l-8.26-21.83h-4.25l-8.07,21.83h3.84l1.52-4.27Zm4.81-13.9l3.81,10.89h-7.55l3.75-10.89Z"/><rect class="cls-1" x="124.04" y="129.1" width="3.82" height="21.83"/><path class="cls-1" d="m122.59,91.86s12.38-56.96-27.13-56.96h-44.29v162.71h130.15v-86.46c0-27.79-34.28-25.35-58.73-19.29Zm4.57,15.41h7.28v7.28h-7.28v-7.28Zm-14.56,0h7.28v7.28h-7.28v-7.28Zm-14.56,0h7.28v7.28h-7.28v-7.28Zm-14.55,14.56h7.28v7.28h-7.28v-7.28Zm0,14.56h7.28v7.28h-7.28v-7.28Zm7.28,21.83h-7.28v-7.28h7.28v7.28Zm14.55,14.55h-7.28v-7.28h7.28v7.28Zm14.56,0h-7.28v-7.28h7.28v7.28Zm14.56,0h-7.28v-7.28h7.28v7.28Zm3.64-10.92h-43.67v-43.67h43.67v43.67Zm10.92-3.64h-7.28v-7.28s7.28,0,7.28,0v7.28Zm0-14.55h-7.28v-7.28h7.28v7.28Zm0-14.56h-7.28v-7.28h7.28v7.28Z"/></svg>