<?xml version="1.0" encoding="UTF-8"?><svg id="Layer_1" xmlns="http://www.w3.org/2000/svg" xmlns:xlink="http://www.w3.org/1999/xlink" viewBox="0 0 200 200"><defs><style>.cls-1{fill:url(#linear-gradient);}.cls-1,.cls-2,.cls-3,.cls-4,.cls-5,.cls-6{stroke-width:0px;}.cls-2{fill:url(#linear-gradient-6);}.cls-3{fill:url(#linear-gradient-5);}.cls-4{fill:url(#linear-gradient-2);}.cls-5{fill:url(#linear-gradient-3);}.cls-6{fill:url(#linear-gradient-4);}</style><linearGradient id="linear-gradient" x1="129.3" y1="56.89" x2="181.35" y2="56.89" gradientUnits="userSpaceOnUse"><stop offset="0" stop-color="#0e90a2"/><stop offset=".32" stop-color="#19a574"/><stop offset="1" stop-color="#90c43c"/></linearGradient><linearGradient id="linear-gradient-2" x1="34.92" y1="99.99" x2="120" y2="99.99" xlink:href="#linear-gradient"/><linearGradient id="linear-gradient-3" x1="18.65" y1="83.73" x2="100.11" y2="83.73" xlink:href="#linear-gradient"/><linearGradient id="linear-gradient-4" x1="100.46" y1="140.02" x2="121.05" y2="140.02" xlink:href="#linear-gradient"/><linearGradient id="linear-gradient-5" x1="124.04" y1="140.02" x2="127.86" y2="140.02" xlink:href="#linear-gradient"/><linearGradient id="linear-gradient-6" x1="51.17" y1="116.26" x2="181.32" y2="116.26" xlink:href="#linear-gradient"/></defs><path class="cls-1" d="m129.3,35.53c8.96,10.6,12.93,24.54,10.9,38.26,16.65-3.89,30.68-2.88,41.14,4.46-14.38-17.51-32.06-32.02-52.04-42.72Z"/><polygon class="cls-4" points="108.13 18.64 34.92 18.64 34.92 181.34 43.06 181.34 43.06 26.79 120 26.79 108.13 18.64"/><polygon class="cls-5" points="87.92 2.39 18.65 2.39 18.65 165.07 26.8 165.07 26.8 10.52 100.11 10.52 87.92 2.39"/><path class="cls-6" d="m105.82,146.66h9.67l1.49,4.27h4.07l-8.26-21.83h-4.25l-8.07,21.83h3.84l1.52-4.27Zm4.81-13.9l3.81,10.89h-7.55l3.75-10.89Z"/><rect class="cls-3" x="124.04" y="129.1" width="3.82" height="21.83"/><path class="cls-2" d="m122.59,91.86s12.38-56.96-27.13-56.96h-44.29v162.71h130.15v-86.46c0-27.79-34.28-25.35-58.73-19.29Zm4.57,15.41h7.28v7.28h-7.28v-7.28Zm-14.56,0h7.28v7.28h-7.28v-7.28Zm-14.56,0h7.28v7.28h-7.28v-7.28Zm-14.55,14.56h7.28v7.28h-7.28v-7.28Zm0,14.56h7.28v7.28h-7.28v-7.28Zm7.28,21.83h-7.28v-7.28h7.28v7.28Zm14.55,14.55h-7.28v-7.28h7.28v7.28Zm14.56,0h-7.28v-7.28h7.28v7.28Zm14.56,0h-7.28v-7.28h7.28v7.28Zm3.64-10.92h-43.67v-43.67h43.67v43.67Zm10.92-3.64h-7.28v-7.28s7.28,0,7.28,0v7.28Zm0-14.55h-7.28v-7.28h7.28v7.28Zm0-14.56h-7.28v-7.28h7.28v7.28Z"/></svg>