<?xml version="1.0" encoding="UTF-8"?><svg id="Layer_1" xmlns="http://www.w3.org/2000/svg" viewBox="0 0 200 200"><defs><style>.cls-1{fill:#fff;stroke-width:0px;}.cls-2{fill:none;stroke:#fff;stroke-miterlimit:10;stroke-width:4px;}</style></defs><path class="cls-2" d="m6.94,80.03C16.09,37.81,53.66,6.19,98.62,6.19s82.54,31.62,91.68,73.84"/><path class="cls-2" d="m8.76,127c11.58,38.66,47.44,66.81,89.86,66.81s78.28-28.16,89.86-66.81"/><polyline class="cls-2" points="198 66.14 191.92 82.76 175.22 76.66"/><polyline class="cls-2" points="2 141.23 8.08 124.6 24.78 130.7"/><path class="cls-1" d="m169.35,89.17h-7.14c-.7,0-1.28-.5-1.42-1.18-1.61-8.19-4.82-15.79-9.3-22.48-.39-.58-.32-1.34.17-1.84l5.03-5.04c.57-.57.57-1.49,0-2.07l-13.23-13.24c-.57-.57-1.51-.57-2.08,0l-5.04,5.03c-.5.5-1.26.57-1.84.17-6.68-4.48-14.29-7.69-22.48-9.3-.68-.14-1.18-.72-1.18-1.42v-7.14c0-.81-.66-1.47-1.47-1.47h-18.73c-.81,0-1.47.66-1.47,1.47v7.14c0,.7-.5,1.28-1.18,1.42-8.19,1.61-15.79,4.82-22.48,9.3-.59.4-1.34.32-1.84-.17l-5.04-5.03c-.57-.57-1.49-.57-2.07,0l-13.24,13.24c-.57.57-.57,1.49,0,2.07l5.04,5.04c.49.5.56,1.26.16,1.84-4.48,6.68-7.68,14.29-9.3,22.48-.12.68-.72,1.18-1.42,1.18h-7.14c-.81,0-1.47.66-1.47,1.47v18.73c0,.81.66,1.47,1.47,1.47h7.14c.7,0,1.29.5,1.42,1.18,1.62,8.19,4.82,15.79,9.3,22.48.4.59.32,1.34-.16,1.84l-5.04,5.04c-.57.57-.57,1.49,0,2.07l13.24,13.24c.57.57,1.49.57,2.07,0l5.04-5.04c.5-.49,1.26-.56,1.84-.16,6.68,4.48,14.29,7.69,22.48,9.3.68.12,1.18.72,1.18,1.42v7.14c0,.81.66,1.47,1.47,1.47h18.73c.81,0,1.47-.66,1.47-1.47v-7.14c0-.7.5-1.29,1.18-1.42,8.19-1.61,15.79-4.82,22.48-9.3.58-.4,1.34-.32,1.84.16l5.04,5.04c.57.57,1.51.57,2.08,0l13.23-13.24c.57-.57.57-1.49,0-2.07l-5.03-5.04c-.5-.5-.56-1.26-.17-1.84,4.49-6.68,7.69-14.29,9.3-22.48.14-.68.72-1.18,1.42-1.18h7.14c.81,0,1.47-.66,1.47-1.47v-18.73c0-.81-.66-1.47-1.47-1.47Zm-69.34,46c-19.43,0-35.17-15.74-35.17-35.17s15.74-35.16,35.17-35.16,35.16,15.74,35.16,35.16-15.74,35.17-35.16,35.17Z"/></svg>