<?xml version="1.0" encoding="UTF-8"?><svg id="Layer_1" xmlns="http://www.w3.org/2000/svg" xmlns:xlink="http://www.w3.org/1999/xlink" viewBox="0 0 200 200"><defs><style>.cls-1{fill:url(#linear-gradient);}.cls-1,.cls-2,.cls-3,.cls-4,.cls-5,.cls-6{stroke-width:0px;}.cls-2{fill:url(#linear-gradient-6);}.cls-3{fill:url(#linear-gradient-5);}.cls-4{fill:url(#linear-gradient-2);}.cls-5{fill:url(#linear-gradient-3);}.cls-6{fill:url(#linear-gradient-4);}</style><linearGradient id="linear-gradient" x1="-5029.37" y1="192.41" x2="-4888.7" y2="192.41" gradientTransform="translate(-4859.04) rotate(-180) scale(1 -1)" gradientUnits="userSpaceOnUse"><stop offset="0" stop-color="#0e90a2"/><stop offset=".32" stop-color="#19a574"/><stop offset="1" stop-color="#90c43c"/></linearGradient><linearGradient id="linear-gradient-2" x1="-5029.11" y1="118.13" x2="-5000.89" y2="118.13" xlink:href="#linear-gradient"/><linearGradient id="linear-gradient-3" x1="-4993.19" y1="131.14" x2="-4965.24" y2="131.14" xlink:href="#linear-gradient"/><linearGradient id="linear-gradient-4" x1="-4957.76" y1="155.05" x2="-4929.81" y2="155.05" xlink:href="#linear-gradient"/><linearGradient id="linear-gradient-5" x1="-4923.98" y1="164.28" x2="-4896.03" y2="164.28" xlink:href="#linear-gradient"/><linearGradient id="linear-gradient-6" x1="118.64" y1="1461.02" x2="228.14" y2="1461.02" gradientTransform="translate(20.44 1533.71) rotate(-4.08) scale(1 -1)" xlink:href="#linear-gradient"/></defs><g id="Group_15946"><rect id="Rectangle_648" class="cls-1" x="29.66" y="190.3" width="140.67" height="4.21"/><rect id="Rectangle_649" class="cls-4" x="141.85" y="49.4" width="28.22" height="137.47"/><rect id="Rectangle_650" class="cls-5" x="106.2" y="75.4" width="27.95" height="111.47"/><rect id="Rectangle_651" class="cls-6" x="70.77" y="123.24" width="27.95" height="63.64"/><rect id="Rectangle_652" class="cls-3" x="36.99" y="141.68" width="27.95" height="45.19"/></g><path class="cls-2" d="m142.13,33.62l-1.83-25.65c-.1-1.47-1.39-2.58-2.86-2.47l-25.66,1.83c-1.47.1-2.58,1.39-2.47,2.86s1.39,2.58,2.86,2.47l18.39-1.31L39.14,118.32c-.93,1.08-.81,2.72.26,3.66s2.69.83,3.62-.26L135.34,13.67l1.45,20.33c.11,1.48,1.38,2.58,2.86,2.47s2.58-1.38,2.47-2.86Z"/></svg>