<?xml version="1.0" encoding="UTF-8"?><svg id="Layer_1" xmlns="http://www.w3.org/2000/svg" xmlns:xlink="http://www.w3.org/1999/xlink" viewBox="0 0 200 200"><defs><style>.cls-1{fill:url(#linear-gradient);}.cls-1,.cls-2,.cls-3,.cls-4,.cls-5{stroke-width:0px;}.cls-2{fill:url(#linear-gradient-5);}.cls-3{fill:url(#linear-gradient-2);}.cls-4{fill:url(#linear-gradient-3);}.cls-5{fill:url(#linear-gradient-4);}</style><linearGradient id="linear-gradient" x1="126.56" y1="56.89" x2="178.6" y2="56.89" gradientUnits="userSpaceOnUse"><stop offset="0" stop-color="#0e90a2"/><stop offset=".32" stop-color="#19a574"/><stop offset="1" stop-color="#90c43c"/></linearGradient><linearGradient id="linear-gradient-2" x1="97.43" y1="141.43" x2="127.43" y2="141.43" xlink:href="#linear-gradient"/><linearGradient id="linear-gradient-3" x1="48.43" y1="116.26" x2="178.58" y2="116.26" xlink:href="#linear-gradient"/><linearGradient id="linear-gradient-4" x1="32.17" y1="99.99" x2="117.26" y2="99.99" xlink:href="#linear-gradient"/><linearGradient id="linear-gradient-5" x1="15.91" y1="83.73" x2="97.37" y2="83.73" xlink:href="#linear-gradient"/></defs><path class="cls-1" d="m126.56,35.53c8.96,10.6,12.93,24.54,10.9,38.26,16.65-3.89,30.68-2.88,41.14,4.46-14.38-17.51-32.06-32.02-52.04-42.72Z"/><path class="cls-3" d="m127.31,143.39c-.85,6.68-6.24,12.07-12.92,12.92-9.8,1.25-18.08-7.03-16.83-16.83.84-6.68,6.24-12.08,12.92-12.93,9.8-1.24,18.08,7.04,16.83,16.84Z"/><path class="cls-4" d="m119.85,91.87s12.38-56.96-27.13-56.96h-44.29v162.71h130.15v-86.46c0-27.79-34.28-25.35-58.73-19.29Zm26.31,54.02c0,.39-.32.7-.7.7h-3.4c-.34,0-.62.24-.68.56-.77,3.9-2.29,7.53-4.43,10.71-.18.28-.15.64.08.88l2.4,2.4c.27.27.27.71,0,.98l-6.3,6.31c-.28.27-.72.27-.99,0l-2.4-2.4c-.24-.23-.6-.27-.88-.08-3.18,2.14-6.81,3.66-10.7,4.43-.33.06-.57.34-.57.67v3.41c0,.38-.31.69-.7.69h-8.91c-.39,0-.7-.31-.7-.69v-3.41c0-.33-.24-.61-.57-.67-3.9-.77-7.52-2.29-10.7-4.43-.28-.19-.65-.15-.88.08l-2.4,2.4c-.27.27-.72.27-.99,0l-6.3-6.31c-.28-.27-.28-.71,0-.98l2.4-2.4c.23-.24.26-.6.08-.88-2.14-3.18-3.66-6.81-4.43-10.71-.06-.32-.35-.56-.68-.56h-3.4c-.38,0-.7-.31-.7-.7v-8.92c0-.38.32-.7.7-.7h3.4c.33,0,.62-.23.68-.56.77-3.9,2.29-7.52,4.43-10.71.18-.27.15-.64-.08-.87l-2.4-2.4c-.28-.27-.28-.72,0-.99l6.3-6.31c.27-.27.72-.27.99,0l2.4,2.4c.24.24.6.27.88.09,3.18-2.14,6.8-3.67,10.7-4.43.33-.07.57-.35.57-.68v-3.4c0-.39.31-.7.7-.7h8.91c.39,0,.7.31.7.7v3.4c0,.33.24.61.57.68,3.89.76,7.52,2.29,10.7,4.43.28.18.64.15.88-.09l2.4-2.4c.27-.27.71-.27.99,0l6.3,6.31c.27.27.27.72,0,.99l-2.4,2.4c-.23.23-.26.6-.08.87,2.14,3.19,3.66,6.81,4.43,10.71.06.33.34.56.68.56h3.4c.38,0,.7.32.7.7v8.92Z"/><polygon class="cls-5" points="105.39 18.64 32.17 18.64 32.17 181.34 40.32 181.34 40.32 26.79 117.26 26.79 105.39 18.64"/><polygon class="cls-2" points="85.18 2.39 15.91 2.39 15.91 165.07 24.05 165.07 24.05 10.52 97.37 10.52 85.18 2.39"/></svg>