<?xml version="1.0" encoding="UTF-8"?><svg id="Layer_1" xmlns="http://www.w3.org/2000/svg" xmlns:xlink="http://www.w3.org/1999/xlink" viewBox="0 0 200 200"><defs><style>.cls-1{fill:url(#linear-gradient);}.cls-1,.cls-2{stroke-width:0px;}.cls-2{fill:#fff;}</style><linearGradient id="linear-gradient" x1="3.07" y1="100" x2="196.93" y2="100" gradientUnits="userSpaceOnUse"><stop offset="0" stop-color="#0e90a2"/><stop offset=".32" stop-color="#19a574"/><stop offset="1" stop-color="#90c43c"/></linearGradient></defs><path class="cls-1" d="m194,181.37h-.01l-60.82-61.81c21.77-29.49,18.99-70.4-6.56-96.68C99.11-5.38,53.91-6,25.65,21.5c-.47.45-.94.91-1.39,1.38-28.26,29.05-28.26,75.32,0,104.37,25.23,25.94,65.89,28.89,94.6,6.84l60.59,61.6c3.96,4.01,10.42,4.07,14.43.11,4.02-3.95,4.07-10.41.12-14.43Z"/><path class="cls-2" d="m112.33,72.65c2.38-1.99,3.78-4.93,3.78-8.05,0-4.75-3.35-8.95-7.95-10.15.19-.86.29-1.76.29-2.66,0-6.84-5.56-12.41-12.4-12.41-1.05,0-2.08.13-3.08.39-.89-4.93-5.22-8.65-10.32-8.65-2.95,0-5.69,1.2-7.66,3.34-1.97-2.11-4.76-3.34-7.67-3.34-5.1,0-9.44,3.72-10.32,8.65-1-.26-2.03-.39-3.08-.39-6.84,0-12.4,5.57-12.4,12.41,0,.91.1,1.8.29,2.66-4.59,1.2-7.95,5.4-7.95,10.15,0,3.12,1.4,6.06,3.78,8.05-1.21,1.52-1.87,3.38-1.87,5.35,0,2.42,1,4.68,2.77,6.3-1.96,5.83-.47,12.3,3.89,16.66,3.03,3.03,7.23,4.76,11.51,4.76h0c.62,1.51,1.52,2.86,2.69,4.02,2.33,2.34,5.45,3.63,8.77,3.63s6.44-1.29,8.77-3.63c.29-.29.56-.58.81-.89.25.3.52.6.81.89,2.34,2.34,5.46,3.63,8.77,3.63s6.44-1.29,8.77-3.63c1.17-1.17,2.07-2.52,2.69-4.02,4.28,0,8.48-1.74,11.52-4.76,4.36-4.36,5.85-10.83,3.89-16.66,1.77-1.62,2.77-3.88,2.77-6.3,0-1.97-.66-3.84-1.87-5.35Zm-27.75,5.36c-1.09,1.1-1.1,2.89,0,4,1.07,1.07,2.93,1.07,4,0,2-2,4.66-3.11,7.49-3.11s5.47,1.1,7.47,3.1c4.13,4.13,4.13,10.84,0,14.97-1.77,1.77-4.14,2.86-6.61,3.07-.22-2.96-1.48-5.71-3.6-7.83-1.1-1.1-2.89-1.1-4,0-.53.53-.83,1.24-.83,2s.29,1.46.83,2c1.57,1.57,2.27,3.82,1.86,6.02l-.02.13c-.27,1.28-.9,2.46-1.84,3.4-1.26,1.27-2.96,1.97-4.76,1.98h0c-1.8,0-3.5-.7-4.77-1.97-1.24-1.24-1.94-2.89-1.98-4.61v-11.27c.93.34,1.91.52,2.92.52,1.55-.01,2.82-1.28,2.82-2.83s-1.27-2.83-2.83-2.83c-1.35,0-2.36-1.04-2.91-1.8v-16.99c1.88.97,4.14,1.46,6.74,1.46,1.56,0,2.83-1.27,2.83-2.83s-1.27-2.83-2.83-2.83c-6.34,0-6.72-4.05-6.74-4.85v-15.3c0-2.66,2.17-4.83,4.83-4.83s4.83,2.17,4.83,4.83c0,.62-.12,1.23-.32,1.75-.02.05-.05.11-.08.18-.77,1.76-2.51,2.9-4.43,2.9-1.56,0-2.83,1.27-2.83,2.83s1.27,2.83,2.83,2.83c3.96,0,7.51-2.18,9.32-5.69,1.16-.89,2.6-1.37,4.08-1.37,3.72,0,6.75,3.03,6.75,6.76,0,1.27-.35,2.5-1.01,3.57-.08.1-.15.21-.19.28-1.28,1.81-3.35,2.9-5.55,2.9-1.56,0-2.83,1.27-2.83,2.83s1.27,2.83,2.83,2.83c3.68,0,7.12-1.61,9.49-4.42h.02c1.21,0,2.4.47,3.32,1.31,1,.92,1.58,2.21,1.58,3.53,0,2.66-2.17,4.82-4.83,4.82-1.56,0-2.83,1.27-2.83,2.83s1.27,2.83,2.83,2.83,2.92,1.31,2.92,2.93c0,.32-.05.63-.15.93-.27-.32-.56-.63-.86-.93-3.07-3.07-7.14-4.76-11.47-4.76s-8.42,1.7-11.49,4.77Zm-23.94,18.19l.27-.28v-.04c.36-.48.56-1.07.56-1.69,0-.76-.29-1.46-.82-1.99-1.07-1.07-2.93-1.07-4,0-2.12,2.12-3.37,4.87-3.6,7.83-2.47-.21-4.84-1.3-6.61-3.07-3.29-3.29-4.05-8.28-1.87-12.42l.08-.17c.48-.86,1.08-1.66,1.8-2.37,2.01-2,4.66-3.1,7.48-3.1,1.4,0,2.76.27,4.04.8,1.3.54,2.45,1.32,3.43,2.31,1.07,1.07,2.93,1.07,4,0l.27-.28v-.04c.37-.49.56-1.08.56-1.7,0-.75-.3-1.46-.83-1.98-3.07-3.08-7.14-4.77-11.49-4.77s-8.4,1.69-11.47,4.76c-.3.3-.59.61-.86.93-.1-.3-.15-.61-.15-.93,0-1.61,1.31-2.93,2.92-2.93s2.83-1.27,2.83-2.83-1.27-2.83-2.83-2.83c-2.66,0-4.83-2.16-4.83-4.82,0-1.33.56-2.57,1.56-3.5.93-.85,2.13-1.33,3.36-1.33h0c2.36,2.82,5.79,4.42,9.48,4.42,1.56,0,2.83-1.27,2.83-2.84s-1.27-2.82-2.83-2.82c-2.2,0-4.27-1.08-5.54-2.89-.03-.04-.07-.11-.13-.18-.71-1.09-1.08-2.36-1.08-3.68,0-3.73,3.03-6.76,6.75-6.76,1.48,0,2.92.49,4.08,1.37,1.81,3.52,5.37,5.69,9.33,5.69,1.55,0,2.82-1.26,2.82-2.83s-1.27-2.83-2.83-2.83c-1.95,0-3.69-1.16-4.45-2.96-.25-.59-.38-1.23-.38-1.88,0-2.66,2.17-4.83,4.83-4.83s4.83,2.17,4.83,4.84c0,.08,0,.16,0,.24v14.66c-.02.13-.03.25-.03.36-.01.33-.11,1.49-.9,2.59-1.1,1.52-3.07,2.29-5.84,2.29-.75,0-1.46.3-1.99.83-.54.54-.83,1.25-.83,2,0,1.56,1.27,2.83,2.83,2.83,2.61,0,4.88-.5,6.76-1.48v16.97c-.15.21-.35.47-.61.73-.72.73-1.51,1.1-2.32,1.1-.75,0-1.46.29-1.99.82-.53.53-.83,1.26-.83,2,0,1.56,1.27,2.83,2.83,2.83,1.02,0,2-.18,2.94-.53v11.26c-.04,1.74-.75,3.38-1.98,4.62-2.63,2.63-6.91,2.63-9.54,0-.94-.94-1.57-2.11-1.84-3.39l-.02-.09c-.43-2.21.27-4.48,1.85-6.06Z"/></svg>