<?xml version="1.0" encoding="UTF-8"?>
<svg id="Layer_1" data-name="Layer 1" xmlns="http://www.w3.org/2000/svg" xmlns:xlink="http://www.w3.org/1999/xlink" viewBox="0 0 200 200">
  <defs>
    <style>
      .cls-1 {
        fill: url(#linear-gradient-2);
      }

      .cls-2 {
        fill: url(#linear-gradient);
      }
    </style>
    <linearGradient id="linear-gradient" x1="31.3" y1="82.32" x2="168.7" y2="82.32" gradientUnits="userSpaceOnUse">
      <stop offset="0" stop-color="#0e90a2"/>
      <stop offset=".32" stop-color="#19a574"/>
      <stop offset="1" stop-color="#90c43c"/>
    </linearGradient>
    <linearGradient id="linear-gradient-2" x1="66.61" y1="183.84" x2="133.42" y2="183.84" xlink:href="#linear-gradient"/>
  </defs>
  <path class="cls-2" d="M126.48,159.83h-52.92c-3.83,0-6.94-3.11-6.94-6.94v-13.49c0-1.75-.46-3.5-1.3-5.06-.85-1.55-2.08-2.89-3.56-3.85-.03-.02-.06-.04-.09-.06-9.67-6.5-17.58-15.42-22.87-25.8-5.29-10.38-7.87-22.02-7.45-33.66,0-.03,0-.07,0-.1.88-17.52,8.27-33.92,20.8-46.2,12.53-12.27,29.08-19.32,46.62-19.84.03,0,.06,0,.09,0,9.17-.16,18.13,1.49,26.65,4.89,8.51,3.4,16.15,8.38,22.68,14.81,6.54,6.43,11.65,13.97,15.19,22.43,3.54,8.45,5.34,17.39,5.34,26.56h0c-.02,11.22-2.82,22.38-8.11,32.26-5.28,9.89-13,18.41-22.31,24.66-.02.01-.03.02-.05.03-1.47.97-2.7,2.31-3.53,3.86-.84,1.55-1.28,3.31-1.28,5.07v13.49c0,3.83-3.11,6.94-6.94,6.94ZM161.76,73.5h0,0Z"/>
  <path class="cls-1" d="M100.01,195.19c-10.97,0-21.85-3.63-30.63-10.21-3.07-2.3-3.69-6.65-1.39-9.72,2.3-3.07,6.65-3.69,9.72-1.39,6.39,4.79,14.31,7.43,22.3,7.43s15.9-2.64,22.3-7.43c3.07-2.3,7.42-1.68,9.72,1.39,2.3,3.07,1.68,7.42-1.39,9.72-8.78,6.58-19.65,10.21-30.63,10.21Z"/>
</svg>