<?xml version="1.0" encoding="UTF-8"?>
<svg id="Layer_1" data-name="Layer 1" xmlns="http://www.w3.org/2000/svg" xmlns:xlink="http://www.w3.org/1999/xlink" viewBox="0 0 200 200">
  <defs>
    <style>
      .cls-1 {
        fill: #fff;
      }

      .cls-2 {
        fill: url(#linear-gradient);
      }
    </style>
    <linearGradient id="linear-gradient" x1="1.93" y1="144.75" x2="198.07" y2="144.75" gradientUnits="userSpaceOnUse">
      <stop offset="0" stop-color="#0e90a2"/>
      <stop offset=".32" stop-color="#19a574"/>
      <stop offset="1" stop-color="#90c43c"/>
    </linearGradient>
  </defs>
  <g>
    <g>
      <path class="cls-1" d="M170.36,100.81c5.59,1.68,8.77,7.57,7.09,13.16l-11.28,37.61c-1.68,5.59-7.57,8.77-13.16,7.09h0c-5.59-1.68-8.77-7.57-7.09-13.16l11.28-37.61c1.68-5.59,7.57-8.77,13.16-7.09h0Z"/>
      <path class="cls-1" d="M156.04,161.62h0c5.72,0,10.87-3.83,12.52-9.32l11.28-37.61c1-3.35.64-6.88-1.01-9.95-1.66-3.07-4.41-5.32-7.75-6.32-1.23-.37-2.49-.55-3.76-.55-5.72,0-10.87,3.83-12.52,9.32l-11.28,37.61c-2.07,6.9,1.86,14.21,8.77,16.28,1.23.37,2.49.55,3.76.55ZM167.31,102.86c.78,0,1.56.12,2.32.34,2.07.62,3.77,2.01,4.79,3.9,1.02,1.9,1.24,4.08.63,6.15l-11.28,37.61c-1.02,3.39-4.19,5.76-7.73,5.76h0c-.78,0-1.56-.12-2.32-.34-4.26-1.28-6.69-5.79-5.41-10.05l11.28-37.61c1.02-3.39,4.19-5.76,7.73-5.76Z"/>
    </g>
    <g>
      <path class="cls-1" d="M12.26,130.3c.68.15,1.68.42,2.93.76,7.04,1.89,20.14,5.4,43.91,2.76.39-.04.76-.17,1.08-.39.39-.25.81-.51,1.23-.75,10.72-6.2,24.16-5.76,35.05,1.14l6.19,3.92c.37.24.81.37,1.25.39l26.49.95c2.76-.05,4.93.74,6.42,2.25,1.18,1.2,1.9,2.85,1.92,4.42.01.87-.07,1.67-.25,2.41-.07.18-.12.36-.15.55-.93,2.96-3.46,4.68-7.16,4.73l-23.91.34h-26.3c-1.38,0-2.5,1.12-2.5,2.5s1.12,2.5,2.5,2.5h26.33l23.95-.34c5.66-.08,9.89-2.96,11.62-7.54l15.48-7.15c.53-.24.95-.66,1.2-1.18l18.99-39.14c.72-1.58,2.11-2.8,3.83-3.42,1.39-.49,3.61-.82,6.36.44,4.47,2.04,5.08,6.06,3.69,9.14l-20.61,45.04-43.61,24.97c-5.26,3.01-10.45,5.88-16.05,7.79-3.95,1.35-8.18,1.89-13.32,2.28-12.08.92-23.7-.67-35.99-2.34-4.21-.57-8.57-1.17-12.89-1.64-10.11-1.11-25.55-.65-32.6.51-4.83.78-7.38-6.54-8.47-10.99-4.41-17.99-.26-43.69,3.41-44.9Z"/>
      <path class="cls-2" d="M7.28,128.38c2.16-3.17,4.61-3.23,5.87-2.98.93.18,2,.47,3.35.83,6.66,1.79,19.02,5.1,41.49,2.68.3-.19.62-.38.93-.56,12.34-7.13,27.75-6.66,40.23,1.25l5.61,3.56,25.69.92c5.07-.05,8.2,1.99,9.92,3.74,1.93,1.95,3.12,4.54,3.32,7.18l11.73-5.42,18.57-38.29c1.25-2.74,3.69-4.93,6.67-5.99,3.19-1.14,6.78-.93,10.12.6,6.38,2.92,8.97,9.54,6.16,15.76l-20.95,45.78c-.22.47-.58.87-1.03,1.13l-44.31,25.37c-5.26,3.01-10.9,6.13-16.91,8.18-4.95,1.69-10.11,2.2-14.56,2.53-2.54.19-5.07.28-7.6.28-10,0-19.86-1.34-29.45-2.65-4.18-.57-8.5-1.16-12.76-1.63-9.56-1.05-24.65-.61-31.25.47-2.9.47-7.05-.09-10.46-5.43-8.58-13.47-6.56-48.26-.39-57.31ZM17.32,186.18c7.05-1.15,22.49-1.61,32.6-.51,4.33.48,8.68,1.07,12.89,1.64,12.29,1.68,23.91,3.26,35.99,2.34,5.14-.39,9.38-.93,13.32-2.28,5.6-1.92,10.78-4.78,16.05-7.79l43.61-24.97,20.61-45.04c1.39-3.07.79-7.09-3.69-9.14-2.75-1.26-4.97-.93-6.36-.44-1.72.61-3.11,1.84-3.83,3.42l-18.99,39.14c-.25.52-.68.94-1.2,1.18l-15.48,7.15c-1.74,4.58-5.97,7.46-11.62,7.54l-23.95.34h-26.33c-1.38,0-2.5-1.12-2.5-2.5s1.12-2.5,2.5-2.5h26.3l23.91-.34c3.7-.05,6.23-1.77,7.16-4.73.03-.19.08-.37.15-.55.18-.74.26-1.54.25-2.41-.02-1.57-.74-3.23-1.92-4.42-1.49-1.51-3.66-2.3-6.42-2.25l-26.49-.95c-.44-.02-.87-.15-1.25-.39l-6.19-3.92c-10.89-6.9-24.32-7.34-35.05-1.14-.42.25-.84.5-1.23.75-.33.21-.7.34-1.08.39-23.77,2.64-36.87-.87-43.91-2.76-1.26-.34-2.25-.6-2.93-.76-3.67,1.21-7.83,26.91-3.41,44.9,1.09,4.44,3.64,11.77,8.47,10.99Z"/>
    </g>
  </g>
  <path class="cls-1" d="M80.09,63.12h3.76c.37,0,.68-.26.75-.62.85-4.31,2.53-8.31,4.89-11.83.2-.3.17-.71-.09-.97l-2.65-2.65c-.3-.3-.3-.79,0-1.09l6.97-6.97c.3-.3.79-.3,1.09,0l2.65,2.65c.26.26.66.29.97.09,3.52-2.36,7.52-4.05,11.83-4.89.36-.07.62-.38.62-.75v-3.76c0-.43.35-.77.77-.77h9.85c.43,0,.77.35.77.77v3.76c0,.37.26.68.62.75,4.31.85,8.31,2.53,11.83,4.89.31.2.71.17.97-.09l2.65-2.65c.3-.3.79-.3,1.09,0l6.97,6.97c.3.3.3.79,0,1.09l-2.65,2.65c-.26.26-.29.66-.09.97,2.36,3.52,4.05,7.52,4.89,11.83.07.36.38.62.75.62h3.76c.43,0,.77,10.63.77,10.63,0,.43-.35.77-.77.77h-3.76c-.37,0-.68.26-.75.62-.85,4.31-2.53,8.31-4.89,11.83-.2.3-.17.71.09.97l2.65,2.65c.3.3.3.79,0,1.09l-6.97,6.97c-.3.3-.79.3-1.09,0l-2.65-2.65c-.26-.26-.66-.29-.97-.09-3.52,2.36-7.52,4.05-11.83,4.89-.36.07-.62.38-.62.75v3.76c0,.43-.35.77-.77.77h-9.85c-.43,0-.77-.35-.77-.77v-3.76c0-.37-.26-.68-.62-.75-4.31-.85-8.31-2.53-11.83-4.89-.31-.2-.71-.17-.97.09l-2.65,2.65c-.3.3-.79.3-1.09,0l-6.97-6.97c-.3-.3-.3-.79,0-1.09l2.65-2.65c.26-.26.29-.66.09-.97-2.36-3.52-4.05-7.52-4.89-11.83-.07-.36-.38-.62-.75-.62h-3.76c-.43,0-.77-.35-.77-.77v-9.85c0-.43.35-.77.77-.77ZM100.14,70.98c.94,7.38,6.9,13.34,14.28,14.28,10.83,1.38,19.98-7.77,18.6-18.6-.94-7.38-6.9-13.34-14.28-14.28-10.83-1.38-19.98,7.77-18.6,18.6Z"/>
  <path class="cls-1" d="M67.18,19.12h1.67c.16,0,.3-.12.33-.28.38-1.92,1.13-3.7,2.18-5.26.09-.14.08-.32-.04-.43l-1.18-1.18c-.13-.13-.13-.35,0-.49l3.1-3.1c.13-.13.35-.13.49,0l1.18,1.18c.12.12.3.13.43.04,1.57-1.05,3.35-1.8,5.26-2.18.16-.03.28-.17.28-.33v-1.67c0-.19.15-.34.34-.34h4.38c.19,0,.34.15.34.34v1.67c0,.16.12.3.28.33,1.92.38,3.7,1.13,5.26,2.18.14.09.32.08.43-.04l1.18-1.18c.13-.13.35-.13.49,0l3.1,3.1c.13.13.13.35,0,.49l-1.18,1.18c-.12.12-.13.3-.04.43,1.05,1.57,1.8,3.35,2.18,5.26.03.16.17.28.33.28h1.67c.19,0,.34.15.34.34v4.38c0,.19-.15.34-.34.34h-1.67c-.16,0-.3.12-.33.28-.38,1.92-1.13,3.7-2.18,5.26-.09.14-.08.32.04.43l1.18,1.18c.13.13.13.35,0,.49l-3.1,3.1c-.13.13-.35.13-.49,0l-1.18-1.18c-.12-.12-.3-.13-.43-.04-1.57,1.05-3.35,1.8-5.26,2.18-.16.03-.28.17-.28.33v1.67c0,.19-.15.34-.34.34h-4.38c-.19,0-.34-.15-.34-.34v-1.67c0-.16-.12-.3-.28-.33-1.92-.38-3.7-1.13-5.26-2.18-.14-.09-.32-.08-.43.04l-1.18,1.18c-.13.13-.35.13-.49,0l-3.1-3.1c-.13-.13-.13-.35,0-.49l1.18-1.18c.12-.12.13-.3.04-.43-1.05-1.57-1.8-3.35-2.18-5.26-.03-.16-.17-.28-.33-.28h-1.67c-.19,0-.34-.15-.34-.34v-4.38c0-.19.15-.34.34-.34ZM76.1,22.61c.42,3.28,3.07,5.94,6.35,6.35,4.82.61,8.89-3.46,8.28-8.28-.42-3.28-3.07-5.94-6.35-6.35-4.82-.61-8.89,3.46-8.28,8.28Z"/>
</svg>