<?xml version="1.0" encoding="UTF-8"?>
<svg id="Layer_1" data-name="Layer 1" xmlns="http://www.w3.org/2000/svg" xmlns:xlink="http://www.w3.org/1999/xlink" viewBox="0 0 200 200">
  <defs>
    <style>
      .cls-1 {
        fill: url(#linear-gradient-2);
      }

      .cls-2 {
        fill: url(#linear-gradient-4);
      }

      .cls-3 {
        stroke: url(#linear-gradient-8);
      }

      .cls-3, .cls-4, .cls-5 {
        fill: none;
        stroke-miterlimit: 10;
        stroke-width: 4px;
      }

      .cls-6 {
        fill: url(#linear-gradient-3);
      }

      .cls-7 {
        fill: url(#linear-gradient-5);
      }

      .cls-4 {
        stroke: url(#linear-gradient-9);
      }

      .cls-8 {
        fill: url(#linear-gradient-7);
      }

      .cls-5 {
        stroke: url(#linear-gradient-10);
      }

      .cls-9 {
        fill: url(#linear-gradient-6);
      }

      .cls-10 {
        fill: url(#linear-gradient);
      }
    </style>
    <linearGradient id="linear-gradient" x1="75.86" y1="96.31" x2="124.14" y2="23.48" gradientUnits="userSpaceOnUse">
      <stop offset="0" stop-color="#0e90a2"/>
      <stop offset=".32" stop-color="#19a574"/>
      <stop offset="1" stop-color="#90c43c"/>
    </linearGradient>
    <linearGradient id="linear-gradient-2" x1="16.59" y1="130.64" x2="48.07" y2="130.64" gradientTransform="translate(160.35 89.14) rotate(85.93)" xlink:href="#linear-gradient"/>
    <linearGradient id="linear-gradient-3" x1="3.3" y1="154.07" x2="61.26" y2="154.07" xlink:href="#linear-gradient"/>
    <linearGradient id="linear-gradient-4" x1="84.31" y1="150.2" x2="115.79" y2="150.2" gradientTransform="translate(242.78 39.76) rotate(85.93)" xlink:href="#linear-gradient"/>
    <linearGradient id="linear-gradient-5" x1="71.02" y1="173.62" x2="128.98" y2="173.62" xlink:href="#linear-gradient"/>
    <linearGradient id="linear-gradient-6" x1="152.03" y1="130.64" x2="183.51" y2="130.64" gradientTransform="translate(286.19 -45.96) rotate(85.93)" xlink:href="#linear-gradient"/>
    <linearGradient id="linear-gradient-7" x1="138.74" y1="154.07" x2="196.7" y2="154.07" xlink:href="#linear-gradient"/>
    <linearGradient id="linear-gradient-8" x1="19.28" y1="104.42" x2="51.13" y2="56.36" xlink:href="#linear-gradient"/>
    <linearGradient id="linear-gradient-9" x1="-1406.17" y1="101.89" x2="-1374.32" y2="53.84" gradientTransform="translate(-1225.45) rotate(-180) scale(1 -1)" xlink:href="#linear-gradient"/>
    <linearGradient id="linear-gradient-10" x1="93.4" y1="128.83" x2="106.6" y2="108.92" xlink:href="#linear-gradient"/>
  </defs>
  <path class="cls-10" d="M142.5,53.26h-4.38c-.43,0-.79-.3-.87-.72-.99-5.02-2.95-9.68-5.7-13.78-.24-.36-.2-.82.1-1.13l3.09-3.09c.35-.35.35-.92,0-1.27l-8.11-8.11c-.35-.35-.92-.35-1.27,0l-3.09,3.09c-.3.3-.77.34-1.13.1-4.1-2.75-8.76-4.71-13.78-5.7-.42-.08-.73-.44-.73-.87v-4.38c0-.5-.4-.9-.9-.9h-11.48c-.5,0-.9.4-.9.9v4.38c0,.43-.31.79-.73.87-5.02.99-9.68,2.95-13.78,5.7-.36.24-.83.2-1.13-.1l-3.09-3.09c-.35-.35-.92-.35-1.27,0l-8.11,8.11c-.35.35-.35.92,0,1.27l3.09,3.09c.3.3.34.77.1,1.13-2.75,4.1-4.71,8.76-5.7,13.78-.08.42-.44.72-.87.72h-4.38c-.5,0-.9.4-.9.9v11.48c0,.5.4.9.9.9h4.38c.43,0,.79.3.87.72.99,5.02,2.95,9.68,5.7,13.78.24.36.2.82-.1,1.13l-3.09,3.09c-.35.35-.35.92,0,1.27l8.11,8.11c.35.35.92.35,1.27,0l3.09-3.09c.3-.3.77-.34,1.13-.1,4.1,2.75,8.76,4.71,13.78,5.7.42.08.73.44.73.87v4.38c0,.5.4.9.9.9h11.48c.5,0,.9-.4.9-.9v-4.38c0-.43.31-.79.73-.87,5.02-.99,9.68-2.95,13.78-5.7.36-.24.82-.2,1.13.1l3.09,3.09c.35.35.92.35,1.27,0l8.11-8.11c.35-.35.35-.92,0-1.27l-3.09-3.09c-.3-.3-.34-.77-.1-1.13,2.75-4.1,4.71-8.76,5.7-13.78.08-.42.44-.72.87-.72h4.38c.5,0,.9-.4.9-.9v-11.48c0-.5-.4-.9-.9-.9ZM119.15,62.41c-1.09,8.6-8.03,15.54-16.63,16.63-12.61,1.6-23.26-9.05-21.66-21.66,1.09-8.6,8.03-15.54,16.63-16.63,12.61-1.6,23.26,9.05,21.66,21.66Z"/>
  <g>
    <circle class="cls-1" cx="32.33" cy="130.64" r="15.74" transform="translate(-100.28 153.63) rotate(-85.93)"/>
    <path class="cls-6" d="M18.73,144.19c-1.71.25-7.69,1.34-11.56,6.38-2.3,3-3.08,6.39-3.37,7.71-.5,2.28-.55,4.25-.48,5.66h57.91c.08-1.39.29-7.78-4.45-13.36-4.22-4.97-9.66-6.11-11.2-6.38-1.39,1.17-6.15,4.87-13.26,5.06-6.2.16-10.65-2.44-12.27-3.49"/>
  </g>
  <g>
    <circle class="cls-2" cx="100.05" cy="150.2" r="15.74" transform="translate(-56.87 239.35) rotate(-85.93)"/>
    <path class="cls-7" d="M86.45,163.75c-1.71.25-7.69,1.34-11.56,6.38-2.3,3-3.08,6.39-3.37,7.71-.5,2.28-.55,4.25-.48,5.66h57.91c.08-1.39.29-7.78-4.45-13.36-4.22-4.97-9.66-6.11-11.2-6.38-1.39,1.17-6.15,4.87-13.26,5.06-6.2.16-10.65-2.44-12.27-3.49"/>
  </g>
  <g>
    <circle class="cls-9" cx="167.77" cy="130.64" r="15.74" transform="translate(25.56 288.73) rotate(-85.93)"/>
    <path class="cls-8" d="M154.17,144.19c-1.71.25-7.69,1.34-11.56,6.38-2.3,3-3.08,6.39-3.37,7.71-.5,2.28-.55,4.25-.48,5.66h57.91c.08-1.39.29-7.78-4.45-13.36-4.22-4.97-9.66-6.11-11.2-6.38-1.39,1.17-6.15,4.87-13.26,5.06-6.2.16-10.65-2.44-12.27-3.49"/>
  </g>
  <polyline class="cls-3" points="53.45 59.9 32.28 59.9 32.28 111.71"/>
  <polyline class="cls-4" points="146.55 57.37 167.72 57.37 167.72 109.18"/>
  <line class="cls-5" x1="100" y1="105.87" x2="100" y2="131.88"/>
</svg>