<?xml version="1.0" encoding="UTF-8"?>
<svg id="Layer_1" data-name="Layer 1" xmlns="http://www.w3.org/2000/svg" viewBox="0 0 200 200">
  <defs>
    <style>
      .cls-1 {
        fill: #fff;
      }
    </style>
  </defs>
  <path class="cls-1" d="M103.28,8.09S24.14,30.52,24.14,34.47v80.02c0,40.45,58.47,76.06,74.74,85.73,2.66,1.78,6.13,1.78,8.79,0,16.71-9.23,74.74-45.28,74.74-85.73V34.47c0-3.96-79.14-26.38-79.14-26.38ZM75.83,44.51l18.08-.04,5.55-17.21,7.52-.02,5.62,17.19,18.08-.04,2.34,7.14-14.61,10.66,5.62,17.19-6.07,4.43-14.65-10.6-14.61,10.66-6.09-4.41,5.55-17.21-14.65-10.6,2.31-7.15ZM125.57,112.58c0,13.16-10.67,23.83-23.83,23.83s-23.83-10.67-23.83-23.83,10.67-23.83,23.83-23.83,23.83,10.67,23.83,23.83ZM51.04,60.1l-1.97-1.43,1.8-5.57-4.74-3.43.75-2.32h5.85s1.8-5.58,1.8-5.58h2.43s1.82,5.56,1.82,5.56h5.85s.76,2.3.76,2.3l-4.73,3.45,1.82,5.56-1.97,1.43-4.74-3.43-4.73,3.45ZM145.51,163H57.81c-.1-2.13-.03-5.11.73-8.57.44-1.99,1.62-7.12,5.1-11.67,5.86-7.64,14.92-9.29,17.5-9.66l2.01,2.37c2.45,1.6,9.2,5.53,18.58,5.29,10.76-.28,17.96-5.88,20.07-7.66,2.32.41,10.56,2.14,16.96,9.66,7.18,8.46,6.86,18.14,6.75,20.24ZM157.53,58.64l-1.97,1.43-4.74-3.43-4.73,3.45-1.97-1.43,1.8-5.57-4.74-3.43.75-2.32h5.85s1.8-5.58,1.8-5.58h2.43s1.82,5.56,1.82,5.56h5.85s.76,2.3.76,2.3l-4.73,3.45,1.82,5.56Z"/>
</svg>