<?xml version="1.0" encoding="UTF-8"?><svg id="Layer_1" xmlns="http://www.w3.org/2000/svg" viewBox="0 0 200 200"><defs><style>.cls-1{fill:#fff;stroke-width:0px;}</style></defs><path class="cls-1" d="m194.89,85.18h-9.77c-.96,0-1.76-.68-1.95-1.62-2.2-11.2-6.58-21.61-12.72-30.77-.53-.79-.44-1.84.23-2.52l6.89-6.89c.78-.78.78-2.06,0-2.84l-18.12-18.12c-.78-.78-2.06-.78-2.84,0l-6.89,6.9c-.68.68-1.72.77-2.52.23-9.15-6.14-19.56-10.52-30.77-12.72-.94-.18-1.62-.99-1.62-1.95V5.11c0-1.11-.9-2.01-2.01-2.01h-25.62c-1.11,0-2.01.9-2.01,2.01v9.78c0,.96-.68,1.76-1.62,1.95-11.21,2.2-21.61,6.58-30.77,12.72-.79.53-1.84.44-2.52-.23l-6.89-6.9c-.78-.78-2.06-.78-2.84,0l-18.12,18.12c-.78.78-.78,2.06,0,2.84l6.89,6.89c.68.68.77,1.72.23,2.52-6.14,9.15-10.52,19.56-12.72,30.77-.18.94-.99,1.62-1.95,1.62H5.11c-1.11,0-2.01.9-2.01,2.01v25.62c0,1.11.9,2.01,2.01,2.01h9.77c.96,0,1.76.68,1.95,1.62,2.2,11.2,6.58,21.61,12.72,30.77.53.79.44,1.84-.23,2.52l-6.89,6.89c-.78.78-.78,2.06,0,2.84l18.12,18.12c.78.78,2.06.78,2.84,0l6.89-6.9c.68-.68,1.72-.77,2.52-.23,9.15,6.14,19.56,10.52,30.77,12.72.94.18,1.62.99,1.62,1.95v9.78c0,1.11.9,2.01,2.01,2.01h25.62c1.11,0,2.01-.9,2.01-2.01v-9.78c0-.96.68-1.76,1.62-1.95,11.21-2.2,21.61-6.58,30.77-12.72.79-.53,1.84-.44,2.52.23l6.89,6.9c.78.78,2.06.78,2.84,0l18.12-18.12c.78-.78.78-2.06,0-2.84l-6.89-6.89c-.68-.68-.77-1.72-.23-2.52,6.14-9.15,10.52-19.56,12.72-30.77.18-.94.99-1.62,1.95-1.62h9.77c1.11,0,2.01-.9,2.01-2.01v-25.62c0-1.11-.9-2.01-2.01-2.01Zm-52.14,20.44c-2.44,19.2-17.94,34.7-37.14,37.14-28.16,3.58-51.95-20.21-48.37-48.37,2.44-19.2,17.94-34.7,37.14-37.14,28.16-3.58,51.95,20.21,48.37,48.37Z"/></svg>