<?xml version="1.0" encoding="UTF-8"?><svg id="Layer_1" xmlns="http://www.w3.org/2000/svg" viewBox="0 0 200 200"><defs><style>.cls-1{fill:#fff;stroke-width:0px;}</style></defs><g id="Group_15950"><path id="Path_27039" class="cls-1" d="m2.43,75.06h85.03V3.02H2.43v72.04Z"/><path id="Path_27040" class="cls-1" d="m97.7,3.02v76.41c0,3.43-2.78,6.21-6.21,6.21H2.43v111.34h195.13V3.02h-99.86Zm83.39,173.13c-2.43,2.42-6.36,2.42-8.79,0l-57.13-57.13v24.08c0,3.43-2.79,6.21-6.22,6.21-3.43,0-6.2-2.78-6.21-6.21v-39.08c0-3.43,2.78-6.21,6.21-6.21h39.09c3.43,0,6.21,2.79,6.21,6.22,0,3.43-2.78,6.2-6.21,6.21h-24.08l57.13,57.13c2.43,2.42,2.43,6.36,0,8.78h0Z"/></g></svg>