<?xml version="1.0" encoding="UTF-8"?><svg id="Layer_1" xmlns="http://www.w3.org/2000/svg" viewBox="0 0 200 200"><defs><style>.cls-1{fill:#fff;stroke-width:0px;}</style></defs><path class="cls-1" d="m166.42,88.86h-7.35c-.67,0-1.25-.45-1.42-1.1l-32.66,24.77c-4.39,10.41-14.14,18.14-25.67,19.61-11.45,1.45-21.95-3.11-28.73-10.96l-29.01,13.45c.18.29.37.57.56.86.4.59.33,1.38-.18,1.89l-5.18,5.18c-.59.58-.59,1.54,0,2.13l13.62,13.62c.59.59,1.54.59,2.13,0l5.18-5.18c.51-.51,1.29-.58,1.89-.18,6.88,4.61,14.7,7.91,23.13,9.56.71.14,1.22.75,1.22,1.47v7.35c0,.83.67,1.5,1.51,1.5h19.26c.83,0,1.51-.67,1.51-1.5v-7.35c0-.72.51-1.33,1.22-1.47,8.42-1.65,16.24-4.94,23.13-9.56.59-.41,1.38-.33,1.89.18l5.18,5.18c.59.59,1.54.59,2.13,0l13.62-13.62c.59-.59.59-1.55,0-2.13l-5.18-5.18c-.51-.51-.58-1.3-.18-1.89,4.61-6.88,7.91-14.71,9.57-23.14.14-.7.74-1.21,1.46-1.21h7.35c.83,0,1.5-.68,1.5-1.51v-19.26c0-.84-.67-1.51-1.5-1.51Zm-13.02-31.42c.59-.59.59-1.55,0-2.14l-13.62-13.62c-.59-.59-1.54-.59-2.13,0l-5.18,5.18c-.51.51-1.3.57-1.89.18-6.88-4.62-14.7-7.91-23.13-9.57-.71-.14-1.22-.75-1.22-1.46v-7.35c0-.83-.68-1.51-1.51-1.51h-19.26c-.84,0-1.51.68-1.51,1.51v7.35c0,.71-.51,1.32-1.22,1.46-8.42,1.65-16.24,4.94-23.13,9.57-.6.4-1.38.33-1.89-.18l-5.18-5.18c-.59-.59-1.54-.59-2.13,0l-13.62,13.62c-.59.59-.59,1.55,0,2.14l5.18,5.18c.51.51.57,1.29.18,1.89-4.62,6.88-7.91,14.7-9.57,23.13-.14.7-.74,1.22-1.46,1.22h-7.35c-.83,0-1.5.67-1.5,1.51v19.26c0,.83.67,1.51,1.5,1.51h7.35c.72,0,1.32.51,1.46,1.21.25,1.25.53,2.47.85,3.69l29.36-13.62c-.17-2.17-.11-4.39.18-6.65,1.84-14.43,13.49-26.09,27.91-27.91,15.07-1.92,28.49,6.6,33.97,19.31l25.36-19.22c-.68-1.17-1.4-2.32-2.15-3.44-.41-.6-.33-1.38.18-1.89l5.18-5.18Z"/><path class="cls-1" d="m4.45,145.03c-1.3,0-2.55-.73-3.15-1.98-.84-1.74-.11-3.83,1.63-4.67l81.97-39.63c.92-.45,1.99-.47,2.93-.05l18.66,8.19,60.04-39.59,20.06-12.67-22.74-4.75c-1.88-.39-3.09-2.23-2.71-4.12s2.21-3.11,4.09-2.75l30.98,5.98c1.85.36,3.07,2.11,2.8,3.95,0,.24-.03.47-.08.71l-.04.21c-.04.19-.09.37-.16.54l-5.34,27.64c-.37,1.9-2.2,3.13-4.1,2.77-1.9-.37-3.14-2.2-2.77-4.1l3.91-20.24-20.11,12.7-61.57,40.61c-.99.65-2.25.76-3.33.28l-18.93-8.3L5.97,144.68c-.49.24-1.01.35-1.52.35Z"/></svg>