<?xml version="1.0" encoding="UTF-8"?><svg id="Layer_1" xmlns="http://www.w3.org/2000/svg" xmlns:xlink="http://www.w3.org/1999/xlink" viewBox="0 0 200 200"><defs><style>.cls-1{fill:url(#linear-gradient);stroke-width:0px;}</style><linearGradient id="linear-gradient" x1="3.07" y1="100" x2="196.93" y2="100" gradientUnits="userSpaceOnUse"><stop offset="0" stop-color="#0e90a2"/><stop offset=".32" stop-color="#19a574"/><stop offset="1" stop-color="#90c43c"/></linearGradient></defs><path class="cls-1" d="m194,181.37h-.01l-60.82-61.81c21.77-29.49,19-70.4-6.56-96.68C99.12-5.38,53.91-6,25.65,21.49c-.47.46-.93.92-1.39,1.39-28.26,29.05-28.26,75.32,0,104.36,25.23,25.95,65.89,28.89,94.6,6.85l60.6,61.6c3.95,4.01,10.41,4.07,14.43.11,4.01-3.95,4.06-10.41.11-14.43ZM50.71,95.63h-3.42V27.38h29.07l5.12,3.41h-30.77v64.84Zm6.82,6.82h-3.42V34.2h30.72l4.98,3.41h-32.28v64.84Zm58.01,6.83h-54.61V41.02h18.59c16.57,0,11.38,23.89,11.38,23.89,10.26-2.54,24.64-3.57,24.64,8.09v36.28Zm-17.25-51.95c.85-5.76-.81-11.61-4.58-16.05,8.39,4.49,15.81,10.58,21.84,17.92-4.39-3.08-10.28-3.5-17.26-1.87Z"/></svg>