<?xml version="1.0" encoding="UTF-8"?><svg id="Layer_1" xmlns="http://www.w3.org/2000/svg" xmlns:xlink="http://www.w3.org/1999/xlink" viewBox="0 0 200 200"><defs><style>.cls-1{fill:url(#linear-gradient);}.cls-1,.cls-2,.cls-3,.cls-4{stroke-width:0px;}.cls-5{fill:none;stroke:url(#linear-gradient-4);stroke-linecap:round;stroke-linejoin:round;stroke-width:8px;}.cls-2{fill:url(#linear-gradient-2);}.cls-3{fill:url(#linear-gradient-3);}.cls-4{fill:url(#linear-gradient-5);fill-rule:evenodd;}</style><linearGradient id="linear-gradient" x1="19.9" y1="26.3" x2="55.43" y2="26.3" gradientUnits="userSpaceOnUse"><stop offset="0" stop-color="#0e90a2"/><stop offset=".32" stop-color="#19a574"/><stop offset="1" stop-color="#90c43c"/></linearGradient><linearGradient id="linear-gradient-2" x1="162.03" y1="26.3" x2="197.57" y2="26.3" xlink:href="#linear-gradient"/><linearGradient id="linear-gradient-3" x1="28.79" y1="97.36" x2="188.68" y2="97.36" xlink:href="#linear-gradient"/><linearGradient id="linear-gradient-4" x1="104.74" y1="97.36" x2="134.35" y2="97.36" xlink:href="#linear-gradient"/><linearGradient id="linear-gradient-5" x1="2.43" y1="144.42" x2="96.54" y2="144.42" gradientUnits="userSpaceOnUse"><stop offset="0" stop-color="#0e90a2"/><stop offset=".32" stop-color="#19a574"/><stop offset="1" stop-color="#90c43c"/></linearGradient></defs><path class="cls-1" d="m28.78,44.06c-2.27,0-4.55-.87-6.28-2.6-3.47-3.47-3.47-9.09,0-12.56l17.77-17.77c3.47-3.47,9.09-3.47,12.56,0,3.47,3.47,3.47,9.09,0,12.56l-17.77,17.77c-1.73,1.73-4.01,2.6-6.28,2.6Z"/><path class="cls-2" d="m188.68,44.06c-2.27,0-4.55-.87-6.28-2.6l-17.77-17.77c-3.47-3.47-3.47-9.09,0-12.56,3.47-3.47,9.09-3.47,12.56,0l17.77,17.77c3.47,3.47,3.47,9.09,0,12.56-1.73,1.73-4.01,2.6-6.28,2.6Z"/><path class="cls-3" d="m165.27,40.83c-15.1-15.11-35.18-23.42-56.54-23.42s-41.44,8.31-56.54,23.42c-14.97,14.97-23.28,34.84-23.41,55.99,5.34-3.25,11.49-5.28,18.07-5.7,3.14-31.36,29.69-55.94,61.87-55.94,34.29,0,62.19,27.89,62.19,62.18s-27.89,62.19-62.19,62.19c-6.71,0-13.18-1.07-19.24-3.05l10.14,20.3c2.99.34,6.03.52,9.1.52,21.36,0,41.44-8.32,56.54-23.42,15.1-15.1,23.42-35.18,23.42-56.54s-8.32-41.43-23.42-56.53Zm-81.5,132.52c2.68.88,5.4,1.62,8.17,2.2l-8.84-17.68v-3.84c-2.18-.99-4.29-2.11-6.33-3.34l-29.89-46.87-.33-6.33c-6.54.57-12.54,3-17.47,6.79.21,2.55.55,5.06,1,7.55l53.69,61.53Z"/><polyline class="cls-5" points="108.74 71.62 108.74 101.49 130.35 123.1"/><g id="Page-1"><g id="Icon-Set-Filled"><path class="cls-4" d="m91.94,175.55l-8.84-17.69v-26.89c0-18.56-15.05-33.62-33.62-33.62-.99,0-1.97.05-2.94.13-6.54.57-12.54,3-17.47,6.79-8.02,6.14-13.2,15.81-13.2,26.7v26.89l-13.44,26.89h37.59c1.38,3.91,5.07,6.72,9.46,6.72s8.08-2.81,9.47-6.72h37.59l-4.6-9.2Zm-37.46,2.87l-1.49,4.2c-.54,1.53-1.92,2.51-3.51,2.51s-2.96-.99-3.5-2.51l-1.49-4.2H12.68l9.53-19.07v-28.38c0-7.46,3-14.22,7.88-19.15,4.37-4.44,10.25-7.39,16.8-8.01.86-.08,1.73-.13,2.6-.13,15.04,0,27.29,12.24,27.29,27.29v28.38l7,14,2.53,5.07h-31.82Z"/><path class="cls-4" d="m96.54,184.75h-37.59c-1.38,3.91-5.07,6.72-9.47,6.72s-8.07-2.81-9.46-6.72H2.43l13.44-26.89v-26.89c0-10.89,5.18-20.56,13.2-26.7,4.93-3.79,10.93-6.22,17.47-6.79.97-.08,1.95-.13,2.94-.13,18.56,0,33.62,15.05,33.62,33.62v26.89l8.84,17.69,4.6,9.2Z"/></g></g></svg>