<?xml version="1.0" encoding="UTF-8"?><svg id="Layer_1" xmlns="http://www.w3.org/2000/svg" xmlns:xlink="http://www.w3.org/1999/xlink" viewBox="0 0 200 200"><defs><style>.cls-1{fill:url(#linear-gradient);}.cls-1,.cls-2,.cls-3,.cls-4,.cls-5,.cls-6{stroke-width:0px;}.cls-2{fill:url(#linear-gradient-6);}.cls-3{fill:url(#linear-gradient-5);}.cls-4{fill:url(#linear-gradient-2);}.cls-5{fill:url(#linear-gradient-3);}.cls-6{fill:url(#linear-gradient-4);}</style><linearGradient id="linear-gradient" x1="29.26" y1="193.11" x2="170.74" y2="193.11" gradientUnits="userSpaceOnUse"><stop offset="0" stop-color="#0e90a2"/><stop offset=".32" stop-color="#19a574"/><stop offset="1" stop-color="#90c43c"/></linearGradient><linearGradient id="linear-gradient-2" x1="29.53" y1="118.4" x2="57.91" y2="118.4" xlink:href="#linear-gradient"/><linearGradient id="linear-gradient-3" x1="65.65" y1="131.48" x2="93.76" y2="131.48" xlink:href="#linear-gradient"/><linearGradient id="linear-gradient-4" x1="101.29" y1="155.54" x2="129.4" y2="155.54" xlink:href="#linear-gradient"/><linearGradient id="linear-gradient-5" x1="135.26" y1="164.81" x2="163.37" y2="164.81" xlink:href="#linear-gradient"/><linearGradient id="linear-gradient-6" x1="-2230.78" y1="-72.97" x2="-2120.65" y2="-72.97" gradientTransform="translate(-2054.54 -201.71) rotate(-174.9)" xlink:href="#linear-gradient"/></defs><g id="Group_15946"><rect id="Rectangle_648" class="cls-1" x="29.26" y="190.99" width="141.48" height="4.24"/><rect id="Rectangle_649" class="cls-4" x="29.53" y="49.27" width="28.38" height="138.27"/><rect id="Rectangle_650" class="cls-5" x="65.65" y="75.43" width="28.11" height="112.11"/><rect id="Rectangle_651" class="cls-6" x="101.29" y="123.53" width="28.11" height="64"/><rect id="Rectangle_652" class="cls-3" x="135.26" y="142.09" width="28.11" height="45.45"/></g><path class="cls-2" d="m53.59,32.99l2.3-25.76c.13-1.48,1.44-2.57,2.92-2.44l25.77,2.3c1.48.13,2.57,1.44,2.44,2.92s-1.44,2.57-2.92,2.44l-18.47-1.65,90,109.22c.91,1.11.76,2.75-.33,3.68s-2.72.78-3.63-.32L60.77,13.05l-1.82,20.42c-.13,1.48-1.43,2.57-2.92,2.44s-2.57-1.43-2.44-2.92Z"/></svg>