<?xml version="1.0" encoding="UTF-8"?><svg id="Layer_1" xmlns="http://www.w3.org/2000/svg" viewBox="0 0 200 200"><defs><style>.cls-1{fill:#fff;stroke-width:0px;}.cls-2{fill:none;stroke:#fff;stroke-miterlimit:10;stroke-width:9px;}</style></defs><circle class="cls-2" cx="100" cy="110.86" r="72.88"/><path class="cls-1" d="m100,9.62c15.66,0,28.36,12.7,28.36,28.36s-12.7,28.36-28.36,28.36-28.36-12.69-28.36-28.35c.02-15.66,12.7-28.35,28.36-28.36h0Z"/><path class="cls-1" d="m32.65,190.38c-15.66,0-28.36-12.7-28.36-28.36,0-15.66,12.7-28.36,28.36-28.36s28.36,12.69,28.36,28.35c-.02,15.66-12.7,28.35-28.36,28.36h0Z"/><path class="cls-1" d="m167.35,190.37c-15.66,0-28.36-12.7-28.36-28.36s12.7-28.36,28.36-28.36,28.36,12.7,28.36,28.36c-.02,15.66-12.7,28.35-28.36,28.36Z"/></svg>