<?xml version="1.0" encoding="UTF-8"?><svg id="Layer_1" xmlns="http://www.w3.org/2000/svg" xmlns:xlink="http://www.w3.org/1999/xlink" viewBox="0 0 200 200"><defs><style>.cls-1{fill:url(#linear-gradient);stroke-width:0px;}</style><linearGradient id="linear-gradient" x1="47.23" y1="179.59" x2="152.76" y2="20.41" gradientUnits="userSpaceOnUse"><stop offset="0" stop-color="#0e90a2"/><stop offset=".32" stop-color="#19a574"/><stop offset="1" stop-color="#90c43c"/></linearGradient></defs><path class="cls-1" d="m192.88,85.49h-9.57c-.93,0-1.72-.66-1.9-1.58-2.16-10.97-6.44-21.16-12.45-30.12-.53-.77-.44-1.8.22-2.46l6.75-6.75c.77-.77.77-2.01,0-2.78l-17.73-17.74c-.77-.76-2.02-.76-2.78,0l-6.75,6.75c-.66.67-1.69.75-2.47.23-8.95-6.01-19.14-10.3-30.11-12.45-.92-.18-1.59-.97-1.59-1.9V7.12c0-1.09-.88-1.97-1.96-1.97h-25.09c-1.08,0-1.96.88-1.96,1.97v9.57c0,.93-.67,1.72-1.59,1.9-10.96,2.15-21.15,6.44-30.11,12.45-.78.52-1.8.44-2.47-.23l-6.75-6.75c-.76-.76-2.01-.76-2.78,0l-17.73,17.74c-.77.77-.77,2.01,0,2.78l6.75,6.75c.66.66.75,1.69.23,2.46-6.02,8.96-10.3,19.15-12.46,30.12-.18.92-.97,1.58-1.9,1.58H7.11c-1.08,0-1.96.88-1.96,1.97v25.08c0,1.09.88,1.97,1.96,1.97h9.57c.93,0,1.72.67,1.9,1.59,2.16,10.96,6.44,21.15,12.46,30.11.52.78.43,1.8-.23,2.47l-6.75,6.74c-.77.77-.77,2.02,0,2.78l17.73,17.74c.77.77,2.02.77,2.78,0l6.75-6.75c.66-.66,1.69-.75,2.47-.23,8.96,6.02,19.14,10.3,30.11,12.45.92.18,1.59.97,1.59,1.91v9.57c0,1.08.88,1.96,1.96,1.96h25.09c1.08,0,1.96-.88,1.96-1.96v-9.57c0-.94.67-1.73,1.59-1.91,10.97-2.15,21.16-6.44,30.11-12.45.78-.52,1.81-.43,2.47.23l6.75,6.75c.76.77,2.01.77,2.78,0l17.73-17.74c.77-.76.77-2.01,0-2.78l-6.75-6.74c-.66-.67-.75-1.69-.22-2.47,6.01-8.96,10.29-19.15,12.45-30.11.18-.92.97-1.59,1.9-1.59h9.57c1.09,0,1.97-.88,1.97-1.97v-25.08c0-1.09-.88-1.97-1.97-1.97Zm-109.78-28.92c2.13-2.13,4.75-3.86,7.67-5.05,2.91-1.18,6.11-1.84,9.39-1.84,6.56,0,12.47,2.62,17.06,6.89,4.27,4.26,6.89,10.5,6.89,17.06s-2.62,12.79-6.89,17.06c-4.59,4.27-10.5,6.89-17.06,6.89s-12.8-2.62-17.06-6.89c-2.13-2.29-3.86-4.92-5.05-7.79-1.18-2.87-1.84-5.99-1.84-9.27,0-6.56,2.62-12.8,6.89-17.06Zm60.37,82.35c0,2.63-1.97,4.6-4.59,4.6H61.11c-2.29,0-4.59-1.97-4.59-4.6v-13.12c0-11.16,11.81-18.05,26.91-20.67,5.25-.99,11.15-1.64,16.73-1.64s11.48.65,16.73,1.64c15.1,2.62,26.58,9.51,26.58,20.67v13.12Z"/></svg>