<?xml version="1.0" encoding="UTF-8"?><svg id="Layer_1" xmlns="http://www.w3.org/2000/svg" xmlns:xlink="http://www.w3.org/1999/xlink" viewBox="0 0 200 200"><defs><style>.cls-1{fill:url(#linear-gradient);}.cls-1,.cls-2{stroke-width:0px;}.cls-2{fill:url(#linear-gradient-2);}</style><linearGradient id="linear-gradient" x1="11.93" y1="100" x2="188.07" y2="100" gradientUnits="userSpaceOnUse"><stop offset="0" stop-color="#0e90a2"/><stop offset=".32" stop-color="#19a574"/><stop offset="1" stop-color="#90c43c"/></linearGradient><linearGradient id="linear-gradient-2" x1="40.03" y1="48.39" x2="160.03" y2="48.39" xlink:href="#linear-gradient"/></defs><path class="cls-1" d="m182.89,122.59c-10.91-23.76-26.24-45.1-45.12-62.82-5.05-3.5-11.07-5.23-17.16-4.93l.87-2.03,6.43-15.02c5.65-13.1,13.31-34.57-.64-34.57h-54.47c-13.96,0-6.26,21.47-.64,34.57l6.29,14.71,1.01,2.34c-6.09-.3-12.11,1.43-17.16,4.93-18.92,17.73-34.27,39.09-45.19,62.87-4.25,8.78-5.94,18.64-4.86,28.38,1.33,24.84,20.78,44.61,45.01,45.74h85.54c24.22-1.16,43.65-20.95,44.95-45.79,1.08-9.74-.61-19.6-4.86-28.38Zm-57-24.53h-20.29c3.57,2.83,6.15,6.89,6.89,12.55h13.41v6.15h-13.28c-1.23,12.54-11.19,20.54-26.93,21.03,9.59,9.96,20.05,22.51,30.38,35.18h-11.81c-9.59-11.56-18.57-22.26-30.13-34.56v-7.62h6.76c13.28,0,20.42-5.53,21.28-14.02h-28.04v-6.15h27.67c-1.72-7.13-8.24-10.7-18.94-10.7h-8.73v-7.99h51.78v6.15Z"/><path class="cls-2" d="m120.61,64.52c5.34,0,9.68-4.33,9.68-9.68s-4.33-9.68-9.68-9.68v19.35Zm-41.16-19.35c-5.34,0-9.68,4.33-9.68,9.68s4.33,9.68,9.68,9.68v-19.35Zm75.73,5.16c4.63-2.67,6.22-8.58,3.55-13.22-2.67-4.63-8.58-6.22-13.21-3.55l9.66,16.77Zm-33.7,2.49l1.87,9.49h.03s-1.9-9.49-1.9-9.49Zm-43.04-.31l2-9.47-.09-.02-1.92,9.49Zm-24.05-19.04c-4.68-2.58-10.56-.89-13.15,3.79-2.59,4.68-.89,10.56,3.79,13.15l9.36-16.94Zm66.22,11.69h-41.16v19.35h41.16v-19.35Zm24.91-11.61c-8.09,4.66-16.85,7.96-25.94,9.77l3.79,18.98c11.16-2.23,21.9-6.28,31.81-11.98l-9.66-16.77Zm-25.91,9.77c-12.95,2.55-26.25,2.45-39.16-.28l-4.01,18.93c15.46,3.27,31.4,3.39,46.91.34l-3.73-18.99Zm-39.25-.3c-9.07-1.83-17.82-5.05-25.97-9.55l-9.36,16.94c9.87,5.45,20.49,9.36,31.5,11.58l3.83-18.97Z"/></svg>