<?xml version="1.0" encoding="UTF-8"?><svg id="Layer_1" xmlns="http://www.w3.org/2000/svg" xmlns:xlink="http://www.w3.org/1999/xlink" viewBox="0 0 200 200"><defs><style>.cls-1{fill:url(#linear-gradient);}.cls-1,.cls-2,.cls-3,.cls-4,.cls-5,.cls-6,.cls-7,.cls-8{stroke-width:0px;}.cls-2{fill:url(#linear-gradient-6);}.cls-3{fill:url(#linear-gradient-5);}.cls-4{fill:url(#linear-gradient-2);}.cls-5{fill:url(#linear-gradient-7);}.cls-6{fill:url(#linear-gradient-3);}.cls-7{fill:url(#linear-gradient-8);}.cls-8{fill:url(#linear-gradient-4);}</style><linearGradient id="linear-gradient" x1="-3662.99" y1="-4124.32" x2="-3662.74" y2="-4124.32" gradientTransform="translate(618614.15 -47763.4) rotate(43.79) scale(112.84 -112.17)" gradientUnits="userSpaceOnUse"><stop offset="0" stop-color="#0e90a2"/><stop offset=".32" stop-color="#19a574"/><stop offset="1" stop-color="#90c43c"/></linearGradient><linearGradient id="linear-gradient-2" x1="-3668.71" y1="-4148.93" x2="-3668.46" y2="-4148.93" gradientTransform="translate(-59318.13 -619912.09) rotate(-47.14) scale(112.84 -112.17)" xlink:href="#linear-gradient"/><linearGradient id="linear-gradient-3" x1="-3693.18" y1="-4142.69" x2="-3692.93" y2="-4142.69" gradientTransform="translate(-623431.72 28373.95) rotate(-134.49) scale(112.84 -112.17)" xlink:href="#linear-gradient"/><linearGradient id="linear-gradient-4" x1="-3688.15" y1="-4116.17" x2="-3687.9" y2="-4116.17" gradientTransform="translate(28212.73 621049.17) rotate(135.37) scale(112.84 -112.17)" xlink:href="#linear-gradient"/><linearGradient id="linear-gradient-5" x1="57.45" y1="67.55" x2="142.56" y2="67.55" gradientUnits="userSpaceOnUse"><stop offset="0" stop-color="#0e90a2"/><stop offset=".32" stop-color="#19a574"/><stop offset="1" stop-color="#90c43c"/></linearGradient><linearGradient id="linear-gradient-6" y1="90.39" y2="90.39" xlink:href="#linear-gradient-5"/><linearGradient id="linear-gradient-7" y1="111.64" y2="111.64" xlink:href="#linear-gradient-5"/><linearGradient id="linear-gradient-8" y1="133.74" y2="133.74" xlink:href="#linear-gradient-5"/></defs><path class="cls-1" d="m100.67,194.88c-1.2.02-2.2-.93-2.23-2.14l-.6-28.36-5.85,6.1c-.83.87-2.22.9-3.08.06-.87-.83-.9-2.21-.07-3.08l9.5-9.91c.83-.87,2.21-.9,3.08-.07h0s9.91,9.5,9.91,9.5c.87.83.9,2.22.06,3.08-.83.87-2.21.9-3.08.07l-6.1-5.85.6,28.36c.03,1.2-.93,2.2-2.13,2.23h0s0,0,0,0Z"/><path class="cls-4" d="m196.97,99.02c.04,1.2-.9,2.21-2.1,2.26l-28.35,1.06,6.2,5.75c.88.82.93,2.2.11,3.08-.82.88-2.2.93-3.08.11l-10.06-9.33c-.88-.82-.94-2.2-.12-3.08h0s9.33-10.06,9.33-10.06c.82-.88,2.2-.93,3.08-.11.88.82.93,2.2.11,3.08l-5.75,6.2,28.35-1.06c1.2-.05,2.22.89,2.26,2.1h0s0,0,0,0Z"/><path class="cls-6" d="m100.23,5.12c1.2.01,2.17,1,2.16,2.2l-.25,28.37,6.03-5.92c.86-.84,2.24-.83,3.08.03.84.86.83,2.24-.03,3.08l-9.79,9.62c-.86.84-2.24.83-3.08-.03h0s-9.62-9.79-9.62-9.79c-.84-.86-.83-2.24.03-3.08.86-.84,2.24-.83,3.08.03l5.92,6.03.25-28.37c.01-1.2.99-2.17,2.2-2.16h0s0,0,0,0Z"/><path class="cls-8" d="m3.03,103.61c0-1.2.99-2.17,2.2-2.17l28.37.18-5.94-6.02c-.85-.86-.84-2.24.02-3.08.86-.84,2.24-.84,3.08.02l9.64,9.76c.85.86.84,2.24-.02,3.08h0s-9.76,9.64-9.76,9.64c-.86.85-2.24.84-3.08-.02-.84-.86-.84-2.24.02-3.08l6.02-5.94-28.37-.18c-1.2,0-2.17-.99-2.17-2.19h0s0,0,0,0Z"/><ellipse class="cls-3" cx="100.01" cy="67.55" rx="42.56" ry="19.71"/><path class="cls-2" d="m57.45,71.96c0,10.89,19.05,19.71,42.56,19.71s42.56-8.82,42.56-19.71v17.14c0,10.89-19.05,19.71-42.56,19.71s-42.56-8.82-42.56-19.71v-17.14Z"/><path class="cls-5" d="m57.45,93.22c0,10.89,19.05,19.71,42.56,19.71s42.56-8.82,42.56-19.71v17.14c0,10.89-19.05,19.71-42.56,19.71s-42.56-8.82-42.56-19.71v-17.14Z"/><path class="cls-7" d="m57.45,115.32c0,10.89,19.05,19.71,42.56,19.71s42.56-8.82,42.56-19.71v17.14c0,10.89-19.05,19.71-42.56,19.71s-42.56-8.82-42.56-19.71v-17.14Z"/></svg>