<?xml version="1.0" encoding="UTF-8"?><svg id="Layer_1" xmlns="http://www.w3.org/2000/svg" xmlns:xlink="http://www.w3.org/1999/xlink" viewBox="0 0 200 200"><defs><style>.cls-1{fill:url(#linear-gradient-2);stroke-width:0px;}.cls-2{fill:none;stroke:url(#linear-gradient);stroke-miterlimit:10;stroke-width:18px;}</style><linearGradient id="linear-gradient" x1="57.66" y1="35.21" x2="142.34" y2="35.21" gradientUnits="userSpaceOnUse"><stop offset="0" stop-color="#0e90a2"/><stop offset=".32" stop-color="#19a574"/><stop offset="1" stop-color="#90c43c"/></linearGradient><linearGradient id="linear-gradient-2" x1="26.37" y1="130.15" x2="173.63" y2="130.15" xlink:href="#linear-gradient"/></defs><path class="cls-2" d="m66.66,67.27v-13.46c0-22.91,15-41.66,33.34-41.66,9.17,0,17.51,4.69,23.55,12.24,6.04,7.55,9.79,17.96,9.79,29.41v13.46"/><path class="cls-1" d="m164.16,66.46H35.84c-5.21,0-9.47,4.26-9.47,9.47v108.45c0,5.21,4.26,9.47,9.47,9.47h128.32c5.21,0,9.47-4.26,9.47-9.47v-108.45c0-5.21-4.26-9.47-9.47-9.47Zm-73.9,100.04l-32.66-32.66,12.41-12.42,20.25,20.28,46.57-46.57,12.4,12.39-58.97,58.99Z"/></svg>