<?xml version="1.0" encoding="UTF-8"?><svg id="Layer_1" xmlns="http://www.w3.org/2000/svg" xmlns:xlink="http://www.w3.org/1999/xlink" viewBox="0 0 200 200"><defs><style>.cls-1{fill:url(#linear-gradient);}.cls-1,.cls-2,.cls-3,.cls-4,.cls-5{stroke-width:0px;}.cls-2{fill:url(#linear-gradient-5);}.cls-3{fill:url(#linear-gradient-2);}.cls-4{fill:url(#linear-gradient-3);}.cls-5{fill:url(#linear-gradient-4);}</style><linearGradient id="linear-gradient" x1="155.82" y1="39.2" x2="195.66" y2="39.2" gradientUnits="userSpaceOnUse"><stop offset="0" stop-color="#0e90a2"/><stop offset=".32" stop-color="#19a574"/><stop offset="1" stop-color="#90c43c"/></linearGradient><linearGradient id="linear-gradient-2" x1="125.94" y1="98.95" y2="98.95" xlink:href="#linear-gradient"/><linearGradient id="linear-gradient-3" x1="125.94" y1="158.71" y2="158.71" xlink:href="#linear-gradient"/><linearGradient id="linear-gradient-4" x1="6.43" y1="98.95" x2="125.94" y2="98.95" xlink:href="#linear-gradient"/><linearGradient id="linear-gradient-5" x1="4.34" y1="100" x2="128.04" y2="100" xlink:href="#linear-gradient"/></defs><path class="cls-1" d="m185.7,49.16h-19.92c-5.5,0-9.96-4.46-9.96-9.96s4.46-9.96,9.96-9.96h19.92c5.5,0,9.96,4.46,9.96,9.96s-4.46,9.96-9.96,9.96Z"/><path class="cls-3" d="m185.7,108.91h-49.8c-5.5,0-9.96-4.46-9.96-9.96s4.46-9.96,9.96-9.96h49.8c5.5,0,9.96,4.46,9.96,9.96s-4.46,9.96-9.96,9.96Z"/><path class="cls-4" d="m185.7,168.67h-49.8c-5.5,0-9.96-4.46-9.96-9.96s4.46-9.96,9.96-9.96h49.8c5.5,0,9.96,4.46,9.96,9.96s-4.46,9.96-9.96,9.96Z"/><path class="cls-5" d="m46.27,178.63v-64.13c0-2.07,0-3.11-.2-4.1-.18-.88-.48-1.73-.89-2.53-.46-.9-1.11-1.71-2.4-3.33L9.92,63.48c-1.29-1.62-1.94-2.43-2.4-3.33-.41-.8-.71-1.65-.89-2.53-.2-.99-.2-2.03-.2-4.1v-18.31c0-5.58,0-8.37,1.09-10.5.95-1.87,2.48-3.4,4.35-4.35,2.13-1.09,4.92-1.09,10.5-1.09h87.64c5.58,0,8.37,0,10.5,1.09,1.87.95,3.4,2.48,4.35,4.35,1.09,2.13,1.09,4.92,1.09,10.5v18.31c0,2.07,0,3.11-.2,4.1-.18.88-.48,1.73-.89,2.53-.46.9-1.11,1.71-2.4,3.33l-32.85,41.07c-1.29,1.62-1.94,2.43-2.4,3.33-.41.8-.71,1.65-.89,2.53-.2.99-.2,2.03-.2,4.1v34.25l-39.84,29.88Z"/><path class="cls-2" d="m44.18,182.81v-68.31c0-1.93,0-2.9-.16-3.68-.14-.69-.38-1.37-.7-2-.36-.71-.97-1.47-2.17-2.97L8.29,64.79c-1.34-1.67-2.07-2.59-2.63-3.68-.49-.97-.86-2-1.07-3.06-.25-1.2-.25-2.38-.25-4.52v-18.31c0-5.9,0-8.87,1.31-11.45,1.16-2.28,2.98-4.1,5.27-5.27,2.58-1.31,5.54-1.31,11.45-1.31h87.64c5.91,0,8.87,0,11.45,1.31,2.28,1.16,4.1,2.98,5.27,5.27,1.31,2.58,1.31,5.54,1.31,11.45v18.31c0,2.14,0,3.32-.25,4.52-.22,1.06-.58,2.09-1.07,3.06-.56,1.09-1.29,2.01-2.62,3.68l-32.86,41.07c-1.21,1.51-1.81,2.26-2.17,2.97-.32.63-.56,1.3-.7,2-.16.78-.16,1.75-.16,3.68v35.29l-44.02,33.02ZM22.37,21.37c-5.24,0-7.86,0-9.55.86-1.49.76-2.68,1.95-3.44,3.44-.86,1.68-.86,4.31-.86,9.55v18.31c0,1.93,0,2.9.16,3.68.14.69.38,1.37.7,2,.36.71.97,1.47,2.17,2.97l32.86,41.07c1.34,1.67,2.07,2.59,2.63,3.68.49.97.86,2,1.07,3.06.25,1.2.25,2.38.25,4.52v59.94l35.65-26.74v-33.2c0-2.14,0-3.32.25-4.52.22-1.06.58-2.09,1.07-3.06.56-1.09,1.29-2,2.62-3.67l32.87-41.08c1.21-1.51,1.81-2.26,2.17-2.97.32-.63.56-1.3.7-2,.16-.78.16-1.75.16-3.68v-18.31c0-5.24,0-7.86-.86-9.55-.76-1.49-1.95-2.68-3.44-3.44-1.68-.86-4.31-.86-9.55-.86H22.37Z"/></svg>