<?xml version="1.0" encoding="UTF-8"?><svg id="Layer_1" xmlns="http://www.w3.org/2000/svg" viewBox="0 0 200 200"><defs><style>.cls-1{fill:#fff;stroke-width:0px;}</style></defs><path class="cls-1" d="m195.43,161.87L109.95,23.46c-1.2-1.94-2.86-3.56-4.84-4.71-6.66-3.89-15.22-1.64-19.1,5.02C66.12,57.97,25.76,127.1,4.52,161.95c-1.33,2.19-2.03,4.7-2.03,7.26,0,7.71,6.26,13.95,13.96,13.95h167.1c2.59,0,5.13-.72,7.34-2.08,6.56-4.05,8.59-12.65,4.54-19.2Zm-86.98-6.25c-.77,4.77-5.27,8.01-10.04,7.24-4.77-.77-8.01-5.27-7.24-10.04s5.27-8.01,10.04-7.24c4.77.77,8.01,5.27,7.24,10.04Zm2.3-83.18v-.03s-5.36,52.01-5.36,52.01c-.04,2.04-.6,4.04-1.61,5.82-1.66,2.2-4.8,2.64-7,.98-.01,0-.02-.02-.03-.03l-.66-1.17c-3.04-18.89-5.03-37.91-7.2-56.91-.86-3.96-.46-8.09,1.17-11.8,1.73-2.85,4.72-4.69,8.04-4.95,3.29-.23,6.53.87,8.99,3.07,1.6,1.37,2.78,3.16,3.42,5.16.6,2.57.68,5.23.24,7.83Z"/></svg>