<?xml version="1.0" encoding="UTF-8"?><svg id="Layer_1" xmlns="http://www.w3.org/2000/svg" viewBox="0 0 200 200"><defs><style>.cls-1{fill:#fff;stroke-width:0px;}</style></defs><path class="cls-1" d="m190.97,85.79h-9.37c-.91,0-1.68-.65-1.86-1.55-2.11-10.74-6.32-20.72-12.2-29.49-.51-.77-.42-1.76.23-2.42l6.6-6.61c.75-.75.75-1.96,0-2.71l-17.36-17.37c-.75-.75-1.98-.75-2.73,0l-6.61,6.6c-.65.65-1.65.75-2.42.23-8.77-5.88-18.74-10.09-29.49-12.2-.9-.18-1.55-.95-1.55-1.86v-9.37c0-1.06-.87-1.93-1.93-1.93h-24.57c-1.06,0-1.93.87-1.93,1.93v9.37c0,.91-.65,1.68-1.55,1.86-10.74,2.11-20.72,6.32-29.49,12.2-.77.52-1.76.42-2.42-.23l-6.61-6.6c-.75-.75-1.96-.75-2.71,0l-17.37,17.37c-.75.75-.75,1.96,0,2.71l6.61,6.61c.64.65.73,1.65.21,2.42-5.88,8.77-10.07,18.74-12.2,29.49-.16.9-.95,1.55-1.86,1.55h-9.37c-1.06,0-1.93.87-1.93,1.93v24.57c0,1.06.87,1.93,1.93,1.93h9.37c.91,0,1.7.65,1.86,1.55,2.12,10.74,6.32,20.72,12.2,29.49.52.77.42,1.76-.21,2.42l-6.61,6.61c-.75.75-.75,1.96,0,2.71l17.37,17.37c.75.75,1.96.75,2.71,0l6.61-6.61c.65-.64,1.65-.74,2.42-.21,8.77,5.88,18.74,10.09,29.49,12.2.9.16,1.55.95,1.55,1.86v9.37c0,1.06.87,1.93,1.93,1.93h24.57c1.06,0,1.93-.87,1.93-1.93v-9.37c0-.91.65-1.7,1.55-1.86,10.74-2.11,20.72-6.32,29.49-12.2.77-.52,1.76-.42,2.42.21l6.61,6.61c.75.75,1.98.75,2.73,0l17.36-17.37c.75-.75.75-1.96,0-2.71l-6.6-6.61c-.65-.65-.73-1.65-.23-2.42,5.89-8.77,10.09-18.74,12.2-29.49.18-.9.95-1.55,1.86-1.55h9.37c1.06,0,1.93-.87,1.93-1.93v-24.57c0-1.06-.87-1.93-1.93-1.93Zm-90.96,60.35c-25.49,0-46.14-20.65-46.14-46.14s20.65-46.13,46.14-46.13,46.13,20.65,46.13,46.13-20.65,46.14-46.13,46.14Z"/></svg>