<?xml version="1.0" encoding="UTF-8"?><svg id="Layer_1" xmlns="http://www.w3.org/2000/svg" viewBox="0 0 200 200"><defs><style>.cls-1,.cls-2{fill:#fff;stroke-width:0px;}.cls-2{fill-rule:evenodd;}</style></defs><path class="cls-1" d="m194,181.37h-.01l-60.82-61.81c21.77-29.49,18.99-70.4-6.56-96.68C99.11-5.38,53.91-6,25.65,21.5c-.47.45-.94.91-1.39,1.38-28.26,29.05-28.26,75.32,0,104.37,25.23,25.94,65.89,28.89,94.6,6.84l60.59,61.6c3.96,4.01,10.42,4.07,14.43.11,4.02-3.95,4.07-10.41.12-14.43Zm-119.37-81.67c-23.47,0-43.73-11.32-53.18-27.69,9.44-16.37,29.71-27.69,53.18-27.69s43.73,11.32,53.18,27.69c-9.44,16.37-29.71,27.69-53.18,27.69Z"/><path class="cls-2" d="m75.11,49.51c-12.43,0-22.5,10.07-22.5,22.5s10.07,22.49,22.5,22.49,22.5-10.07,22.5-22.49-10.08-22.5-22.5-22.5Zm0,34.61c-6.69,0-12.12-5.42-12.12-12.11,0-1.48.27-2.91.76-4.23,1.22-3.29,3.84-5.91,7.13-7.13,1.32-.49,2.75-.76,4.23-.76,6.69,0,12.11,5.43,12.11,12.12s-5.42,12.11-12.11,12.11Z"/></svg>