<?xml version="1.0" encoding="UTF-8"?><svg id="Layer_1" xmlns="http://www.w3.org/2000/svg" viewBox="0 0 200 200"><defs><style>.cls-1{fill:#fff;stroke-width:0px;}.cls-2{fill:none;stroke:#fff;stroke-miterlimit:10;stroke-width:4px;}</style></defs><path class="cls-1" d="m147.53,70.48l-58.56,67.65c-1.52,1.76-3.7,2.82-6.03,2.92h-.35c-2.21,0-4.34-.87-5.92-2.42l-26-25.47c-3.34-3.27-3.39-8.62-.12-11.96,3.27-3.34,8.62-3.39,11.96-.12h0l19.56,19.18,52.69-60.85c3.06-3.53,8.4-3.92,11.93-.86s3.92,8.4.86,11.93h-.02Z"/><path class="cls-2" d="m5.81,78.8C14.96,36.58,52.53,4.96,97.49,4.96s82.54,31.62,91.68,73.84"/><path class="cls-2" d="m7.63,125.77c11.58,38.66,47.44,66.81,89.86,66.81s78.28-28.16,89.86-66.81"/><polyline class="cls-2" points="196.87 64.91 190.79 81.54 174.09 75.43"/><polyline class="cls-2" points=".87 140 6.95 123.37 23.65 129.48"/></svg>