<?xml version="1.0" encoding="UTF-8"?><svg id="Layer_1" xmlns="http://www.w3.org/2000/svg" xmlns:xlink="http://www.w3.org/1999/xlink" viewBox="0 0 200 200"><defs><style>.cls-1{fill:url(#linear-gradient);stroke-width:0px;}.cls-2{stroke:url(#linear-gradient-3);}.cls-2,.cls-3,.cls-4,.cls-5{fill:none;stroke-linecap:round;stroke-linejoin:round;stroke-width:4px;}.cls-3{stroke:url(#linear-gradient-5);}.cls-4{stroke:url(#linear-gradient-2);}.cls-5{stroke:url(#linear-gradient-4);}</style><linearGradient id="linear-gradient" x1="49.26" y1="100" x2="150.74" y2="100" gradientUnits="userSpaceOnUse"><stop offset="0" stop-color="#0e90a2"/><stop offset=".32" stop-color="#19a574"/><stop offset="1" stop-color="#90c43c"/></linearGradient><linearGradient id="linear-gradient-2" x1="4.94" y1="43.11" x2="192.3" y2="43.11" gradientUnits="userSpaceOnUse"><stop offset="0" stop-color="#0e90a2"/><stop offset=".32" stop-color="#19a574"/><stop offset="1" stop-color="#90c43c"/></linearGradient><linearGradient id="linear-gradient-3" x1="6.76" y1="160.41" x2="190.49" y2="160.41" xlink:href="#linear-gradient-2"/><linearGradient id="linear-gradient-4" x1="-1668.11" y1="-203.71" x2="-1689.73" y2="-205.65" gradientTransform="translate(1693.9 840.42) rotate(20.08)" xlink:href="#linear-gradient-2"/><linearGradient id="linear-gradient-5" x1="-1274.24" y1="10110.03" x2="-1295.87" y2="10108.1" gradientTransform="translate(-4928.28 9748.49) rotate(-159.92)" xlink:href="#linear-gradient-2"/></defs><path class="cls-1" d="m148.66,71.71l-58.56,67.65c-1.52,1.76-3.7,2.82-6.03,2.92h-.35c-2.21,0-4.34-.87-5.92-2.42l-26-25.47c-3.34-3.27-3.39-8.62-.12-11.96,3.27-3.34,8.62-3.39,11.96-.12h0l19.56,19.18,52.69-60.85c3.06-3.53,8.4-3.92,11.93-.86s3.92,8.4.86,11.93h-.02Z"/><path class="cls-4" d="m6.94,80.03C16.09,37.81,53.66,6.19,98.62,6.19s82.54,31.62,91.68,73.84"/><path class="cls-2" d="m8.76,127c11.58,38.66,47.44,66.81,89.86,66.81s78.28-28.16,89.86-66.81"/><polyline class="cls-5" points="198 66.14 191.92 82.76 175.22 76.66"/><polyline class="cls-3" points="2 141.23 8.08 124.6 24.78 130.7"/></svg>