<?xml version="1.0" encoding="UTF-8"?><svg id="Layer_1" xmlns="http://www.w3.org/2000/svg" viewBox="0 0 200 200"><defs><style>.cls-1{fill:#fff;stroke-width:0px;}</style></defs><g id="Group_15436"><g id="Group_15762"><path class="cls-1" d="m135.68,117.69l-31.96-51.73c-.45-.73-1.07-1.33-1.81-1.76-2.49-1.45-5.69-.61-7.14,1.88-7.44,12.77-22.52,38.59-30.47,51.64-.5.82-.76,1.76-.76,2.72,0,2.88,2.34,5.22,5.22,5.22h62.47c.97,0,1.92-.27,2.74-.78,2.45-1.51,3.21-4.73,1.7-7.18Zm-35.68.71c-1.95,0-3.54-1.58-3.54-3.54s1.58-3.54,3.54-3.54,3.54,1.58,3.54,3.54-1.58,3.54-3.54,3.54Zm4.42-34.32c-.71,6.99-1.43,13.99-2.14,20.98-.02.82-.24,1.63-.65,2.34-.67.89-1.93,1.07-2.82.4,0,0-.02-.01-.02-.02l-.27-.48c-1.23-7.62-2.03-15.3-2.9-22.95-.35-1.6-.18-3.26.47-4.76.69-1.14,1.89-1.88,3.22-1.99,1.33-.09,2.64.35,3.63,1.24.64.56,1.12,1.27,1.38,2.08.24,1.04.27,2.11.1,3.16Z"/></g></g><path class="cls-1" d="m100,197.38c-5.38,0-9.74-4.36-9.74-9.74v-29.21c0-5.38,4.36-9.74,9.74-9.74s9.74,4.36,9.74,9.74v29.21c0,5.38-4.36,9.74-9.74,9.74Zm43.83-11.74c-3.37,0-6.64-1.75-8.44-4.87l-14.61-25.3c-2.69-4.66-1.09-10.61,3.56-13.3,4.66-2.69,10.61-1.09,13.3,3.56l14.61,25.3c2.69,4.66,1.09,10.61-3.56,13.3-1.53.89-3.21,1.31-4.86,1.31Zm-87.66,0c-1.65,0-3.33-.42-4.86-1.31-4.66-2.69-6.25-8.64-3.56-13.3l14.61-25.3c2.69-4.66,8.64-6.25,13.3-3.56,4.66,2.69,6.25,8.65,3.56,13.3l-14.61,25.3c-1.8,3.12-5.08,4.87-8.44,4.87Zm119.72-32.08c-1.65,0-3.33-.42-4.86-1.31l-25.3-14.61c-4.66-2.69-6.25-8.64-3.56-13.3,2.69-4.66,8.64-6.25,13.3-3.56l25.3,14.61c4.66,2.69,6.25,8.64,3.56,13.3-1.8,3.12-5.08,4.87-8.44,4.87Zm-151.79,0c-3.37,0-6.64-1.75-8.44-4.87-2.69-4.66-1.09-10.61,3.56-13.3l25.3-14.61c4.66-2.69,10.61-1.09,13.3,3.56,2.69,4.66,1.09,10.61-3.56,13.3l-25.3,14.61c-1.53.89-3.21,1.31-4.86,1.31Zm163.54-43.82h-29.21c-5.38,0-9.74-4.36-9.74-9.74s4.36-9.74,9.74-9.74h29.21c5.38,0,9.74,4.36,9.74,9.74s-4.36,9.74-9.74,9.74Zm-146.07,0H12.36c-5.38,0-9.74-4.36-9.74-9.74s4.36-9.74,9.74-9.74h29.21c5.38,0,9.74,4.36,9.74,9.74s-4.36,9.74-9.74,9.74Zm7.82-29.21c-1.65,0-3.33-.42-4.86-1.31l-25.3-14.61c-4.66-2.69-6.25-8.64-3.56-13.3,2.69-4.66,8.64-6.25,13.3-3.56l25.3,14.61c4.66,2.69,6.25,8.64,3.56,13.3-1.8,3.12-5.08,4.87-8.44,4.87Zm21.4-21.39c-3.37,0-6.64-1.75-8.44-4.87l-14.61-25.3c-2.69-4.66-1.09-10.61,3.56-13.3,4.66-2.69,10.61-1.09,13.3,3.56l14.61,25.3c2.69,4.66,1.09,10.61-3.56,13.3-1.53.89-3.21,1.31-4.86,1.31Zm29.21-7.83c-5.38,0-9.74-4.36-9.74-9.74V12.36c0-5.38,4.36-9.74,9.74-9.74s9.74,4.36,9.74,9.74v29.21c0,5.38-4.36,9.74-9.74,9.74Z"/></svg>