<?xml version="1.0" encoding="UTF-8"?><svg id="Layer_1" xmlns="http://www.w3.org/2000/svg" viewBox="0 0 200 200"><defs><style>.cls-1{fill:#fff;stroke-width:0px;}</style></defs><path class="cls-1" d="m192.57,39.98c-.19-3.05-2.45-5.58-5.46-6.12-35.9-6.44-50.88-11.1-84.38-26.23-1.74-.79-3.73-.79-5.47,0C63.77,22.76,48.78,27.42,12.89,33.86c-3.01.54-5.26,3.06-5.46,6.12-1.6,25.36,1.81,48.99,10.14,70.23,6.82,17.33,16.91,33.18,29.73,46.69,22.19,23.54,45.75,33.77,50.24,35.58,1.6.65,3.38.65,4.98,0,4.49-1.81,28.05-12.03,50.24-35.58,12.79-13.51,22.87-29.37,29.67-46.69,8.33-21.24,11.74-44.87,10.14-70.23Zm-66.19,35.36c-4.22,1.34-8.67,2.35-13.31,3.04-1.09-4.73-2.49-9.22-4.21-13.37,6.81,1.71,12.86,5.37,17.52,10.33Zm-28.89-11.35c.84-.06,1.67-.13,2.51-.13s1.68.07,2.51.13c2.2,4.58,3.97,9.67,5.3,15.07-2,.18-4.02.3-6.05.33-.58.01-1.17.02-1.75.02s-1.16-.01-1.74-.02c-2.03-.04-4.05-.15-6.05-.33,1.31-5.4,3.09-10.5,5.28-15.07Zm1.73,21.43h.02c.56-.06,1.11-.06,1.67,0h.02c2.71-.02,5.37-.15,7.98-.39.78,4.29,1.19,8.77,1.34,13.31h-20.42c.14-4.54.56-9.02,1.32-13.31,2.65.24,5.33.38,8.06.39Zm10.99,17.17c-.14,4.54-.56,9.01-1.34,13.31-2.91-.26-5.86-.41-8.88-.41s-5.97.15-8.88.41c-.77-4.3-1.18-8.77-1.32-13.31h20.42Zm-19.08-37.58c-1.71,4.15-3.12,8.64-4.21,13.37-4.63-.69-9.09-1.7-13.3-3.04,4.66-4.96,10.7-8.62,17.51-10.33Zm-21.07,14.79c4.94,1.64,10.26,2.87,15.85,3.66-.76,4.48-1.17,9.16-1.3,13.96h-20.65c.46-6.5,2.65-12.53,6.1-17.63Zm-6.1,22.79h20.65c.13,4.8.54,9.48,1.3,13.96-5.59.79-10.91,2.02-15.85,3.66-3.45-5.1-5.64-11.12-6.1-17.63Zm9.66,22.08c4.21-1.34,8.67-2.35,13.3-3.04,1.09,4.73,2.49,9.22,4.21,13.37-6.81-1.73-12.85-5.38-17.51-10.33Zm28.88,11.35c-.83.06-1.66.12-2.51.12s-1.67-.06-2.51-.12c-2.2-4.58-3.97-9.67-5.28-15.07,2.57-.22,5.15-.35,7.79-.35s5.24.13,7.8.35c-1.32,5.4-3.1,10.5-5.3,15.07Zm6.36-1.02c1.71-4.15,3.12-8.64,4.21-13.37,4.65.69,9.09,1.7,13.31,3.04-4.66,4.95-10.71,8.61-17.52,10.33Zm21.07-14.79c-4.94-1.64-10.26-2.87-15.85-3.66.77-4.48,1.17-9.16,1.3-13.96h20.67c-.46,6.5-2.65,12.53-6.11,17.63Zm-14.55-22.79c-.13-4.8-.53-9.48-1.3-13.96,5.59-.79,10.91-2.02,15.85-3.66,3.46,5.1,5.65,11.12,6.11,17.63h-20.67Z"/></svg>