<?xml version="1.0" encoding="UTF-8"?>
<svg id="Layer_1" data-name="Layer 1" xmlns="http://www.w3.org/2000/svg" viewBox="0 0 200 200">
  <defs>
    <style>
      .cls-1 {
        fill: #fff;
      }
    </style>
  </defs>
  <path class="cls-1" d="M142.5,53.26h-4.38c-.43,0-.79-.3-.87-.72-.99-5.02-2.95-9.68-5.7-13.78-.24-.36-.2-.82.1-1.13l3.09-3.09c.35-.35.35-.92,0-1.27l-8.11-8.11c-.35-.35-.92-.35-1.27,0l-3.09,3.09c-.3.3-.77.34-1.13.1-4.1-2.75-8.76-4.71-13.78-5.7-.42-.08-.73-.44-.73-.87v-4.38c0-.5-.4-.9-.9-.9h-11.48c-.5,0-.9.4-.9.9v4.38c0,.43-.31.79-.73.87-5.02.99-9.68,2.95-13.78,5.7-.36.24-.83.2-1.13-.1l-3.09-3.09c-.35-.35-.92-.35-1.27,0l-8.11,8.11c-.35.35-.35.92,0,1.27l3.09,3.09c.3.3.34.77.1,1.13-2.75,4.1-4.71,8.76-5.7,13.78-.08.42-.44.72-.87.72h-4.38c-.5,0-.9.4-.9.9v11.48c0,.5.4.9.9.9h4.38c.43,0,.79.3.87.72.99,5.02,2.95,9.68,5.7,13.78.24.36.2.82-.1,1.13l-3.09,3.09c-.35.35-.35.92,0,1.27l8.11,8.11c.35.35.92.35,1.27,0l3.09-3.09c.3-.3.77-.34,1.13-.1,4.1,2.75,8.76,4.71,13.78,5.7.42.08.73.44.73.87v4.38c0,.5.4.9.9.9h11.48c.5,0,.9-.4.9-.9v-4.38c0-.43.31-.79.73-.87,5.02-.99,9.68-2.95,13.78-5.7.36-.24.82-.2,1.13.1l3.09,3.09c.35.35.92.35,1.27,0l8.11-8.11c.35-.35.35-.92,0-1.27l-3.09-3.09c-.3-.3-.34-.77-.1-1.13,2.75-4.1,4.71-8.76,5.7-13.78.08-.42.44-.72.87-.72h4.38c.5,0,.9-.4.9-.9v-11.48c0-.5-.4-.9-.9-.9ZM119.15,62.41c-1.09,8.6-8.03,15.54-16.63,16.63-12.61,1.6-23.26-9.05-21.66-21.66,1.09-8.6,8.03-15.54,16.63-16.63,12.61-1.6,23.26,9.05,21.66,21.66Z"/>
  <g>
    <circle class="cls-1" cx="32.33" cy="130.64" r="15.74" transform="translate(-100.28 153.63) rotate(-85.93)"/>
    <path class="cls-1" d="M18.73,144.19c-1.71.25-7.69,1.34-11.56,6.38-2.3,3-3.08,6.39-3.37,7.71-.5,2.28-.55,4.25-.48,5.66h57.91c.08-1.39.29-7.78-4.45-13.36-4.22-4.97-9.66-6.11-11.2-6.38-1.39,1.17-6.15,4.87-13.26,5.06-6.2.16-10.65-2.44-12.27-3.49"/>
  </g>
  <g>
    <circle class="cls-1" cx="100.05" cy="150.2" r="15.74" transform="translate(-56.87 239.35) rotate(-85.93)"/>
    <path class="cls-1" d="M86.45,163.75c-1.71.25-7.69,1.34-11.56,6.38-2.3,3-3.08,6.39-3.37,7.71-.5,2.28-.55,4.25-.48,5.66h57.91c.08-1.39.29-7.78-4.45-13.36-4.22-4.97-9.66-6.11-11.2-6.38-1.39,1.17-6.15,4.87-13.26,5.06-6.2.16-10.65-2.44-12.27-3.49"/>
  </g>
  <g>
    <circle class="cls-1" cx="167.77" cy="130.64" r="15.74" transform="translate(25.56 288.73) rotate(-85.93)"/>
    <path class="cls-1" d="M154.17,144.19c-1.71.25-7.69,1.34-11.56,6.38-2.3,3-3.08,6.39-3.37,7.71-.5,2.28-.55,4.25-.48,5.66h57.91c.08-1.39.29-7.78-4.45-13.36-4.22-4.97-9.66-6.11-11.2-6.38-1.39,1.17-6.15,4.87-13.26,5.06-6.2.16-10.65-2.44-12.27-3.49"/>
  </g>
  <polyline class="cls-1" points="53.45 59.9 32.28 59.9 32.28 111.71"/>
  <polyline class="cls-1" points="146.55 57.37 167.72 57.37 167.72 109.18"/>
</svg>