<?xml version="1.0" encoding="UTF-8"?>
<svg id="Layer_1" data-name="Layer 1" xmlns="http://www.w3.org/2000/svg" xmlns:xlink="http://www.w3.org/1999/xlink" viewBox="0 0 200 200">
  <defs>
    <style>
      .cls-1 {
        fill: url(#linear-gradient-2);
      }

      .cls-2 {
        fill: url(#linear-gradient-3);
      }

      .cls-3 {
        fill: url(#linear-gradient);
      }
    </style>
    <linearGradient id="linear-gradient" x1="66.61" y1="183.84" x2="133.42" y2="183.84" gradientUnits="userSpaceOnUse">
      <stop offset="0" stop-color="#0e90a2"/>
      <stop offset=".32" stop-color="#19a574"/>
      <stop offset="1" stop-color="#90c43c"/>
    </linearGradient>
    <linearGradient id="linear-gradient-2" x1="80.96" y1="73.5" x2="119.07" y2="73.5" xlink:href="#linear-gradient"/>
    <linearGradient id="linear-gradient-3" x1="31.3" y1="82.32" x2="168.7" y2="82.32" xlink:href="#linear-gradient"/>
  </defs>
  <path class="cls-3" d="M100.01,195.19c-10.97,0-21.85-3.63-30.63-10.21-3.07-2.3-3.69-6.65-1.39-9.72,2.3-3.07,6.65-3.69,9.72-1.39,6.39,4.79,14.31,7.43,22.3,7.43s15.9-2.64,22.3-7.43c3.07-2.3,7.42-1.68,9.72,1.39,2.3,3.07,1.68,7.42-1.39,9.72-8.78,6.58-19.65,10.21-30.63,10.21Z"/>
  <g>
    <path class="cls-1" d="M100.02,54.45c-10.53,0-19.06,8.53-19.06,19.05s8.53,19.06,19.06,19.06,19.05-8.53,19.05-19.06-8.53-19.05-19.05-19.05Z"/>
    <path class="cls-2" d="M163.37,46.94c-3.54-8.46-8.66-16-15.19-22.43-6.54-6.43-14.17-11.41-22.68-14.81-8.51-3.4-17.47-5.05-26.65-4.89-.03,0-.06,0-.09,0-17.53.52-34.09,7.57-46.62,19.84-12.53,12.27-19.91,28.68-20.8,46.2,0,.03,0,.07,0,.1-.42,11.64,2.16,23.28,7.45,33.66,5.29,10.38,13.2,19.3,22.87,25.8.03.02.06.04.09.06,1.48.96,2.72,2.3,3.56,3.85.85,1.55,1.3,3.31,1.3,5.06v13.49c0,3.83,3.11,6.94,6.94,6.94h52.92c3.83,0,6.94-3.11,6.94-6.94v-13.49c0-1.76.44-3.52,1.28-5.07.84-1.55,2.06-2.89,3.53-3.86.02-.01.03-.02.05-.03,9.31-6.25,17.02-14.77,22.31-24.66,5.28-9.89,8.09-21.04,8.11-32.25h0c0-9.18-1.79-18.12-5.34-26.57ZM122.43,42.79c.31-.31.82-.31,1.13,0l7.17,7.18c.31.31.31.81,0,1.12l-2.72,2.73c-.27.27-.3.68-.09,1,2.43,3.62,4.17,7.74,5.04,12.18.07.37.39.64.77.64h3.87c.44,0,.8.36.8.8v10.15c0,.44-.36.8-.8.8h-3.87c-.38,0-.69.27-.77.64-.87,4.44-2.6,8.56-5.04,12.18-.21.32-.18.73.09,1l2.72,2.73c.31.31.31.81,0,1.12l-7.17,7.18c-.31.31-.82.31-1.13,0l-2.73-2.73c-.27-.26-.68-.3-1-.09-3.62,2.43-7.74,4.17-12.18,5.04-.37.07-.64.39-.64.77v3.87c0,.44-.36.8-.8.8h-10.15c-.44,0-.8-.36-.8-.8v-3.87c0-.38-.27-.7-.64-.77-4.44-.87-8.56-2.61-12.18-5.04-.32-.22-.73-.18-1,.09l-2.73,2.73c-.31.31-.81.31-1.12,0l-7.18-7.18c-.31-.31-.31-.81,0-1.12l2.73-2.73c.26-.27.3-.68.09-1-2.43-3.62-4.16-7.74-5.04-12.18-.07-.37-.39-.64-.77-.64h-3.87c-.44,0-.8-.36-.8-.8v-10.15c0-.44.36-.8.8-.8h3.87c.38,0,.7-.27.77-.64.88-4.44,2.61-8.56,5.04-12.18.22-.32.18-.73-.09-1l-2.73-2.73c-.31-.31-.31-.81,0-1.12l7.18-7.18c.31-.31.81-.31,1.12,0l2.73,2.72c.27.27.68.31,1,.09,3.62-2.43,7.74-4.17,12.18-5.04.37-.07.64-.39.64-.77v-3.87c0-.44.36-.8.8-.8h10.15c.44,0,.8.36.8.8v3.87c0,.38.27.69.64.77,4.44.87,8.56,2.61,12.18,5.04"/>
  </g>
</svg>