<?xml version="1.0" encoding="UTF-8"?>
<svg id="Layer_1" data-name="Layer 1" xmlns="http://www.w3.org/2000/svg" viewBox="0 0 200 200">
  <defs>
    <style>
      .cls-1 {
        fill: #fff;
      }
    </style>
  </defs>
  <g id="Air_quality_control" data-name="Air quality control">
    <path class="cls-1" d="M81.99,35.49c.32,2.16,2.33,3.65,4.49,3.33,1.06-.16,2.01-.74,2.63-1.61l8.3-11.37c1.28-1.77.88-4.23-.88-5.52l-11.36-8.33c-1.76-1.29-4.23-.91-5.52.85-.62.85-.88,1.91-.72,2.94l.96,6.11C27.77,32.77-5.68,83.83,5.19,135.95c1.11,5.34,2.67,10.57,4.67,15.64l4.78,10.92h9.41l-6.21-14.15C.11,103.24,22.31,52.3,67.43,34.57c4.47-1.76,9.08-3.14,13.78-4.15l.78,5.07Z"/>
    <path class="cls-1" d="M194.38,152.07l-5.46-2.23c4.24-11.03,6.41-22.74,6.39-34.56,0-45.94-32.67-85.69-77.69-94.52l-1.65,8.44c40.99,8.04,70.73,44.24,70.73,86.08.02,10.69-1.92,21.3-5.73,31.29l-5.02-2.06c-2.02-.83-4.32.13-5.15,2.15-.4.97-.4,2.06.01,3.03l5.44,12.99c.84,2.01,3.15,2.96,5.17,2.12l12.99-5.4c2.02-.82,2.99-3.13,2.17-5.15-.4-.99-1.19-1.77-2.18-2.17Z"/>
    <path class="cls-1" d="M140.62,79.18c-9.04-.43-25.99.59-38.07,12.23-1.28,1.23-2.47,2.55-3.57,3.95-1.09-1.4-2.28-2.72-3.56-3.95-12.08-11.65-29.04-12.67-38.07-12.23-5.98.26-10.76,5.05-11.02,11.03-.43,9.03.59,25.99,12.23,38.07,8.33,8.65,20.49,13.16,36.13,13.47v38.42h-34.09v8.6h76.5v-8.6h-33.81v-38.42c15.63-.31,27.78-4.83,36.12-13.47,11.65-12.08,12.66-29.04,12.23-38.07-.26-5.98-5.05-10.76-11.03-11.03ZM54.92,90.61c.07-1.54,1.3-2.77,2.84-2.84,7.65-.37,21.94.43,31.69,9.84,6.78,6.53,10.4,16.33,10.82,29.15-6.65-13.86-20.04-18.28-20.73-18.5l-2.46,7.74c.14.04,12.43,4.11,17.02,17.14-12.9-.38-22.78-4.01-29.35-10.82-9.41-9.75-10.2-24.06-9.84-31.71Z"/>
  </g>
</svg>