<?xml version="1.0" encoding="UTF-8"?><svg id="Layer_1" xmlns="http://www.w3.org/2000/svg" viewBox="0 0 200 200"><defs><style>.cls-1{fill:#fff;stroke-width:0px;}</style></defs><g id="Group_15946"><rect id="Rectangle_648" class="cls-1" x="29.26" y="190.99" width="141.48" height="4.24"/><rect id="Rectangle_649" class="cls-1" x="29.53" y="49.27" width="28.38" height="138.27"/><rect id="Rectangle_650" class="cls-1" x="65.65" y="75.43" width="28.11" height="112.11"/><rect id="Rectangle_651" class="cls-1" x="101.29" y="123.53" width="28.11" height="64"/><rect id="Rectangle_652" class="cls-1" x="135.26" y="142.09" width="28.11" height="45.45"/></g><path class="cls-1" d="m53.59,32.99l2.3-25.76c.13-1.48,1.44-2.57,2.92-2.44l25.77,2.3c1.48.13,2.57,1.44,2.44,2.92s-1.44,2.57-2.92,2.44l-18.47-1.65,90,109.22c.91,1.11.76,2.75-.33,3.68s-2.72.78-3.63-.32L60.77,13.05l-1.82,20.42c-.13,1.48-1.43,2.57-2.92,2.44s-2.57-1.43-2.44-2.92Z"/></svg>