<?xml version="1.0" encoding="UTF-8"?><svg id="Layer_1" xmlns="http://www.w3.org/2000/svg" viewBox="0 0 200 200"><defs><style>.cls-1{fill:#fff;stroke-width:0px;}</style></defs><path class="cls-1" d="m87.17,61.5c0-7.09,5.74-12.83,12.83-12.83s12.83,5.74,12.83,12.83-5.74,12.83-12.83,12.83-12.83-5.74-12.83-12.83Zm12.83,96.25c-7.09,0-12.83,5.74-12.83,12.83,0,12.83,12.83,25.67,12.83,25.67,0,0,12.83-12.83,12.83-25.67,0-7.09-5.74-12.83-12.83-12.83Zm-42.31-32.08c-6.28,11.76-2.61,32.08-2.61,32.08l25.67-12.83,6.42,6.42h25.67l6.42-6.42,25.67,12.83s3.68-20.33-2.61-32.08H57.69Zm0-6.42s-9.02-27.03-9.02-44.92C48.67,31.81,100,3.75,100,3.75c0,0,51.33,28.06,51.33,70.58,0,17.88-9.02,44.92-9.02,44.92H57.69Zm23.06-57.75c0,10.63,8.62,19.25,19.25,19.25s19.25-8.62,19.25-19.25-8.62-19.25-19.25-19.25-19.25,8.62-19.25,19.25Z"/></svg>