<?xml version="1.0" encoding="UTF-8"?><svg id="Layer_1" xmlns="http://www.w3.org/2000/svg" viewBox="0 0 200 200"><defs><style>.cls-1{fill:#fff;stroke-width:0px;}</style></defs><path class="cls-1" d="m197.22,36.96c-.2-3.21-2.57-5.86-5.73-6.42-37.7-6.76-53.43-11.65-88.61-27.54-1.83-.83-3.92-.83-5.74,0C61.95,18.88,46.21,23.77,8.51,30.54c-3.16.57-5.53,3.22-5.73,6.42-1.68,26.63,1.9,51.45,10.65,73.76,7.16,18.2,17.76,34.84,31.22,49.03,23.3,24.72,48.04,35.46,52.76,37.36,1.68.68,3.55.68,5.23,0,4.72-1.9,29.46-12.64,52.76-37.36,13.44-14.19,24.02-30.84,31.16-49.03,8.75-22.31,12.32-47.12,10.65-73.76Zm-57.09,32.73l-48.29,55.78c-1.25,1.45-3.05,2.33-4.97,2.41h-.29c-1.82,0-3.58-.71-4.88-1.99l-21.44-21.01c-2.75-2.7-2.8-7.11-.1-9.86,2.7-2.75,7.11-2.8,9.86-.1h0l16.13,15.82,43.45-50.18c2.52-2.91,6.92-3.23,9.84-.71s3.23,6.92.71,9.84h-.01Z"/></svg>