<?xml version="1.0" encoding="UTF-8"?><svg id="Layer_1" xmlns="http://www.w3.org/2000/svg" viewBox="0 0 200 200"><defs><style>.cls-1{fill:#fff;stroke-width:0px;}</style></defs><path class="cls-1" d="m170.11,133.55c-4.81,0-9.17,1.81-12.5,4.79l-10.27-11.34c6.76-8.68,10.79-19.57,10.79-31.4,0-18.68-10.03-35.04-24.98-43.94l12.36-21.98c1.46.51,3.02.81,4.62.81,7.72,0,13.98-6.27,13.98-13.98s-6.26-13.98-13.97-13.98-13.98,6.28-13.98,13.99c0,4.23,1.88,8,4.87,10.59l-12.5,22.13c-6.54-3.05-13.84-4.76-21.53-4.76-11.78,0-22.59,4-31.24,10.66l-11.51-14.57c2.74-3.41,4.42-7.74,4.42-12.47,0-11.05-8.96-19.97-19.97-19.97s-19.97,8.93-19.97,19.97,8.94,19.97,19.97,19.97c4.41,0,8.5-1.46,11.8-3.88l11.32,14.36c-9.82,9.31-15.95,22.47-15.95,37.07,0,.28.02.52.02.79h-12.64c-1.91-6.92-8.23-11.98-15.76-11.98-9.06,0-16.37,7.34-16.37,16.37s7.31,16.4,16.37,16.4,16.14-7.13,16.35-15.98h12.33c2.07,19.24,14.88,35.25,32.26,42.04l-4.3,8.76c-2.68-1.08-5.62-1.66-8.71-1.66-13.02,0-23.57,10.53-23.57,23.56s10.56,23.57,23.57,23.57,23.57-10.56,23.57-23.57c0-8.21-4.22-15.46-10.59-19.65l4.63-9.45c4.43,1.26,9.11,1.94,13.95,1.94,14.66,0,27.87-6.17,37.18-16.07l10.27,11.32c-1.96,2.98-3.12,6.52-3.12,10.36,0,10.38,8.41,18.77,18.79,18.77s18.77-8.39,18.77-18.77-8.43-18.79-18.77-18.79Zm-33.67-54.95h0l-34.53,39.89c-.9,1.04-2.18,1.66-3.56,1.72h-.21c-1.3,0-2.56-.51-3.49-1.42l-15.33-15.02c-1.97-1.93-2-5.08-.07-7.05,1.93-1.97,5.08-2,7.05-.07l11.53,11.31,31.07-35.88c1.8-2.08,4.95-2.31,7.03-.51,2.08,1.8,2.31,4.95.51,7.03Z"/></svg>