<?xml version="1.0" encoding="UTF-8"?><svg id="Layer_1" xmlns="http://www.w3.org/2000/svg" xmlns:xlink="http://www.w3.org/1999/xlink" viewBox="0 0 200 200"><defs><style>.cls-1{fill:url(#linear-gradient);}.cls-1,.cls-2,.cls-3,.cls-4,.cls-5{stroke-width:0px;}.cls-2{fill:url(#linear-gradient-5);}.cls-3{fill:url(#linear-gradient-2);}.cls-4{fill:url(#linear-gradient-3);}.cls-5{fill:url(#linear-gradient-4);}</style><linearGradient id="linear-gradient" x1="88.09" y1="-172.89" x2="106.59" y2="-172.89" gradientTransform="translate(190.29 243.32) rotate(-56.46)" gradientUnits="userSpaceOnUse"><stop offset="0" stop-color="#0e90a2"/><stop offset=".32" stop-color="#19a574"/><stop offset="1" stop-color="#90c43c"/></linearGradient><linearGradient id="linear-gradient-2" x1="58.76" y1="-172.88" x2="135.96" y2="-172.88" xlink:href="#linear-gradient"/><linearGradient id="linear-gradient-3" x1="151.22" y1="-159.34" x2="160.46" y2="-159.34" xlink:href="#linear-gradient"/><linearGradient id="linear-gradient-4" x1="136.55" y1="-159.33" x2="175.15" y2="-159.33" xlink:href="#linear-gradient"/><linearGradient id="linear-gradient-5" x1="3.52" y1="153.13" x2="196.48" y2="153.13" gradientTransform="matrix(1,0,0,1,0,0)" xlink:href="#linear-gradient"/></defs><circle class="cls-1" cx="99.98" cy="66.66" r="9.25"/><path class="cls-3" d="m124.45,41.32c-6.62,3.39-11.73.08-11.33-7.36.22-4.27-3.1-7.97-7.4-8.17l-8.18-.39c-3.77-.24-6.98,2.69-7.22,6.46l-.05.9c-.39,7.45-5.81,10.21-12.04,6.15l-.76-.49c-3.2-2.01-7.45-1.13-9.47,2.07l-4.48,6.86c-2.36,3.6-1.3,8.47,2.28,10.79,6.27,4.04,5.95,10.11-.67,13.5-3.84,1.96-5.34,6.7-3.4,10.51l3.29,6.44c1.94,3.81,6.66,5.36,10.51,3.4,6.62-3.39,11.73-.08,11.33,7.36-.22,4.27,3.1,7.97,7.4,8.17l8.18.39c3.77.24,6.98-2.69,7.22-6.46l.05-.9c.39-7.45,5.81-10.21,12.04-6.15l.76.49c3.2,2.01,7.45,1.13,9.47-2.07l4.48-6.86c2.36-3.6,1.32-8.43-2.28-10.79-6.27-4.04-5.95-10.11.67-13.5,3.84-1.96,5.34-6.7,3.4-10.51l-3.29-6.44c-1.96-3.84-6.7-5.34-10.51-3.4Zm-17.47,39.06c-7.57,3.87-16.87.86-20.74-6.71-3.87-7.57-.86-16.87,6.71-20.74,7.57-3.87,16.87-.86,20.74,6.71,3.87,7.57.86,16.87-6.71,20.74Z"/><circle class="cls-4" cx="143.6" cy="25.39" r="4.62"/><path class="cls-5" d="m155.84,12.72c-3.31,1.69-5.86.04-5.67-3.68.11-2.13-1.55-3.98-3.7-4.08l-4.09-.19c-1.88-.12-3.49,1.34-3.61,3.23l-.02.45c-.2,3.72-2.9,5.11-6.02,3.08l-.38-.24c-1.6-1.01-3.73-.56-4.73,1.03l-2.24,3.43c-1.18,1.8-.65,4.23,1.14,5.39,3.13,2.02,2.98,5.06-.34,6.75-1.92.98-2.67,3.35-1.7,5.25l1.65,3.22c.97,1.9,3.33,2.68,5.25,1.7,3.31-1.69,5.86-.04,5.67,3.68-.11,2.13,1.55,3.98,3.7,4.08l4.09.19c1.88.12,3.49-1.34,3.61-3.23l.02-.45c.2-3.72,2.9-5.11,6.02-3.08l.38.24c1.6,1.01,3.73.56,4.73-1.03l2.24-3.43c1.18-1.8.66-4.21-1.14-5.39-3.13-2.02-2.98-5.06.34-6.75,1.92-.98,2.67-3.35,1.7-5.25l-1.65-3.22c-.98-1.92-3.35-2.67-5.25-1.7Zm-8.73,19.53c-3.78,1.93-8.43.43-10.37-3.35s-.43-8.43,3.35-10.37c3.78-1.93,8.43-.43,10.37,3.35s.43,8.43-3.35,10.37Z"/><path class="cls-2" d="m192.57,114.26c5.4,4.94,5.07,13.77-.13,18.96l-44.62,44.62c-3.17,3.17-7.48,4.96-11.97,4.96H56.98c-7.49,0-11.28,4.02-16.9,9.83-1.87,1.93-4.57,2.9-7.23,2.55-16.56-2.18-29.33-16.34-29.33-33.49v-17.62c0-2.24.89-4.39,2.47-5.97l13.68-13.68c3.17-3.17,7.48-4.96,11.97-4.96h23.98c13.81,0,12.84,12.67,26.69,12.67h30.99c6.63,0,12.67,5.36,12.67,12.67,0,6.93-5.53,12.67-12.67,12.67h-54.89c0,4.64,3.8,8.45,8.45,8.45h50.09c4.48,0,8.78-1.78,11.94-4.95l46.23-46.23c2.45-2.45,5.7-3.72,8.95-3.72,3.04,0,6.08,1.1,8.49,3.25Z"/></svg>