<?xml version="1.0" encoding="UTF-8"?><svg id="Layer_1" xmlns="http://www.w3.org/2000/svg" xmlns:xlink="http://www.w3.org/1999/xlink" viewBox="0 0 200 200"><defs><style>.cls-1{fill:url(#linear-gradient-12);}.cls-1,.cls-2,.cls-3,.cls-4,.cls-5,.cls-6,.cls-7,.cls-8,.cls-9,.cls-10,.cls-11,.cls-12,.cls-13,.cls-14,.cls-15,.cls-16,.cls-17{stroke-width:0px;}.cls-2{fill:url(#linear-gradient-17);}.cls-3{fill:url(#linear-gradient);}.cls-4{fill:url(#linear-gradient-6);}.cls-5{fill:url(#linear-gradient-15);}.cls-6{fill:url(#linear-gradient-11);}.cls-7{fill:url(#linear-gradient-5);}.cls-8{fill:url(#linear-gradient-13);}.cls-9{fill:url(#linear-gradient-16);}.cls-10{fill:url(#linear-gradient-14);}.cls-11{fill:url(#linear-gradient-2);}.cls-12{fill:url(#linear-gradient-7);}.cls-13{fill:url(#linear-gradient-3);}.cls-14{fill:url(#linear-gradient-9);}.cls-15{fill:url(#linear-gradient-8);}.cls-16{fill:url(#linear-gradient-10);}.cls-17{fill:url(#linear-gradient-4);}</style><linearGradient id="linear-gradient" x1="129.3" y1="56.89" x2="181.35" y2="56.89" gradientUnits="userSpaceOnUse"><stop offset="0" stop-color="#0e90a2"/><stop offset=".32" stop-color="#19a574"/><stop offset="1" stop-color="#90c43c"/></linearGradient><linearGradient id="linear-gradient-2" x1="82.72" y1="156.22" x2="101.29" y2="156.22" xlink:href="#linear-gradient"/><linearGradient id="linear-gradient-3" x1="82.72" y1="136.94" x2="101.29" y2="136.94" xlink:href="#linear-gradient"/><linearGradient id="linear-gradient-4" x1="90.89" y1="170.53" x2="105.7" y2="170.53" xlink:href="#linear-gradient"/><linearGradient id="linear-gradient-5" x1="90.89" y1="122.63" x2="105.7" y2="122.63" xlink:href="#linear-gradient"/><linearGradient id="linear-gradient-6" x1="106.61" y1="170.57" x2="119.8" y2="170.57" xlink:href="#linear-gradient"/><linearGradient id="linear-gradient-7" x1="106.61" y1="122.58" x2="119.8" y2="122.58" xlink:href="#linear-gradient"/><linearGradient id="linear-gradient-8" x1="104.6" y1="139.54" x2="121.87" y2="139.54" xlink:href="#linear-gradient"/><linearGradient id="linear-gradient-9" x1="104.57" y1="154.39" x2="121.84" y2="154.39" xlink:href="#linear-gradient"/><linearGradient id="linear-gradient-10" x1="120.7" y1="170.53" x2="135.52" y2="170.53" xlink:href="#linear-gradient"/><linearGradient id="linear-gradient-11" x1="120.7" y1="122.63" x2="135.52" y2="122.63" xlink:href="#linear-gradient"/><linearGradient id="linear-gradient-12" x1="125.11" y1="156.22" x2="143.69" y2="156.22" xlink:href="#linear-gradient"/><linearGradient id="linear-gradient-13" x1="125.11" y1="136.94" x2="143.69" y2="136.94" xlink:href="#linear-gradient"/><linearGradient id="linear-gradient-14" x1="51.17" y1="116.26" x2="181.32" y2="116.26" xlink:href="#linear-gradient"/><linearGradient id="linear-gradient-15" x1="34.92" y1="99.99" x2="120" y2="99.99" xlink:href="#linear-gradient"/><linearGradient id="linear-gradient-16" x1="18.65" y1="83.73" x2="100.11" y2="83.73" xlink:href="#linear-gradient"/><linearGradient id="linear-gradient-17" x1="100.11" y1="10.52" x2="100.13" y2="10.52" xlink:href="#linear-gradient"/></defs><path class="cls-3" d="m129.3,35.53c8.96,10.6,12.93,24.54,10.9,38.26,16.65-3.89,30.68-2.88,41.14,4.46-14.38-17.51-32.06-32.02-52.04-42.72Z"/><path class="cls-11" d="m101.29,160.57c-4.73.67-9.23,1.71-13.41,3.1-2.92-4.31-4.77-9.41-5.16-14.91h17.47c.11,4.06.46,8.02,1.1,11.81Z"/><path class="cls-13" d="m100.19,144.39h-17.47c.39-5.5,2.24-10.6,5.16-14.91,4.18,1.39,8.68,2.43,13.41,3.1-.64,3.79-.99,7.75-1.1,11.81Z"/><path class="cls-17" d="m102.14,164.87c.92,4,2.11,7.8,3.56,11.31-5.76-1.46-10.87-4.55-14.81-8.74,3.56-1.13,7.33-1.99,11.25-2.57Z"/><path class="cls-7" d="m102.14,128.28c-3.92-.58-7.69-1.44-11.25-2.57,3.94-4.2,9.05-7.29,14.81-8.74-1.45,3.51-2.64,7.31-3.56,11.31Z"/><path class="cls-4" d="m113.2,163.99c2.23,0,4.43.11,6.6.3-1.12,4.57-2.62,8.88-4.48,12.75-.7.05-1.4.1-2.12.1s-1.41-.05-2.12-.1c-1.86-3.87-3.36-8.18-4.47-12.75,2.17-.19,4.36-.3,6.59-.3Z"/><path class="cls-12" d="m111.73,129.14c-1.72-.03-3.43-.13-5.12-.28,1.11-4.57,2.61-8.88,4.47-12.75.71-.05,1.41-.11,2.12-.11s1.42.06,2.12.11c1.86,3.87,3.36,8.18,4.48,12.75-1.69.15-3.4.25-5.12.28-.49,0-.99.02-1.48.02s-.98-.01-1.47-.02Z"/><path class="cls-15" d="m121.87,145.17h-17.27c.12-3.84.47-7.63,1.12-11.26,2.24.2,4.51.32,6.82.33h.02c.47-.05.94-.05,1.41,0h.02c2.29-.02,4.54-.13,6.75-.33.66,3.63,1.01,7.42,1.13,11.26Z"/><path class="cls-14" d="m121.84,148.76c-.12,3.84-.47,7.62-1.13,11.26-2.46-.22-4.96-.35-7.51-.35s-5.05.13-7.51.35c-.65-3.64-1-7.42-1.12-11.26h17.27Z"/><path class="cls-16" d="m124.26,164.87c3.93.58,7.69,1.44,11.26,2.57-3.94,4.19-9.06,7.28-14.82,8.74,1.45-3.51,2.64-7.31,3.56-11.31Z"/><path class="cls-6" d="m124.26,128.28c-.92-4-2.11-7.8-3.56-11.31,5.76,1.45,10.88,4.54,14.82,8.74-3.57,1.13-7.33,1.99-11.26,2.57Z"/><path class="cls-1" d="m126.21,148.76h17.48c-.39,5.5-2.24,10.6-5.17,14.91-4.18-1.39-8.68-2.43-13.41-3.1.65-3.79.99-7.75,1.1-11.81Z"/><path class="cls-8" d="m125.11,132.58c4.73-.67,9.23-1.71,13.41-3.1,2.93,4.31,4.78,9.41,5.17,14.91h-17.48c-.11-4.06-.45-8.02-1.1-11.81Z"/><path class="cls-10" d="m122.59,91.86s12.38-56.96-27.13-56.96h-44.29v162.71h130.15v-86.46c0-27.79-34.28-25.35-58.73-19.29Zm-9.39,89.65c-19.29,0-34.93-15.64-34.93-34.94s15.64-34.93,34.93-34.93,34.94,15.64,34.94,34.93-15.64,34.94-34.94,34.94Z"/><polygon class="cls-5" points="108.13 18.64 34.92 18.64 34.92 181.34 43.06 181.34 43.06 26.79 120 26.79 108.13 18.64"/><polygon class="cls-9" points="87.92 2.39 18.65 2.39 18.65 165.07 26.8 165.07 26.8 10.52 100.11 10.52 87.92 2.39"/><polygon class="cls-2" points="100.11 10.52 100.12 10.53 100.13 10.52 100.11 10.52"/></svg>